<svg id="Layer_1" data-name="Layer 1" xmlns="http://www.w3.org/2000/svg" viewBox="0 0 595.28 596"><defs><style>.cls-1{fill:#fff;}</style></defs><title>CPTv1.2</title><polygon points="361.03 70.54 297.34 134.01 234.25 71.13 297.94 7.66 361.03 70.54"/><path class="cls-1" d="M306.6,78.77a2.17,2.17,0,0,1-2.17-2.17V71.8a2.17,2.17,0,0,1,4.35,0v4.8A2.17,2.17,0,0,1,306.6,78.77Z"/><path class="cls-1" d="M285.23,78.77a2.17,2.17,0,0,1-2.17-2.17V71.8a2.17,2.17,0,0,1,4.35,0v4.8A2.17,2.17,0,0,1,285.23,78.77Z"/><path class="cls-1" d="M295.54,97.79a8.49,8.49,0,0,1-6-2.44,1.3,1.3,0,1,1,1.83-1.85,5.93,5.93,0,0,0,8.29,0,1.3,1.3,0,1,1,1.83,1.85A8.5,8.5,0,0,1,295.54,97.79Z"/><path class="cls-1" d="M295.54,108.88h0c-3.64,0-7-2-9.56-5.51a1.3,1.3,0,0,1,2.13-1.5c2,2.85,4.66,4.41,7.43,4.41h0c2.77,0,5.41-1.57,7.44-4.41a1.3,1.3,0,0,1,2.13,1.5C302.58,106.92,299.18,108.88,295.54,108.88Z"/><path class="cls-1" d="M297.7,109.59h-3.56a24.59,24.59,0,0,1-15.27-5.91c-4.35-3.61-6.94-8-6.94-11.75V65.18a1.73,1.73,0,0,1,.1-.59c.18-.49,4.4-11.93,13.78-15a1.73,1.73,0,1,1,1.1,3.29c-7.07,2.35-10.85,11-11.51,12.67V91.93c0,2.65,2.23,6.22,5.69,9.09a21.06,21.06,0,0,0,13,5.11h3.56c7,0,18.74-8.07,18.74-14.2V65.58c-1.69-2.38-10.36-14.1-18.55-15.42a7.56,7.56,0,0,0-6.12,1.54A1.73,1.73,0,1,1,289.64,49a11,11,0,0,1,8.81-2.22c10.57,1.71,20.75,16.7,21.18,17.34a1.73,1.73,0,0,1,.29,1V91.93C319.91,100.69,305.66,109.59,297.7,109.59Z"/><path class="cls-1" d="M318.18,89.4a1.73,1.73,0,1,1,0-3.46c1.87,0,4.49-3.54,4.49-11.42,0-2.33-.49-3.42-.95-3.66s-1.85.21-2.55.7a1.75,1.75,0,0,1-2.42-.43,1.72,1.72,0,0,1,.42-2.41c.34-.24,3.45-2.33,6.14-.94,1.88,1,2.83,3.24,2.83,6.74C326.15,84.8,322.14,89.4,318.18,89.4Z"/><path class="cls-1" d="M273.66,89.4c-4,0-8-4.6-8-14.89,0-3.5,1-5.77,2.83-6.74,2.7-1.39,5.8.7,6.14.94a1.73,1.73,0,0,1-2,2.83c-.7-.48-2-1-2.55-.7s-.95,1.33-.95,3.66c0,7.88,2.63,11.42,4.49,11.42a1.73,1.73,0,1,1,0,3.46Z"/><path class="cls-1" d="M294.86,65.1l-.2,0c-3.81-.58-11.54-1-11.62-1a1.3,1.3,0,1,1,.15-2.59c.32,0,7.72.45,11.7,1,1.37-.14,10.22-1,13.07-1a1.3,1.3,0,1,1,0,2.6c-2.89,0-12.86,1-13,1Z"/><path class="cls-1" d="M295.12,60.71l-.2,0c-2.36-.36-7.17-.64-7.22-.64a1.3,1.3,0,1,1,.15-2.59c.2,0,4.77.28,7.29.64,1-.11,6.39-.65,8.16-.65a1.3,1.3,0,1,1,0,2.6c-1.78,0-8,.64-8.05.65Z"/><path class="cls-1" d="M270.39,70.79a1.74,1.74,0,0,1-1.73-1.64L268,56a1.73,1.73,0,0,1,0-.3c.06-.47,1.47-11.48,7.77-14.45s10.75.61,12.73,4.54a1.76,1.76,0,0,1-.38,2.13,1.67,1.67,0,0,1-2.07.13c-.25-.11-2-.8-5.36.68-3.67,1.6-7.35,4.92-6.78,17.39a1.73,1.73,0,0,1-1.66,1.81h-.17l.05,1a1.73,1.73,0,0,1-1.65,1.82Zm9.83-27.14a7,7,0,0,0-3,.74c-2.7,1.27-4.33,5.33-5.16,8.52a13.13,13.13,0,0,1,7.2-7.34,14.7,14.7,0,0,1,3.66-1.1A4.88,4.88,0,0,0,280.22,43.65ZM286,48h0Z"/><path class="cls-1" d="M321.07,70.29h-.15a1.73,1.73,0,0,1-1.58-1.88l1.31-15a43.82,43.82,0,0,0-5-10.12c-4.49-6.63-9.86-10-16-10-4.93,0-8.67,1.24-10.8,3.59a8,8,0,0,0-2,6.34,1.74,1.74,0,0,1-3.46.35,11.49,11.49,0,0,1,2.84-9c2-2.16,5.87-4.73,13.38-4.73,7.24,0,13.77,4,18.89,11.59a46.07,46.07,0,0,1,5.5,11.29,1.73,1.73,0,0,1,.07.65L322.8,68.71A1.74,1.74,0,0,1,321.07,70.29Z"/><path class="cls-1" d="M312.43,51.48a1.74,1.74,0,0,1-1.27-.55c-5.08-5.4-10.51-7.55-16.12-6.38a16.25,16.25,0,0,0-6.94,3.31,1.74,1.74,0,0,1-2.89-1.54c.82-5.46,4.15-9.1,9.61-10.51a21.49,21.49,0,0,1,7.72-.47,1.73,1.73,0,1,1-.51,3.43c-.41-.06-7.94-1.07-11.59,3.65a19.47,19.47,0,0,1,3.88-1.25c4.73-1,11.93-.49,19.37,7.4a1.73,1.73,0,0,1-1.27,2.92Z"/><path class="cls-1" d="M295.81,87.9c-2.25,0-3.88-1.33-4-3.31a1.3,1.3,0,0,1,2.6-.18c.06.92,1.34.9,1.6.88.8,0,1.69-.45,1.67-1C297.55,81.69,297,75,297,75a1.3,1.3,0,0,1,2.6-.21c0,.28.55,6.77.66,9.47.08,2-1.7,3.52-4.13,3.66Z"/><path class="cls-1" d="M310.91,104.1a1.3,1.3,0,0,1-1.3-1.3,14.12,14.12,0,0,0-28.25,0,1.3,1.3,0,0,1-2.61,0,16.73,16.73,0,0,1,33.46,0A1.3,1.3,0,0,1,310.91,104.1Z"/><polygon points="285.14 146.17 221.45 209.64 158.35 146.76 222.04 83.3 285.14 146.17"/><path class="cls-1" d="M223.06,172c-6,0-11.31-4.88-14-7.79-3.79-4.16-6.44-9-6.44-11.78V137.33a1.47,1.47,0,0,1,1.43-1.47,52.12,52.12,0,0,0,15-3.16c9.88-3.77,15.48-10,16.65-18.61a1.48,1.48,0,0,1,2.93.4,23.55,23.55,0,0,1-3.41,9.48l.06.05,7.71,7.54a1.47,1.47,0,0,1,.44,1.05v19.81c0,3.07-2.49,7.88-6.2,12C234.69,167.22,229.42,172,223.06,172Zm-17.44-33.27v13.7c0,1.76,2.12,5.9,5.67,9.8,4,4.34,8.24,6.83,11.77,6.83,3.81,0,8.19-2.41,12-6.62,3.53-3.89,5.44-8.06,5.44-10V133.22l-7-6.85a31.56,31.56,0,0,1-13.44,9.1A55.09,55.09,0,0,1,205.62,138.71Z"/><path class="cls-1" d="M232.14,147.75a1.84,1.84,0,0,1-1.85-1.84v-4.52a1.85,1.85,0,0,1,3.69,0v4.52A1.84,1.84,0,0,1,232.14,147.75Z"/><path class="cls-1" d="M214,147.75a1.84,1.84,0,0,1-1.85-1.84v-4.52a1.85,1.85,0,0,1,3.69,0v4.52A1.84,1.84,0,0,1,214,147.75Z"/><path class="cls-1" d="M223.06,162.13a8.8,8.8,0,0,1-6.06-2.37,1.11,1.11,0,1,1,1.52-1.6,6.69,6.69,0,0,0,9.07,0,1.11,1.11,0,1,1,1.52,1.6A8.81,8.81,0,0,1,223.06,162.13Z"/><path class="cls-1" d="M222.95,155.16h-.13c-2.56-.31-3.38-1.92-3.31-3.22A3.22,3.22,0,0,1,222,149v-3.14a1.11,1.11,0,0,1,2.22,0V150a1.11,1.11,0,0,1-1.11,1.1h-.45a1,1,0,0,0-.9.92c0,.66.94.84,1.36.89a1.1,1.1,0,0,1-.13,2.2Z"/><path class="cls-1" d="M242,150.45a1.47,1.47,0,1,1,0-2.94c2.2,0,4.57-2.16,4.57-6.91,0-.65-.1-1.49-.59-1.81-.73-.47-2.44-.07-3.37.35a1.47,1.47,0,0,1-1.24-2.67c.38-.18,3.8-1.68,6.19-.16.89.57,2,1.77,2,4.29a11.29,11.29,0,0,1-2.22,7.21A6.88,6.88,0,0,1,242,150.45Z"/><path class="cls-1" d="M197.64,176.36a1.47,1.47,0,0,1-1.48-1.47c0-6.7-1.15-9.4-2.26-12a21.19,21.19,0,0,1-2-9.61,19.27,19.27,0,0,1,3.48-11.64c1-1.63,1.76-2.8,1.76-4.51a1.46,1.46,0,0,1,.23-.79l-.23-.12c0-10,2.63-17.47,7.8-22.13,4.29-3.85,10.34-5.81,18-5.81a1.47,1.47,0,1,1,0,2.94c-15.38,0-22.85,8.17-22.85,25l-.23.12a1.46,1.46,0,0,1,.23.79v.59h0a11.31,11.31,0,0,1-2.19,5.5,16.51,16.51,0,0,0-3,10.08,18.25,18.25,0,0,0,1.8,8.46c1.17,2.74,2.49,5.85,2.49,13.15A1.47,1.47,0,0,1,197.64,176.36Z"/><path class="cls-1" d="M248.73,137.71l-1.48-.75-1.48.75v-.59a1.46,1.46,0,0,1,.23-.79l-.23-.12c0-16.82-7.48-25-22.85-25a1.47,1.47,0,1,1,0-2.94c7.66,0,13.72,2,18,5.81,5.18,4.65,7.8,12.1,7.8,22.13l-.23.12a1.46,1.46,0,0,1,.23.79Z"/><path class="cls-1" d="M203.82,176.36a1.47,1.47,0,0,1-1.48-1.47c0-7.47-1.16-10.65-2.18-13.45a22.94,22.94,0,0,1-1.73-9,13.84,13.84,0,0,1,3.86-9.35,1.47,1.47,0,0,1,2.05,2.12,11,11,0,0,0-3,7.24,20.22,20.22,0,0,0,1.55,8c1.11,3,2.36,6.47,2.36,14.46A1.47,1.47,0,0,1,203.82,176.36Z"/><path class="cls-1" d="M209.74,176.36a1.47,1.47,0,0,1-1.48-1.47c0-7.47-1.16-10.65-2.18-13.46-.2-.56-.41-1.13-.61-1.72a1.48,1.48,0,0,1,2.81-.92c.18.54.37,1.07.58,1.63,1.11,3,2.36,6.47,2.36,14.46A1.47,1.47,0,0,1,209.74,176.36Z"/><path class="cls-1" d="M247.45,176.36a1.47,1.47,0,0,1-1.48-1.47,18.08,18.08,0,0,0-1.49-6.58,18.82,18.82,0,0,1-1.53-6.74,14.43,14.43,0,0,1,1.14-5.32A29.27,29.27,0,0,0,246,144.72a1.48,1.48,0,0,1,3,0c0,6.84-1.14,10-2.06,12.52a11.59,11.59,0,0,0-1,4.32,16.28,16.28,0,0,0,1.35,5.73,21,21,0,0,1,1.68,7.6A1.47,1.47,0,0,1,247.45,176.36Z"/><path class="cls-1" d="M241.77,176.36a1.47,1.47,0,0,1-1.48-1.47,18.1,18.1,0,0,0-1.49-6.58,18.83,18.83,0,0,1-1.53-6.74c0-.38,0-.74.05-1.09a1.48,1.48,0,0,1,2.94.28c0,.25,0,.53,0,.81a16.29,16.29,0,0,0,1.35,5.73,21,21,0,0,1,1.67,7.6A1.47,1.47,0,0,1,241.77,176.36Z"/><path class="cls-1" d="M236,176.36a1.47,1.47,0,0,1-1.48-1.47,18.1,18.1,0,0,0-1.49-6.58c-.23-.63-.47-1.28-.69-1.95a1.48,1.48,0,0,1,2.81-.91c.2.61.42,1.21.65,1.84a21,21,0,0,1,1.67,7.59A1.47,1.47,0,0,1,236,176.36Z"/><path class="cls-1" d="M204.77,131.53a1.47,1.47,0,0,1-.16-2.93c12.94-1.46,20.46-5.84,24.49-9.26a20.16,20.16,0,0,0,5.68-7.09,1.48,1.48,0,0,1,2.77,1c-.06.16-1.53,4-6.35,8.14-4.35,3.74-12.43,8.54-26.25,10.1Z"/><path class="cls-1" d="M213.08,122A1.47,1.47,0,0,1,213,119a36.5,36.5,0,0,0,20.16-7.9,1.47,1.47,0,0,1,2,2.18A38.82,38.82,0,0,1,213.18,122Z"/><polygon points="208.65 222.4 144.96 285.86 81.87 222.99 145.56 159.52 208.65 222.4"/><path class="cls-1" d="M157.17,236.3a2.18,2.18,0,0,1-2.18-2.17v-5.5a2.18,2.18,0,0,1,4.36,0v5.5A2.18,2.18,0,0,1,157.17,236.3Z"/><path class="cls-1" d="M136.25,236.3a2.18,2.18,0,0,1-2.18-2.17v-5.5a2.18,2.18,0,0,1,4.36,0v5.5A2.18,2.18,0,0,1,136.25,236.3Z"/><path class="cls-1" d="M146.71,251.1a15.55,15.55,0,0,1-11.59-5.28,1.74,1.74,0,0,1,2.59-2.33,11.88,11.88,0,0,0,18,0,1.74,1.74,0,0,1,2.59,2.33A15.55,15.55,0,0,1,146.71,251.1Z"/><path class="cls-1" d="M148.46,263.66H145c-11,0-21.06-14-21.48-14.64a1.73,1.73,0,0,1-.32-1V222.74a1.74,1.74,0,0,1,3.49,0v24.71c1.71,2.27,10.05,12.73,18.31,12.73h3.49c9.6,0,16.91-10.5,18.31-12.66V220.08a1.74,1.74,0,0,1,3.49,0V248a1.73,1.73,0,0,1-.24.89C169.65,249.51,161.07,263.66,148.46,263.66Z"/><path class="cls-1" d="M168.51,243.9a1.74,1.74,0,1,1,0-3.48c2.41,0,5-2.38,5-7.62,0-.7-.11-1.61-.62-1.93-.79-.51-2.66-.06-3.67.4a1.74,1.74,0,0,1-1.46-3.16c.43-.2,4.3-1.9,7-.17,1,.65,2.23,2,2.23,4.86a12.69,12.69,0,0,1-2.5,8.11A7.77,7.77,0,0,1,168.51,243.9Z"/><path class="cls-1" d="M124.92,243.9c-3.78,0-7.85-3.47-7.85-11.09,0-3,1.23-4.34,2.26-5,2.56-1.56,6,.11,6.39.31a1.74,1.74,0,1,1-1.59,3.09c-.85-.43-2.36-.82-3-.44-.37.23-.58,1-.58,2,0,5,2.19,7.62,4.36,7.62a1.74,1.74,0,1,1,0,3.48Z"/><path class="cls-1" d="M131.92,256.13h-.19a1.3,1.3,0,0,1-1.11-1.47,37.61,37.61,0,0,1,2.05-7.93,1.31,1.31,0,0,1,2.4,1,35.64,35.64,0,0,0-1.87,7.27A1.31,1.31,0,0,1,131.92,256.13Z"/><path class="cls-1" d="M134.95,258.89h-.19a1.3,1.3,0,0,1-1.11-1.47,33,33,0,0,1,1.81-7,1.31,1.31,0,0,1,2.4,1,31,31,0,0,0-1.63,6.32A1.31,1.31,0,0,1,134.95,258.89Z"/><path class="cls-1" d="M161.51,256.13a1.31,1.31,0,0,1-1.29-1.12,35.63,35.63,0,0,0-1.87-7.27,1.31,1.31,0,0,1,2.4-1,37.61,37.61,0,0,1,2.05,7.93,1.3,1.3,0,0,1-1.11,1.47Z"/><path class="cls-1" d="M158.48,258.89a1.31,1.31,0,0,1-1.29-1.12,30.94,30.94,0,0,0-1.63-6.32,1.31,1.31,0,0,1,2.4-1,33,33,0,0,1,1.81,7,1.3,1.3,0,0,1-1.11,1.47Z"/><path class="cls-1" d="M148.6,241.8a1.3,1.3,0,0,1-1-2.12,8.16,8.16,0,0,0,.73-1.2,7.55,7.55,0,0,0-1.56-.31,1.31,1.31,0,0,1-1.2-1.2l-.29-3.77a1.31,1.31,0,0,1,2.61-.2l.21,2.72a4.09,4.09,0,0,1,2.79,1.5A1.88,1.88,0,0,1,151,239a11.16,11.16,0,0,1-1.34,2.31A1.31,1.31,0,0,1,148.6,241.8Zm.1-3.14h0Z"/><path class="cls-1" d="M126.95,227.3a1.74,1.74,0,0,1-1.42-.73c-1.48-2.06-2.36-5.16-1-7.44.61-1,2.19-2.69,5.9-2.25.58.07,1,.1,1.31.1l0-.09c-.47-1.55-1.35-4.42,1.13-7.25s5.34-2.11,8.78-1.42a32.24,32.24,0,0,0,9.19.83c7.43-.53,8.18-3.84,8.21-4v.05l3.46.47c0,.25-1,6.19-11.41,6.93a35.19,35.19,0,0,1-10.14-.89c-3.33-.67-4.49-.8-5.46.3-1.12,1.28-.91,2.34-.42,3.95.33,1.07.74,2.41-.21,3.53s-2.61,1.18-4.82.92c-.75-.09-2.08-.13-2.49.57s-.19,2.21.84,3.65a1.74,1.74,0,0,1-1.42,2.75Z"/><path class="cls-1" d="M177.44,224.84h0c-5.73-.13-10.74-3.44-14.49-9.56a35.56,35.56,0,0,1-3.87-9,1.74,1.74,0,0,1,3.38-.84h0c0,.16,4.06,15.66,15.06,15.92a1.74,1.74,0,0,1,0,3.47Z"/><path class="cls-1" d="M121.35,229.91a1.74,1.74,0,0,1-1.44-.76c-3.18-4.65-4.31-8.36-3.44-11.33,1-3.53,4.56-5,7.13-6.12.68-.29,1.33-.57,1.84-.84a7.78,7.78,0,0,0,.89-1.86c.89-2.29,2.24-5.74,6.4-7.49s8.06-.71,12.25.37a45.76,45.76,0,0,0,6.91,1.39c5.86.58,7.53-2.17,7.6-2.29l0,0,3.1,1.6c-.11.2-2.67,4.95-11,4.11a49.22,49.22,0,0,1-7.43-1.48c-3.92-1-7-1.8-10-.53-2.79,1.17-3.7,3.49-4.5,5.54-.59,1.52-1.15,2.95-2.47,3.65-.65.35-1.37.65-2.14,1-2.15.91-4.58,1.95-5.16,3.9s.48,4.76,3,8.4a1.74,1.74,0,0,1-1.44,2.72Z"/><path class="cls-1" d="M162,202.46a1.74,1.74,0,0,1-1.41-.72h0c-.09-.12-8.84-12-20.3-10.65-11.3,1.3-13.67,6.41-13.7,6.46a1.74,1.74,0,0,1-3.23-1.3c.12-.29,3-7.06,16.53-8.61S163,199.15,163.42,199.7a1.74,1.74,0,0,1-1.41,2.75Z"/><path class="cls-1" d="M118.44,233.67a1.74,1.74,0,0,1-1-.33c-6.26-4.48-7.61-9.33-7.92-16.73-.23-5.64,1.57-8.56,3.65-11.93.79-1.28,1.6-2.6,2.42-4.23a13.3,13.3,0,0,1,10.75-7.31,1.74,1.74,0,1,1,.16,3.47,9.79,9.79,0,0,0-7.79,5.4c-.89,1.77-1.78,3.22-2.57,4.5-2,3.24-3.32,5.38-3.13,10,.27,6.57,1.31,10.35,6.47,14a1.74,1.74,0,0,1-1,3.15Z"/><path class="cls-1" d="M175.55,233.17a1.74,1.74,0,0,1-1.39-2.79c5.06-6.65,4.86-13.33,2-16.48s-3.83-6.45-5-10.09c-.48-1.47-1-3-1.61-4.54a3.7,3.7,0,0,0-1.94-2.24,4.58,4.58,0,0,0-3.13.14,1.74,1.74,0,0,1-2.44-1.33c0-.19-.82-4.89-5-6.45s-9.25,1.73-9.3,1.76a1.74,1.74,0,0,1-2-2.86c.26-.18,6.49-4.4,12.5-2.15a11.52,11.52,0,0,1,6.72,7.3,7.28,7.28,0,0,1,3.89.36,7.05,7.05,0,0,1,3.91,4.19c.67,1.66,1.18,3.23,1.68,4.75,1.13,3.42,2.11,6.38,4.32,8.86a12.53,12.53,0,0,1,2.81,9.4,21.92,21.92,0,0,1-4.68,11.48A1.74,1.74,0,0,1,175.55,233.17Z"/><path class="cls-1" d="M179.62,223.54h-.17a1.74,1.74,0,0,1-1.57-1.89c.41-4.26-1.7-5.53-7.82-7-6.37-1.5-9.26-12.21-9.57-13.43a1.74,1.74,0,0,1,3.38-.85h0c.65,2.55,3.34,10,7,10.9,2.71.64,5.52,1.39,7.53,2.94,2.32,1.78,3.29,4.32,3,7.75A1.74,1.74,0,0,1,179.62,223.54Z"/><path class="cls-1" d="M129.93,234a1.3,1.3,0,0,1-.79-2.35l.38-.29-.7-.55a1.31,1.31,0,1,1,1.62-2l2,1.6a1.3,1.3,0,0,1,0,2.07l-1.74,1.3A1.31,1.31,0,0,1,129.93,234Z"/><path class="cls-1" d="M163.89,234a1.3,1.3,0,0,1-.81-.28l-2-1.6a1.3,1.3,0,0,1,0-2.07l1.74-1.3a1.3,1.3,0,1,1,1.57,2.09l-.38.29.7.55a1.3,1.3,0,0,1-.81,2.33Z"/><path class="cls-1" d="M142.89,224a1.3,1.3,0,0,1-.7-2.41,10.92,10.92,0,0,1,8.89-.62,1.3,1.3,0,1,1-.8,2.48,8.34,8.34,0,0,0-6.68.34A1.3,1.3,0,0,1,142.89,224Z"/><path class="cls-1" d="M140.22,221.06a1.3,1.3,0,0,1-.71-2.4c.23-.15,5.84-3.64,14.24-.94a1.3,1.3,0,1,1-.8,2.48c-7.17-2.3-11.84.54-12,.66A1.31,1.31,0,0,1,140.22,221.06Z"/><polygon points="132.46 298.32 68.77 361.79 5.68 298.91 69.37 235.44 132.46 298.32"/><path class="cls-1" d="M79.68,305.53a2.17,2.17,0,0,1-2.17-2.17v-5.62a2.17,2.17,0,0,1,4.35,0v5.62A2.17,2.17,0,0,1,79.68,305.53Z"/><path class="cls-1" d="M58.3,305.53a2.17,2.17,0,0,1-2.17-2.17v-5.62a2.17,2.17,0,0,1,4.35,0v5.62A2.17,2.17,0,0,1,58.3,305.53Z"/><path class="cls-1" d="M68.61,327a8.5,8.5,0,0,1-6-2.44,1.3,1.3,0,1,1,1.84-1.85,5.93,5.93,0,0,0,8.3,0,1.3,1.3,0,0,1,1.83,1.85A8.5,8.5,0,0,1,68.61,327Z"/><path class="cls-1" d="M70.77,338.83H67.21c-11.24,0-21.48-14.33-21.91-14.94a1.73,1.73,0,0,1-.32-1v-32a1.72,1.72,0,0,1,0-.4l3-12.35a1.74,1.74,0,0,1,3.38.81l-2.92,12.15v31.19c1.73,2.3,10.28,13,18.75,13h3.56c9.82,0,17.32-10.77,18.75-13V291c-.89-2.83-3.23-9.78-4.54-11.73a1.74,1.74,0,0,1,2.89-1.92c1.87,2.79,4.72,11.85,5,12.88a1.73,1.73,0,0,1,.08.51v32.11a1.73,1.73,0,0,1-.24.88C92.39,324.39,83.64,338.83,70.77,338.83Z"/><path class="cls-1" d="M91.26,318.63a1.73,1.73,0,1,1,0-3.47c1.87,0,4.5-3.55,4.5-11.43,0-2.33-.49-3.42-1-3.66s-1.85.21-2.55.7a1.75,1.75,0,0,1-2.42-.43,1.73,1.73,0,0,1,.42-2.41c.35-.24,3.45-2.33,6.15-.94,1.88,1,2.83,3.24,2.83,6.74C99.23,314,95.23,318.63,91.26,318.63Z"/><path class="cls-1" d="M46.72,318.63c-4,0-8-4.61-8-14.89,0-3.5,1-5.77,2.83-6.74,2.7-1.39,5.8.7,6.15.94a1.74,1.74,0,0,1-2,2.84c-.7-.48-2-1-2.55-.7s-1,1.33-1,3.66c0,7.88,2.63,11.43,4.5,11.43a1.73,1.73,0,1,1,0,3.47Z"/><path class="cls-1" d="M67.93,290.85l-.2,0c-3.81-.58-11.55-1-11.62-1a1.3,1.3,0,1,1,.15-2.6c.32,0,7.73.45,11.7,1,1.37-.14,10.22-1,13.07-1a1.3,1.3,0,1,1,0,2.6c-2.89,0-12.87,1-13,1Z"/><path class="cls-1" d="M68.53,323.59a39,39,0,0,1-9.64-1.18,1.3,1.3,0,0,1-1-1.38c0-.28.69-7,5.84-7.42a1.3,1.3,0,1,1,.23,2.59c-2.06.18-2.93,2.53-3.27,4a39.38,39.38,0,0,0,15.81,0c-.13-.64-.34-1.53-.65-2.56-.42-1.36-2.5-1.4-2.52-1.4a1.3,1.3,0,0,1,0-2.6c1.49,0,4.22.68,5,3.24A24.93,24.93,0,0,1,79.3,321a1.3,1.3,0,0,1-.94,1.39A38.73,38.73,0,0,1,68.53,323.59Z"/><path class="cls-1" d="M72.08,316.19H66.72A1.74,1.74,0,0,1,65,314.63l-.22-2.14a1.74,1.74,0,0,1,3.46-.36l.06.59h1.94a46.27,46.27,0,0,0-2-9.69,1.74,1.74,0,0,1,3.29-1.12,47.83,47.83,0,0,1,2.27,12.49,1.74,1.74,0,0,1-1.74,1.79Z"/><path class="cls-1" d="M71.84,322.82a1.3,1.3,0,0,1-1.29-1.11l-.44-3a1.3,1.3,0,0,1,2.58-.38l.44,3a1.3,1.3,0,0,1-1.1,1.48Z"/><path class="cls-1" d="M68.17,322.71a1.3,1.3,0,0,1-1.3-1.3v-2.33a1.3,1.3,0,0,1,2.61,0v2.33A1.3,1.3,0,0,1,68.17,322.71Z"/><path class="cls-1" d="M89.1,284.68a1.73,1.73,0,0,1-1.07-3.1L93.86,277c-.93-2.33-2.19-4.48-2.85-4.79a3.74,3.74,0,0,0-3.64,2.13,1.71,1.71,0,0,1-1.73,1.07,1.75,1.75,0,0,1-1.57-1.34,11.22,11.22,0,0,0-6.89-7.42c-7.53-2.59-18.74,1.81-22.38,4.8a31.2,31.2,0,0,1-8.15,4.29c5.9,1.88,13-.11,19.86-2.39,9.55-3.17,16.58,3.21,16.88,3.48A1.74,1.74,0,0,1,81,279.41a14.11,14.11,0,0,0-13.41-2.74c-9.14,3-18.71,5.55-26.48.23a1.73,1.73,0,0,1,.51-3.09c.07,0,7.49-2.16,11-5,4.39-3.6,16.75-8.49,25.72-5.4a14.19,14.19,0,0,1,7.95,6.92,7,7,0,0,1,5-1.54c1.69.1,3.19,1.55,4.71,4.55a32.32,32.32,0,0,1,1.58,3.72A1.73,1.73,0,0,1,97,279l-6.83,5.33A1.74,1.74,0,0,1,89.1,284.68ZM91,272.23Z"/><path class="cls-1" d="M43.45,300a1.74,1.74,0,0,1-1.74-1.66L41,281.73a1.73,1.73,0,0,1,.15-.78l2-4.41A1.74,1.74,0,0,1,46.37,278l-1.83,4,.65,16.21a1.74,1.74,0,0,1-1.67,1.8Z"/><path class="cls-1" d="M94.15,299.51H94a1.74,1.74,0,0,1-1.61-1.85l1.34-18.83a1.74,1.74,0,0,1,3.47.24L95.88,297.9A1.74,1.74,0,0,1,94.15,299.51Z"/><polygon points="589.6 298.32 525.91 361.79 462.82 298.91 526.51 235.44 589.6 298.32"/><path class="cls-1" d="M524.88,337.88h-4.08a1.76,1.76,0,0,1-.54-.08c-4.39-.58-8.95-4.17-13.58-10.68a71.21,71.21,0,0,1-6-10.31,1.74,1.74,0,0,1-.16-.73V296a1.76,1.76,0,0,1,3.51,0v19.67c2.61,5.52,10.36,18.69,17.53,18.69h3.35c5.06,0,9.54-5,12.4-9.21a57.88,57.88,0,0,0,5.13-9.44V295.88a1.76,1.76,0,0,1,3.51,0v20.19a1.74,1.74,0,0,1-.12.64C545.45,317.59,537.24,337.88,524.88,337.88Z"/><path class="cls-1" d="M533.26,309.63a1.91,1.91,0,0,1-1.92-1.91v-5a1.92,1.92,0,0,1,3.83,0v5A1.91,1.91,0,0,1,533.26,309.63Z"/><path class="cls-1" d="M513.14,309.63a1.91,1.91,0,0,1-1.92-1.91v-5a1.92,1.92,0,0,1,3.83,0v5A1.91,1.91,0,0,1,513.14,309.63Z"/><path class="cls-1" d="M523.2,325.74h0a8.6,8.6,0,0,1-6.93-3.88,1.32,1.32,0,0,1,2.13-1.54,5.52,5.52,0,0,0,9.61,0,1.32,1.32,0,0,1,2.13,1.54A8.6,8.6,0,0,1,523.2,325.74Z"/><path class="cls-1" d="M523.07,316.39h-.16c-2.9-.35-3.83-2.19-3.74-3.66a3.67,3.67,0,0,1,2.52-3.24c.08-.55.15-1.41.2-2.22v-2.55a1.32,1.32,0,0,1,2.63,0v2.58s0,0,0,.07,0,.88-.13,1.73c-.05.53-.11.95-.17,1.27-.26,1.31-1,1.58-1.51,1.58a1,1,0,0,0-.9.93c0,.65,1,.84,1.43.9a1.31,1.31,0,0,1-.15,2.62Z"/><path class="cls-1" d="M498.94,297.22a14.72,14.72,0,0,1-1.75-.09,1.75,1.75,0,1,1,.45-3.47,20.21,20.21,0,0,0,9-1.47c6.43-2.6,11-8.09,13.6-16.33a1.76,1.76,0,0,1,3.35,1c-3.67,11.66-10.62,16.55-15.81,18.6A24.52,24.52,0,0,1,498.94,297.22Z"/><path class="cls-1" d="M513.46,295.88a9.83,9.83,0,0,1-4-.78l1.51-3.16h0c.32.14,7.87,3.36,14.68-9.67a1.75,1.75,0,0,1,3.11,1.62c-3.46,6.62-7.69,10.55-12.56,11.68A12.06,12.06,0,0,1,513.46,295.88Z"/><path class="cls-1" d="M530.4,295.81a20,20,0,0,1-9.84-2.91,1.75,1.75,0,1,1,1.91-2.94h0c.05,0,5.24,3.31,10.37,2.07a17.17,17.17,0,0,0,12.53-12.63,1.76,1.76,0,0,1,3.45.66c-1.18,6.1-6.76,13.33-15.14,15.37A13.87,13.87,0,0,1,530.4,295.81Z"/><path class="cls-1" d="M544.16,298a1.75,1.75,0,0,1-1.72-1.41L541,289.27a1.76,1.76,0,0,1,3.44-.69l1.47,7.31a1.76,1.76,0,0,1-1.72,2.09Z"/><path class="cls-1" d="M544.11,314.24a1.75,1.75,0,1,1,0-3.5c3.19,0,6.63-3.14,6.63-10,0-1.47-.33-2.42-1-2.83-1.23-.78-3.84,0-4.91.48a1.75,1.75,0,0,1-1.49-3.17c.51-.24,5.09-2.29,8.28-.27,1.19.75,2.61,2.37,2.61,5.79a15.72,15.72,0,0,1-3,9.94A9.2,9.2,0,0,1,544.11,314.24Z"/><path class="cls-1" d="M502.19,314.24a9.2,9.2,0,0,1-7.14-3.61,15.72,15.72,0,0,1-3-9.94c0-3.42,1.42-5,2.61-5.79,3.19-2,7.76,0,8.28.27a1.75,1.75,0,1,1-1.49,3.17c-1.07-.5-3.68-1.26-4.91-.48-.65.41-1,1.37-1,2.83,0,6.9,3.44,10,6.63,10a1.75,1.75,0,1,1,0,3.5Z"/><path class="cls-1" d="M496.16,297.57a1.75,1.75,0,0,1-1.76-1.75v-14.3c0-4.26,3.52-11.09,10.24-15.9a27.52,27.52,0,0,1,11.62-4.83,31.33,31.33,0,0,1,14.86,1.32c2.11-.19,5.69.37,7.58,3.49a7.85,7.85,0,0,1,4.67,1.42,6.44,6.44,0,0,1,2.42,4.06,15.53,15.53,0,0,1,4.09,10.84v12.73a1.76,1.76,0,0,1-3.51,0V281.91a11.65,11.65,0,0,0-3.37-8.66,1.72,1.72,0,0,1-.61-1.13,3.16,3.16,0,0,0-1.13-2.3,5,5,0,0,0-3.35-.68A1.75,1.75,0,0,1,536,268c-1.12-2.87-4.43-2.48-4.81-2.43a1.72,1.72,0,0,1-.82-.07c-11-3.71-19-.46-23.7,2.92-6.06,4.34-8.78,10.25-8.78,13.06v14.3A1.75,1.75,0,0,1,496.16,297.57Z"/><path class="cls-1" d="M547.81,316.83a1.31,1.31,0,0,1-1.32-1.31v-7.8a1.32,1.32,0,0,1,2.63,0v7.8A1.31,1.31,0,0,1,547.81,316.83Z"/><path class="cls-1" d="M498.58,322.52a1.32,1.32,0,0,1-1.32-1.32l0-5.68v-7.79a1.32,1.32,0,0,1,2.63,0v10.91l1.85-1.33a1.31,1.31,0,1,1,1.54,2.13l-4,2.84A1.32,1.32,0,0,1,498.58,322.52Z"/><path class="cls-1" d="M547.79,330a9.71,9.71,0,0,1-5.21-1.44,9.55,9.55,0,0,1-3.46-3.72,1.75,1.75,0,0,1,3.17-1.5c.24.49,2.27,4.2,7.7,2.88-1.74-2.23-3.8-6.38-3.8-13.5a1.76,1.76,0,0,1,3.51,0c0,9.66,4.09,12.5,4.41,12.71A1.71,1.71,0,0,1,555,327a1.75,1.75,0,0,1-1.06,1.52A15,15,0,0,1,547.79,330Z"/><polygon points="513.71 373.95 450.02 437.42 386.93 374.54 450.62 311.07 513.71 373.95"/><polygon points="361.03 526.1 297.34 589.57 234.25 526.69 297.94 463.22 361.03 526.1"/><path class="cls-1" d="M297.53,557.55c-7.45,0-13.09-2-16.76-5.83-3.34-3.52-5-8.62-5-15.14V521.88a1.71,1.71,0,0,1,.12-.64c.17-.42,4.29-10.28,20.86-15.59a1.72,1.72,0,0,1,1.73.41s3.88,3.68,12.16,6.22a1.71,1.71,0,1,1-1,3.28,38.26,38.26,0,0,1-12.74-6.34,36.12,36.12,0,0,0-14.12,8.33,19.09,19.09,0,0,0-3.56,4.71v14.32c0,5.62,1.38,9.92,4.09,12.79,3,3.16,7.79,4.76,14.26,4.76s11.27-1.6,14.26-4.76c2.72-2.87,4.09-7.17,4.09-12.79V521.88a1.72,1.72,0,0,1,3.44,0v14.69c0,6.52-1.69,11.62-5,15.14C310.62,555.59,305,557.55,297.53,557.55Z"/><path class="cls-1" d="M325.5,551.31a15.82,15.82,0,0,1-10.23-3.66,1.72,1.72,0,1,1,2.22-2.62,12.87,12.87,0,0,0,13.67,1.6c4.76-2.2,7.49-6.67,7.49-12.28,0-7.27-5.18-11.7-11.17-16.84-4.7-4-9.57-8.2-12.64-14.28-6-11.87-17-7-17.45-6.76a1.73,1.73,0,0,1-1.62-.09c-2.52-1.52-5.58-1.66-8.84-.4-3.57,1.38-7,4.27-10,8.38-1.63,2.25-3.5,4.4-5.31,6.49-5.77,6.65-11.21,12.93-11.21,23.26,0,5.27,1.85,9.25,5.36,11.49,3.74,2.39,9.09,2.6,13.63.52a1.72,1.72,0,1,1,1.44,3.12c-5.57,2.55-12.21,2.25-16.92-.75-3.17-2-6.95-6.16-6.95-14.37,0-11.61,6.13-18.67,12.05-25.5,1.84-2.12,3.58-4.13,5.13-6.26,3.37-4.64,7.37-7.95,11.56-9.57a13.48,13.48,0,0,1,11.09.23,19.12,19.12,0,0,1,7.25-1.14c4.17.19,10,2,13.88,9.8,2.76,5.47,7.36,9.41,11.81,13.22,6.36,5.45,12.37,10.6,12.37,19.44,0,6.89-3.55,12.65-9.49,15.39A17,17,0,0,1,325.5,551.31Z"/><path class="cls-1" d="M322,523.78a1.73,1.73,0,0,1-.43-.05c-8-2-11.76-7-13.48-10.74a19.67,19.67,0,0,1-1.81-7.81,1.72,1.72,0,0,1,3.44.06,16.54,16.54,0,0,0,1.56,6.45c2.07,4.42,5.82,7.36,11.15,8.71a1.71,1.71,0,0,1-.42,3.38Z"/><path class="cls-1" d="M308.61,533.51a1.87,1.87,0,0,1-1.88-1.87v-5.43a1.88,1.88,0,0,1,3.76,0v5.43A1.87,1.87,0,0,1,308.61,533.51Z"/><path class="cls-1" d="M286.82,533.51a1.87,1.87,0,0,1-1.88-1.87v-5.43a1.88,1.88,0,0,1,3.76,0v5.43A1.87,1.87,0,0,1,286.82,533.51Z"/><path class="cls-1" d="M297.71,547.83A9.6,9.6,0,0,1,290,543.5a1.72,1.72,0,0,1,2.78-2,5.68,5.68,0,0,0,9.92,0,1.72,1.72,0,0,1,2.78,2A9.6,9.6,0,0,1,297.71,547.83Z"/><path class="cls-1" d="M297.83,539.71a1.29,1.29,0,0,1-.14-2.56c2.64-.3,3.34-1.05,3.39-1.25a.1.1,0,0,0-.07,0h-3.29a1.29,1.29,0,0,1-1.29-1.29v-5.13a1.29,1.29,0,0,1,2.58,0v3.84h2a2.63,2.63,0,0,1,2.65,2.45c0,.77-.24,3.35-5.68,4Z"/><path class="cls-1" d="M269.64,537.3a1.73,1.73,0,0,1-.34,0,1.71,1.71,0,0,1-1.35-2c1.37-6.82,7.47-13.54,7.73-13.82a1.72,1.72,0,0,1,2.54,2.31h0c-.06.06-5.72,6.31-6.89,12.18A1.72,1.72,0,0,1,269.64,537.3Z"/><path class="cls-1" d="M310.49,520.69a16,16,0,0,1-10.63-3.44,14.38,14.38,0,0,1-4.84-9.08,1.72,1.72,0,0,1,3.43-.29c0,.43,1.11,10.41,14,9.3a1.71,1.71,0,1,1,.3,3.42Q311.61,520.69,310.49,520.69Z"/><path class="cls-1" d="M294.44,520.74a1.72,1.72,0,0,1-1.56-1c-3.2-6.71,1.68-11.85,1.89-12.07a1.72,1.72,0,0,1,2.48,2.38,7.53,7.53,0,0,0-1.26,8.22,1.72,1.72,0,0,1-1.55,2.45Z"/><polygon points="437.22 450.17 373.53 513.64 310.44 450.77 374.13 387.3 437.22 450.17"/><path class="cls-1" d="M376.59,477.08c-6,0-11.31-4.88-14-7.79-3.79-4.16-6.44-9-6.44-11.78V442.43a1.47,1.47,0,0,1,1.43-1.47,52.12,52.12,0,0,0,15-3.16c9.88-3.77,15.48-10,16.65-18.61a1.48,1.48,0,0,1,2.93.4,23.55,23.55,0,0,1-3.41,9.48l.06.05,7.71,7.54a1.47,1.47,0,0,1,.44,1.05v19.81c0,3.07-2.49,7.88-6.2,12C388.21,472.32,382.95,477.08,376.59,477.08Zm-17.44-33.27v13.7c0,1.76,2.12,5.9,5.67,9.8,4,4.34,8.24,6.83,11.77,6.83,3.81,0,8.19-2.41,12-6.62,3.53-3.89,5.44-8.06,5.44-10V438.32l-7-6.85a31.56,31.56,0,0,1-13.44,9.1A55.09,55.09,0,0,1,359.15,443.81Z"/><path class="cls-1" d="M385.67,452.85a1.84,1.84,0,0,1-1.85-1.84v-4.52a1.85,1.85,0,0,1,3.69,0V451A1.84,1.84,0,0,1,385.67,452.85Z"/><path class="cls-1" d="M367.51,452.85a1.84,1.84,0,0,1-1.85-1.84v-4.52a1.85,1.85,0,0,1,3.69,0V451A1.84,1.84,0,0,1,367.51,452.85Z"/><path class="cls-1" d="M376.59,467.24a8.8,8.8,0,0,1-6.06-2.37,1.11,1.11,0,1,1,1.52-1.6,6.69,6.69,0,0,0,9.07,0,1.11,1.11,0,1,1,1.52,1.6A8.81,8.81,0,0,1,376.59,467.24Z"/><path class="cls-1" d="M376.47,460.27h-.13C373.77,460,373,458.34,373,457a3.22,3.22,0,0,1,2.45-2.92V451a1.11,1.11,0,0,1,2.22,0v4.17a1.11,1.11,0,0,1-1.11,1.1h-.45a1,1,0,0,0-.9.92c0,.66.94.84,1.36.89a1.1,1.1,0,0,1-.13,2.2Z"/><path class="cls-1" d="M395.57,455.55a1.47,1.47,0,1,1,0-2.94c2.2,0,4.57-2.16,4.57-6.91,0-.65-.1-1.49-.59-1.81-.73-.47-2.44-.07-3.37.35a1.47,1.47,0,0,1-1.24-2.67c.38-.18,3.8-1.68,6.19-.16.89.57,2,1.77,2,4.29a11.29,11.29,0,0,1-2.22,7.21A6.88,6.88,0,0,1,395.57,455.55Z"/><path class="cls-1" d="M351.16,481.46a1.47,1.47,0,0,1-1.48-1.47c0-6.7-1.15-9.4-2.26-12a21.19,21.19,0,0,1-2-9.61,19.27,19.27,0,0,1,3.48-11.64c1-1.63,1.76-2.8,1.76-4.51a1.46,1.46,0,0,1,.23-.79l-.23-.12c0-10,2.63-17.47,7.8-22.13,4.29-3.85,10.34-5.81,18-5.81a1.47,1.47,0,1,1,0,2.94c-15.38,0-22.85,8.17-22.85,25l-.23.12a1.46,1.46,0,0,1,.23.79v.59h0a11.31,11.31,0,0,1-2.19,5.5,16.51,16.51,0,0,0-3,10.08,18.25,18.25,0,0,0,1.8,8.46c1.17,2.74,2.49,5.85,2.49,13.15A1.47,1.47,0,0,1,351.16,481.46Z"/><path class="cls-1" d="M402.25,442.81l-1.48-.75-1.48.75v-.59a1.46,1.46,0,0,1,.23-.79l-.23-.12c0-16.82-7.48-25-22.85-25a1.47,1.47,0,1,1,0-2.94c7.66,0,13.72,2,18,5.81,5.18,4.65,7.8,12.1,7.8,22.13l-.23.12a1.46,1.46,0,0,1,.23.79Z"/><path class="cls-1" d="M357.34,481.46a1.47,1.47,0,0,1-1.48-1.47c0-7.47-1.16-10.65-2.18-13.45a22.94,22.94,0,0,1-1.73-9,13.84,13.84,0,0,1,3.86-9.35,1.47,1.47,0,0,1,2.05,2.12,11,11,0,0,0-3,7.24,20.22,20.22,0,0,0,1.55,8c1.11,3,2.36,6.47,2.36,14.46A1.47,1.47,0,0,1,357.34,481.46Z"/><path class="cls-1" d="M363.27,481.46a1.47,1.47,0,0,1-1.48-1.47c0-7.47-1.16-10.65-2.18-13.46-.2-.56-.41-1.13-.61-1.72a1.48,1.48,0,0,1,2.81-.92c.18.54.37,1.07.58,1.63,1.11,3,2.36,6.47,2.36,14.46A1.47,1.47,0,0,1,363.27,481.46Z"/><path class="cls-1" d="M401,481.46A1.47,1.47,0,0,1,399.5,480a18.08,18.08,0,0,0-1.49-6.58,18.82,18.82,0,0,1-1.53-6.74,14.43,14.43,0,0,1,1.14-5.32,29.27,29.27,0,0,0,1.88-11.52,1.48,1.48,0,0,1,3,0c0,6.84-1.14,10-2.06,12.52a11.59,11.59,0,0,0-1,4.32,16.28,16.28,0,0,0,1.35,5.73,21,21,0,0,1,1.68,7.6A1.47,1.47,0,0,1,401,481.46Z"/><path class="cls-1" d="M395.3,481.46a1.47,1.47,0,0,1-1.48-1.47,18.1,18.1,0,0,0-1.49-6.58,18.83,18.83,0,0,1-1.53-6.74c0-.38,0-.74.05-1.09a1.48,1.48,0,0,1,2.94.28c0,.25,0,.53,0,.81a16.29,16.29,0,0,0,1.35,5.73,21,21,0,0,1,1.67,7.6A1.47,1.47,0,0,1,395.3,481.46Z"/><path class="cls-1" d="M389.53,481.46a1.47,1.47,0,0,1-1.48-1.47,18.1,18.1,0,0,0-1.49-6.58c-.23-.63-.47-1.28-.69-1.95a1.48,1.48,0,0,1,2.81-.91c.2.61.42,1.21.65,1.84A21,21,0,0,1,391,480,1.47,1.47,0,0,1,389.53,481.46Z"/><path class="cls-1" d="M358.29,436.63a1.47,1.47,0,0,1-.16-2.93c12.94-1.46,20.46-5.84,24.49-9.26a20.16,20.16,0,0,0,5.68-7.09,1.48,1.48,0,0,1,2.77,1c-.06.16-1.53,4-6.35,8.14-4.35,3.74-12.43,8.54-26.25,10.1Z"/><path class="cls-1" d="M366.6,427.07a1.47,1.47,0,0,1-.1-2.94,36.5,36.5,0,0,0,20.16-7.9,1.47,1.47,0,0,1,2,2.18,38.82,38.82,0,0,1-21.93,8.66Z"/><polygon points="436.63 145.88 372.94 209.34 309.84 146.47 373.53 83 436.63 145.88"/><path class="cls-1" d="M384.31,154.34a2.07,2.07,0,0,1-2-2.15v-5.77a2,2,0,1,1,3.93,0v5.77A2.07,2.07,0,0,1,384.31,154.34Z"/><path class="cls-1" d="M364.38,154.34a2.07,2.07,0,0,1-2-2.15v-5.77a2,2,0,1,1,3.93,0v5.77A2.07,2.07,0,0,1,364.38,154.34Z"/><path class="cls-1" d="M374.34,171.72h0a10.08,10.08,0,0,1-7.8-3.91,1.84,1.84,0,0,1,.11-2.43,1.48,1.48,0,0,1,2.22.12,6.79,6.79,0,0,0,10.95,0,1.48,1.48,0,0,1,2.22-.12,1.84,1.84,0,0,1,.11,2.43A10.08,10.08,0,0,1,374.34,171.72Z"/><path class="cls-1" d="M375.69,184.89h-3.32c-4.58,0-9.46-3.92-14.49-11.66a82.2,82.2,0,0,1-6-11.2,1.87,1.87,0,0,1-.15-.73V138.21a1.86,1.86,0,0,1,.2-.85l3.34-6.5a21.17,21.17,0,0,1,3.61-5.17c3.23-3.38,7.06-4.89,11.1-4.38,4.63.59,8.21,5.82,12,11.36,2.73,4,5.55,8.12,8.47,9.78,7.37,4.2,10.05,7.37,11.06,13,1.11,6.26-2,14.06-6.48,16a1.49,1.49,0,0,1-1.84-.54l-.63-.9C389,176.71,383.09,184.89,375.69,184.89Zm-20.85-24c2.64,6,10.49,20.53,17.53,20.53h3.32c9.35,0,16.56-18,17.53-20.49V148.22a43.29,43.29,0,0,0-4.24-2.7c-3.55-2-6.59-6.47-9.53-10.77-3.23-4.71-6.56-9.59-9.85-10-3.09-.39-5.95.75-8.5,3.38a17.82,17.82,0,0,0-3.06,4.34l0,.07-3.15,6.14Zm39.34,5.91.08.11.55.79c2.53-2.12,4.3-7.51,3.58-11.56a10.66,10.66,0,0,0-2-5V161.3a1.87,1.87,0,0,1-.11.63C396.15,162.2,395.44,164.15,394.19,166.82Z"/><path class="cls-1" d="M353.27,161.43c-3.56,0-7.38-3.61-7.38-11.53,0-2.47.71-4.2,2.11-5.13,2.4-1.61,5.63.12,6,.33a1.81,1.81,0,0,1,.68,2.32,1.51,1.51,0,0,1-2.11.75c-.8-.44-2.28-.89-2.93-.45s-.6,1.52-.6,2.19c0,5.31,2.13,8.08,4.24,8.08a1.73,1.73,0,0,1,0,3.45Z"/><path class="cls-1" d="M379.6,182.66a1.08,1.08,0,0,1-.37-.06,1.32,1.32,0,0,1-.75-1.63,34.51,34.51,0,0,0,.9-5.08,1.21,1.21,0,0,1,1.3-1.14,1.27,1.27,0,0,1,1,1.43,36.74,36.74,0,0,1-1,5.6A1.19,1.19,0,0,1,379.6,182.66Z"/><path class="cls-1" d="M368.46,182.73a1.19,1.19,0,0,1-1.12-.9,37.47,37.47,0,0,1-1-5.66,1.27,1.27,0,0,1,1-1.42,1.21,1.21,0,0,1,1.3,1.15,35.26,35.26,0,0,0,.9,5.15,1.32,1.32,0,0,1-.76,1.63A1.08,1.08,0,0,1,368.46,182.73Z"/><path class="cls-1" d="M358.27,151.94a1.14,1.14,0,0,1-.94-.52,1.38,1.38,0,0,1,.24-1.81l.43-.36-.73-.63a1.38,1.38,0,0,1-.2-1.82,1.11,1.11,0,0,1,1.65-.22l1.94,1.67a1.37,1.37,0,0,1,0,2.05L359,151.69A1.11,1.11,0,0,1,358.27,151.94Z"/><path class="cls-1" d="M390.39,151.94a1.11,1.11,0,0,1-.73-.28L387.72,150a1.37,1.37,0,0,1,0-2.05l1.66-1.37a1.11,1.11,0,0,1,1.65.26,1.38,1.38,0,0,1-.24,1.81l-.43.36.73.63a1.38,1.38,0,0,1,.2,1.82A1.14,1.14,0,0,1,390.39,151.94Z"/><path class="cls-1" d="M349.85,146.85a1.58,1.58,0,0,1-1.47-1.12c-.22-.64-5.31-15.82,1.53-21.77a1.48,1.48,0,0,1,2.21.28,1.84,1.84,0,0,1-.25,2.42c-4.19,3.65-1.81,14.13-.54,17.86a1.78,1.78,0,0,1-.92,2.22A1.45,1.45,0,0,1,349.85,146.85Z"/><path class="cls-1" d="M397.18,169.85a1.51,1.51,0,0,1-1.21-.62,1.84,1.84,0,0,1,.2-2.43,15.21,15.21,0,0,0,5.27-12.68c-.34-4.63-2.65-8.51-4.64-9.8a43.15,43.15,0,0,1-3.55-2.52,1.83,1.83,0,0,1-.35-2.41,1.48,1.48,0,0,1,2.19-.38,40.15,40.15,0,0,0,3.3,2.34c2.74,1.78,5.74,6.64,6.18,12.49a18.7,18.7,0,0,1-6.38,15.61A1.48,1.48,0,0,1,397.18,169.85Z"/><path class="cls-1" d="M389.6,137.61a1.51,1.51,0,0,1-1.16-.56c-1.15-1.38-2.34-3-3.73-5a1.84,1.84,0,0,1,.31-2.41,1.48,1.48,0,0,1,2.2.34c1.32,1.93,2.47,3.48,3.54,4.76a1.84,1.84,0,0,1-.1,2.44A1.49,1.49,0,0,1,389.6,137.61Z"/><path class="cls-1" d="M356.63,133.4a1.6,1.6,0,0,1-1.53-1.33,15.21,15.21,0,0,1,.29-6.52c.86-3.18,3.24-7.35,9.62-9.2A14,14,0,0,1,377,117.9c3.19,2.05,5.6,5.19,7.53,8a1.84,1.84,0,0,1-.31,2.41A1.48,1.48,0,0,1,382,128c-4.47-6.49-8.93-10.39-16.17-8.29-3.95,1.14-6.43,3.41-7.38,6.73a11.54,11.54,0,0,0-.28,4.89,1.74,1.74,0,0,1-1.18,2.06A1.45,1.45,0,0,1,356.63,133.4Z"/><path class="cls-1" d="M401.74,162.57a1.45,1.45,0,0,1-.71-.19,1.81,1.81,0,0,1-.69-2.32,20.07,20.07,0,0,0,1.14-15,19.15,19.15,0,0,0-5.26-8.37,1.84,1.84,0,0,1-.29-2.42,1.48,1.48,0,0,1,2.2-.32,22.49,22.49,0,0,1,6.31,10,24,24,0,0,1-1.3,17.7A1.56,1.56,0,0,1,401.74,162.57Z"/><path class="cls-1" d="M355.66,132.27a1.51,1.51,0,0,1-1.16-.56,13.64,13.64,0,0,1-2.91-9.31c.34-3.34,2.18-6.29,5.46-8.77a20.09,20.09,0,0,1,16-4.07,21.65,21.65,0,0,1,13.79,9.71,1.84,1.84,0,0,1-.35,2.41,1.48,1.48,0,0,1-2.19-.38c-6.16-9.29-16.86-11.32-25.45-4.83-2.5,1.89-3.89,4-4.12,6.32a10.1,10.1,0,0,0,2.1,6.59,1.84,1.84,0,0,1-.09,2.44A1.49,1.49,0,0,1,355.66,132.27Z"/><path class="cls-1" d="M404.24,152.54l-.28,0a1.72,1.72,0,0,1-1.27-2c1.73-10.49-.9-13.76-5.66-19.7a78.84,78.84,0,0,1-7.41-10.5c-3.18-5.5-6.78-11.73-17.77-11.73-17.11,0-18.12,15-18.15,15.68a1.63,1.63,0,0,1-1.66,1.62,1.67,1.67,0,0,1-1.48-1.81,22.59,22.59,0,0,1,3-9.51c2.56-4.31,7.8-9.44,18.26-9.44,5.56,0,10,1.42,13.54,4.35,3.22,2.65,5.25,6.16,6.88,9a75.94,75.94,0,0,0,7.11,10.07c4.87,6.07,8.39,10.46,6.4,22.59A1.62,1.62,0,0,1,404.24,152.54Z"/><path class="cls-1" d="M364.38,130.22a1.46,1.46,0,0,1-.69-.18,1.81,1.81,0,0,1-.72-2.31c.07-.15,1.67-3.68,5-4.9a7.47,7.47,0,0,1,6.41.78,1.81,1.81,0,0,1,.68,2.32,1.51,1.51,0,0,1-2.11.75,4.71,4.71,0,0,0-4-.59,6.62,6.62,0,0,0-3.19,3.16A1.56,1.56,0,0,1,364.38,130.22Z"/><path class="cls-1" d="M370.6,129.66a1.5,1.5,0,0,1-1.07-.47,1.85,1.85,0,0,1-.07-2.44,6.18,6.18,0,0,1,4.26-2.15h0a5,5,0,0,1,3.82,2.06,1.84,1.84,0,0,1-.11,2.43,1.48,1.48,0,0,1-2.22-.13,2.07,2.07,0,0,0-1.51-.92,3.15,3.15,0,0,0-2,1.07A1.5,1.5,0,0,1,370.6,129.66Z"/><path class="cls-1" d="M373.44,161.7a2.46,2.46,0,0,1-1.71-.71,3.74,3.74,0,0,1-1.05-2.72,2.74,2.74,0,0,1,.84-2.09,3.06,3.06,0,0,1,1.84-.75,22.58,22.58,0,0,0-1-7.22,1.33,1.33,0,0,1,.73-1.64,1.16,1.16,0,0,1,1.5.8c.07.23,1.76,5.72.86,9.69a1.18,1.18,0,0,1-1.34,1,1.74,1.74,0,0,0-1.11.13h0s0,0,0,.12a1.1,1.1,0,0,0,.24.77.23.23,0,0,0,.21.07,1.2,1.2,0,0,1,1.33,1.1,1.28,1.28,0,0,1-1,1.46Z"/><path class="cls-1" d="M364,168.74l-.25,0a1.3,1.3,0,0,1-.9-1.54,25,25,0,0,1,2.65-6.81,1.12,1.12,0,0,1,1.63-.39,1.37,1.37,0,0,1,.35,1.79h0a22.55,22.55,0,0,0-2.33,6A1.21,1.21,0,0,1,364,168.74Z"/><path class="cls-1" d="M384.72,168.74a1.21,1.21,0,0,1-1.15-1,22.51,22.51,0,0,0-2.33-5.95,1.37,1.37,0,0,1,.36-1.79,1.12,1.12,0,0,1,1.63.39,25,25,0,0,1,2.65,6.81,1.3,1.3,0,0,1-.91,1.53Z"/><path class="cls-1" d="M363.86,137.3a1.15,1.15,0,0,1-1-.53,1.37,1.37,0,0,1,.26-1.8c.27-.22,6.72-5.24,18.43-2.18a1.3,1.3,0,0,1,.87,1.56,1.18,1.18,0,0,1-1.42,1c-10.58-2.77-16.44,1.71-16.5,1.75A1.11,1.11,0,0,1,363.86,137.3Z"/><path class="cls-1" d="M367,140.27a1.17,1.17,0,0,1-1.05-.71,1.35,1.35,0,0,1,.51-1.74,18.28,18.28,0,0,1,15.29-.41,1.33,1.33,0,0,1,.68,1.67,1.15,1.15,0,0,1-1.52.74,16.38,16.38,0,0,0-13.37.3A1.09,1.09,0,0,1,367,140.27Z"/><path class="cls-1" d="M394.89,160.74a1.56,1.56,0,0,1-1.4-.93,1.81,1.81,0,0,1,.68-2.32A11.63,11.63,0,0,0,398,154a1.49,1.49,0,0,1,2.15-.59,1.82,1.82,0,0,1,.54,2.36c-1.43,2.62-4.72,4.54-5.09,4.75A1.45,1.45,0,0,1,394.89,160.74Z"/><polygon points="208.06 373.65 144.37 437.13 81.27 374.25 144.96 310.78 208.06 373.65"/><path class="cls-1" d="M152.93,413.87h-16.2a1.8,1.8,0,0,1-1.45-.73l-14.7-20a1.79,1.79,0,0,1-.35-1.06V371.36a1.8,1.8,0,0,1-1.63,1.09h0a1.8,1.8,0,0,1-1.8-1.77L116.56,355a1.79,1.79,0,0,1,.26-1l5.41-8.93a1.8,1.8,0,0,1,.28-.36C134,333.62,152.26,340.72,153,341c2.36.94,7.25.25,8.93-.09a1.8,1.8,0,0,1,2.16,1.76,20.29,20.29,0,0,1-3,10.24l8,12.36a1.79,1.79,0,0,1,.29,1v25.83a1.79,1.79,0,0,1-.35,1.06l-14.7,20A1.8,1.8,0,0,1,152.93,413.87Zm-15.29-3.59H152l13.81-18.78V366.79l-6.93-10.74A17.14,17.14,0,0,1,146,362.3a22.38,22.38,0,0,1-14-4.49l-8.18,8.41v25.28ZM120.17,355.5l.13,9.51a1.79,1.79,0,0,1,.44-.76l9.89-10.17a1.8,1.8,0,0,1,2.64.06c.16.18,4.26,4.58,12.76,4.58,7.39,0,13.28-7.06,14.33-13.89-2.42.31-6.14.54-8.66-.47a36.07,36.07,0,0,0-11.31-2.24c-6.33-.19-11.44,1.52-15.2,5.09Z"/><path class="cls-1" d="M170.92,372.45h-.06a1.8,1.8,0,0,1-1.74-1.85l.54-15.73-5.11-7.32-2.82-1.1a1.79,1.79,0,1,1,1.31-3.34l3.33,1.29a1.8,1.8,0,0,1,.82.65l5.76,8.26a1.79,1.79,0,0,1,.32,1.08l-.56,16.32A1.8,1.8,0,0,1,170.92,372.45Z"/><path class="cls-1" d="M156.54,382.86a1.8,1.8,0,0,1-1.8-1.79v-6a1.8,1.8,0,0,1,3.6,0v6A1.8,1.8,0,0,1,156.54,382.86Z"/><path class="cls-1" d="M132.31,382.86a1.8,1.8,0,0,1-1.8-1.79v-6a1.8,1.8,0,0,1,3.6,0v6A1.8,1.8,0,0,1,132.31,382.86Z"/><path class="cls-1" d="M144.77,400.25a9.58,9.58,0,0,1-6.8-2.81,1.8,1.8,0,1,1,2.55-2.54,6,6,0,0,0,8.52,0,1.8,1.8,0,0,1,2.55,2.54A9.57,9.57,0,0,1,144.77,400.25Z"/><path class="cls-1" d="M121.94,388.7a8.27,8.27,0,0,1-6.55-3.5,15.53,15.53,0,0,1-2.68-9.41c0-2.71.86-4.61,2.54-5.65,3-1.83,7,.11,7.5.34a1.8,1.8,0,1,1-1.6,3.21c-.88-.43-3-1.11-4-.5-.69.43-.83,1.65-.83,2.59,0,6.4,2.92,9.32,5.63,9.32a1.79,1.79,0,1,1,0,3.59Z"/><path class="cls-1" d="M167.65,388.7a1.79,1.79,0,1,1,0-3.59c2.71,0,5.63-2.92,5.63-9.32,0-.95-.14-2.17-.83-2.59-1-.62-3.13.07-4,.5a1.8,1.8,0,0,1-1.6-3.21c.46-.23,4.53-2.16,7.5-.34,1.69,1,2.54,2.94,2.54,5.65a15.53,15.53,0,0,1-2.68,9.41A8.27,8.27,0,0,1,167.65,388.7Z"/><path class="cls-1" d="M146.75,367.71A19.36,19.36,0,0,1,135.18,364c-3.21-2.41-5.06-5.56-5.06-8.65a1.8,1.8,0,0,1,3.6,0c0,4,5.81,8.8,13,8.8a1.79,1.79,0,1,1,0,3.59Z"/><path class="cls-1" d="M146.34,390.49h-3.06a1.35,1.35,0,0,1-1.22-.77l-1.35-2.83a1.35,1.35,0,0,1,2.44-1.16l1,2.06H145V375.26a1.35,1.35,0,0,1,2.7,0v13.89A1.35,1.35,0,0,1,146.34,390.49Z"/><polygon points="284.25 297.73 220.56 361.2 157.46 298.32 221.15 234.85 284.25 297.73"/><path class="cls-1" d="M244.61,316a28.19,28.19,0,0,1-20.29,7.9c-19.83,0-28.22-13.6-28.29-27.44s9-28,28.29-28a27.59,27.59,0,0,1,19.6,8.13l-6.71,6.46a18.38,18.38,0,0,0-12.89-5c-12.89,0-18.46,9.58-18.38,18.47s5.19,18,18.38,18a19.69,19.69,0,0,0,13.42-5.4Z"/><polygon points="360.74 221.5 297.05 284.98 233.95 222.1 297.64 158.63 360.74 221.5"/><path class="cls-1" d="M306.38,234.85h-15.1V250.5H281.21V197.3c8.39,0,16.78-.08,25.17-.08C332.46,197.23,332.54,234.85,306.38,234.85Zm-15.1-9.2h15.1c12.89,0,12.81-18.85,0-18.85h-15.1Z"/><polygon points="513.41 222.39 449.72 285.86 386.63 222.99 450.32 159.52 513.41 222.39"/><path class="cls-1" d="M451.6,264.46c-4.38,0-10.55-3.24-15.7-8.26-5.8-5.65-9.13-12.37-9.13-18.42V217.09a1.7,1.7,0,0,1,.33-1l6.35-8.58a1.71,1.71,0,0,1,1.69-.67c8,1.46,29.84,3.6,35.3-3.91a1.71,1.71,0,0,1,2.77,2,11.56,11.56,0,0,1-2.85,2.72l5.79,8.49a1.7,1.7,0,0,1,.3,1v20.69C476.44,251.28,460.72,264.46,451.6,264.46Zm-21.41-46.81v20.13c0,5.14,3,11,8.1,16,4.41,4.29,9.88,7.29,13.31,7.29s9-2.93,13.41-7.29c5.09-5,8-10.82,8-16V217.61l-5.7-8.35c-4.06,1.7-9.66,2.51-16.76,2.41a108.15,108.15,0,0,1-15-1.32Z"/><path class="cls-1" d="M462.79,231.18a1.71,1.71,0,0,1-1.71-1.7V225a1.71,1.71,0,0,1,3.42,0v4.45A1.71,1.71,0,0,1,462.79,231.18Z"/><path class="cls-1" d="M440.2,231.18a1.71,1.71,0,0,1-1.71-1.7V225a1.71,1.71,0,0,1,3.42,0v4.45A1.71,1.71,0,0,1,440.2,231.18Z"/><path class="cls-1" d="M451.93,252.77a11,11,0,0,1-7.77-3.2,1.71,1.71,0,1,1,2.42-2.41,7.6,7.6,0,0,0,10.7,0,1.71,1.71,0,0,1,2.42,2.41A11,11,0,0,1,451.93,252.77Z"/><path class="cls-1" d="M428.39,238.64c-1.21,0-3.49-.54-5.19-4.14a24.6,24.6,0,0,1-1.82-10.2c0-3.57.89-5.73,2.71-6.6,2.44-1.17,5.07.83,5.36,1.06a1.71,1.71,0,0,1-2.13,2.67c-.54-.42-1.45-.8-1.75-.66s-.77.94-.77,3.53c0,7.72,2.33,10.93,3.58,10.93a1.7,1.7,0,1,1,0,3.41Z"/><path class="cls-1" d="M474.76,238.64a1.7,1.7,0,1,1,0-3.41c.45,0,1.24-.57,2-2.16s1.45-4.14,1.45-8.77c0-2.6-.55-3.45-.74-3.54s-1.06.23-1.59.65a1.71,1.71,0,1,1-2.17-2.64c.28-.23,2.82-2.23,5.22-1.1,2.7,1.27,2.7,5.3,2.7,6.63C481.6,234.88,477.92,238.64,474.76,238.64Z"/><path class="cls-1" d="M477.33,220.56a1.71,1.71,0,0,1-1.71-1.7V208.59a10.63,10.63,0,0,0-.52-3.76c-3.27-8.72-16.15-15.14-19.92-16.87-2,1.74-4.93,2.58-8.23,3.52-3.91,1.12-8.34,2.38-12.8,5.42-4.29,2.93-6.47,6.86-6.47,11.69v10.27a1.71,1.71,0,0,1-3.42,0V208.59c0-5.94,2.75-11,8-14.5,4.92-3.35,9.83-4.75,13.78-5.88,3.44-1,6.15-1.76,7.46-3.36a1.71,1.71,0,0,1,2-.5c.75.31,18.52,7.69,22.86,19.29a13.77,13.77,0,0,1,.73,5v10.27A1.71,1.71,0,0,1,477.33,220.56Z"/><path class="cls-1" d="M439.5,252.31a1.5,1.5,0,0,1-.9-.3c-5.45-4.11-11-13.46-11.28-13.86a1.5,1.5,0,0,1,2.58-1.52c0,.08,4.37,7.3,8.82,11.55a20.45,20.45,0,0,1,2.2-5.24c1.33-1.65,4.79-2,10.32-2a1.49,1.49,0,1,1,0,3,52.87,52.87,0,0,0-5.32.2c-2.22.24-2.65.65-2.67.66a31.39,31.39,0,0,0-2.29,6.4,1.5,1.5,0,0,1-1.44,1.1Z"/><path class="cls-1" d="M463.65,252.31a1.5,1.5,0,0,1-1.44-1.1,31.11,31.11,0,0,0-2.3-6.41s-.44-.41-2.66-.65a52.88,52.88,0,0,0-5.32-.2,1.49,1.49,0,1,1,0-3c5.53,0,9,.32,10.31,2a20.45,20.45,0,0,1,2.2,5.24c4.45-4.25,8.77-11.47,8.82-11.55a1.5,1.5,0,0,1,2.58,1.52c-.24.4-5.83,9.75-11.28,13.86A1.5,1.5,0,0,1,463.65,252.31Z"/><path class="cls-1" d="M454.38,239.47h-4.73a1.7,1.7,0,1,1,0-3.41h3c-.18-3.48-.8-9.39-2.46-11.91a1.71,1.71,0,0,1,2.86-1.86c2.88,4.39,3.06,14.34,3.07,15.46a1.71,1.71,0,0,1-1.71,1.72Z"/><path class="cls-1" d="M439.94,236.28c-6.48,0-10.35-4.55-10.35-12.18,0-1.64,1.11-3.17,3.05-4.19a15.91,15.91,0,0,1,7.29-1.48c9.1,0,10.08,4,10.08,5.67a13.73,13.73,0,0,1-2.7,8.87A9.24,9.24,0,0,1,439.94,236.28Zm0-14.45c-4.86,0-6.92,1.62-6.92,2.26,0,4,1.2,8.77,6.92,8.77,4.23,0,6.66-3.2,6.66-8.77C446.59,222.75,443.92,221.84,439.94,221.84Z"/><path class="cls-1" d="M463.15,236.28c-6.48,0-10.35-4.55-10.35-12.18,0-1.64,1.11-3.17,3.05-4.19a15.92,15.92,0,0,1,7.29-1.48c9.09,0,10.08,4,10.08,5.67a13.73,13.73,0,0,1-2.7,8.87A9.24,9.24,0,0,1,463.15,236.28Zm0-14.45c-5.19,0-6.93,1.78-6.93,2.26,0,4,1.2,8.77,6.93,8.77,4.23,0,6.66-3.2,6.66-8.77C469.8,222.75,467.13,221.84,463.15,221.84Z"/><path class="cls-1" d="M454.52,224.93a1.71,1.71,0,0,1-1.21-.5,2.67,2.67,0,0,0-1.9-.78h0a2.67,2.67,0,0,0-1.9.78,1.71,1.71,0,0,1-2.42-2.41,6.07,6.07,0,0,1,4.32-1.78h0a6.07,6.07,0,0,1,4.32,1.79,1.7,1.7,0,0,1-1.21,2.91Z"/><path class="cls-1" d="M431.3,225.81h-1.73a1.71,1.71,0,0,1-1.48-.85L425.25,220a1.71,1.71,0,0,1,3-1.7l2.35,4.06h.74a1.7,1.7,0,1,1,0,3.41Z"/><path class="cls-1" d="M473.41,225.81h-1.89a1.7,1.7,0,1,1,0-3.41h.9l2.35-4.06a1.71,1.71,0,0,1,3,1.7L474.89,225A1.71,1.71,0,0,1,473.41,225.81Z"/><polygon points="284.84 450.17 221.15 513.64 158.06 450.77 221.75 387.3 284.84 450.17"/><path class="cls-1" d="M231.54,461.07a1.83,1.83,0,0,1-1.84-1.83V453a1.84,1.84,0,0,1,3.67,0v6.19A1.83,1.83,0,0,1,231.54,461.07Z"/><path class="cls-1" d="M207,461.07a1.83,1.83,0,0,1-1.84-1.83V453a1.84,1.84,0,0,1,3.67,0v6.19A1.83,1.83,0,0,1,207,461.07Z"/><path class="cls-1" d="M219.29,478.34a11,11,0,0,1-7.82-3.22,1.83,1.83,0,1,1,2.6-2.59,7.41,7.41,0,0,0,10.44,0,1.83,1.83,0,0,1,2.6,2.59A11,11,0,0,1,219.29,478.34Z"/><path class="cls-1" d="M227.06,492.09H211.58a1.84,1.84,0,0,1-1.51-.79l-16-23a1.82,1.82,0,0,1-.33-1V446.51a1.83,1.83,0,0,1,.54-1.29l3-3v-2.5a1.83,1.83,0,0,1,1.36-1.77l13.66-3.65a1.83,1.83,0,1,1,1,3.53L201,441.12V443a1.83,1.83,0,0,1-.54,1.29l-3,3V466.7l15.09,21.73H226.1l15.09-21.73V448.07L238,444.92a1.83,1.83,0,0,1-.54-1.29v-1.9l-9.9-3.13a1.83,1.83,0,1,1,1.11-3.49l11.18,3.53a1.83,1.83,0,0,1,1.28,1.74v2.48l3.16,3.15a1.83,1.83,0,0,1,.54,1.29v20a1.82,1.82,0,0,1-.33,1l-16,23A1.84,1.84,0,0,1,227.06,492.09Z"/><path class="cls-1" d="M195.53,467.26c-4.27,0-8.87-3.86-8.87-12.34,0-3.25,1.34-4.76,2.47-5.46,2.86-1.76,6.78.1,7.22.32a1.83,1.83,0,1,1-1.64,3.27c-1-.49-2.85-1-3.65-.48-.63.39-.73,1.64-.73,2.34,0,5.7,2.61,8.69,5.2,8.69a1.83,1.83,0,1,1,0,3.66Z"/><path class="cls-1" d="M243.05,467.26a1.83,1.83,0,1,1,0-3.66c2.58,0,5.2-3,5.2-8.69,0-.71-.09-1.95-.73-2.34-.81-.5-2.66,0-3.66.48a1.83,1.83,0,0,1-1.64-3.27c.44-.22,4.36-2.08,7.22-.31,1.13.69,2.47,2.2,2.47,5.46a14.83,14.83,0,0,1-2.56,9A8,8,0,0,1,243.05,467.26Z"/><path class="cls-1" d="M245.28,452.46l-.27,0a1.83,1.83,0,0,1-1.55-2.07l1.77-12.12-5.77-14.85L233.67,417l-.87,1.06a1.84,1.84,0,0,1-2.3.45l-13-7-2.64,3.76a1.84,1.84,0,0,1-2.11.68l-2.53-.88-5.7,9.11a1.84,1.84,0,0,1-1.92.83l-2.6-.52-6.56,13.81,1.93,12a1.84,1.84,0,0,1-3.62.58l-2-12.55a1.82,1.82,0,0,1,.15-1.07l7.41-15.62a1.84,1.84,0,0,1,2-1l2.76.55,5.8-9.28a1.84,1.84,0,0,1,2.16-.76l2.61.9,2.78-4a1.84,1.84,0,0,1,2.38-.56l13.14,7.09,1.26-1.54A1.84,1.84,0,0,1,235,413l7.45,8.19a1.83,1.83,0,0,1,.35.57l6.07,15.62a1.82,1.82,0,0,1,.1.92l-1.84,12.6A1.83,1.83,0,0,1,245.28,452.46Z"/><path class="cls-1" d="M220.82,468.41h-3.06a1.83,1.83,0,0,1-1.84-1.83V456.15a1.84,1.84,0,0,1,3.67,0v8.61h1.23a1.83,1.83,0,1,1,0,3.66Z"/><path class="cls-1" d="M215.88,440a1.83,1.83,0,0,1-1-.32l-7.49-5.09a1.83,1.83,0,1,1,2.07-3l6.16,4.19,1.82-2a1.83,1.83,0,0,1,2.74,2.44l-2.89,3.22A1.84,1.84,0,0,1,215.88,440Z"/><path class="cls-1" d="M226.23,440.47a1.83,1.83,0,0,1-1-.32l-9.49-6.45a1.83,1.83,0,1,1,2.07-3l8.16,5.55,2.59-2.89a1.83,1.83,0,0,1,2.74,2.44l-3.67,4.08A1.84,1.84,0,0,1,226.23,440.47Z"/><path class="cls-1" d="M213.5,491.82a1.56,1.56,0,0,1-1.49-1.1l-2.21-7.13a1.56,1.56,0,0,1,3-.92L215,489.8a1.56,1.56,0,0,1-1.49,2Z"/><path class="cls-1" d="M216.39,491.82a1.56,1.56,0,0,1-1.55-1.41l-.68-7.13a1.56,1.56,0,0,1,3.11-.29l.68,7.13a1.56,1.56,0,0,1-1.4,1.7Z"/><path class="cls-1" d="M219.12,491.82l-.22,0a1.56,1.56,0,0,1-1.32-1.76l1-7.13a1.56,1.56,0,0,1,3.09.44l-1,7.13A1.56,1.56,0,0,1,219.12,491.82Z"/><path class="cls-1" d="M221.67,491.82a1.56,1.56,0,0,1-1.46-2.11l2.72-7.13a1.56,1.56,0,0,1,2.92,1.11l-2.72,7.13A1.56,1.56,0,0,1,221.67,491.82Z"/><path class="cls-1" d="M224.48,491.82a1.56,1.56,0,0,1-1.33-2.36l4.15-6.86a1.56,1.56,0,0,1,2.67,1.6l-4.15,6.86A1.56,1.56,0,0,1,224.48,491.82Z"/><polygon points="437.52 298.02 373.83 361.49 310.74 298.62 374.43 235.15 437.52 298.02"/><path class="cls-1" d="M369.56,279.28H352.63v-9.12h43.93v9.12H379.62v44.08H369.56Z"/><polygon points="361.03 374.25 297.34 437.72 234.25 374.84 297.94 311.37 361.03 374.25"/><path class="cls-1" d="M330,364.67a34.18,34.18,0,0,1-1.34,11.12,99.26,99.26,0,0,0-3,12.94c-.49,3-1.54,5.88-2.33,8.82a24.57,24.57,0,0,0-.67,2.9,1.54,1.54,0,0,1-2,1.51c-2.24-.5-3.19.63-4.13,2.27a10.11,10.11,0,0,1-2.86,3.15c-3.09,2.22-6,4.59-10,5.47a41,41,0,0,1-12.18,1c-4.89-.37-8.53-3-12-5.84a7.1,7.1,0,0,1-2.14-3.48,1.56,1.56,0,0,0-1.79-1.15c-1.67,0-1.74-.22-2.28-1.72-.72-2-1.22-4.06-2-6-.51-1.28-.66-2.65-1.13-3.92-2.31-6.14-3-12.6-4.3-18.94a97.93,97.93,0,0,1-2-13.26c-.16-2.79,1-5.24,2.05-7.71,2.8-6.73,7.83-11.35,14.93-14.06,4.07-1.56,8.36-1.59,12.62-2a24.91,24.91,0,0,1,7.43.32c2.3.47,4.74.13,7,1a22.55,22.55,0,0,1,2.78,1.13c3.05,1.69,6.4,2.84,9.3,4.84,4.09,2.83,7.35,6.18,9,10.78a17.94,17.94,0,0,1,1.05,5.75C330,361.23,330,363,330,364.67Zm-55.17,5c2-1.79,3.52-3.47,4.27-5.71.2-.61.4-1.38,1.29-1.18a1.33,1.33,0,0,1,1.12,1.58c-.13,1.66,1,2.35,2.58,1.62s3.14-1.92,3.35-3.91c0-.46.19-.79.72-.8s1,0,1.31.53a4.76,4.76,0,0,1,.32.91,1.87,1.87,0,0,0,1.77,1.46c2.73.38,4.39-.31,4.42-3.1a5.86,5.86,0,0,1,.08-.59c.07-.63,0-1.47.87-1.51s1.35.62,1.47,1.49a5.34,5.34,0,0,0,.58,1.95c.52.87,1,1.94,2.27,2s2-.9,2.43-1.94a16.08,16.08,0,0,0,.63-1.94c.12-.42.38-.79.81-.82a1.09,1.09,0,0,1,1.14.58,5.65,5.65,0,0,1,.42,1c.59,2.67.67,2.75,3.41,3.17,3.49.53,3.92.23,4.31-3.12.09-.77.45-1,1.18-.73a1.39,1.39,0,0,1,1,1.13c.43,1.44.46,3,1.66,4.2.51.5.83.53,1-.18a9.63,9.63,0,0,0,.23-1.66c0-.51.25-.91.77-.94a1.07,1.07,0,0,1,1.21.67,2.36,2.36,0,0,1,.15,1.17,47.86,47.86,0,0,0-.52,9.08c0,1.36-.44,2.67-.49,4-.11,2.7.06,5.41-.11,8.13-.27,4.33-.23,8.68-1.64,12.87-.18.54-.49,1.12.39,1.36a1,1,0,0,0,1.45-.88c1-3.76,2.19-7.47,3-11.28.53-2.62.84-5.29,1.55-7.88,1.26-4.55,2.75-9.05,3-13.81a46,46,0,0,0-.66-11.33c-1.09-5.35-5-8.81-9.55-11.72a37.3,37.3,0,0,0-4.77-2.45c-3.24-1.46-6.35-3.32-10.16-3.21-2.28.07-4.46-.8-6.77-.65-3.33.22-6.67.37-10,.83a21.89,21.89,0,0,0-8.7,3.07,25.88,25.88,0,0,0-6.27,5.54c-4.24,5.14-6.31,10.8-5,17.4.49,2.51,1,5,1.44,7.55.88,5.16,1.67,10.35,3,15.42,1,3.74,2.3,7.41,3.45,11.12a16,16,0,0,0,1,2.84c.13.25.25.54.63.47s.34-.42.31-.67a9.47,9.47,0,0,0-.23-1.54,62,62,0,0,1-1.57-8.94c-.49-4.52-1.21-9-1.81-13.51-.07-.54-.63-1-.31-1.59a6.34,6.34,0,0,0,.33-2.83q.07-3,.18-6c0-.39,0-.86.52-1a1.2,1.2,0,0,1,1.31.53,1.8,1.8,0,0,1,.32,1C274.84,367.74,274.84,368.53,274.84,369.64Zm30.85-6a4,4,0,0,1-7.05.57,4,4,0,0,0-.43-.44c-.26-.29-.39-.2-.65.07a6,6,0,0,1-7.34,1.28c-1.1-.6-1.48-.36-2.14.5a5.28,5.28,0,0,1-7.29,1c-.41-.34-.51-.25-.71.11a5.78,5.78,0,0,1-.55.8c-1.21,1.53-2.3,3.25-4.29,3.94-.82.28-1,.69-1,1.28,0,1.67.12,3.35.19,5a65.83,65.83,0,0,0,.85,7c.77,5,1.06,10.16,2.3,15.13.82,3.29,1.56,6.67,5,8.68,2.25,1.33,4.34,2.94,7,3.42a29.47,29.47,0,0,0,14.47-1.14,24.53,24.53,0,0,0,10-6.68,10.27,10.27,0,0,0,2.24-3.72A46.14,46.14,0,0,0,318.56,386a45.76,45.76,0,0,0,.1-5.74c-.26-2.66,0-5.35-.57-8-.11-.51-.17-1.1.71-1.29.56-.12.68-2.72.13-2.86-1.59-.41-2.16-1.83-3.27-2.72-.44.38-.67,1-1.46.94-1.84-.19-3.68-.28-5.52-.55A3.79,3.79,0,0,1,305.69,363.65Z"/><path class="cls-1" d="M309.36,398.28c0,1,.31,2-1.22,2.34-.33.07-.69.65-.76,1-.39,2.21-2.07,3.42-3.87,4.47-3.43,2-7.07,3.16-11.14,2-3.27-.92-5.72-2.66-6.6-6-.21-.8.93-2.26,1.85-2.37,4.12-.49,8.23-1,12.31-1.85,2.22-.44,4.1-1.62,6.32-2a5.7,5.7,0,0,1,2.47.24C309.89,396.58,309.27,397.56,309.36,398.28Zm-17.64,3.4c.16.46-.06,1.31.94,1.14.68-.12,1.8.14,1.69-1.08,0-.48.16-1.35-.73-1.21C292.94,400.64,291.53,400,291.72,401.69Zm6.47.19a.51.51,0,0,0,.67-.25,2.23,2.23,0,0,0-.23-1.61c-.18-.5-.65,0-1,0a2.18,2.18,0,0,0-.72.19c-.31.11-.93-.17-.89.36a1.33,1.33,0,0,0,.73,1.18A3.33,3.33,0,0,0,298.19,401.87ZM290,401.1a8.6,8.6,0,0,1-1,.23c-1,.11-1.19.71-1.13,1.47,0,.49.2,1,.95.73s1.7-.16,1.34-1.35A7.14,7.14,0,0,1,290,401.1Zm13.31-1.55c0-.25-.11-.54-.35-.58a3.17,3.17,0,0,0-2.33.51c-.27.19-.12.61,0,.88s.41.08.65,0c.43-.12.89-.15,1.34-.25S303.29,400,303.29,399.55Zm1.95.35a2,2,0,0,0,1.79-1.74c.05-.38,0-.75-.5-.45C305.72,398.19,304.69,398.62,305.24,399.9Z"/><path class="cls-1" d="M291.06,391.72c-.6-3.55.16-7,.49-10.55,0-.4-.15-1,.63-.9s1,.44,1,1c-.1,1.07-.24,2.14-.43,3.2a27,27,0,0,0-.11,7.62c.08.74.33,1,1.1.86,1.16-.21,2.33-.4,3.5-.56.73-.1.87-.41.68-1.07-1.08-3.92-1.28-8-1.92-11.94-.09-.57.07-.91.62-.93a1.16,1.16,0,0,1,1.33,1.12c0,.8,0,1.59.11,2.39.4,3.52.48,7.09,1.88,10.46.22.54-.18.87-.65,1a32,32,0,0,1-6.86,1.07c-.83,0-1.23-.64-1.33-1.36A10.7,10.7,0,0,1,291.06,391.72Z"/><path class="cls-1" d="M281.4,378.12a2.42,2.42,0,0,1,2.1-2.68c1.24,0,2.16,1.2,2.21,2.88a2.3,2.3,0,0,1-2.35,2.05A2.17,2.17,0,0,1,281.4,378.12Z"/><path class="cls-1" d="M307.3,369.83c1.79,0,3,1.08,4.25,2a.74.74,0,0,1,.27,1.06c-.28.35-.75.19-1.16.08-.57-.15-.86-.62-1.26-1a2.37,2.37,0,0,0-3-.33c-.79.45-1.64.81-2.44,1.25a.8.8,0,0,1-1.11-.2.72.72,0,0,1,.14-1.07A8.35,8.35,0,0,1,307.3,369.83Z"/><path class="cls-1" d="M305.86,376.81c.11-.94.36-1.85,1.44-2.16.83-.24,1.81.57,2.15,1.66a2.52,2.52,0,0,1-.29,2.72,1.94,1.94,0,0,1-3-.8A3,3,0,0,1,305.86,376.81Z"/><path class="cls-1" d="M282.78,371.88a4.57,4.57,0,0,1,3,1.32c.21.22.57.44.24.8s-.63.24-1,0a2.94,2.94,0,0,0-2.71-.52c-.51.2-.72.65-1.12.93s-1,.68-1.52.09a.92.92,0,0,1,.25-1.53A6.72,6.72,0,0,1,282.78,371.88Z"/><path class="cls-1" d="M450.33,408.87c-4.59,0-10.65-2.37-16.2-6.34s-9.06-8.3-9.5-11.68c-1.38-10.63-2.22-23.26-2.23-23.39a1.77,1.77,0,1,1,3.54-.23c0,.13.84,12.65,2.2,23.16.3,2.28,3.6,6.08,8,9.25,5,3.56,10.26,5.68,14.14,5.68,9.71,0,21.42-9.73,22.2-15,1.55-10.46,2.19-23,2.2-23.1a1.77,1.77,0,0,1,3.54.18c0,.13-.66,12.81-2.23,23.44-.52,3.5-4,8-9,11.71C461.6,406.59,455.52,408.87,450.33,408.87Z"/><path class="cls-1" d="M476.47,369.13a1.77,1.77,0,0,1-1.77-1.77,24.36,24.36,0,0,0-48.72,0,1.77,1.77,0,0,1-3.55,0,27.9,27.9,0,0,1,55.81,0A1.77,1.77,0,0,1,476.47,369.13Z"/><path class="cls-1" d="M475.16,387a1.77,1.77,0,0,1,0-3.55,5.14,5.14,0,0,0,3.72-1.84,10,10,0,0,0,2.51-6.6,2,2,0,0,0-.84-1.72,3.52,3.52,0,0,0-3.11.33,1.77,1.77,0,1,1-1.64-3.15,6.87,6.87,0,0,1,6.49-.27,5.42,5.42,0,0,1,2.63,4.58,13.55,13.55,0,0,1-3.43,9.23,8.66,8.66,0,0,1-6.26,3Z"/><path class="cls-1" d="M425.58,387h0a8.66,8.66,0,0,1-6.26-3,13.55,13.55,0,0,1-3.43-9.23,5.41,5.41,0,0,1,2.63-4.58,6.86,6.86,0,0,1,6.49.27,1.77,1.77,0,0,1-1.64,3.15,3.52,3.52,0,0,0-3.11-.33,2,2,0,0,0-.83,1.72,10,10,0,0,0,2.5,6.6,5.13,5.13,0,0,0,3.72,1.84,1.77,1.77,0,0,1,0,3.55Z"/><path class="cls-1" d="M437,381c-1.89,0-3.37-1.83-3.37-4.17s1.48-4.17,3.37-4.17,3.37,1.83,3.37,4.17S438.89,381,437,381Z"/><path class="cls-1" d="M463.68,381c-1.89,0-3.37-1.83-3.37-4.17s1.48-4.17,3.37-4.17,3.37,1.83,3.37,4.17S465.57,381,463.68,381Z"/><path class="cls-1" d="M452.71,386.47a1.77,1.77,0,0,1-1.61-2.52h0a3.21,3.21,0,0,0-1-.34,1.76,1.76,0,0,1-1.52-1.9l.16-1.9a1.77,1.77,0,1,1,3.53.29l0,.46a4.16,4.16,0,0,1,2.09,1.76,3.42,3.42,0,0,1,0,3.14A1.77,1.77,0,0,1,452.71,386.47Z"/><path class="cls-1" d="M447,362.34a24,24,0,0,1-15-5A15.84,15.84,0,0,1,425.6,345a1.77,1.77,0,0,1,3.55,0c0,7.62,8,13.83,17.83,13.83a1.77,1.77,0,0,1,0,3.55Z"/><path class="cls-1" d="M466.57,366.44c-8.26,0-15-5.51-15-12.28a1.77,1.77,0,0,1,3.55,0c0,4.82,5.13,8.73,11.43,8.73a1.77,1.77,0,0,1,0,3.55Z"/><path class="cls-1" d="M453.57,364.94c-5.72,0-10.37-5.46-10.37-12.17a1.77,1.77,0,0,1,3.55,0c0,4.76,3.06,8.63,6.83,8.63a1.77,1.77,0,0,1,0,3.55Z"/><path class="cls-1" d="M450.34,396.21c-5.61,0-12.27-3.59-13.24-9.39a1.77,1.77,0,1,1,3.5-.58c.7,4.19,6.11,6.43,9.74,6.43,4.29,0,9.11-2.4,9.74-6.41a1.77,1.77,0,1,1,3.5.56C462.61,392.91,456,396.21,450.34,396.21Z"/></svg>