<svg id="Layer_1" data-name="Layer 1" xmlns="http://www.w3.org/2000/svg" viewBox="0 0 730 317"><defs><style>.cls-1{fill:#fff;}.cls-2{fill:#192542;}</style></defs><title>CPT Full Logo - portrait white</title><rect class="cls-1" x="326.04" y="26.61" width="86.16" height="86.16" transform="translate(157.39 -240.6) rotate(45)"/><path class="cls-2" d="M371.56,79H357.74v14h-9.22V45.49c7.68,0,15.36-.07,23-.07C395.44,45.42,395.51,79,371.56,79Zm-13.83-8.2h13.83c11.8,0,11.73-16.81,0-16.81H357.74Z"/><rect class="cls-1" x="392.43" y="93" width="86.16" height="86.16" transform="translate(223.78 -268.09) rotate(45)"/><rect class="cls-1" x="259.41" y="93.23" width="86.16" height="86.16" transform="translate(184.99 -173.97) rotate(45)"/><path class="cls-2" d="M430.3,123.87H414.8v-8.13H455v8.13h-15.5v39.31H430.3Z"/><path class="cls-2" d="M325.35,152.54a26.19,26.19,0,0,1-18.57,7c-18.15,0-25.83-12.13-25.91-24.47s8.24-25,25.91-25a25.61,25.61,0,0,1,17.94,7.25l-6.14,5.76a17.07,17.07,0,0,0-11.8-4.47c-11.8,0-16.9,8.54-16.83,16.47s4.75,16.06,16.83,16.06a18.29,18.29,0,0,0,12.29-4.81Z"/><path class="cls-1" d="M40.33,253.77a23.33,23.33,0,0,1-9.61,1.73c-10.26,0-18-6.48-18-18.41,0-11.39,7.72-19.12,19-19.12a19.51,19.51,0,0,1,8.64,1.62l-1.13,3.83a17.12,17.12,0,0,0-7.34-1.51c-8.53,0-14.2,5.45-14.2,15,0,8.91,5.13,14.63,14,14.63A18.81,18.81,0,0,0,39.36,250Z"/><path class="cls-1" d="M69.11,241.67c0,9.67-6.7,13.88-13,13.88-7.07,0-12.53-5.18-12.53-13.45,0-8.75,5.72-13.88,13-13.88C64,228.22,69.11,233.68,69.11,241.67Zm-20.74.27c0,5.72,3.29,10,7.94,10s7.94-4.27,7.94-10.15c0-4.43-2.21-10-7.83-10S48.38,237,48.38,241.94Z"/><path class="cls-1" d="M75.11,235.89c0-2.7-.05-4.91-.22-7.07H79l.22,4.21h.16a9,9,0,0,1,8.21-4.81,7.73,7.73,0,0,1,7.4,5.24h.11a10.76,10.76,0,0,1,2.92-3.4,8.92,8.92,0,0,1,5.78-1.84c3.46,0,8.59,2.27,8.59,11.34V255h-4.64v-14.8c0-5-1.84-8-5.67-8a6.15,6.15,0,0,0-5.62,4.32,7.83,7.83,0,0,0-.38,2.38V255H91.47V239.29c0-4.16-1.84-7.18-5.45-7.18-3,0-5.13,2.38-5.89,4.75a6.56,6.56,0,0,0-.38,2.32V255H75.11Z"/><path class="cls-1" d="M120.14,235.89c0-2.7-.05-4.91-.22-7.07h4.16l.22,4.21h.16a9,9,0,0,1,8.21-4.81,7.73,7.73,0,0,1,7.4,5.24h.11a10.76,10.76,0,0,1,2.92-3.4,8.92,8.92,0,0,1,5.78-1.84c3.46,0,8.59,2.27,8.59,11.34V255h-4.64v-14.8c0-5-1.84-8-5.67-8a6.15,6.15,0,0,0-5.62,4.32,7.83,7.83,0,0,0-.38,2.38V255H136.5V239.29c0-4.16-1.84-7.18-5.45-7.18-3,0-5.13,2.38-5.89,4.75a6.56,6.56,0,0,0-.38,2.32V255h-4.64Z"/><path class="cls-1" d="M187,247.83c0,2.7.05,5.08.22,7.13h-4.21l-.27-4.27h-.11a9.83,9.83,0,0,1-8.64,4.86c-4.1,0-9-2.27-9-11.45V228.82h4.75v14.47c0,5,1.51,8.32,5.83,8.32a6.87,6.87,0,0,0,6.26-4.32,6.94,6.94,0,0,0,.43-2.43v-16H187Z"/><path class="cls-1" d="M194.93,235.89c0-2.7-.05-4.91-.22-7.07h4.21l.27,4.32h.11a9.61,9.61,0,0,1,8.64-4.91c3.62,0,9.23,2.16,9.23,11.12V255h-4.75V239.89c0-4.21-1.57-7.72-6-7.72a7,7,0,0,0-6.7,7.07V255h-4.75Z"/><path class="cls-1" d="M230.19,221.47a2.94,2.94,0,0,1-5.89,0,2.9,2.9,0,0,1,3-3A2.82,2.82,0,0,1,230.19,221.47ZM224.9,255V228.82h4.75V255Z"/><path class="cls-1" d="M243.26,221.31v7.51h6.8v3.62h-6.8v14.09c0,3.24.92,5.08,3.56,5.08a10.59,10.59,0,0,0,2.75-.32l.22,3.56a11.63,11.63,0,0,1-4.21.65,6.59,6.59,0,0,1-5.13-2c-1.35-1.4-1.84-3.73-1.84-6.8V232.44h-4.05v-3.62h4.05v-6.26Z"/><path class="cls-1" d="M257.62,228.82l5.72,15.44c.59,1.73,1.24,3.78,1.67,5.35h.11c.49-1.57,1-3.56,1.67-5.45L272,228.82h5l-7.13,18.63c-3.4,9-5.72,13.55-9,16.36a12.87,12.87,0,0,1-5.83,3.08l-1.19-4a12.58,12.58,0,0,0,4.16-2.32,14.42,14.42,0,0,0,4-5.29,3.42,3.42,0,0,0,.38-1.13,4.15,4.15,0,0,0-.32-1.24l-9.67-24.08Z"/><path class="cls-1" d="M316.43,241.67c0,9.67-6.7,13.88-13,13.88-7.07,0-12.53-5.18-12.53-13.45,0-8.75,5.72-13.88,13-13.88C311.35,228.22,316.43,233.68,316.43,241.67Zm-20.74.27c0,5.72,3.29,10,7.94,10s7.94-4.27,7.94-10.15c0-4.43-2.21-10-7.83-10S295.69,237,295.69,241.94Z"/><path class="cls-1" d="M322.91,255V232.44h-3.67v-3.62h3.67v-1.24c0-3.67.81-7,3-9.13A9.09,9.09,0,0,1,332.3,216a11,11,0,0,1,4,.76l-.65,3.67a7.09,7.09,0,0,0-3-.59c-4,0-5.08,3.56-5.08,7.56v1.4h6.32v3.62h-6.32V255Z"/><path class="cls-1" d="M349.8,219a54.39,54.39,0,0,1,9-.7c4.64,0,8,1.08,10.21,3a9.79,9.79,0,0,1,3.19,7.61,10.71,10.71,0,0,1-2.81,7.78c-2.48,2.65-6.53,4-11.12,4a16.17,16.17,0,0,1-3.78-.32V255h-4.7Zm4.7,17.55a15.76,15.76,0,0,0,3.89.38c5.67,0,9.13-2.75,9.13-7.78,0-4.81-3.4-7.13-8.59-7.13a19.73,19.73,0,0,0-4.43.38Z"/><path class="cls-1" d="M391.43,255l-.38-3.29h-.16a9.74,9.74,0,0,1-8,3.89c-5.29,0-8-3.73-8-7.51,0-6.32,5.62-9.77,15.71-9.72v-.54c0-2.16-.59-6-5.94-6a13,13,0,0,0-6.8,1.94l-1.08-3.13a16.22,16.22,0,0,1,8.59-2.32c8,0,9.94,5.45,9.94,10.69v9.77a36.78,36.78,0,0,0,.43,6.26Zm-.7-13.34c-5.18-.11-11.07.81-11.07,5.89a4.2,4.2,0,0,0,4.48,4.54,6.5,6.5,0,0,0,6.32-4.37,5,5,0,0,0,.27-1.51Z"/><path class="cls-1" d="M402.34,250.09a12.45,12.45,0,0,0,6.26,1.89c3.46,0,5.08-1.73,5.08-3.89s-1.35-3.51-4.86-4.81c-4.7-1.67-6.91-4.27-6.91-7.4,0-4.21,3.4-7.67,9-7.67a13,13,0,0,1,6.43,1.62l-1.19,3.46a10.17,10.17,0,0,0-5.35-1.51c-2.81,0-4.37,1.62-4.37,3.56,0,2.16,1.57,3.13,5,4.43,4.54,1.73,6.86,4,6.86,7.88,0,4.59-3.56,7.83-9.77,7.83a14.9,14.9,0,0,1-7.34-1.78Z"/><path class="cls-1" d="M429.67,221.47a2.94,2.94,0,0,1-5.89,0,2.9,2.9,0,0,1,3-3A2.82,2.82,0,0,1,429.67,221.47ZM424.37,255V228.82h4.75V255Z"/><path class="cls-1" d="M437.5,255V232.44h-3.67v-3.62h3.67v-1.4c0-6.91,4.05-11.39,11.39-11.39a13.08,13.08,0,0,1,6.64,1.73l-1.35,3.62a10,10,0,0,0-5.51-1.51c-5,0-6.48,3.51-6.48,7.67v1.3h15.17V255h-4.7V232.44H442.19V255Z"/><path class="cls-1" d="M469.95,240.81h.11c.65-.92,1.57-2.05,2.32-3l7.67-9h5.72l-10.1,10.75L487.17,255H481.4l-9-12.53-2.43,2.7V255h-4.7V216.61h4.7Z"/><path class="cls-1" d="M506,255l-.38-3.29h-.16a9.74,9.74,0,0,1-8,3.89c-5.29,0-8-3.73-8-7.51,0-6.32,5.62-9.77,15.71-9.72v-.54c0-2.16-.59-6-5.94-6a13,13,0,0,0-6.8,1.94l-1.08-3.13a16.22,16.22,0,0,1,8.59-2.32c8,0,9.94,5.45,9.94,10.69v9.77a36.78,36.78,0,0,0,.43,6.26Zm-.7-13.34c-5.18-.11-11.07.81-11.07,5.89a4.2,4.2,0,0,0,4.48,4.54,6.5,6.5,0,0,0,6.32-4.37,5,5,0,0,0,.27-1.51Z"/><path class="cls-1" d="M533.88,222.55H522.81v-4h26.95v4H538.64V255h-4.75Z"/><path class="cls-1" d="M552.46,242.75c.11,6.43,4.21,9.07,9,9.07a17.19,17.19,0,0,0,7.24-1.35l.81,3.4a21.17,21.17,0,0,1-8.69,1.62c-8,0-12.85-5.29-12.85-13.18s4.64-14.09,12.26-14.09c8.53,0,10.8,7.51,10.8,12.31a18,18,0,0,1-.16,2.21Zm13.93-3.4c.05-3-1.24-7.72-6.59-7.72-4.81,0-6.91,4.43-7.29,7.72Z"/><path class="cls-1" d="M591.34,255l-.38-3.29h-.16a9.74,9.74,0,0,1-8,3.89c-5.29,0-8-3.73-8-7.51,0-6.32,5.62-9.77,15.71-9.72v-.54c0-2.16-.59-6-5.94-6a13,13,0,0,0-6.8,1.94l-1.08-3.13a16.22,16.22,0,0,1,8.59-2.32c8,0,9.94,5.45,9.94,10.69v9.77a36.78,36.78,0,0,0,.43,6.26Zm-.7-13.34c-5.18-.11-11.07.81-11.07,5.89A4.2,4.2,0,0,0,584,252a6.5,6.5,0,0,0,6.32-4.37,5,5,0,0,0,.27-1.51Z"/><path class="cls-1" d="M621.53,254a17.5,17.5,0,0,1-7.51,1.51c-7.88,0-13-5.35-13-13.34s5.51-13.88,14-13.88a15.88,15.88,0,0,1,6.59,1.35l-1.08,3.67a11,11,0,0,0-5.51-1.24c-6,0-9.23,4.43-9.23,9.88,0,6,3.89,9.77,9.07,9.77a13.5,13.5,0,0,0,5.83-1.3Z"/><path class="cls-1" d="M627.09,216.61h4.75v16.31h.11a8.82,8.82,0,0,1,3.4-3.35,9.78,9.78,0,0,1,4.86-1.35c3.51,0,9.13,2.16,9.13,11.18V255h-4.75v-15c0-4.21-1.57-7.78-6-7.78a6.83,6.83,0,0,0-6.37,4.75,5.74,5.74,0,0,0-.32,2.27V255h-4.75Z"/><path class="cls-1" d="M659.7,242.75c.11,6.43,4.21,9.07,9,9.07a17.19,17.19,0,0,0,7.24-1.35l.81,3.4a21.17,21.17,0,0,1-8.69,1.62c-8,0-12.85-5.29-12.85-13.18s4.64-14.09,12.26-14.09c8.53,0,10.8,7.51,10.8,12.31a18,18,0,0,1-.16,2.21Zm13.93-3.4c.05-3-1.24-7.72-6.59-7.72-4.81,0-6.91,4.43-7.29,7.72Z"/><path class="cls-1" d="M684.11,237c0-3.08-.05-5.72-.22-8.15h4.16l.16,5.13h.22c1.19-3.51,4.05-5.72,7.24-5.72a5.15,5.15,0,0,1,1.35.16v4.48a7.15,7.15,0,0,0-1.62-.16c-3.35,0-5.72,2.54-6.37,6.1a13.34,13.34,0,0,0-.22,2.21V255h-4.7Z"/><path class="cls-1" d="M701.12,250.09a12.45,12.45,0,0,0,6.26,1.89c3.46,0,5.08-1.73,5.08-3.89s-1.35-3.51-4.86-4.81c-4.7-1.67-6.91-4.27-6.91-7.4,0-4.21,3.4-7.67,9-7.67a13,13,0,0,1,6.43,1.62l-1.19,3.46a10.17,10.17,0,0,0-5.35-1.51c-2.81,0-4.37,1.62-4.37,3.56,0,2.16,1.57,3.13,5,4.43,4.54,1.73,6.86,4,6.86,7.88,0,4.59-3.56,7.83-9.77,7.83a14.9,14.9,0,0,1-7.34-1.78Z"/><path class="cls-1" d="M43.12,300H29.92v-23.3h2.21v21.55h11Z"/><path class="cls-1" d="M56.75,295a5,5,0,0,1-.38,1.86,4.88,4.88,0,0,1-1.17,1.7,6.09,6.09,0,0,1-2,1.24,7.52,7.52,0,0,1-2.79.48,10.84,10.84,0,0,1-1.48-.12,5.8,5.8,0,0,1-1.62-.48,5.39,5.39,0,0,1-1.73-1.3,6.62,6.62,0,0,1-1.14-1.83,9.31,9.31,0,0,1-.61-2.18,14.84,14.84,0,0,1-.18-2.31,16.37,16.37,0,0,1,.3-3.05A8.77,8.77,0,0,1,45,286.17,6.29,6.29,0,0,1,47.15,284a6.53,6.53,0,0,1,3.5-.84,6.19,6.19,0,0,1,3.13.71,5.25,5.25,0,0,1,1.91,1.88,7.41,7.41,0,0,1,.92,2.67,17.94,17.94,0,0,1,.2,3.09h-11q0,.66,0,1.85a7.65,7.65,0,0,0,.5,2.38,5.19,5.19,0,0,0,1.42,2.06,4,4,0,0,0,2.79.87,5.38,5.38,0,0,0,1.42-.2,4,4,0,0,0,1.32-.63,3.62,3.62,0,0,0,1-1.14,3.87,3.87,0,0,0,.48-1.7Zm-1.88-5c0-.26-.07-.69-.13-1.27a5.39,5.39,0,0,0-.51-1.73A4.38,4.38,0,0,0,53,285.46a3.61,3.61,0,0,0-2.31-.66q-.23,0-.94.08a3.79,3.79,0,0,0-1.5.56A4.85,4.85,0,0,0,46.75,287a6.75,6.75,0,0,0-.89,3Z"/><path class="cls-1" d="M71.67,300H70.3q-1,0-1.19-.45a3.31,3.31,0,0,1-.12-1.4,7.79,7.79,0,0,1-.67.66,5.71,5.71,0,0,1-1,.69,6.4,6.4,0,0,1-1.45.56,7.75,7.75,0,0,1-2,.23l-.81,0a4.87,4.87,0,0,1-.92-.17A4,4,0,0,1,60.28,299a4.33,4.33,0,0,1-.89-1.48,5.28,5.28,0,0,1-.33-1.85,4.15,4.15,0,0,1,.61-2.38,5.3,5.3,0,0,1,1.2-1.32,5.63,5.63,0,0,1,2.3-1q1.35-.28,2.93-.48l2.89-.33v-1.55q0-.56-.07-1.22a3,3,0,0,0-.4-1.22,2.63,2.63,0,0,0-1-.94,4.09,4.09,0,0,0-2-.38,4.72,4.72,0,0,0-2.34.48A3.37,3.37,0,0,0,62,286.4a3.24,3.24,0,0,0-.48,1.32,9.24,9.24,0,0,0-.08,1.07h-2a5.25,5.25,0,0,1,.61-2.8,5.06,5.06,0,0,1,1.62-1.72,6.12,6.12,0,0,1,2.1-.86,10.13,10.13,0,0,1,2-.23,8.83,8.83,0,0,1,2.23.3,3.65,3.65,0,0,1,1.81,1,2.85,2.85,0,0,1,.62.89,4.8,4.8,0,0,1,.32,1,7.49,7.49,0,0,1,.13,1q0,.51,0,.94v3.86l-.1,4.16,0,1.45A4.52,4.52,0,0,0,71,299a1,1,0,0,0,.63.58ZM69,291.5q-.86.07-1.82.2l-2,.3q-.43.07-1.1.23a4.85,4.85,0,0,0-1.31.54,3.54,3.54,0,0,0-1.1,1,2.88,2.88,0,0,0-.46,1.68,3,3,0,0,0,1,2.36,3.36,3.36,0,0,0,2.37.87,5.46,5.46,0,0,0,1.46-.21,4.75,4.75,0,0,0,1.33-.58,3.62,3.62,0,0,0,.94-.79,3.05,3.05,0,0,0,.51-.89,4,4,0,0,0,.21-.92,8,8,0,0,0,0-.86Z"/><path class="cls-1" d="M77.21,300H75.26V283.48h1.95v1.91a16.71,16.71,0,0,1,1.73-1.52,3.66,3.66,0,0,1,2.26-.66,3,3,0,0,1,1.34.23,4.74,4.74,0,0,1,.78.5v2a10.64,10.64,0,0,0-1.11-.65,3.69,3.69,0,0,0-1.7-.34,4.93,4.93,0,0,0-.78.07,3.21,3.21,0,0,0-.84.26A3,3,0,0,0,78,286a2.52,2.52,0,0,0-.5.81,3.71,3.71,0,0,0-.2.84,6.65,6.65,0,0,0,0,.76Z"/><path class="cls-1" d="M97.83,300H95.89v-9.59q0-.63,0-1.24t-.08-1.24q0-.26-.15-.83a3,3,0,0,0-.5-1.11,3.39,3.39,0,0,0-1.07-1,3.66,3.66,0,0,0-1.88-.41,7.69,7.69,0,0,0-.91.07,4.88,4.88,0,0,0-1.21.33,4.36,4.36,0,0,0-1.4.86A3.45,3.45,0,0,0,87.6,288a7.05,7.05,0,0,0-.07.91V300H85.59v-16.5h1.95v1.85l.71-.61a6.66,6.66,0,0,1,1.11-.74,7.22,7.22,0,0,1,1.55-.61,7.54,7.54,0,0,1,2-.25,6.29,6.29,0,0,1,2.24.41,3.65,3.65,0,0,1,1.75,1.37,4.29,4.29,0,0,1,.79,2,16.67,16.67,0,0,1,.13,2Z"/><path class="cls-1" d="M104,279.59h-1.95v-2.44H104ZM104,300h-1.95v-16.5H104Z"/><path class="cls-1" d="M120.5,300h-1.95v-9.59q0-.63,0-1.24t-.08-1.24q0-.26-.15-.83a3,3,0,0,0-.5-1.11,3.39,3.39,0,0,0-1.07-1,3.66,3.66,0,0,0-1.88-.41,7.69,7.69,0,0,0-.91.07,4.88,4.88,0,0,0-1.21.33,4.36,4.36,0,0,0-1.4.86,3.45,3.45,0,0,0-1.07,2.07,7.05,7.05,0,0,0-.07.91V300h-1.95v-16.5h1.95v1.85l.71-.61A6.66,6.66,0,0,1,112,284a7.22,7.22,0,0,1,1.55-.61,7.54,7.54,0,0,1,2-.25,6.29,6.29,0,0,1,2.24.41,3.65,3.65,0,0,1,1.75,1.37,4.29,4.29,0,0,1,.79,2,16.67,16.67,0,0,1,.13,2Z"/><path class="cls-1" d="M137.67,283.52V299a13.9,13.9,0,0,1-.13,1.9,9.08,9.08,0,0,1-.46,1.86,5.59,5.59,0,0,1-.92,1.63,6.24,6.24,0,0,1-2.29,1.7,7.68,7.68,0,0,1-3.25.68,7,7,0,0,1-3.15-.66,4.94,4.94,0,0,1-2-1.58,5.68,5.68,0,0,1-.54-1.15,6,6,0,0,1-.28-2h2c0,.26.05.55.1.86a3,3,0,0,0,.3.92,3.48,3.48,0,0,0,1.3,1.37,4.32,4.32,0,0,0,2.39.61,5.6,5.6,0,0,0,1.78-.3,4.41,4.41,0,0,0,1.77-1.07,4.55,4.55,0,0,0,1-1.47,6,6,0,0,0,.4-1.62q.08-.83.12-1.52l0-1.32q-.27.27-.69.63a6.5,6.5,0,0,1-1.06.71,7.28,7.28,0,0,1-1.47.59,6.72,6.72,0,0,1-1.9.25,6.34,6.34,0,0,1-3.1-.69,6,6,0,0,1-2-1.83,7.56,7.56,0,0,1-1.14-2.61,13.23,13.23,0,0,1-.35-3.05,13.88,13.88,0,0,1,.35-3,8.05,8.05,0,0,1,1.14-2.74,6.14,6.14,0,0,1,2.28-2.13,7.13,7.13,0,0,1,4.9-.58,6.18,6.18,0,0,1,1.3.5,5.52,5.52,0,0,1,1,.66l.79.69v-1.68Zm-1.85,5.85a7.7,7.7,0,0,0-.18-1.74,3.42,3.42,0,0,0-.74-1.44,4.12,4.12,0,0,0-1.47-1.12,4.76,4.76,0,0,0-2.06-.43,4.64,4.64,0,0,0-2.36.56,4.55,4.55,0,0,0-1.58,1.52,7.14,7.14,0,0,0-.91,2.27,12.8,12.8,0,0,0-.3,2.83,13.65,13.65,0,0,0,.2,2.27,6.47,6.47,0,0,0,.74,2.13,4.59,4.59,0,0,0,1.5,1.59,4.5,4.5,0,0,0,2.51.63,5,5,0,0,0,3.27-1.09,4,4,0,0,0,.73-.79,3.62,3.62,0,0,0,.41-.83,3.4,3.4,0,0,0,.18-.88l.07-.91Z"/><path class="cls-1" d="M143,303.28h-1.35l1.52-3.27h-1.35v-2.61h2.71v2.48Z"/><path class="cls-1" d="M174,292.92q-.07.59-.2,1.34a8.29,8.29,0,0,1-.43,1.52,6.81,6.81,0,0,1-.86,1.55,7,7,0,0,1-1.48,1.47,7.46,7.46,0,0,1-3,1.32,15.1,15.1,0,0,1-2.85.3q-.46,0-1.42-.07a7.76,7.76,0,0,1-2.06-.46,7.66,7.66,0,0,1-2.19-1.27,6.3,6.3,0,0,1-1.78-2.49,9.14,9.14,0,0,1-.58-1.68,14.18,14.18,0,0,1-.31-1.81q-.1-.92-.13-1.81t0-1.65q0-1.25.07-2.49a24,24,0,0,1,.26-2.49,17.54,17.54,0,0,1,.56-2.39,8.26,8.26,0,0,1,1.06-2.19,7.05,7.05,0,0,1,1.9-1.9,8.29,8.29,0,0,1,2-1,7.82,7.82,0,0,1,1.85-.36c.56,0,1,0,1.3,0a12.66,12.66,0,0,1,2.47.23,9,9,0,0,1,1.12.31,6.51,6.51,0,0,1,1.25.59,6.21,6.21,0,0,1,1.22,1,6.12,6.12,0,0,1,1.06,1.53,5.75,5.75,0,0,1,.73,2.15q.1,1,.1,1.45h-2.24a6.1,6.1,0,0,0-.53-2.67,5,5,0,0,0-1.35-1.75,5.08,5.08,0,0,0-1.88-.94,8.35,8.35,0,0,0-2.15-.28,7.41,7.41,0,0,0-2.36.38,5,5,0,0,0-2,1.24,5.87,5.87,0,0,0-.91,1.2,7.57,7.57,0,0,0-.71,1.8,15.89,15.89,0,0,0-.45,2.62q-.15,1.54-.15,3.71,0,1.19,0,2.21a16.43,16.43,0,0,0,.21,2q.13.79.35,1.58a5.05,5.05,0,0,0,.67,1.48,5,5,0,0,0,1.28,1.5,5.62,5.62,0,0,0,1.45.81,5.15,5.15,0,0,0,1.35.31c.42,0,.76,0,1,0a8.11,8.11,0,0,0,2.42-.36,6,6,0,0,0,2-1,4.5,4.5,0,0,0,1-1.14,6.22,6.22,0,0,0,.56-1.2,6.74,6.74,0,0,0,.28-1.15c.05-.37.09-.7.12-1Z"/><path class="cls-1" d="M189.9,291a26,26,0,0,1-.12,3,8.71,8.71,0,0,1-.83,3,6.07,6.07,0,0,1-2,2.36,6.44,6.44,0,0,1-3.75,1,7.09,7.09,0,0,1-3.6-.79,5.71,5.71,0,0,1-2.08-2,7.52,7.52,0,0,1-1-2.72,19.08,19.08,0,0,1-.23-2.89q0-.56,0-1.44a12.48,12.48,0,0,1,.25-1.83,9.6,9.6,0,0,1,.63-1.93,5.73,5.73,0,0,1,1.2-1.75,6,6,0,0,1,1.95-1.27,7.33,7.33,0,0,1,2.85-.5,6.56,6.56,0,0,1,3.7.89,5.91,5.91,0,0,1,2,2.15,7.22,7.22,0,0,1,.81,2.57Q189.87,290.12,189.9,291Zm-2,.23q0-.82-.17-1.95a7.06,7.06,0,0,0-.59-2.13,4.52,4.52,0,0,0-1.35-1.7,3.94,3.94,0,0,0-2.47-.69,4.51,4.51,0,0,0-2.06.43,4.29,4.29,0,0,0-1.39,1.09,4.68,4.68,0,0,0-.83,1.48,11.87,11.87,0,0,0-.43,1.6,8.75,8.75,0,0,0-.17,1.44c0,.44,0,.78,0,1a18.41,18.41,0,0,0,.15,2.26,7.23,7.23,0,0,0,.64,2.24,4.46,4.46,0,0,0,1.47,1.73,4.51,4.51,0,0,0,2.66.69,3.78,3.78,0,0,0,2.61-.83,4.87,4.87,0,0,0,1.35-2,9,9,0,0,0,.51-2.48Q187.86,292.16,187.86,291.24Z"/><path class="cls-1" d="M205.74,300H203.8v-9.59q0-.63,0-1.24t-.08-1.24q0-.26-.15-.83a3,3,0,0,0-.5-1.11,3.39,3.39,0,0,0-1.07-1,3.66,3.66,0,0,0-1.88-.41,7.69,7.69,0,0,0-.91.07A4.88,4.88,0,0,0,198,285a4.36,4.36,0,0,0-1.4.86,3.45,3.45,0,0,0-1.07,2.07,7.05,7.05,0,0,0-.07.91V300H193.5v-16.5h1.95v1.85l.71-.61a6.66,6.66,0,0,1,1.11-.74,7.22,7.22,0,0,1,1.55-.61,7.54,7.54,0,0,1,2-.25,6.29,6.29,0,0,1,2.24.41,3.65,3.65,0,0,1,1.75,1.37,4.29,4.29,0,0,1,.79,2,16.67,16.67,0,0,1,.13,2Z"/><path class="cls-1" d="M222.24,300H220.3v-9.59q0-.63,0-1.24t-.08-1.24q0-.26-.15-.83a3,3,0,0,0-.5-1.11,3.39,3.39,0,0,0-1.07-1,3.66,3.66,0,0,0-1.88-.41,7.69,7.69,0,0,0-.91.07,4.88,4.88,0,0,0-1.21.33,4.36,4.36,0,0,0-1.4.86A3.45,3.45,0,0,0,212,288a7.05,7.05,0,0,0-.07.91V300H210v-16.5h1.95v1.85l.71-.61a6.66,6.66,0,0,1,1.11-.74,7.22,7.22,0,0,1,1.55-.61,7.54,7.54,0,0,1,2-.25,6.29,6.29,0,0,1,2.24.41,3.65,3.65,0,0,1,1.75,1.37,4.29,4.29,0,0,1,.79,2,16.67,16.67,0,0,1,.13,2Z"/><path class="cls-1" d="M238.91,295a5,5,0,0,1-.38,1.86,4.88,4.88,0,0,1-1.17,1.7,6.09,6.09,0,0,1-2,1.24,7.52,7.52,0,0,1-2.79.48,10.84,10.84,0,0,1-1.48-.12,5.8,5.8,0,0,1-1.62-.48,5.39,5.39,0,0,1-1.73-1.3,6.62,6.62,0,0,1-1.14-1.83,9.31,9.31,0,0,1-.61-2.18,14.84,14.84,0,0,1-.18-2.31,16.37,16.37,0,0,1,.3-3.05,8.77,8.77,0,0,1,1.07-2.87,6.29,6.29,0,0,1,2.13-2.15,6.53,6.53,0,0,1,3.5-.84,6.19,6.19,0,0,1,3.13.71,5.25,5.25,0,0,1,1.91,1.88,7.41,7.41,0,0,1,.92,2.67,17.94,17.94,0,0,1,.2,3.09H228q0,.66,0,1.85a7.65,7.65,0,0,0,.5,2.38,5.19,5.19,0,0,0,1.42,2.06,4,4,0,0,0,2.79.87,5.38,5.38,0,0,0,1.42-.2,4,4,0,0,0,1.32-.63,3.62,3.62,0,0,0,1-1.14,3.87,3.87,0,0,0,.48-1.7ZM237,290c0-.26-.07-.69-.13-1.27a5.39,5.39,0,0,0-.51-1.73,4.38,4.38,0,0,0-1.24-1.52,3.61,3.61,0,0,0-2.31-.66q-.23,0-.94.08a3.79,3.79,0,0,0-1.5.56,4.85,4.85,0,0,0-1.49,1.53,6.75,6.75,0,0,0-.89,3Z"/><path class="cls-1" d="M254.71,294.54c0,.22-.06.5-.12.84a6.17,6.17,0,0,1-.3,1.11,5.52,5.52,0,0,1-.64,1.22,6,6,0,0,1-1.16,1.22,5.63,5.63,0,0,1-2.08,1.11,8.47,8.47,0,0,1-2.18.28,6.43,6.43,0,0,1-4.31-1.39,6.67,6.67,0,0,1-2.1-4.16,16.71,16.71,0,0,1-.23-2.8q0-.86.08-1.7a13.18,13.18,0,0,1,.28-1.7q.1-.43.31-1.09a5.87,5.87,0,0,1,.64-1.34,7.31,7.31,0,0,1,1.09-1.32,5.8,5.8,0,0,1,1.68-1.11,7.92,7.92,0,0,1,2.9-.53q.46,0,1,0a6.29,6.29,0,0,1,1.21.23,6.15,6.15,0,0,1,1.25.53,4.73,4.73,0,0,1,1.15.91A4.38,4.38,0,0,1,254,286a6.87,6.87,0,0,1,.63,2.19q0,.48,0,.78h-2.08a4.77,4.77,0,0,0-.35-1.91,3.8,3.8,0,0,0-.91-1.3,3.42,3.42,0,0,0-1.3-.74,5.25,5.25,0,0,0-1.57-.23,6.51,6.51,0,0,0-1.45.21,3.54,3.54,0,0,0-1.75,1.17,4.94,4.94,0,0,0-1.09,1.93,9.78,9.78,0,0,0-.36,1.83c0,.31-.08.62-.1.94s0,.63,0,.94a13.36,13.36,0,0,0,.25,2.62,6.83,6.83,0,0,0,.81,2.18,4.47,4.47,0,0,0,1.44,1.5,3.86,3.86,0,0,0,2.13.56,5,5,0,0,0,1.58-.26,3.41,3.41,0,0,0,1.95-1.62,5.85,5.85,0,0,0,.38-.86,5.22,5.22,0,0,0,.21-.81q.07-.38.1-.61Z"/><path class="cls-1" d="M260,285l-.1,10.06q0,1.42.08,2a1.78,1.78,0,0,0,.28.87,1.73,1.73,0,0,0,.63.53,2.53,2.53,0,0,0,1.25.26,3.69,3.69,0,0,0,1.25-.18l.92-.35v1.58q-.46.17-1.17.36a6.54,6.54,0,0,1-1.73.2,4.6,4.6,0,0,1-1.47-.2,3.54,3.54,0,0,1-.94-.46,2.13,2.13,0,0,1-.53-.51c-.11-.17-.18-.27-.2-.31a2.36,2.36,0,0,1-.21-.51,3.41,3.41,0,0,1-.12-.68c0-.26,0-.58,0-1s0-.81,0-1.32L258,285h-2.64v-1.48H258v-3.73l2-.3-.07,4h3.23V285Z"/><path class="cls-1" d="M268.28,279.59h-1.95v-2.44h1.95Zm0,20.43h-1.95v-16.5h1.95Z"/><path class="cls-1" d="M284.78,300h-1.95v-9.59q0-.63,0-1.24t-.08-1.24q0-.26-.15-.83a3,3,0,0,0-.5-1.11,3.39,3.39,0,0,0-1.07-1,3.66,3.66,0,0,0-1.88-.41,7.69,7.69,0,0,0-.91.07A4.88,4.88,0,0,0,277,285a4.36,4.36,0,0,0-1.4.86,3.45,3.45,0,0,0-1.07,2.07,7.05,7.05,0,0,0-.07.91V300h-1.95v-16.5h1.95v1.85l.71-.61a6.66,6.66,0,0,1,1.11-.74,7.22,7.22,0,0,1,1.55-.61,7.54,7.54,0,0,1,2-.25,6.29,6.29,0,0,1,2.24.41,3.65,3.65,0,0,1,1.75,1.37,4.29,4.29,0,0,1,.79,2,16.67,16.67,0,0,1,.13,2Z"/><path class="cls-1" d="M301.94,283.52V299a13.9,13.9,0,0,1-.13,1.9,9.08,9.08,0,0,1-.46,1.86,5.59,5.59,0,0,1-.92,1.63,6.24,6.24,0,0,1-2.29,1.7,7.68,7.68,0,0,1-3.25.68,7,7,0,0,1-3.15-.66,4.94,4.94,0,0,1-2-1.58,5.68,5.68,0,0,1-.54-1.15,6,6,0,0,1-.28-2h2c0,.26.05.55.1.86a3,3,0,0,0,.3.92,3.48,3.48,0,0,0,1.3,1.37,4.32,4.32,0,0,0,2.39.61,5.6,5.6,0,0,0,1.78-.3,4.41,4.41,0,0,0,1.77-1.07,4.55,4.55,0,0,0,1-1.47,6,6,0,0,0,.4-1.62q.08-.83.12-1.52l0-1.32q-.27.27-.69.63a6.5,6.5,0,0,1-1.06.71,7.28,7.28,0,0,1-1.47.59,6.72,6.72,0,0,1-1.9.25,6.34,6.34,0,0,1-3.1-.69,6,6,0,0,1-2-1.83,7.56,7.56,0,0,1-1.14-2.61,13.23,13.23,0,0,1-.35-3.05,13.88,13.88,0,0,1,.35-3,8.05,8.05,0,0,1,1.14-2.74,6.14,6.14,0,0,1,2.28-2.13,7.13,7.13,0,0,1,4.9-.58,6.18,6.18,0,0,1,1.3.5,5.52,5.52,0,0,1,1,.66l.79.69v-1.68Zm-1.85,5.85a7.7,7.7,0,0,0-.18-1.74,3.42,3.42,0,0,0-.74-1.44,4.12,4.12,0,0,0-1.47-1.12,4.76,4.76,0,0,0-2.06-.43,4.64,4.64,0,0,0-2.36.56,4.55,4.55,0,0,0-1.58,1.52,7.14,7.14,0,0,0-.91,2.27,12.8,12.8,0,0,0-.3,2.83,13.65,13.65,0,0,0,.2,2.27,6.47,6.47,0,0,0,.74,2.13,4.59,4.59,0,0,0,1.5,1.59,4.5,4.5,0,0,0,2.51.63,5,5,0,0,0,3.27-1.09,4,4,0,0,0,.73-.79,3.62,3.62,0,0,0,.41-.83,3.4,3.4,0,0,0,.18-.88l.07-.91Z"/><path class="cls-1" d="M326,300h-1.36q-1,0-1.19-.45a3.31,3.31,0,0,1-.12-1.4,7.79,7.79,0,0,1-.67.66,5.71,5.71,0,0,1-1,.69,6.4,6.4,0,0,1-1.45.56,7.75,7.75,0,0,1-2,.23l-.81,0a4.87,4.87,0,0,1-.92-.17A4,4,0,0,1,314.6,299a4.33,4.33,0,0,1-.89-1.48,5.28,5.28,0,0,1-.33-1.85,4.15,4.15,0,0,1,.61-2.38,5.3,5.3,0,0,1,1.2-1.32,5.63,5.63,0,0,1,2.3-1q1.35-.28,2.93-.48l2.89-.33v-1.55q0-.56-.07-1.22a3,3,0,0,0-.4-1.22,2.63,2.63,0,0,0-1-.94,4.09,4.09,0,0,0-2-.38,4.72,4.72,0,0,0-2.34.48,3.37,3.37,0,0,0-1.22,1.12,3.24,3.24,0,0,0-.48,1.32,9.24,9.24,0,0,0-.08,1.07h-2a5.25,5.25,0,0,1,.61-2.8,5.06,5.06,0,0,1,1.62-1.72,6.12,6.12,0,0,1,2.1-.86,10.13,10.13,0,0,1,2-.23,8.83,8.83,0,0,1,2.23.3,3.65,3.65,0,0,1,1.81,1,2.85,2.85,0,0,1,.62.89,4.8,4.8,0,0,1,.32,1,7.49,7.49,0,0,1,.13,1q0,.51,0,.94v3.86l-.1,4.16,0,1.45a4.52,4.52,0,0,0,.17,1.2,1,1,0,0,0,.63.58Zm-2.67-8.51q-.86.07-1.82.2l-2,.3q-.43.07-1.1.23a4.85,4.85,0,0,0-1.31.54,3.54,3.54,0,0,0-1.1,1,2.88,2.88,0,0,0-.46,1.68,3,3,0,0,0,1,2.36,3.36,3.36,0,0,0,2.37.87,5.46,5.46,0,0,0,1.46-.21,4.75,4.75,0,0,0,1.33-.58,3.62,3.62,0,0,0,.94-.79,3.05,3.05,0,0,0,.51-.89,4,4,0,0,0,.21-.92,8,8,0,0,0,0-.86Z"/><path class="cls-1" d="M341.83,300h-1.95v-9.59q0-.63,0-1.24t-.08-1.24q0-.26-.15-.83a3,3,0,0,0-.5-1.11,3.39,3.39,0,0,0-1.07-1,3.66,3.66,0,0,0-1.88-.41,7.69,7.69,0,0,0-.91.07,4.88,4.88,0,0,0-1.21.33,4.36,4.36,0,0,0-1.4.86A3.45,3.45,0,0,0,331.6,288a7.05,7.05,0,0,0-.07.91V300h-1.95v-16.5h1.95v1.85l.71-.61a6.66,6.66,0,0,1,1.11-.74,7.22,7.22,0,0,1,1.55-.61,7.54,7.54,0,0,1,2-.25,6.29,6.29,0,0,1,2.24.41,3.65,3.65,0,0,1,1.75,1.37,4.29,4.29,0,0,1,.79,2,16.67,16.67,0,0,1,.13,2Z"/><path class="cls-1" d="M359,300H357v-2a7.72,7.72,0,0,1-.58.66,5.09,5.09,0,0,1-1,.78,6.62,6.62,0,0,1-1.5.66,6.94,6.94,0,0,1-2.08.28,6.3,6.3,0,0,1-3-.64,5.46,5.46,0,0,1-2-1.78,7.94,7.94,0,0,1-1.14-2.66,14.11,14.11,0,0,1-.36-3.3,13.54,13.54,0,0,1,.45-3.6,7.92,7.92,0,0,1,1.34-2.77,6.13,6.13,0,0,1,2.23-1.8,7.11,7.11,0,0,1,3.12-.64,6.36,6.36,0,0,1,1.88.25,5.39,5.39,0,0,1,1.3.58,3.85,3.85,0,0,1,.83.69l.48.56v-8.51H359ZM357,288.95a5.15,5.15,0,0,0-.31-1.89,3.55,3.55,0,0,0-1.07-1.43,4.21,4.21,0,0,0-1.34-.73,5.11,5.11,0,0,0-1.67-.27,4.52,4.52,0,0,0-2.28.51,4.88,4.88,0,0,0-1.35,1.08,5.43,5.43,0,0,0-1.12,2.27,12.76,12.76,0,0,0-.33,3q0,.86.12,2.1a8.61,8.61,0,0,0,.58,2.4,5.08,5.08,0,0,0,1.42,2,3.9,3.9,0,0,0,2.64.83,5.35,5.35,0,0,0,2.13-.43,4.1,4.1,0,0,0,1.6-1.16,3.56,3.56,0,0,0,.82-1.87q.13-1,.17-1.91Z"/><path class="cls-1" d="M395,300h-2.15l-.26-19.73v-.73c0-.2,0-.38,0-.56s0-.38,0-.61,0-.53,0-.91q-.17.53-.3.89T392,279q-.1.3-.21.59l-.28.73L384.27,300h-1.91L375,279.85q-.17-.4-.26-.66c-.07-.18-.13-.35-.18-.51l-.18-.54-.23-.69q0,1,0,1.45v1.25l-.4,19.87h-2l.56-23.3h3.89l5.84,16.43q.2.63.36,1.09t.31.92l.31,1q.16.51.36,1.24.23-.76.4-1.22l.31-.87c.1-.27.2-.57.3-.87s.24-.7.41-1.19l5.94-16.5h3.93Z"/><path class="cls-1" d="M412.62,291a26,26,0,0,1-.12,3,8.71,8.71,0,0,1-.83,3,6.07,6.07,0,0,1-2,2.36,6.44,6.44,0,0,1-3.75,1,7.09,7.09,0,0,1-3.6-.79,5.71,5.71,0,0,1-2.08-2,7.52,7.52,0,0,1-1-2.72,19.08,19.08,0,0,1-.23-2.89q0-.56,0-1.44a12.48,12.48,0,0,1,.25-1.83,9.6,9.6,0,0,1,.63-1.93,5.73,5.73,0,0,1,1.2-1.75,6,6,0,0,1,1.95-1.27,7.33,7.33,0,0,1,2.85-.5,6.56,6.56,0,0,1,3.7.89,5.91,5.91,0,0,1,2,2.15,7.22,7.22,0,0,1,.81,2.57Q412.59,290.12,412.62,291Zm-2,.23q0-.82-.17-1.95a7.06,7.06,0,0,0-.59-2.13,4.52,4.52,0,0,0-1.35-1.7,3.94,3.94,0,0,0-2.47-.69,4.51,4.51,0,0,0-2.06.43,4.29,4.29,0,0,0-1.39,1.09,4.68,4.68,0,0,0-.83,1.48,11.87,11.87,0,0,0-.43,1.6,8.75,8.75,0,0,0-.17,1.44c0,.44,0,.78,0,1a18.41,18.41,0,0,0,.15,2.26,7.23,7.23,0,0,0,.64,2.24,4.46,4.46,0,0,0,1.47,1.73,4.51,4.51,0,0,0,2.66.69,3.78,3.78,0,0,0,2.61-.83,4.87,4.87,0,0,0,1.35-2,9,9,0,0,0,.51-2.48Q410.57,292.16,410.57,291.24Z"/><path class="cls-1" d="M421.56,300h-1.88l-5.58-16.5h2.28L420,294.87q.13.46.23.78l.18.58q.08.26.18.54c.07.19.13.41.2.68.11-.33.19-.56.25-.69l.25-.63,4.52-12.61h1.95Z"/><path class="cls-1" d="M431.89,279.59h-1.95v-2.44h1.95Zm0,20.43h-1.95v-16.5h1.95Z"/><path class="cls-1" d="M448.39,300h-1.95v-9.59q0-.63,0-1.24t-.08-1.24q0-.26-.15-.83a3,3,0,0,0-.5-1.11,3.39,3.39,0,0,0-1.07-1,3.66,3.66,0,0,0-1.88-.41,7.69,7.69,0,0,0-.91.07,4.88,4.88,0,0,0-1.21.33,4.36,4.36,0,0,0-1.4.86,3.45,3.45,0,0,0-1.07,2.07,7.05,7.05,0,0,0-.07.91V300h-1.95v-16.5h1.95v1.85l.71-.61a6.66,6.66,0,0,1,1.11-.74,7.22,7.22,0,0,1,1.55-.61,7.54,7.54,0,0,1,2-.25,6.29,6.29,0,0,1,2.24.41,3.65,3.65,0,0,1,1.75,1.37,4.29,4.29,0,0,1,.79,2,16.67,16.67,0,0,1,.13,2Z"/><path class="cls-1" d="M465.55,283.52V299a13.9,13.9,0,0,1-.13,1.9,9.08,9.08,0,0,1-.46,1.86,5.59,5.59,0,0,1-.92,1.63,6.24,6.24,0,0,1-2.29,1.7,7.68,7.68,0,0,1-3.25.68,7,7,0,0,1-3.15-.66,4.94,4.94,0,0,1-2-1.58,5.68,5.68,0,0,1-.54-1.15,6,6,0,0,1-.28-2h2c0,.26.05.55.1.86a3,3,0,0,0,.3.92,3.48,3.48,0,0,0,1.3,1.37,4.32,4.32,0,0,0,2.39.61,5.6,5.6,0,0,0,1.78-.3,4.41,4.41,0,0,0,1.77-1.07,4.55,4.55,0,0,0,1-1.47,6,6,0,0,0,.4-1.62q.08-.83.12-1.52l0-1.32q-.27.27-.69.63a6.5,6.5,0,0,1-1.06.71,7.28,7.28,0,0,1-1.47.59,6.72,6.72,0,0,1-1.9.25,6.34,6.34,0,0,1-3.1-.69,6,6,0,0,1-2-1.83,7.56,7.56,0,0,1-1.14-2.61,13.23,13.23,0,0,1-.35-3.05,13.88,13.88,0,0,1,.35-3,8.05,8.05,0,0,1,1.14-2.74,6.14,6.14,0,0,1,2.28-2.13,7.13,7.13,0,0,1,4.9-.58,6.18,6.18,0,0,1,1.3.5,5.52,5.52,0,0,1,1,.66l.79.69v-1.68Zm-1.85,5.85a7.7,7.7,0,0,0-.18-1.74,3.42,3.42,0,0,0-.74-1.44,4.12,4.12,0,0,0-1.47-1.12,4.76,4.76,0,0,0-2.06-.43,4.64,4.64,0,0,0-2.36.56,4.55,4.55,0,0,0-1.58,1.52,7.14,7.14,0,0,0-.91,2.27,12.8,12.8,0,0,0-.3,2.83,13.65,13.65,0,0,0,.2,2.27,6.47,6.47,0,0,0,.74,2.13,4.59,4.59,0,0,0,1.5,1.59,4.5,4.5,0,0,0,2.51.63,5,5,0,0,0,3.27-1.09,4,4,0,0,0,.73-.79,3.62,3.62,0,0,0,.41-.83,3.4,3.4,0,0,0,.18-.88l.07-.91Z"/><path class="cls-1" d="M481,300h-2.28V276.68h12.38v1.75H481v9.14h9.47v1.75H481Z"/><path class="cls-1" d="M505.45,291a26,26,0,0,1-.12,3,8.71,8.71,0,0,1-.83,3,6.07,6.07,0,0,1-2,2.36,6.44,6.44,0,0,1-3.75,1,7.09,7.09,0,0,1-3.6-.79,5.71,5.71,0,0,1-2.08-2,7.52,7.52,0,0,1-1-2.72,19.08,19.08,0,0,1-.23-2.89q0-.56,0-1.44a12.48,12.48,0,0,1,.25-1.83,9.6,9.6,0,0,1,.63-1.93A5.73,5.73,0,0,1,494,285a6,6,0,0,1,1.95-1.27,7.33,7.33,0,0,1,2.85-.5,6.56,6.56,0,0,1,3.7.89,5.91,5.91,0,0,1,2,2.15,7.22,7.22,0,0,1,.81,2.57Q505.42,290.12,505.45,291Zm-2,.23q0-.82-.17-1.95a7.06,7.06,0,0,0-.59-2.13,4.52,4.52,0,0,0-1.35-1.7,3.94,3.94,0,0,0-2.47-.69,4.51,4.51,0,0,0-2.06.43,4.29,4.29,0,0,0-1.39,1.09,4.68,4.68,0,0,0-.83,1.48,11.87,11.87,0,0,0-.43,1.6,8.75,8.75,0,0,0-.17,1.44c0,.44,0,.78,0,1a18.41,18.41,0,0,0,.15,2.26,7.23,7.23,0,0,0,.64,2.24,4.46,4.46,0,0,0,1.47,1.73,4.51,4.51,0,0,0,2.66.69,3.78,3.78,0,0,0,2.61-.83,4.87,4.87,0,0,0,1.35-2,9,9,0,0,0,.51-2.48Q503.4,292.16,503.4,291.24Z"/><path class="cls-1" d="M511,300H509V283.48H511v1.91a16.71,16.71,0,0,1,1.73-1.52,3.66,3.66,0,0,1,2.26-.66,3,3,0,0,1,1.34.23,4.74,4.74,0,0,1,.78.5v2a10.64,10.64,0,0,0-1.11-.65,3.69,3.69,0,0,0-1.7-.34,4.93,4.93,0,0,0-.78.07,3.21,3.21,0,0,0-.84.26,3,3,0,0,0-.94.69,2.52,2.52,0,0,0-.5.81,3.71,3.71,0,0,0-.2.84,6.65,6.65,0,0,0,0,.76Z"/><path class="cls-1" d="M534.72,300h-2.08L529.4,288.7l-.18-.71c-.05-.21-.11-.41-.17-.59s-.1-.38-.15-.59-.1-.46-.17-.74l-.26.79c-.07.2-.12.36-.15.5s-.07.25-.1.35a2.49,2.49,0,0,0-.08.31l-3.86,12h-2l-4.92-16.5h2.21l3.4,12.18c.07.2.12.36.15.5l.1.38q0,.18.1.4c0,.14.08.33.15.54q.2-.66.3-1t.3-1l3.83-12h2l3.3,11.32c.09.29.16.53.21.74l.17.61.17.59q.08.3.18.69c.07-.18.12-.32.15-.43l.1-.31a3,3,0,0,0,.08-.3l.1-.41,3.7-12.51h1.82Z"/><path class="cls-1" d="M553.59,300h-1.36q-1,0-1.19-.45a3.31,3.31,0,0,1-.12-1.4,7.79,7.79,0,0,1-.67.66,5.71,5.71,0,0,1-1,.69,6.4,6.4,0,0,1-1.45.56,7.75,7.75,0,0,1-2,.23l-.81,0a4.87,4.87,0,0,1-.92-.17A4,4,0,0,1,542.2,299a4.33,4.33,0,0,1-.89-1.48,5.28,5.28,0,0,1-.33-1.85,4.15,4.15,0,0,1,.61-2.38,5.3,5.3,0,0,1,1.2-1.32,5.63,5.63,0,0,1,2.3-1q1.35-.28,2.93-.48l2.89-.33v-1.55q0-.56-.07-1.22a3,3,0,0,0-.4-1.22,2.63,2.63,0,0,0-1-.94,4.09,4.09,0,0,0-2-.38,4.72,4.72,0,0,0-2.34.48,3.37,3.37,0,0,0-1.22,1.12,3.24,3.24,0,0,0-.48,1.32,9.24,9.24,0,0,0-.08,1.07h-2A5.25,5.25,0,0,1,542,286a5.06,5.06,0,0,1,1.62-1.72,6.12,6.12,0,0,1,2.1-.86,10.13,10.13,0,0,1,2-.23,8.83,8.83,0,0,1,2.23.3,3.65,3.65,0,0,1,1.81,1,2.85,2.85,0,0,1,.62.89,4.8,4.8,0,0,1,.32,1,7.49,7.49,0,0,1,.13,1q0,.51,0,.94v3.86l-.1,4.16,0,1.45A4.52,4.52,0,0,0,553,299a1,1,0,0,0,.63.58Zm-2.67-8.51q-.86.07-1.82.2l-2,.3q-.43.07-1.1.23a4.85,4.85,0,0,0-1.31.54,3.54,3.54,0,0,0-1.1,1,2.88,2.88,0,0,0-.46,1.68,3,3,0,0,0,1,2.36,3.36,3.36,0,0,0,2.37.87,5.46,5.46,0,0,0,1.46-.21,4.75,4.75,0,0,0,1.33-.58,3.62,3.62,0,0,0,.94-.79,3.05,3.05,0,0,0,.51-.89,4,4,0,0,0,.21-.92,8,8,0,0,0,0-.86Z"/><path class="cls-1" d="M559.14,300h-1.95V283.48h1.95v1.91a16.71,16.71,0,0,1,1.73-1.52,3.66,3.66,0,0,1,2.26-.66,3,3,0,0,1,1.34.23,4.74,4.74,0,0,1,.78.5v2a10.64,10.64,0,0,0-1.11-.65,3.69,3.69,0,0,0-1.7-.34,4.93,4.93,0,0,0-.78.07,3.21,3.21,0,0,0-.84.26,3,3,0,0,0-.94.69,2.52,2.52,0,0,0-.5.81,3.71,3.71,0,0,0-.2.84,6.65,6.65,0,0,0,0,.76Z"/><path class="cls-1" d="M579.73,300h-1.95v-2a7.72,7.72,0,0,1-.58.66,5.09,5.09,0,0,1-1,.78,6.62,6.62,0,0,1-1.5.66,6.94,6.94,0,0,1-2.08.28,6.3,6.3,0,0,1-3-.64,5.46,5.46,0,0,1-2-1.78,7.94,7.94,0,0,1-1.14-2.66,14.11,14.11,0,0,1-.36-3.3,13.54,13.54,0,0,1,.45-3.6,7.92,7.92,0,0,1,1.34-2.77,6.13,6.13,0,0,1,2.23-1.8,7.11,7.11,0,0,1,3.12-.64,6.36,6.36,0,0,1,1.88.25,5.39,5.39,0,0,1,1.3.58,3.85,3.85,0,0,1,.83.69l.48.56v-8.51h1.95Zm-1.91-11.07a5.15,5.15,0,0,0-.31-1.89,3.55,3.55,0,0,0-1.07-1.43,4.21,4.21,0,0,0-1.34-.73,5.11,5.11,0,0,0-1.67-.27,4.52,4.52,0,0,0-2.28.51,4.88,4.88,0,0,0-1.35,1.08,5.43,5.43,0,0,0-1.12,2.27,12.76,12.76,0,0,0-.33,3q0,.86.12,2.1A8.61,8.61,0,0,0,569,296a5.08,5.08,0,0,0,1.42,2,3.9,3.9,0,0,0,2.64.83,5.35,5.35,0,0,0,2.13-.43,4.1,4.1,0,0,0,1.6-1.16,3.56,3.56,0,0,0,.82-1.87q.13-1,.17-1.91Z"/><path class="cls-1" d="M599.2,300H597V278.47h-6.93v-1.75h16v1.75H599.2Z"/><path class="cls-1" d="M616.92,291a26,26,0,0,1-.12,3,8.71,8.71,0,0,1-.83,3,6.07,6.07,0,0,1-2,2.36,6.44,6.44,0,0,1-3.75,1,7.09,7.09,0,0,1-3.6-.79,5.71,5.71,0,0,1-2.08-2,7.52,7.52,0,0,1-1-2.72,19.08,19.08,0,0,1-.23-2.89q0-.56,0-1.44a12.48,12.48,0,0,1,.25-1.83,9.6,9.6,0,0,1,.63-1.93,5.73,5.73,0,0,1,1.2-1.75,6,6,0,0,1,1.95-1.27,7.33,7.33,0,0,1,2.85-.5,6.56,6.56,0,0,1,3.7.89,5.91,5.91,0,0,1,2,2.15,7.22,7.22,0,0,1,.81,2.57Q616.89,290.12,616.92,291Zm-2,.23q0-.82-.17-1.95a7.06,7.06,0,0,0-.59-2.13,4.52,4.52,0,0,0-1.35-1.7,3.94,3.94,0,0,0-2.47-.69,4.51,4.51,0,0,0-2.06.43,4.29,4.29,0,0,0-1.39,1.09,4.68,4.68,0,0,0-.83,1.48,11.87,11.87,0,0,0-.43,1.6,8.75,8.75,0,0,0-.17,1.44c0,.44,0,.78,0,1a18.41,18.41,0,0,0,.15,2.26,7.23,7.23,0,0,0,.64,2.24,4.46,4.46,0,0,0,1.47,1.73,4.51,4.51,0,0,0,2.66.69,3.78,3.78,0,0,0,2.61-.83,4.87,4.87,0,0,0,1.35-2,9,9,0,0,0,.51-2.48Q614.87,292.16,614.87,291.24Z"/><path class="cls-1" d="M633.42,283.52V299a13.9,13.9,0,0,1-.13,1.9,9.08,9.08,0,0,1-.46,1.86,5.59,5.59,0,0,1-.92,1.63,6.24,6.24,0,0,1-2.29,1.7,7.68,7.68,0,0,1-3.25.68,7,7,0,0,1-3.15-.66,4.94,4.94,0,0,1-2-1.58,5.68,5.68,0,0,1-.54-1.15,6,6,0,0,1-.28-2h2c0,.26.05.55.1.86a3,3,0,0,0,.3.92,3.48,3.48,0,0,0,1.3,1.37,4.32,4.32,0,0,0,2.39.61,5.6,5.6,0,0,0,1.78-.3,4.41,4.41,0,0,0,1.77-1.07,4.55,4.55,0,0,0,1-1.47,6,6,0,0,0,.4-1.62q.08-.83.12-1.52l0-1.32q-.27.27-.69.63a6.5,6.5,0,0,1-1.06.71,7.28,7.28,0,0,1-1.47.59,6.72,6.72,0,0,1-1.9.25,6.34,6.34,0,0,1-3.1-.69,6,6,0,0,1-2-1.83,7.56,7.56,0,0,1-1.14-2.61,13.23,13.23,0,0,1-.35-3.05,13.88,13.88,0,0,1,.35-3,8.05,8.05,0,0,1,1.14-2.74,6.14,6.14,0,0,1,2.28-2.13,7.13,7.13,0,0,1,4.9-.58,6.18,6.18,0,0,1,1.3.5,5.52,5.52,0,0,1,1,.66l.79.69v-1.68Zm-1.85,5.85a7.7,7.7,0,0,0-.18-1.74,3.42,3.42,0,0,0-.74-1.44,4.12,4.12,0,0,0-1.47-1.12,4.76,4.76,0,0,0-2.06-.43,4.64,4.64,0,0,0-2.36.56,4.55,4.55,0,0,0-1.58,1.52,7.14,7.14,0,0,0-.91,2.27,12.8,12.8,0,0,0-.3,2.83,13.65,13.65,0,0,0,.2,2.27,6.47,6.47,0,0,0,.74,2.13,4.59,4.59,0,0,0,1.5,1.59,4.5,4.5,0,0,0,2.51.63,5,5,0,0,0,3.27-1.09,4,4,0,0,0,.73-.79,3.62,3.62,0,0,0,.41-.83,3.4,3.4,0,0,0,.18-.88l.07-.91Z"/><path class="cls-1" d="M650.12,295a5,5,0,0,1-.38,1.86,4.88,4.88,0,0,1-1.17,1.7,6.09,6.09,0,0,1-2,1.24,7.52,7.52,0,0,1-2.79.48,10.84,10.84,0,0,1-1.48-.12,5.8,5.8,0,0,1-1.62-.48,5.39,5.39,0,0,1-1.73-1.3,6.62,6.62,0,0,1-1.14-1.83,9.31,9.31,0,0,1-.61-2.18,14.84,14.84,0,0,1-.18-2.31,16.37,16.37,0,0,1,.3-3.05,8.77,8.77,0,0,1,1.07-2.87,6.29,6.29,0,0,1,2.13-2.15,6.53,6.53,0,0,1,3.5-.84,6.19,6.19,0,0,1,3.13.71,5.25,5.25,0,0,1,1.91,1.88,7.41,7.41,0,0,1,.92,2.67,17.94,17.94,0,0,1,.2,3.09h-11q0,.66,0,1.85a7.65,7.65,0,0,0,.5,2.38,5.19,5.19,0,0,0,1.42,2.06,4,4,0,0,0,2.79.87,5.38,5.38,0,0,0,1.42-.2,4,4,0,0,0,1.32-.63,3.62,3.62,0,0,0,1-1.14,3.87,3.87,0,0,0,.48-1.7Zm-1.88-5c0-.26-.07-.69-.13-1.27a5.39,5.39,0,0,0-.51-1.73,4.38,4.38,0,0,0-1.24-1.52,3.61,3.61,0,0,0-2.31-.66q-.23,0-.94.08a3.79,3.79,0,0,0-1.5.56,4.85,4.85,0,0,0-1.49,1.53,6.75,6.75,0,0,0-.89,3Z"/><path class="cls-1" d="M656.06,285l-.1,10.06q0,1.42.08,2a1.78,1.78,0,0,0,.28.87,1.73,1.73,0,0,0,.63.53,2.53,2.53,0,0,0,1.25.26,3.69,3.69,0,0,0,1.25-.18l.92-.35v1.58q-.46.17-1.17.36a6.54,6.54,0,0,1-1.73.2,4.6,4.6,0,0,1-1.47-.2,3.54,3.54,0,0,1-.94-.46,2.13,2.13,0,0,1-.53-.51c-.11-.17-.18-.27-.2-.31a2.36,2.36,0,0,1-.21-.51,3.41,3.41,0,0,1-.12-.68c0-.26,0-.58,0-1s0-.81,0-1.32l.13-10.36h-2.64v-1.48h2.67v-3.73l2-.3-.07,4h3.23V285Z"/><path class="cls-1" d="M674.7,300h-1.95v-9.49q0-1,0-1.85a7.55,7.55,0,0,0-.22-1.57,3.34,3.34,0,0,0-.6-1.24,3,3,0,0,0-1.14-.86,3.19,3.19,0,0,0-.84-.28,5,5,0,0,0-.91-.08,5.76,5.76,0,0,0-2.14.41,4.06,4.06,0,0,0-1.67,1.17,3,3,0,0,0-.68,1.36,10.66,10.66,0,0,0-.15,1.29V300h-1.95V276.68h1.95v8.68q.23-.23.68-.61a6,6,0,0,1,1.11-.73,8.71,8.71,0,0,1,1.53-.61,7.05,7.05,0,0,1,2-.26,6.25,6.25,0,0,1,2.21.4,3.93,3.93,0,0,1,1.75,1.29,3.85,3.85,0,0,1,.84,2q.12,1.06.15,2Z"/><path class="cls-1" d="M691.37,295a5,5,0,0,1-.38,1.86,4.88,4.88,0,0,1-1.17,1.7,6.09,6.09,0,0,1-2,1.24,7.52,7.52,0,0,1-2.79.48,10.84,10.84,0,0,1-1.48-.12,5.8,5.8,0,0,1-1.62-.48,5.39,5.39,0,0,1-1.73-1.3,6.62,6.62,0,0,1-1.14-1.83,9.31,9.31,0,0,1-.61-2.18,14.84,14.84,0,0,1-.18-2.31,16.37,16.37,0,0,1,.3-3.05,8.77,8.77,0,0,1,1.07-2.87,6.29,6.29,0,0,1,2.13-2.15,6.53,6.53,0,0,1,3.5-.84,6.19,6.19,0,0,1,3.13.71,5.25,5.25,0,0,1,1.91,1.88,7.41,7.41,0,0,1,.92,2.67,17.94,17.94,0,0,1,.2,3.09h-11q0,.66,0,1.85a7.65,7.65,0,0,0,.5,2.38,5.19,5.19,0,0,0,1.42,2.06,4,4,0,0,0,2.79.87,5.38,5.38,0,0,0,1.42-.2,4,4,0,0,0,1.32-.63,3.62,3.62,0,0,0,1-1.14,3.87,3.87,0,0,0,.48-1.7Zm-1.88-5c0-.26-.07-.69-.13-1.27a5.39,5.39,0,0,0-.51-1.73,4.38,4.38,0,0,0-1.24-1.52,3.61,3.61,0,0,0-2.31-.66q-.23,0-.94.08a3.79,3.79,0,0,0-1.5.56,4.85,4.85,0,0,0-1.49,1.53,6.75,6.75,0,0,0-.89,3Z"/><path class="cls-1" d="M696.71,300h-1.95V283.48h1.95v1.91a16.71,16.71,0,0,1,1.73-1.52,3.66,3.66,0,0,1,2.26-.66,3,3,0,0,1,1.34.23,4.74,4.74,0,0,1,.78.5v2a10.64,10.64,0,0,0-1.11-.65A3.69,3.69,0,0,0,700,285a4.93,4.93,0,0,0-.78.07,3.21,3.21,0,0,0-.84.26,3,3,0,0,0-.94.69,2.52,2.52,0,0,0-.5.81,3.71,3.71,0,0,0-.2.84,6.65,6.65,0,0,0,0,.76Z"/></svg>