<svg id="Layer_1" data-name="Layer 1" xmlns="http://www.w3.org/2000/svg" viewBox="0 0 966 216"><defs><style>.cls-1{fill:#fff;}.cls-2{fill:#192542;}</style></defs><title>CPT Full Logo invert</title><rect class="cls-1" x="88.47" y="31.61" width="86.16" height="86.16" transform="translate(91.34 -71.14) rotate(45)"/><path class="cls-2" d="M134,84H120.17v14h-9.22V50.49c7.68,0,15.36-.07,23-.07C157.87,50.42,157.94,84,134,84Zm-13.83-8.2H134c11.8,0,11.73-16.81,0-16.81H120.17Z"/><rect class="cls-1" x="154.86" y="98" width="86.16" height="86.16" transform="translate(157.73 -98.64) rotate(45)"/><rect class="cls-1" x="21.84" y="98.23" width="86.16" height="86.16" transform="translate(118.94 -4.52) rotate(45)"/><path class="cls-2" d="M192.73,128.87h-15.5v-8.13h40.22v8.13h-15.5v39.31h-9.22Z"/><path class="cls-2" d="M87.78,157.54a26.19,26.19,0,0,1-18.57,7c-18.15,0-25.83-12.13-25.9-24.47s8.24-25,25.9-25a25.61,25.61,0,0,1,17.94,7.25L81,128.12a17.07,17.07,0,0,0-11.8-4.47c-11.8,0-16.9,8.54-16.83,16.47s4.75,16.06,16.83,16.06a18.29,18.29,0,0,0,12.29-4.81Z"/><path class="cls-1" d="M311.1,97.82a22.29,22.29,0,0,1-9.19,1.65c-9.81,0-17.19-6.19-17.19-17.6,0-10.89,7.38-18.27,18.17-18.27a18.65,18.65,0,0,1,8.26,1.55l-1.08,3.67a16.36,16.36,0,0,0-7-1.45c-8.16,0-13.58,5.21-13.58,14.35,0,8.52,4.9,14,13.37,14a18,18,0,0,0,7.33-1.45Z"/><path class="cls-1" d="M338.62,86.25c0,9.24-6.4,13.27-12.44,13.27-6.76,0-12-5-12-12.85,0-8.36,5.47-13.27,12.39-13.27C333.76,73.4,338.62,78.62,338.62,86.25Zm-19.82.26c0,5.47,3.15,9.6,7.59,9.6S334,92,334,86.41c0-4.23-2.12-9.6-7.49-9.6S318.79,81.76,318.79,86.51Z"/><path class="cls-1" d="M344.35,80.73c0-2.58-.05-4.7-.21-6.76h4l.21,4h.15a8.61,8.61,0,0,1,7.85-4.59,7.39,7.39,0,0,1,7.07,5h.1a10.28,10.28,0,0,1,2.79-3.25,8.53,8.53,0,0,1,5.52-1.76c3.3,0,8.21,2.17,8.21,10.84V99h-4.44V84.81c0-4.8-1.76-7.69-5.42-7.69a5.88,5.88,0,0,0-5.37,4.13,7.5,7.5,0,0,0-.36,2.27V99H360V84c0-4-1.75-6.87-5.21-6.87-2.84,0-4.9,2.27-5.63,4.54a6.25,6.25,0,0,0-.36,2.22V99h-4.44Z"/><path class="cls-1" d="M387.4,80.73c0-2.58-.05-4.7-.21-6.76h4l.21,4h.15a8.61,8.61,0,0,1,7.85-4.59,7.39,7.39,0,0,1,7.07,5h.1a10.28,10.28,0,0,1,2.79-3.25,8.53,8.53,0,0,1,5.52-1.76c3.3,0,8.21,2.17,8.21,10.84V99h-4.44V84.81c0-4.8-1.76-7.69-5.42-7.69a5.88,5.88,0,0,0-5.37,4.13,7.5,7.5,0,0,0-.36,2.27V99H403V84c0-4-1.75-6.87-5.21-6.87-2.84,0-4.9,2.27-5.63,4.54a6.25,6.25,0,0,0-.36,2.22V99H387.4Z"/><path class="cls-1" d="M451.35,92.14c0,2.58.05,4.85.21,6.81h-4l-.26-4.08h-.1a9.4,9.4,0,0,1-8.26,4.65c-3.92,0-8.62-2.17-8.62-10.94V74h4.54V87.8c0,4.75,1.45,7.95,5.58,7.95a6.39,6.39,0,0,0,6.4-6.45V74h4.54Z"/><path class="cls-1" d="M458.89,80.73c0-2.58-.05-4.7-.21-6.76h4L463,78.1h.1a9.19,9.19,0,0,1,8.26-4.7c3.46,0,8.83,2.06,8.83,10.63V99h-4.54V84.55c0-4-1.5-7.38-5.78-7.38a6.66,6.66,0,0,0-6.4,6.76V99h-4.54Z"/><path class="cls-1" d="M492.6,66.95a2.81,2.81,0,0,1-5.63,0,2.77,2.77,0,0,1,2.84-2.84A2.7,2.7,0,0,1,492.6,66.95Zm-5.06,32V74h4.54V99Z"/><path class="cls-1" d="M505.09,66.79V74h6.5v3.46h-6.5V90.9c0,3.1.88,4.85,3.41,4.85a10.1,10.1,0,0,0,2.63-.31l.21,3.41a11.12,11.12,0,0,1-4,.62,6.3,6.3,0,0,1-4.9-1.91c-1.29-1.34-1.75-3.56-1.75-6.5V77.43h-3.87V74h3.87V68Z"/><path class="cls-1" d="M518.82,74l5.47,14.76c.57,1.65,1.19,3.61,1.6,5.11h.1c.46-1.5,1-3.41,1.6-5.21l5-14.66h4.8l-6.81,17.81c-3.25,8.57-5.47,13-8.57,15.64a12.31,12.31,0,0,1-5.58,2.94l-1.14-3.82a12,12,0,0,0,4-2.22,13.77,13.77,0,0,0,3.82-5.06,3.27,3.27,0,0,0,.36-1.08A4,4,0,0,0,523.1,97l-9.24-23Z"/><path class="cls-1" d="M575,86.25c0,9.24-6.4,13.27-12.44,13.27-6.76,0-12-5-12-12.85,0-8.36,5.47-13.27,12.39-13.27C570.18,73.4,575,78.62,575,86.25Zm-19.82.26c0,5.47,3.15,9.6,7.59,9.6s7.59-4.08,7.59-9.7c0-4.23-2.12-9.6-7.49-9.6S555.21,81.76,555.21,86.51Z"/><path class="cls-1" d="M581.22,99V77.43h-3.51V74h3.51V72.78c0-3.51.77-6.71,2.89-8.72a8.69,8.69,0,0,1,6.09-2.32,10.53,10.53,0,0,1,3.87.72L593.46,66a6.78,6.78,0,0,0-2.89-.57c-3.87,0-4.85,3.41-4.85,7.23V74h6v3.46h-6V99Z"/><path class="cls-1" d="M606.93,64.57a52.06,52.06,0,0,1,8.62-.67c4.44,0,7.69,1,9.76,2.89a9.35,9.35,0,0,1,3,7.28,10.24,10.24,0,0,1-2.68,7.43c-2.37,2.53-6.25,3.82-10.63,3.82a15.45,15.45,0,0,1-3.61-.31V99h-4.49Zm4.49,16.78a15.05,15.05,0,0,0,3.72.36c5.42,0,8.72-2.63,8.72-7.43,0-4.59-3.25-6.81-8.21-6.81a18.85,18.85,0,0,0-4.23.36Z"/><path class="cls-1" d="M646.73,99l-.36-3.15h-.16a9.3,9.3,0,0,1-7.64,3.72c-5.06,0-7.64-3.56-7.64-7.18,0-6,5.37-9.34,15-9.29v-.52c0-2.06-.57-5.78-5.68-5.78a12.45,12.45,0,0,0-6.5,1.86l-1-3a15.51,15.51,0,0,1,8.21-2.22c7.64,0,9.5,5.21,9.5,10.22V93a35.19,35.19,0,0,0,.41,6Zm-.67-12.75c-5-.1-10.58.77-10.58,5.63a4,4,0,0,0,4.28,4.34,6.22,6.22,0,0,0,6-4.18,4.76,4.76,0,0,0,.26-1.45Z"/><path class="cls-1" d="M657.16,94.31a11.9,11.9,0,0,0,6,1.81c3.3,0,4.85-1.65,4.85-3.72s-1.29-3.36-4.65-4.59c-4.49-1.6-6.61-4.08-6.61-7.07,0-4,3.25-7.33,8.62-7.33A12.47,12.47,0,0,1,671.51,75l-1.14,3.3a9.72,9.72,0,0,0-5.11-1.45c-2.68,0-4.18,1.55-4.18,3.41,0,2.06,1.5,3,4.75,4.23,4.34,1.65,6.56,3.82,6.56,7.54,0,4.39-3.41,7.48-9.34,7.48a14.24,14.24,0,0,1-7-1.7Z"/><path class="cls-1" d="M683.28,66.95a2.81,2.81,0,0,1-5.63,0,2.77,2.77,0,0,1,2.84-2.84A2.7,2.7,0,0,1,683.28,66.95Zm-5.06,32V74h4.54V99Z"/><path class="cls-1" d="M690.76,99V77.43h-3.51V74h3.51V72.63c0-6.61,3.87-10.89,10.89-10.89A12.5,12.5,0,0,1,708,63.39l-1.29,3.46a9.55,9.55,0,0,0-5.27-1.45c-4.8,0-6.19,3.36-6.19,7.33V74h14.51V99h-4.49V77.43h-10V99Z"/><path class="cls-1" d="M721.78,85.43h.1c.62-.88,1.5-2,2.22-2.84L731.44,74h5.47l-9.65,10.27,11,14.71h-5.52l-8.62-12-2.32,2.58V99h-4.49V62.3h4.49Z"/><path class="cls-1" d="M756.27,99l-.36-3.15h-.16a9.3,9.3,0,0,1-7.64,3.72c-5.06,0-7.64-3.56-7.64-7.18,0-6,5.37-9.34,15-9.29v-.52c0-2.06-.57-5.78-5.68-5.78a12.45,12.45,0,0,0-6.5,1.86l-1-3a15.51,15.51,0,0,1,8.21-2.22c7.64,0,9.5,5.21,9.5,10.22V93a35.19,35.19,0,0,0,.41,6Zm-.67-12.75c-5-.1-10.58.77-10.58,5.63a4,4,0,0,0,4.28,4.34,6.22,6.22,0,0,0,6-4.18,4.76,4.76,0,0,0,.26-1.45Z"/><path class="cls-1" d="M782.9,68H772.32V64.16h25.76V68H787.44V99H782.9Z"/><path class="cls-1" d="M800.66,87.29c.1,6.14,4,8.67,8.57,8.67a16.43,16.43,0,0,0,6.92-1.29l.77,3.25a20.24,20.24,0,0,1-8.31,1.55c-7.69,0-12.29-5.06-12.29-12.6S800.76,73.4,808,73.4c8.16,0,10.32,7.18,10.32,11.77a17.1,17.1,0,0,1-.16,2.12ZM814,84c.05-2.89-1.19-7.38-6.3-7.38-4.59,0-6.61,4.23-7,7.38Z"/><path class="cls-1" d="M837.82,99l-.36-3.15h-.16a9.3,9.3,0,0,1-7.64,3.72c-5.06,0-7.64-3.56-7.64-7.18,0-6,5.37-9.34,15-9.29v-.52c0-2.06-.57-5.78-5.68-5.78a12.45,12.45,0,0,0-6.5,1.86l-1-3A15.51,15.51,0,0,1,832,73.4c7.64,0,9.5,5.21,9.5,10.22V93a35.19,35.19,0,0,0,.41,6Zm-.67-12.75c-5-.1-10.58.77-10.58,5.63a4,4,0,0,0,4.28,4.34,6.22,6.22,0,0,0,6-4.18,4.76,4.76,0,0,0,.26-1.45Z"/><path class="cls-1" d="M866.68,98a16.73,16.73,0,0,1-7.17,1.45c-7.54,0-12.44-5.11-12.44-12.75s5.26-13.27,13.42-13.27a15.18,15.18,0,0,1,6.3,1.29l-1,3.51a10.53,10.53,0,0,0-5.27-1.19c-5.73,0-8.83,4.23-8.83,9.45,0,5.78,3.72,9.34,8.67,9.34a12.9,12.9,0,0,0,5.57-1.24Z"/><path class="cls-1" d="M872,62.3h4.54V77.89h.1a8.43,8.43,0,0,1,3.25-3.2,9.35,9.35,0,0,1,4.65-1.29c3.35,0,8.72,2.06,8.72,10.69V99h-4.54V84.6c0-4-1.5-7.43-5.78-7.43a6.52,6.52,0,0,0-6.09,4.54,5.49,5.49,0,0,0-.31,2.17V99H872Z"/><path class="cls-1" d="M903.17,87.29c.1,6.14,4,8.67,8.57,8.67a16.43,16.43,0,0,0,6.92-1.29l.77,3.25a20.24,20.24,0,0,1-8.31,1.55c-7.69,0-12.29-5.06-12.29-12.6s4.44-13.47,11.72-13.47c8.16,0,10.32,7.18,10.32,11.77a17.1,17.1,0,0,1-.16,2.12ZM916.49,84c.05-2.89-1.19-7.38-6.3-7.38-4.59,0-6.61,4.23-7,7.38Z"/><path class="cls-1" d="M926.5,81.76c0-2.94-.05-5.47-.21-7.79h4l.16,4.9h.21c1.14-3.35,3.87-5.47,6.92-5.47a4.92,4.92,0,0,1,1.29.15v4.28a6.84,6.84,0,0,0-1.55-.15c-3.2,0-5.47,2.43-6.09,5.83a12.76,12.76,0,0,0-.21,2.12V99H926.5Z"/><path class="cls-1" d="M942.76,94.31a11.9,11.9,0,0,0,6,1.81c3.3,0,4.85-1.65,4.85-3.72S952.31,89,949,87.8c-4.49-1.6-6.61-4.08-6.61-7.07,0-4,3.25-7.33,8.62-7.33A12.47,12.47,0,0,1,957.11,75L956,78.25a9.72,9.72,0,0,0-5.11-1.45c-2.68,0-4.18,1.55-4.18,3.41,0,2.06,1.5,3,4.75,4.23C955.77,86.1,958,88.27,958,92c0,4.39-3.41,7.48-9.34,7.48a14.24,14.24,0,0,1-7-1.7Z"/><path class="cls-1" d="M301,140h-12.4V118.13h2.08v20.24H301Z"/><path class="cls-1" d="M313.82,135.33a4.66,4.66,0,0,1-.36,1.75,4.56,4.56,0,0,1-1.1,1.6,5.72,5.72,0,0,1-1.87,1.16,7.07,7.07,0,0,1-2.62.45,10.16,10.16,0,0,1-1.39-.11,5.45,5.45,0,0,1-1.52-.45,5.08,5.08,0,0,1-1.63-1.22,6.2,6.2,0,0,1-1.07-1.72,8.73,8.73,0,0,1-.57-2,14,14,0,0,1-.17-2.17,15.43,15.43,0,0,1,.28-2.87,8.24,8.24,0,0,1,1-2.7,5.91,5.91,0,0,1,2-2,6.14,6.14,0,0,1,3.29-.79,5.81,5.81,0,0,1,2.95.67,4.92,4.92,0,0,1,1.8,1.77,7,7,0,0,1,.87,2.51,16.87,16.87,0,0,1,.19,2.9H303.53q0,.62,0,1.74A7.15,7.15,0,0,0,304,136a4.87,4.87,0,0,0,1.33,1.94,3.79,3.79,0,0,0,2.62.82,5.05,5.05,0,0,0,1.33-.19,3.81,3.81,0,0,0,1.24-.59,3.4,3.4,0,0,0,.95-1.07,3.6,3.6,0,0,0,.45-1.6Zm-1.77-4.74q0-.37-.12-1.19a5.08,5.08,0,0,0-.48-1.63,4.11,4.11,0,0,0-1.16-1.43,3.39,3.39,0,0,0-2.17-.62c-.14,0-.44,0-.88.08a3.56,3.56,0,0,0-1.41.53,4.55,4.55,0,0,0-1.39,1.44,6.33,6.33,0,0,0-.84,2.82Z"/><path class="cls-1" d="M327.84,140h-1.28q-.95,0-1.12-.42a3.12,3.12,0,0,1-.11-1.32,7.33,7.33,0,0,1-.63.62,5.33,5.33,0,0,1-.94.65,6,6,0,0,1-1.36.53,7.29,7.29,0,0,1-1.88.22l-.76,0a4.52,4.52,0,0,1-.87-.16,3.72,3.72,0,0,1-1.75-1.08,4.06,4.06,0,0,1-.83-1.4,5,5,0,0,1-.31-1.74,3.9,3.9,0,0,1,.57-2.23,5,5,0,0,1,1.13-1.24,5.3,5.3,0,0,1,2.16-.95q1.27-.26,2.75-.45l2.72-.31v-1.46q0-.53-.06-1.15a2.77,2.77,0,0,0-.37-1.15,2.45,2.45,0,0,0-.95-.88,3.84,3.84,0,0,0-1.84-.36,4.43,4.43,0,0,0-2.2.45,3.17,3.17,0,0,0-1.15,1.05,3.05,3.05,0,0,0-.45,1.24,8.8,8.8,0,0,0-.08,1h-1.86a4.92,4.92,0,0,1,.57-2.63,4.76,4.76,0,0,1,1.52-1.61,5.76,5.76,0,0,1,2-.81,9.49,9.49,0,0,1,1.89-.22,8.29,8.29,0,0,1,2.09.28,3.42,3.42,0,0,1,1.7,1,2.68,2.68,0,0,1,.58.84,4.58,4.58,0,0,1,.3.93,7.07,7.07,0,0,1,.13.95q0,.48,0,.88v3.63l-.09,3.91,0,1.36a4.24,4.24,0,0,0,.16,1.13.94.94,0,0,0,.59.54Zm-2.51-8q-.8.06-1.71.19l-1.9.28q-.4.06-1,.22a4.55,4.55,0,0,0-1.23.51,3.31,3.31,0,0,0-1,1,2.7,2.7,0,0,0-.43,1.58,2.86,2.86,0,0,0,.9,2.22,3.16,3.16,0,0,0,2.22.82,5.13,5.13,0,0,0,1.37-.2,4.46,4.46,0,0,0,1.25-.54,3.38,3.38,0,0,0,.88-.74,2.88,2.88,0,0,0,.48-.84,3.81,3.81,0,0,0,.2-.87,7.54,7.54,0,0,0,0-.81Z"/><path class="cls-1" d="M333,140h-1.83V124.48H333v1.8a15.68,15.68,0,0,1,1.63-1.43,3.43,3.43,0,0,1,2.12-.62,2.83,2.83,0,0,1,1.26.22,4.47,4.47,0,0,1,.73.46v1.89a10,10,0,0,0-1-.61,3.46,3.46,0,0,0-1.6-.32,4.65,4.65,0,0,0-.73.06,3,3,0,0,0-.79.25,2.85,2.85,0,0,0-.88.65,2.4,2.4,0,0,0-.46.76,3.53,3.53,0,0,0-.19.79,6.23,6.23,0,0,0,0,.71Z"/><path class="cls-1" d="M352.42,140h-1.83v-9q0-.59,0-1.17t-.08-1.17q0-.25-.14-.78a2.83,2.83,0,0,0-.46-1,3.18,3.18,0,0,0-1-.9,3.45,3.45,0,0,0-1.77-.39,7.18,7.18,0,0,0-.85.06,4.56,4.56,0,0,0-1.13.31,4.1,4.1,0,0,0-1.32.81,3.23,3.23,0,0,0-1,1.94,6.67,6.67,0,0,0-.06.85V140h-1.83v-15.5h1.83v1.74l.67-.57a6.28,6.28,0,0,1,1-.7,6.81,6.81,0,0,1,1.46-.57,7.07,7.07,0,0,1,1.89-.23,5.9,5.9,0,0,1,2.11.39,3.44,3.44,0,0,1,1.64,1.29,4,4,0,0,1,.74,1.88,15.57,15.57,0,0,1,.12,1.91Z"/><path class="cls-1" d="M358.22,120.83h-1.83v-2.29h1.83Zm0,19.19h-1.83v-15.5h1.83Z"/><path class="cls-1" d="M373.71,140h-1.83v-9q0-.59,0-1.17t-.08-1.17q0-.25-.14-.78a2.83,2.83,0,0,0-.46-1,3.18,3.18,0,0,0-1-.9,3.45,3.45,0,0,0-1.77-.39,7.18,7.18,0,0,0-.85.06,4.56,4.56,0,0,0-1.13.31,4.1,4.1,0,0,0-1.32.81,3.23,3.23,0,0,0-1,1.94,6.67,6.67,0,0,0-.06.85V140h-1.83v-15.5H364v1.74l.67-.57a6.28,6.28,0,0,1,1-.7,6.81,6.81,0,0,1,1.46-.57,7.07,7.07,0,0,1,1.89-.23,5.9,5.9,0,0,1,2.11.39,3.44,3.44,0,0,1,1.64,1.29,4,4,0,0,1,.74,1.88,15.57,15.57,0,0,1,.12,1.91Z"/><path class="cls-1" d="M389.83,124.52v14.55a13,13,0,0,1-.12,1.78,8.58,8.58,0,0,1-.43,1.75,5.23,5.23,0,0,1-.87,1.53,5.86,5.86,0,0,1-2.15,1.6,7.22,7.22,0,0,1-3.05.64,6.62,6.62,0,0,1-3-.62,4.64,4.64,0,0,1-1.84-1.49,5.37,5.37,0,0,1-.51-1.08,5.58,5.58,0,0,1-.26-1.89h1.89c0,.25.05.52.09.81a2.83,2.83,0,0,0,.28.87,3.27,3.27,0,0,0,1.22,1.29,4.05,4.05,0,0,0,2.25.57,5.26,5.26,0,0,0,1.67-.28,4.15,4.15,0,0,0,1.66-1,4.3,4.3,0,0,0,.9-1.38,5.64,5.64,0,0,0,.37-1.52c.05-.52.09-1,.11-1.43l0-1.24q-.25.25-.65.59a6.09,6.09,0,0,1-1,.67,6.88,6.88,0,0,1-1.38.56,6.33,6.33,0,0,1-1.78.23,6,6,0,0,1-2.91-.65,5.61,5.61,0,0,1-1.92-1.72,7.09,7.09,0,0,1-1.07-2.45,12.46,12.46,0,0,1-.33-2.87,13.07,13.07,0,0,1,.33-2.85,7.55,7.55,0,0,1,1.07-2.57,5.76,5.76,0,0,1,2.14-2,6.69,6.69,0,0,1,4.6-.54,5.82,5.82,0,0,1,1.22.46,5.22,5.22,0,0,1,.93.62l.74.65v-1.58ZM388.1,130a7.21,7.21,0,0,0-.17-1.63,3.22,3.22,0,0,0-.7-1.35,3.87,3.87,0,0,0-1.38-1.06,4.47,4.47,0,0,0-1.94-.4,4.36,4.36,0,0,0-2.22.53,4.27,4.27,0,0,0-1.49,1.43,6.68,6.68,0,0,0-.85,2.13,12,12,0,0,0-.28,2.66,12.8,12.8,0,0,0,.19,2.13,6.07,6.07,0,0,0,.7,2,4.31,4.31,0,0,0,1.41,1.49,4.22,4.22,0,0,0,2.36.59,4.73,4.73,0,0,0,3.07-1,3.74,3.74,0,0,0,.68-.75,3.46,3.46,0,0,0,.39-.78,3.25,3.25,0,0,0,.17-.82l.06-.85Z"/><path class="cls-1" d="M394.86,143.08h-1.27L395,140h-1.27v-2.45h2.54v2.33Z"/><path class="cls-1" d="M423.93,133.35q-.06.56-.19,1.26a7.79,7.79,0,0,1-.4,1.43,6.41,6.41,0,0,1-.81,1.46,6.54,6.54,0,0,1-1.4,1.38,7,7,0,0,1-2.77,1.24,14.16,14.16,0,0,1-2.68.28q-.43,0-1.33-.06a7.26,7.26,0,0,1-1.94-.43,7.19,7.19,0,0,1-2.06-1.19,5.92,5.92,0,0,1-1.67-2.34,8.57,8.57,0,0,1-.54-1.58,13.37,13.37,0,0,1-.29-1.71q-.09-.87-.12-1.71t0-1.55q0-1.18.06-2.34a22.69,22.69,0,0,1,.25-2.34,16.36,16.36,0,0,1,.53-2.25,7.73,7.73,0,0,1,1-2.06A6.64,6.64,0,0,1,411.3,119a7.78,7.78,0,0,1,1.92-.93,7.35,7.35,0,0,1,1.74-.34q.79,0,1.22,0a11.87,11.87,0,0,1,2.33.22,8.37,8.37,0,0,1,1.05.29,6.13,6.13,0,0,1,1.18.56,5.87,5.87,0,0,1,1.15.93,5.74,5.74,0,0,1,1,1.44,5.4,5.4,0,0,1,.68,2q.09.93.09,1.36h-2.11a5.73,5.73,0,0,0-.5-2.51,4.69,4.69,0,0,0-1.27-1.64,4.76,4.76,0,0,0-1.77-.88,7.83,7.83,0,0,0-2-.26,7,7,0,0,0-2.22.36,4.74,4.74,0,0,0-1.87,1.16,5.47,5.47,0,0,0-.85,1.13,7.12,7.12,0,0,0-.67,1.69,15,15,0,0,0-.42,2.46q-.14,1.44-.14,3.49,0,1.12,0,2.08a15.49,15.49,0,0,0,.2,1.86q.12.74.33,1.49a6.06,6.06,0,0,0,1.84,2.81,5.32,5.32,0,0,0,1.36.76,4.84,4.84,0,0,0,1.27.29c.39,0,.71,0,1,0a7.61,7.61,0,0,0,2.27-.34,5.62,5.62,0,0,0,1.87-1,4.22,4.22,0,0,0,.93-1.07,5.86,5.86,0,0,0,.53-1.13,6.45,6.45,0,0,0,.26-1.08c.05-.35.09-.66.11-.93Z"/><path class="cls-1" d="M438.91,131.55a24.3,24.3,0,0,1-.11,2.79,8.21,8.21,0,0,1-.77,2.84,5.71,5.71,0,0,1-1.92,2.22,6.05,6.05,0,0,1-3.52.9,6.66,6.66,0,0,1-3.38-.74,5.36,5.36,0,0,1-2-1.89,7,7,0,0,1-.9-2.56,17.86,17.86,0,0,1-.22-2.71q0-.53,0-1.35a11.83,11.83,0,0,1,.23-1.72,9,9,0,0,1,.59-1.81,5.36,5.36,0,0,1,1.13-1.64,5.68,5.68,0,0,1,1.83-1.19,6.9,6.9,0,0,1,2.68-.46,6.16,6.16,0,0,1,3.47.84,5.57,5.57,0,0,1,1.86,2,6.82,6.82,0,0,1,.76,2.42Q438.88,130.72,438.91,131.55Zm-1.92.22q0-.77-.16-1.83a6.61,6.61,0,0,0-.56-2,4.25,4.25,0,0,0-1.27-1.6,3.7,3.7,0,0,0-2.33-.65,4.23,4.23,0,0,0-1.94.4,4,4,0,0,0-1.3,1,4.38,4.38,0,0,0-.77,1.4,11.21,11.21,0,0,0-.4,1.5,8.39,8.39,0,0,0-.16,1.35q0,.62,0,1a17.44,17.44,0,0,0,.14,2.12,6.84,6.84,0,0,0,.6,2.11,3.91,3.91,0,0,0,3.88,2.28,3.55,3.55,0,0,0,2.45-.77,4.59,4.59,0,0,0,1.27-1.89,8.39,8.39,0,0,0,.48-2.32Q437,132.64,437,131.77Z"/><path class="cls-1" d="M453.79,140H452v-9q0-.59,0-1.17t-.08-1.17q0-.25-.14-.78a2.83,2.83,0,0,0-.46-1,3.18,3.18,0,0,0-1-.9,3.45,3.45,0,0,0-1.77-.39,7.18,7.18,0,0,0-.85.06,4.56,4.56,0,0,0-1.13.31,4.1,4.1,0,0,0-1.32.81,3.23,3.23,0,0,0-1,1.94,6.67,6.67,0,0,0-.06.85V140h-1.83v-15.5h1.83v1.74l.67-.57a6.28,6.28,0,0,1,1-.7,6.81,6.81,0,0,1,1.46-.57,7.07,7.07,0,0,1,1.89-.23,5.9,5.9,0,0,1,2.11.39,3.44,3.44,0,0,1,1.64,1.29,4,4,0,0,1,.74,1.88,15.57,15.57,0,0,1,.12,1.91Z"/><path class="cls-1" d="M469.29,140h-1.83v-9q0-.59,0-1.17t-.08-1.17q0-.25-.14-.78a2.83,2.83,0,0,0-.46-1,3.18,3.18,0,0,0-1-.9,3.45,3.45,0,0,0-1.77-.39,7.18,7.18,0,0,0-.85.06,4.56,4.56,0,0,0-1.13.31,4.1,4.1,0,0,0-1.32.81,3.23,3.23,0,0,0-1,1.94,6.67,6.67,0,0,0-.06.85V140h-1.83v-15.5h1.83v1.74l.67-.57a6.28,6.28,0,0,1,1-.7,6.81,6.81,0,0,1,1.46-.57,7.07,7.07,0,0,1,1.89-.23,5.9,5.9,0,0,1,2.11.39,3.44,3.44,0,0,1,1.64,1.29,4,4,0,0,1,.74,1.88,15.57,15.57,0,0,1,.12,1.91Z"/><path class="cls-1" d="M484.94,135.33a4.66,4.66,0,0,1-.36,1.75,4.56,4.56,0,0,1-1.1,1.6,5.72,5.72,0,0,1-1.87,1.16,7.07,7.07,0,0,1-2.62.45,10.16,10.16,0,0,1-1.39-.11,5.45,5.45,0,0,1-1.52-.45,5.08,5.08,0,0,1-1.63-1.22,6.2,6.2,0,0,1-1.07-1.72,8.73,8.73,0,0,1-.57-2,14,14,0,0,1-.17-2.17,15.43,15.43,0,0,1,.28-2.87,8.24,8.24,0,0,1,1-2.7,5.91,5.91,0,0,1,2-2,6.14,6.14,0,0,1,3.29-.79,5.81,5.81,0,0,1,2.95.67,4.92,4.92,0,0,1,1.8,1.77,7,7,0,0,1,.87,2.51A16.87,16.87,0,0,1,485,132H474.65q0,.62,0,1.74a7.15,7.15,0,0,0,.46,2.23A4.87,4.87,0,0,0,476.5,138a3.79,3.79,0,0,0,2.62.82,5.05,5.05,0,0,0,1.33-.19,3.81,3.81,0,0,0,1.24-.59,3.4,3.4,0,0,0,.95-1.07,3.6,3.6,0,0,0,.45-1.6Zm-1.77-4.74q0-.37-.12-1.19a5.08,5.08,0,0,0-.48-1.63,4.11,4.11,0,0,0-1.16-1.43,3.39,3.39,0,0,0-2.17-.62c-.14,0-.44,0-.88.08a3.56,3.56,0,0,0-1.41.53,4.55,4.55,0,0,0-1.39,1.44,6.33,6.33,0,0,0-.84,2.82Z"/><path class="cls-1" d="M499.79,134.87q0,.31-.11.79a5.77,5.77,0,0,1-.28,1,5.16,5.16,0,0,1-.6,1.15,5.57,5.57,0,0,1-1.08,1.15,5.29,5.29,0,0,1-2,1,8,8,0,0,1-2,.26,6,6,0,0,1-4-1.3,6.26,6.26,0,0,1-2-3.91,15.64,15.64,0,0,1-.22-2.63q0-.81.08-1.6a12.56,12.56,0,0,1,.26-1.6q.09-.4.29-1a5.59,5.59,0,0,1,.6-1.26,6.89,6.89,0,0,1,1-1.24,5.45,5.45,0,0,1,1.58-1,7.43,7.43,0,0,1,2.73-.5q.44,0,1,0a5.94,5.94,0,0,1,1.13.22,5.72,5.72,0,0,1,1.18.5,4.42,4.42,0,0,1,1.08.85,4.1,4.1,0,0,1,.73,1.05,6.41,6.41,0,0,1,.59,2.06q0,.45,0,.73h-2a4.48,4.48,0,0,0-.33-1.8,3.56,3.56,0,0,0-.85-1.22,3.22,3.22,0,0,0-1.22-.7,5,5,0,0,0-1.47-.22,6.11,6.11,0,0,0-1.36.2A3.32,3.32,0,0,0,491,127a4.62,4.62,0,0,0-1,1.81,9.08,9.08,0,0,0-.34,1.72q-.06.43-.09.88t0,.88a12.6,12.6,0,0,0,.23,2.46,6.42,6.42,0,0,0,.76,2,4.2,4.2,0,0,0,1.35,1.41,3.62,3.62,0,0,0,2,.53,4.68,4.68,0,0,0,1.49-.25,3.21,3.21,0,0,0,1.83-1.52,5.46,5.46,0,0,0,.36-.81,5,5,0,0,0,.2-.76c0-.24.07-.43.09-.57Z"/><path class="cls-1" d="M504.72,125.91l-.09,9.46q0,1.33.08,1.84a1.67,1.67,0,0,0,.26.82,1.63,1.63,0,0,0,.59.5,2.37,2.37,0,0,0,1.18.25,3.46,3.46,0,0,0,1.18-.17l.87-.33v1.49q-.43.16-1.1.34a6.13,6.13,0,0,1-1.63.19,4.32,4.32,0,0,1-1.38-.19,3.34,3.34,0,0,1-.88-.43,2,2,0,0,1-.5-.48l-.19-.29a2.16,2.16,0,0,1-.2-.48,3.14,3.14,0,0,1-.11-.64q0-.37,0-.9t0-1.24l.12-9.73h-2.48v-1.4h2.51V121l1.92-.28-.06,3.78h3v1.4Z"/><path class="cls-1" d="M512.53,120.83H510.7v-2.29h1.83Zm0,19.19H510.7v-15.5h1.83Z"/><path class="cls-1" d="M528,140H526.2v-9q0-.59,0-1.17t-.08-1.17q0-.25-.14-.78a2.83,2.83,0,0,0-.46-1,3.18,3.18,0,0,0-1-.9,3.45,3.45,0,0,0-1.77-.39,7.18,7.18,0,0,0-.85.06,4.56,4.56,0,0,0-1.13.31,4.1,4.1,0,0,0-1.32.81,3.23,3.23,0,0,0-1,1.94,6.67,6.67,0,0,0-.06.85V140h-1.83v-15.5h1.83v1.74l.67-.57a6.28,6.28,0,0,1,1-.7,6.81,6.81,0,0,1,1.46-.57,7.07,7.07,0,0,1,1.89-.23,5.9,5.9,0,0,1,2.11.39,3.44,3.44,0,0,1,1.64,1.29,4,4,0,0,1,.74,1.88,15.57,15.57,0,0,1,.12,1.91Z"/><path class="cls-1" d="M544.15,124.52v14.55a13,13,0,0,1-.12,1.78,8.58,8.58,0,0,1-.43,1.75,5.23,5.23,0,0,1-.87,1.53,5.86,5.86,0,0,1-2.15,1.6,7.22,7.22,0,0,1-3.05.64,6.62,6.62,0,0,1-3-.62,4.64,4.64,0,0,1-1.84-1.49,5.37,5.37,0,0,1-.51-1.08,5.58,5.58,0,0,1-.26-1.89h1.89c0,.25.05.52.09.81a2.83,2.83,0,0,0,.28.87,3.27,3.27,0,0,0,1.22,1.29,4.05,4.05,0,0,0,2.25.57,5.26,5.26,0,0,0,1.67-.28,4.15,4.15,0,0,0,1.66-1,4.3,4.3,0,0,0,.9-1.38,5.64,5.64,0,0,0,.37-1.52c.05-.52.09-1,.11-1.43l0-1.24q-.25.25-.65.59a6.09,6.09,0,0,1-1,.67,6.88,6.88,0,0,1-1.38.56,6.33,6.33,0,0,1-1.78.23,6,6,0,0,1-2.91-.65,5.61,5.61,0,0,1-1.92-1.72,7.09,7.09,0,0,1-1.07-2.45,12.46,12.46,0,0,1-.33-2.87,13.07,13.07,0,0,1,.33-2.85,7.55,7.55,0,0,1,1.07-2.57,5.76,5.76,0,0,1,2.14-2,6.69,6.69,0,0,1,4.6-.54,5.82,5.82,0,0,1,1.22.46,5.22,5.22,0,0,1,.93.62l.74.65v-1.58Zm-1.74,5.5a7.21,7.21,0,0,0-.17-1.63,3.22,3.22,0,0,0-.7-1.35,3.87,3.87,0,0,0-1.38-1.06,4.47,4.47,0,0,0-1.94-.4,4.36,4.36,0,0,0-2.22.53,4.27,4.27,0,0,0-1.49,1.43,6.68,6.68,0,0,0-.85,2.13,12,12,0,0,0-.28,2.66,12.8,12.8,0,0,0,.19,2.13,6.07,6.07,0,0,0,.7,2,4.31,4.31,0,0,0,1.41,1.49,4.22,4.22,0,0,0,2.36.59,4.73,4.73,0,0,0,3.07-1,3.74,3.74,0,0,0,.68-.75,3.46,3.46,0,0,0,.39-.78,3.25,3.25,0,0,0,.17-.82l.06-.85Z"/><path class="cls-1" d="M566.75,140h-1.28q-.95,0-1.12-.42a3.12,3.12,0,0,1-.11-1.32,7.33,7.33,0,0,1-.63.62,5.33,5.33,0,0,1-.94.65,6,6,0,0,1-1.36.53,7.29,7.29,0,0,1-1.88.22l-.76,0a4.52,4.52,0,0,1-.87-.16,3.72,3.72,0,0,1-1.75-1.08,4.06,4.06,0,0,1-.83-1.4,5,5,0,0,1-.31-1.74,3.9,3.9,0,0,1,.57-2.23,5,5,0,0,1,1.13-1.24,5.3,5.3,0,0,1,2.16-.95q1.27-.26,2.75-.45l2.72-.31v-1.46q0-.53-.06-1.15a2.77,2.77,0,0,0-.37-1.15,2.45,2.45,0,0,0-.95-.88,3.84,3.84,0,0,0-1.84-.36,4.43,4.43,0,0,0-2.2.45,3.17,3.17,0,0,0-1.15,1.05,3.05,3.05,0,0,0-.45,1.24,8.8,8.8,0,0,0-.08,1h-1.86a4.92,4.92,0,0,1,.57-2.63,4.76,4.76,0,0,1,1.52-1.61,5.76,5.76,0,0,1,2-.81,9.49,9.49,0,0,1,1.89-.22,8.29,8.29,0,0,1,2.09.28,3.42,3.42,0,0,1,1.7,1,2.68,2.68,0,0,1,.58.84,4.58,4.58,0,0,1,.3.93,7.07,7.07,0,0,1,.13.95q0,.48,0,.88v3.63l-.09,3.91,0,1.36a4.24,4.24,0,0,0,.16,1.13.94.94,0,0,0,.59.54Zm-2.51-8q-.8.06-1.71.19l-1.9.28q-.4.06-1,.22a4.55,4.55,0,0,0-1.23.51,3.31,3.31,0,0,0-1,1,2.7,2.7,0,0,0-.43,1.58,2.86,2.86,0,0,0,.9,2.22,3.16,3.16,0,0,0,2.22.82,5.13,5.13,0,0,0,1.37-.2,4.46,4.46,0,0,0,1.25-.54,3.38,3.38,0,0,0,.88-.74,2.88,2.88,0,0,0,.48-.84,3.81,3.81,0,0,0,.2-.87,7.54,7.54,0,0,0,0-.81Z"/><path class="cls-1" d="M581.63,140H579.8v-9q0-.59,0-1.17t-.08-1.17q0-.25-.14-.78a2.83,2.83,0,0,0-.46-1,3.18,3.18,0,0,0-1-.9,3.45,3.45,0,0,0-1.77-.39,7.18,7.18,0,0,0-.85.06,4.56,4.56,0,0,0-1.13.31,4.1,4.1,0,0,0-1.32.81,3.23,3.23,0,0,0-1,1.94,6.67,6.67,0,0,0-.06.85V140h-1.83v-15.5H572v1.74l.67-.57a6.28,6.28,0,0,1,1-.7,6.81,6.81,0,0,1,1.46-.57,7.07,7.07,0,0,1,1.89-.23,5.9,5.9,0,0,1,2.11.39,3.44,3.44,0,0,1,1.64,1.29,4,4,0,0,1,.74,1.88,15.57,15.57,0,0,1,.12,1.91Z"/><path class="cls-1" d="M597.72,140h-1.83v-1.92a7.23,7.23,0,0,1-.54.62,4.78,4.78,0,0,1-.93.73,6.17,6.17,0,0,1-1.41.62,6.53,6.53,0,0,1-2,.26,5.92,5.92,0,0,1-2.79-.6,5.12,5.12,0,0,1-1.88-1.67,7.49,7.49,0,0,1-1.07-2.5,13.31,13.31,0,0,1-.34-3.1,12.74,12.74,0,0,1,.42-3.38,7.47,7.47,0,0,1,1.26-2.6,5.76,5.76,0,0,1,2.09-1.69,6.68,6.68,0,0,1,2.93-.6,6,6,0,0,1,1.77.23,5.05,5.05,0,0,1,1.22.54,3.58,3.58,0,0,1,.77.65l.45.53v-8h1.83Zm-1.8-10.4a4.84,4.84,0,0,0-.29-1.78,3.34,3.34,0,0,0-1-1.34,4,4,0,0,0-1.26-.69,4.8,4.8,0,0,0-1.57-.25,4.24,4.24,0,0,0-2.14.48,4.59,4.59,0,0,0-1.27,1,5.11,5.11,0,0,0-1.05,2.13A12,12,0,0,0,587,132q0,.81.11,2a8.1,8.1,0,0,0,.54,2.26,4.79,4.79,0,0,0,1.33,1.87,3.67,3.67,0,0,0,2.48.78,5,5,0,0,0,2-.4,3.85,3.85,0,0,0,1.5-1.09,3.36,3.36,0,0,0,.78-1.76q.12-1,.15-1.79Z"/><path class="cls-1" d="M631.57,140h-2l-.25-18.54v-.68c0-.19,0-.36,0-.53s0-.36,0-.57,0-.5,0-.85c-.1.33-.2.61-.28.84s-.16.43-.22.62-.13.37-.2.56l-.26.68L621.5,140h-1.8l-6.91-18.94q-.16-.37-.25-.62c-.06-.17-.12-.33-.17-.48l-.17-.51-.22-.65q0,.9,0,1.36v1.18L611.64,140h-1.86l.53-21.89H614l5.49,15.44q.19.59.34,1c.1.29.2.58.29.87l.29.91q.15.48.34,1.16.22-.71.37-1.15l.29-.82q.14-.39.28-.82t.39-1.12l5.58-15.5h3.69Z"/><path class="cls-1" d="M648.13,131.55a24.3,24.3,0,0,1-.11,2.79,8.21,8.21,0,0,1-.77,2.84,5.71,5.71,0,0,1-1.92,2.22,6.05,6.05,0,0,1-3.52.9,6.66,6.66,0,0,1-3.38-.74,5.36,5.36,0,0,1-2-1.89,7,7,0,0,1-.9-2.56,17.86,17.86,0,0,1-.22-2.71q0-.53,0-1.35a11.83,11.83,0,0,1,.23-1.72,9,9,0,0,1,.59-1.81,5.36,5.36,0,0,1,1.13-1.64,5.68,5.68,0,0,1,1.83-1.19,6.9,6.9,0,0,1,2.68-.46,6.16,6.16,0,0,1,3.47.84,5.57,5.57,0,0,1,1.86,2,6.82,6.82,0,0,1,.76,2.42Q648.09,130.72,648.13,131.55Zm-1.92.22q0-.77-.16-1.83a6.61,6.61,0,0,0-.56-2,4.25,4.25,0,0,0-1.27-1.6,3.7,3.7,0,0,0-2.33-.65,4.23,4.23,0,0,0-1.94.4,4,4,0,0,0-1.3,1,4.38,4.38,0,0,0-.77,1.4,11.21,11.21,0,0,0-.4,1.5,8.39,8.39,0,0,0-.16,1.35q0,.62,0,1a17.44,17.44,0,0,0,.14,2.12,6.84,6.84,0,0,0,.6,2.11,3.91,3.91,0,0,0,3.88,2.28,3.55,3.55,0,0,0,2.45-.77,4.59,4.59,0,0,0,1.27-1.89,8.39,8.39,0,0,0,.48-2.32Q646.2,132.64,646.2,131.77Z"/><path class="cls-1" d="M656.53,140h-1.77l-5.24-15.5h2.14l3.44,10.66q.12.43.22.73l.17.54c.05.17.11.34.17.51s.12.39.19.64c.1-.31.18-.53.23-.65l.23-.59,4.25-11.84h1.83Z"/><path class="cls-1" d="M666.23,120.83H664.4v-2.29h1.83Zm0,19.19H664.4v-15.5h1.83Z"/><path class="cls-1" d="M681.73,140H679.9v-9q0-.59,0-1.17t-.08-1.17q0-.25-.14-.78a2.83,2.83,0,0,0-.46-1,3.18,3.18,0,0,0-1-.9,3.45,3.45,0,0,0-1.77-.39,7.18,7.18,0,0,0-.85.06,4.56,4.56,0,0,0-1.13.31,4.1,4.1,0,0,0-1.32.81,3.23,3.23,0,0,0-1,1.94,6.67,6.67,0,0,0-.06.85V140h-1.83v-15.5h1.83v1.74l.67-.57a6.28,6.28,0,0,1,1-.7,6.81,6.81,0,0,1,1.46-.57,7.07,7.07,0,0,1,1.89-.23,5.9,5.9,0,0,1,2.11.39,3.44,3.44,0,0,1,1.64,1.29,4,4,0,0,1,.74,1.88,15.57,15.57,0,0,1,.12,1.91Z"/><path class="cls-1" d="M697.85,124.52v14.55a13,13,0,0,1-.12,1.78,8.58,8.58,0,0,1-.43,1.75,5.23,5.23,0,0,1-.87,1.53,5.86,5.86,0,0,1-2.15,1.6,7.22,7.22,0,0,1-3.05.64,6.62,6.62,0,0,1-3-.62,4.64,4.64,0,0,1-1.84-1.49,5.37,5.37,0,0,1-.51-1.08,5.58,5.58,0,0,1-.26-1.89h1.89c0,.25.05.52.09.81a2.83,2.83,0,0,0,.28.87,3.27,3.27,0,0,0,1.22,1.29,4.05,4.05,0,0,0,2.25.57,5.26,5.26,0,0,0,1.67-.28,4.15,4.15,0,0,0,1.66-1,4.3,4.3,0,0,0,.9-1.38,5.64,5.64,0,0,0,.37-1.52c.05-.52.09-1,.11-1.43l0-1.24q-.25.25-.65.59a6.09,6.09,0,0,1-1,.67,6.88,6.88,0,0,1-1.38.56,6.33,6.33,0,0,1-1.78.23,6,6,0,0,1-2.91-.65,5.61,5.61,0,0,1-1.92-1.72,7.09,7.09,0,0,1-1.07-2.45,12.46,12.46,0,0,1-.33-2.87,13.07,13.07,0,0,1,.33-2.85,7.55,7.55,0,0,1,1.07-2.57,5.76,5.76,0,0,1,2.14-2,6.69,6.69,0,0,1,4.6-.54,5.82,5.82,0,0,1,1.22.46,5.22,5.22,0,0,1,.93.62l.74.65v-1.58Zm-1.74,5.5a7.21,7.21,0,0,0-.17-1.63,3.22,3.22,0,0,0-.7-1.35,3.87,3.87,0,0,0-1.38-1.06,4.47,4.47,0,0,0-1.94-.4,4.36,4.36,0,0,0-2.22.53,4.27,4.27,0,0,0-1.49,1.43,6.68,6.68,0,0,0-.85,2.13,12,12,0,0,0-.28,2.66,12.8,12.8,0,0,0,.19,2.13,6.07,6.07,0,0,0,.7,2,4.31,4.31,0,0,0,1.41,1.49,4.22,4.22,0,0,0,2.36.59,4.73,4.73,0,0,0,3.07-1,3.74,3.74,0,0,0,.68-.75,3.46,3.46,0,0,0,.39-.78,3.25,3.25,0,0,0,.17-.82l.06-.85Z"/><path class="cls-1" d="M712.39,140h-2.14V118.1h11.63v1.64h-9.49v8.59h8.9V130h-8.9Z"/><path class="cls-1" d="M735.33,131.55a24.3,24.3,0,0,1-.11,2.79,8.21,8.21,0,0,1-.77,2.84,5.71,5.71,0,0,1-1.92,2.22,6.05,6.05,0,0,1-3.52.9,6.66,6.66,0,0,1-3.38-.74,5.36,5.36,0,0,1-2-1.89,7,7,0,0,1-.9-2.56,17.86,17.86,0,0,1-.22-2.71q0-.53,0-1.35a11.83,11.83,0,0,1,.23-1.72,9,9,0,0,1,.59-1.81,5.36,5.36,0,0,1,1.13-1.64,5.68,5.68,0,0,1,1.83-1.19,6.9,6.9,0,0,1,2.68-.46,6.16,6.16,0,0,1,3.47.84,5.57,5.57,0,0,1,1.86,2,6.82,6.82,0,0,1,.76,2.42Q735.3,130.72,735.33,131.55Zm-1.92.22q0-.77-.16-1.83a6.61,6.61,0,0,0-.56-2,4.25,4.25,0,0,0-1.27-1.6,3.7,3.7,0,0,0-2.33-.65,4.23,4.23,0,0,0-1.94.4,4,4,0,0,0-1.3,1,4.38,4.38,0,0,0-.77,1.4,11.21,11.21,0,0,0-.4,1.5,8.39,8.39,0,0,0-.16,1.35q0,.62,0,1a17.44,17.44,0,0,0,.14,2.12,6.84,6.84,0,0,0,.6,2.11,3.91,3.91,0,0,0,3.88,2.28,3.55,3.55,0,0,0,2.45-.77,4.59,4.59,0,0,0,1.27-1.89,8.39,8.39,0,0,0,.48-2.32Q733.4,132.64,733.41,131.77Z"/><path class="cls-1" d="M740.54,140h-1.83V124.48h1.83v1.8a15.68,15.68,0,0,1,1.63-1.43,3.43,3.43,0,0,1,2.12-.62,2.83,2.83,0,0,1,1.26.22,4.47,4.47,0,0,1,.73.46v1.89a10,10,0,0,0-1-.61,3.46,3.46,0,0,0-1.6-.32,4.65,4.65,0,0,0-.73.06,3,3,0,0,0-.79.25,2.85,2.85,0,0,0-.88.65,2.4,2.4,0,0,0-.46.76,3.53,3.53,0,0,0-.19.79,6.23,6.23,0,0,0,0,.71Z"/><path class="cls-1" d="M762.82,140h-2l-3-10.63-.17-.67q-.08-.29-.16-.56c-.05-.18-.1-.36-.14-.56s-.09-.43-.15-.7l-.25.74c-.06.19-.11.34-.14.47s-.06.23-.09.33a2.4,2.4,0,0,0-.08.29L753,140h-1.92l-4.62-15.5h2.08L751.76,136q.09.28.14.46l.09.36c0,.11.06.24.09.37s.08.31.14.51q.19-.62.28-1t.28-.93l3.6-11.25h1.89l3.1,10.63q.12.4.2.7l.15.57.16.56q.08.28.17.65c.06-.17.11-.3.14-.4l.09-.29a2.73,2.73,0,0,0,.08-.28l.09-.39,3.47-11.75h1.71Z"/><path class="cls-1" d="M780.56,140h-1.28q-.95,0-1.12-.42a3.12,3.12,0,0,1-.11-1.32,7.33,7.33,0,0,1-.63.62,5.33,5.33,0,0,1-.94.65,6,6,0,0,1-1.36.53,7.29,7.29,0,0,1-1.88.22l-.76,0a4.52,4.52,0,0,1-.87-.16,3.72,3.72,0,0,1-1.75-1.08,4.06,4.06,0,0,1-.83-1.4,5,5,0,0,1-.31-1.74,3.9,3.9,0,0,1,.57-2.23,5,5,0,0,1,1.13-1.24,5.3,5.3,0,0,1,2.16-.95q1.27-.26,2.75-.45l2.72-.31v-1.46q0-.53-.06-1.15a2.77,2.77,0,0,0-.37-1.15,2.45,2.45,0,0,0-.95-.88,3.84,3.84,0,0,0-1.84-.36,4.43,4.43,0,0,0-2.2.45,3.17,3.17,0,0,0-1.15,1.05,3.05,3.05,0,0,0-.45,1.24,8.8,8.8,0,0,0-.08,1h-1.86a4.92,4.92,0,0,1,.57-2.63,4.76,4.76,0,0,1,1.52-1.61,5.76,5.76,0,0,1,2-.81,9.49,9.49,0,0,1,1.89-.22,8.29,8.29,0,0,1,2.09.28,3.42,3.42,0,0,1,1.7,1,2.68,2.68,0,0,1,.58.84,4.58,4.58,0,0,1,.3.93,7.07,7.07,0,0,1,.13.95q0,.48,0,.88v3.63l-.09,3.91,0,1.36a4.24,4.24,0,0,0,.16,1.13.94.94,0,0,0,.59.54ZM778,132q-.8.06-1.71.19l-1.9.28q-.4.06-1,.22a4.55,4.55,0,0,0-1.23.51,3.31,3.31,0,0,0-1,1,2.7,2.7,0,0,0-.43,1.58,2.86,2.86,0,0,0,.9,2.22,3.16,3.16,0,0,0,2.22.82,5.13,5.13,0,0,0,1.37-.2,4.46,4.46,0,0,0,1.25-.54,3.38,3.38,0,0,0,.88-.74,2.88,2.88,0,0,0,.48-.84,3.81,3.81,0,0,0,.2-.87,7.54,7.54,0,0,0,0-.81Z"/><path class="cls-1" d="M785.76,140h-1.83V124.48h1.83v1.8a15.68,15.68,0,0,1,1.63-1.43,3.43,3.43,0,0,1,2.12-.62,2.83,2.83,0,0,1,1.26.22,4.47,4.47,0,0,1,.73.46v1.89a10,10,0,0,0-1-.61,3.46,3.46,0,0,0-1.6-.32,4.65,4.65,0,0,0-.73.06,3,3,0,0,0-.79.25,2.85,2.85,0,0,0-.88.65,2.4,2.4,0,0,0-.46.76,3.53,3.53,0,0,0-.19.79,6.23,6.23,0,0,0,0,.71Z"/><path class="cls-1" d="M805.11,140h-1.83v-1.92a7.23,7.23,0,0,1-.54.62,4.78,4.78,0,0,1-.93.73,6.17,6.17,0,0,1-1.41.62,6.53,6.53,0,0,1-2,.26,5.92,5.92,0,0,1-2.79-.6,5.12,5.12,0,0,1-1.88-1.67,7.49,7.49,0,0,1-1.07-2.5,13.31,13.31,0,0,1-.34-3.1,12.74,12.74,0,0,1,.42-3.38,7.47,7.47,0,0,1,1.26-2.6,5.76,5.76,0,0,1,2.09-1.69,6.68,6.68,0,0,1,2.93-.6,6,6,0,0,1,1.77.23,5.05,5.05,0,0,1,1.22.54,3.58,3.58,0,0,1,.77.65l.45.53v-8h1.83Zm-1.8-10.4a4.84,4.84,0,0,0-.29-1.78,3.34,3.34,0,0,0-1-1.34,4,4,0,0,0-1.26-.69,4.8,4.8,0,0,0-1.57-.25,4.24,4.24,0,0,0-2.14.48,4.59,4.59,0,0,0-1.27,1,5.11,5.11,0,0,0-1.05,2.13,12,12,0,0,0-.31,2.85q0,.81.11,2a8.1,8.1,0,0,0,.54,2.26,4.79,4.79,0,0,0,1.33,1.87,3.67,3.67,0,0,0,2.48.78,5,5,0,0,0,2-.4,3.85,3.85,0,0,0,1.5-1.09,3.36,3.36,0,0,0,.78-1.76q.12-1,.15-1.79Z"/><path class="cls-1" d="M823.4,140h-2V119.77h-6.51v-1.64h15v1.64H823.4Z"/><path class="cls-1" d="M840,131.55a24.3,24.3,0,0,1-.11,2.79,8.21,8.21,0,0,1-.77,2.84,5.71,5.71,0,0,1-1.92,2.22,6.05,6.05,0,0,1-3.52.9,6.66,6.66,0,0,1-3.38-.74,5.36,5.36,0,0,1-2-1.89,7,7,0,0,1-.9-2.56,17.86,17.86,0,0,1-.22-2.71q0-.53,0-1.35a11.83,11.83,0,0,1,.23-1.72,9,9,0,0,1,.59-1.81,5.36,5.36,0,0,1,1.13-1.64,5.68,5.68,0,0,1,1.83-1.19,6.9,6.9,0,0,1,2.68-.46,6.16,6.16,0,0,1,3.47.84,5.57,5.57,0,0,1,1.86,2,6.82,6.82,0,0,1,.76,2.42Q840,130.72,840,131.55Zm-1.92.22q0-.77-.16-1.83a6.61,6.61,0,0,0-.56-2,4.25,4.25,0,0,0-1.27-1.6,3.7,3.7,0,0,0-2.33-.65,4.23,4.23,0,0,0-1.94.4,4,4,0,0,0-1.3,1,4.38,4.38,0,0,0-.77,1.4,11.21,11.21,0,0,0-.4,1.5,8.39,8.39,0,0,0-.16,1.35q0,.62,0,1a17.44,17.44,0,0,0,.14,2.12,6.84,6.84,0,0,0,.6,2.11,3.91,3.91,0,0,0,3.88,2.28,3.55,3.55,0,0,0,2.45-.77,4.59,4.59,0,0,0,1.27-1.89,8.39,8.39,0,0,0,.48-2.32Q838.12,132.64,838.12,131.77Z"/><path class="cls-1" d="M855.54,124.52v14.55a13,13,0,0,1-.12,1.78,8.58,8.58,0,0,1-.43,1.75,5.23,5.23,0,0,1-.87,1.53,5.86,5.86,0,0,1-2.15,1.6,7.22,7.22,0,0,1-3.05.64,6.62,6.62,0,0,1-3-.62,4.64,4.64,0,0,1-1.84-1.49,5.37,5.37,0,0,1-.51-1.08,5.58,5.58,0,0,1-.26-1.89h1.89c0,.25.05.52.09.81a2.83,2.83,0,0,0,.28.87,3.27,3.27,0,0,0,1.22,1.29,4.05,4.05,0,0,0,2.25.57,5.26,5.26,0,0,0,1.67-.28,4.15,4.15,0,0,0,1.66-1,4.3,4.3,0,0,0,.9-1.38,5.64,5.64,0,0,0,.37-1.52c.05-.52.09-1,.11-1.43l0-1.24q-.25.25-.65.59a6.09,6.09,0,0,1-1,.67,6.88,6.88,0,0,1-1.38.56A6.33,6.33,0,0,1,849,140a6,6,0,0,1-2.91-.65,5.61,5.61,0,0,1-1.92-1.72,7.09,7.09,0,0,1-1.07-2.45,12.46,12.46,0,0,1-.33-2.87,13.07,13.07,0,0,1,.33-2.85,7.55,7.55,0,0,1,1.07-2.57,5.76,5.76,0,0,1,2.14-2,6.69,6.69,0,0,1,4.6-.54,5.82,5.82,0,0,1,1.22.46,5.22,5.22,0,0,1,.93.62l.74.65v-1.58Zm-1.74,5.5a7.21,7.21,0,0,0-.17-1.63,3.22,3.22,0,0,0-.7-1.35,3.87,3.87,0,0,0-1.38-1.06,4.47,4.47,0,0,0-1.94-.4,4.36,4.36,0,0,0-2.22.53,4.27,4.27,0,0,0-1.49,1.43,6.68,6.68,0,0,0-.85,2.13,12,12,0,0,0-.28,2.66,12.8,12.8,0,0,0,.19,2.13,6.07,6.07,0,0,0,.7,2,4.31,4.31,0,0,0,1.41,1.49,4.22,4.22,0,0,0,2.36.59,4.73,4.73,0,0,0,3.07-1,3.74,3.74,0,0,0,.68-.75,3.46,3.46,0,0,0,.39-.78,3.25,3.25,0,0,0,.17-.82l.06-.85Z"/><path class="cls-1" d="M871.23,135.33a4.66,4.66,0,0,1-.36,1.75,4.56,4.56,0,0,1-1.1,1.6,5.72,5.72,0,0,1-1.87,1.16,7.07,7.07,0,0,1-2.62.45,10.16,10.16,0,0,1-1.39-.11,5.45,5.45,0,0,1-1.52-.45,5.08,5.08,0,0,1-1.63-1.22,6.2,6.2,0,0,1-1.07-1.72,8.73,8.73,0,0,1-.57-2,14,14,0,0,1-.17-2.17,15.43,15.43,0,0,1,.28-2.87,8.24,8.24,0,0,1,1-2.7,5.91,5.91,0,0,1,2-2,6.14,6.14,0,0,1,3.29-.79,5.81,5.81,0,0,1,2.95.67,4.92,4.92,0,0,1,1.8,1.77,7,7,0,0,1,.87,2.51,16.87,16.87,0,0,1,.19,2.9H860.94q0,.62,0,1.74a7.15,7.15,0,0,0,.46,2.23,4.87,4.87,0,0,0,1.33,1.94,3.79,3.79,0,0,0,2.62.82,5.05,5.05,0,0,0,1.33-.19A3.81,3.81,0,0,0,868,138a3.4,3.4,0,0,0,.95-1.07,3.6,3.6,0,0,0,.45-1.6Zm-1.77-4.74q0-.37-.12-1.19a5.08,5.08,0,0,0-.48-1.63,4.11,4.11,0,0,0-1.16-1.43,3.39,3.39,0,0,0-2.17-.62c-.14,0-.44,0-.88.08a3.56,3.56,0,0,0-1.41.53,4.55,4.55,0,0,0-1.39,1.44,6.33,6.33,0,0,0-.84,2.82Z"/><path class="cls-1" d="M876.81,125.91l-.09,9.46q0,1.33.08,1.84a1.67,1.67,0,0,0,.26.82,1.63,1.63,0,0,0,.59.5,2.37,2.37,0,0,0,1.18.25,3.46,3.46,0,0,0,1.18-.17l.87-.33v1.49q-.43.16-1.1.34a6.13,6.13,0,0,1-1.63.19,4.32,4.32,0,0,1-1.38-.19,3.34,3.34,0,0,1-.88-.43,2,2,0,0,1-.5-.48l-.19-.29a2.16,2.16,0,0,1-.2-.48,3.14,3.14,0,0,1-.11-.64q0-.37,0-.9t0-1.24l.12-9.73h-2.48v-1.4H875V121l1.92-.28-.06,3.78h3v1.4Z"/><path class="cls-1" d="M894.32,140H892.5V131.1q0-.93,0-1.74a7,7,0,0,0-.2-1.48,3.13,3.13,0,0,0-.56-1.16,2.81,2.81,0,0,0-1.07-.81,3,3,0,0,0-.79-.26,4.69,4.69,0,0,0-.86-.08,5.41,5.41,0,0,0-2,.39,3.81,3.81,0,0,0-1.57,1.1,2.83,2.83,0,0,0-.64,1.27,9.94,9.94,0,0,0-.14,1.21V140h-1.83V118.1h1.83v8.15q.22-.22.64-.57a5.67,5.67,0,0,1,1-.68,8.27,8.27,0,0,1,1.44-.57,6.6,6.6,0,0,1,1.91-.25,5.88,5.88,0,0,1,2.08.37,3.68,3.68,0,0,1,1.64,1.21,3.63,3.63,0,0,1,.79,1.86q.11,1,.14,1.89Z"/><path class="cls-1" d="M910,135.33a4.66,4.66,0,0,1-.36,1.75,4.56,4.56,0,0,1-1.1,1.6,5.72,5.72,0,0,1-1.87,1.16,7.07,7.07,0,0,1-2.62.45,10.16,10.16,0,0,1-1.39-.11,5.45,5.45,0,0,1-1.52-.45,5.08,5.08,0,0,1-1.63-1.22,6.2,6.2,0,0,1-1.07-1.72,8.73,8.73,0,0,1-.57-2,14,14,0,0,1-.17-2.17,15.43,15.43,0,0,1,.28-2.87,8.24,8.24,0,0,1,1-2.7,5.91,5.91,0,0,1,2-2,6.14,6.14,0,0,1,3.29-.79,5.81,5.81,0,0,1,2.95.67,4.92,4.92,0,0,1,1.8,1.77,7,7,0,0,1,.87,2.51A16.87,16.87,0,0,1,910,132H899.69q0,.62,0,1.74a7.15,7.15,0,0,0,.46,2.23,4.87,4.87,0,0,0,1.33,1.94,3.79,3.79,0,0,0,2.62.82,5.05,5.05,0,0,0,1.33-.19,3.81,3.81,0,0,0,1.24-.59,3.4,3.4,0,0,0,.95-1.07,3.6,3.6,0,0,0,.45-1.6Zm-1.77-4.74q0-.37-.12-1.19a5.08,5.08,0,0,0-.48-1.63,4.11,4.11,0,0,0-1.16-1.43,3.39,3.39,0,0,0-2.17-.62c-.14,0-.44,0-.88.08a3.56,3.56,0,0,0-1.41.53,4.55,4.55,0,0,0-1.39,1.44,6.33,6.33,0,0,0-.84,2.82Z"/><path class="cls-1" d="M915,140h-1.83V124.48H915v1.8a15.68,15.68,0,0,1,1.63-1.43,3.43,3.43,0,0,1,2.12-.62,2.83,2.83,0,0,1,1.26.22,4.47,4.47,0,0,1,.73.46v1.89a10,10,0,0,0-1-.61,3.46,3.46,0,0,0-1.6-.32,4.65,4.65,0,0,0-.73.06,3,3,0,0,0-.79.25,2.85,2.85,0,0,0-.88.65,2.4,2.4,0,0,0-.46.76,3.53,3.53,0,0,0-.19.79,6.23,6.23,0,0,0,0,.71Z"/></svg>