<svg viewBox="0 0 800 255" xmlns="http://www.w3.org/2000/svg"><path d="m0-168h800v600h-800z" fill="none"/><g fill="white"><path d="m113.35 12c-56.53 0-102.35 47.67-102.35 106.49 0 40.14 21.36 75.09 52.89 93.23a99.86 99.86 0 0 1 -2.8-14.27 92.85 92.85 0 0 1 -12.9-11.16 98.67 98.67 0 0 1 0-135.61 89.65 89.65 0 0 1 130.33 0 96.49 96.49 0 0 1 21 33.73 102.11 102.11 0 0 1 12.62 6.17c-11.81-45.27-51.55-78.58-98.79-78.58"/><path d="m94.9 96.92v10.39h-29.91v20.63h29.91v10.49h-29.91v20.72h-9.91v-62.23z"/><path d="m112.13 96.82 39.81 37.31v-37.31h10v62.24-.09.18l-39.9-37.31v37.22h-9.91z"/><path d="m229 133.23a25.55 25.55 0 0 1 -7.33 18.38 24.38 24.38 0 0 1 -35.25 0 26 26 0 0 1 -7.24-18.38v-36.31h9.92v36.31a15.17 15.17 0 0 0 4.3 10.93 14.19 14.19 0 0 0 10.6 4.58 13.89 13.89 0 0 0 10.51-4.58 15 15 0 0 0 4.49-10.93v-36.31h10z"/><path d="m133.75 218a11.28 11.28 0 1 1 -11.27-11.72 11.5 11.5 0 0 1 11.27 11.72"/><path d="m102.56 210.59a13.52 13.52 0 1 1 -13.51-14.06c7.46 0 13.51 6.3 13.51 14.06"/><path d="m163.69 212.79a10.26 10.26 0 1 1 -10.25-10.68 10.46 10.46 0 0 1 10.25 10.68"/><path d="m184.94 196.82a8.57 8.57 0 1 1 -8.55-8.89 8.74 8.74 0 0 1 8.55 8.89"/><path d="m199.71 178.84a7.22 7.22 0 1 1 -7.21-7.5 7.36 7.36 0 0 1 7.21 7.5"/><path d="m264 67.07v46.61h7.72v-15.52h23.28v-7.85h-23.27v-15.45h23.27v-7.79zm44.46 46.61h7.72v-46.61h-7.72zm21.16-4.5a15.12 15.12 0 0 0 11 4.5 15.42 15.42 0 0 0 11-4.5 15.16 15.16 0 0 0 4.57-11v-31.11h-7.86v31.1a7.5 7.5 0 0 1 -2.28 5.51 7.7 7.7 0 0 1 -10.88-.07zm40 4.5h7.72v-46.61h-7.72zm41.57-.07h7.81v-27.87l31.1 27.94v-46.68h-7.79v27.94l-31.08-27.94zm75.56-29.15 6.85 13.7h-13.7zm14.64 29.22h8.67l-23.27-46.61-23.31 46.61h8.67l4-7.79h21.43zm6.38-38.82h15.58v38.82h7.79v-38.82h15.56v-7.79h-38.89zm52.32 38.82h7.72v-46.61h-7.72zm28-39.76a23.19 23.19 0 0 0 0 32.91 23.19 23.19 0 0 0 32.91 0 22.05 22.05 0 0 0 7-16.46 23.32 23.32 0 0 0 -39.83-16.46m27.4 5.51a14.94 14.94 0 0 1 4.57 10.95 15.53 15.53 0 1 1 -15.52-15.51 15 15 0 0 1 10.95 4.57m25.86 34.19h7.72v-27.88l31.1 27.94v-46.68h-7.79v27.94l-31.06-27.94zm75.57-29.16 6.85 13.7h-13.7zm14.64 29.22h8.66l-23.3-46.61-23.31 46.61h8.66l4-7.79h21.42zm22.1 0h31v-7.79h-23.32v-38.82h-7.72z"/><path d="m335.94 140.72h-7.79v27.2a11.81 11.81 0 0 1 -11.69 11.62 11.26 11.26 0 0 1 -8.26-3.43 11.14 11.14 0 0 1 -3.36-8.19v-27.2h-7.72v27.2a19.42 19.42 0 0 0 33.11 13.77 18.76 18.76 0 0 0 5.71-13.77zm13.43 46.54h7.72v-27.86l31.1 27.94v-46.68h-7.79v27.94l-31-27.94zm52.25.07h7.72v-46.61h-7.72zm21.15-46.61 23.31 46.61 23.31-46.61h-8.66l-14.64 29.22-14.64-29.22zm60 0v46.61h31v-7.79h-23.22v-11.61h23.31v-7.73h-23.31v-11.68h23.31v-7.79zm73.23 10.08a7.76 7.76 0 0 1 -5.4 13.2h-15.6v-15.48h15.6a7.44 7.44 0 0 1 5.4 2.28m10.07 36.54-9.6-16.72a15.54 15.54 0 0 0 -5.91-29.89h-23.27v46.61h7.71v-15.52h13.16l9 15.51zm38.62-19.41a5.46 5.46 0 0 1 4.1 1.75 5.61 5.61 0 0 1 1.75 4.1 6 6 0 0 1 -.44 2.28 5.3 5.3 0 0 1 -1.24 1.85 5.92 5.92 0 0 1 -1.88 1.21 6 6 0 0 1 -2.28.44h-25.16v7.79h25.19a13.57 13.57 0 1 0 0-27.13h-11.62a5.54 5.54 0 0 1 -4.16-1.75 6 6 0 0 1 -1.24-6.38 5.63 5.63 0 0 1 3.12-3.12 6 6 0 0 1 2.28-.44h25.25v-7.79h-25.25a12.83 12.83 0 0 0 -9.6 4 13 13 0 0 0 -4 9.54 13.53 13.53 0 0 0 13.57 13.64zm27.07 19.41h7.72v-46.62h-7.68zm21.24-38.82h15.58v38.82h7.79v-38.82h15.51v-7.79h-38.88zm75.49 9.2-13.23-17h-9.94l19.48 24.85v21.76h7.72v-22.16l19.14-24.45h-9.87z"/></g><path d="m0-168h800v600h-800z" fill="none"/></svg>