<svg id="Layer_1" data-name="Layer 1" xmlns="http://www.w3.org/2000/svg" viewBox="0 0 595.28 619"><defs><style>.cls-1{fill:#fff;}</style></defs><title>Ver 2.0</title><polygon points="312 461.5 237.44 386.32 412.5 211 487.06 286.18 312 461.5"/><polygon points="263.75 447.25 189.23 372.03 390.5 170.5 465.02 245.72 263.75 447.25"/><polygon points="201.75 376.25 127.2 301.06 310.75 117.25 385.3 192.44 201.75 376.25"/><polygon points="306.32 178.44 283.31 155.34 306.32 132.24 329.34 155.34 306.32 178.44"/><polygon points="137.13 347.72 114.12 324.62 137.13 301.52 160.15 324.62 137.13 347.72"/><polygon points="306.32 246.76 283.31 223.66 306.32 200.56 329.34 223.66 306.32 246.76"/><polygon points="238.63 314.45 215.61 291.36 238.63 268.26 261.65 291.36 238.63 314.45"/><polygon points="372.76 313.83 349.75 290.73 372.76 267.63 395.78 290.73 372.76 313.83"/><polygon points="214.25 446.75 139.78 371.48 368.75 142.25 443.22 217.52 214.25 446.75"/><polygon points="304.58 251.79 282.13 229.26 304.37 206.94 326.82 229.47 304.58 251.79"/><polygon points="223.59 332.78 201.14 310.25 223.38 287.93 245.84 310.46 223.59 332.78"/><polygon points="322.96 165.53 300.51 143 322.75 120.68 345.2 143.21 322.96 165.53"/><polygon points="159.62 328.87 137.17 306.34 159.41 284.02 181.86 306.55 159.62 328.87"/><polygon points="379.41 324.55 356.96 302.02 379.2 279.7 401.65 302.23 379.41 324.55"/><polygon points="311.98 462.18 289.53 439.65 311.77 417.33 334.22 439.86 311.98 462.18"/><path class="cls-1" d="M540.91,403.46c2.42,33.89,36.32-21.79,19.37-77.47S478,263,478,263s0-48.42-2.42-55.68S562.7,171,526.39,98.41,412.6,134.73,412.6,134.73,369,132.31,340,137.15c0,0-38.95-135.7-113.79-101.68-26.63,12.1,29.05,33.89,12.1,104.1,0,0-70.21,60.53-77.47,116.21,0,0-111.35,24-118.63,125.89-2.42,33.89,41.16-38.74,89.58-36.32,0,0,2.42,87.16,38.74,77.47,9.92-2.65-7.26-140.42,70.21-205.79s152.52-55.68,184,2.42S390.81,376.83,347.23,401s-150.1,19.37-152.52,33.89,55.68,26.63,84.74,19.37,5.41,72.09-55.68,111.37C189.87,587.46,344.81,582.62,369,437.36c0,0,55.68-36.32,79.89-72.63S537.45,354.92,540.91,403.46Z"/><path class="cls-1" d="M502,500.67s117.95-47.78,74.65-164.23C576.63,336.44,596,412.59,502,500.67Z"/><path class="cls-1" d="M124.26,115.48c29.86-98.54,146.31-98.54,146.31-98.54C140.68-4,124.26,115.48,124.26,115.48Z"/><path class="cls-1" d="M51.1,303.6c-77.64,74.65-23.89,161.24-23.89,161.24C3.33,373.77,51.1,303.6,51.1,303.6Z"/><path class="cls-1" d="M327.31,548.45s-83.61,50.76-173.19,55.24C154.12,603.69,261.61,615.63,327.31,548.45Z"/><path class="cls-1" d="M262.87,313.28c-6.55,6.27-15,9.18-24.19,9.18-23.64,0-33.64-15.8-33.73-31.86S215.68,258,238.68,258a33.35,33.35,0,0,1,23.37,9.44l-8,7.5a22.23,22.23,0,0,0-15.37-5.83c-15.37,0-22,11.12-21.91,21.45s6.18,20.92,21.91,20.92a23.82,23.82,0,0,0,16-6.27Z"/><path class="cls-1" d="M315.15,302.87h-18v18.18h-12V259.27c10,0,20-.09,30-.09C346.25,259.18,346.34,302.87,315.15,302.87Zm-18-10.68h18c15.37,0,15.28-21.89,0-21.89h-18Z"/><path class="cls-1" d="M381.44,269.86H361.26V259.27h52.37v10.59H393.45v51.19h-12Z"/></svg>