<svg id="Layer_1" data-name="Layer 1" xmlns="http://www.w3.org/2000/svg" viewBox="0 0 595.28 461"><defs><style>.cls-1{fill:#fff;}</style></defs><title>Version 5.2</title><rect class="cls-1" x="197.26" y="55.7" width="199.81" height="199.81" transform="translate(197.07 -164.55) rotate(45)"/><rect class="cls-1" x="345.05" y="203.49" width="199.81" height="199.81" transform="translate(344.86 -225.77) rotate(45)"/><path d="M430.26,274.23H392.35V254.34h98.36v19.89H452.8v96.13H430.26Z"/><rect class="cls-1" x="50.42" y="202.54" width="199.81" height="199.81" transform="translate(257.89 -17.71) rotate(45)"/><path d="M207.27,350.46C195,362.23,179.1,367.7,161.85,367.7c-44.4,0-63.18-29.67-63.35-59.83-.17-30.33,20.15-61.16,63.35-61.16a62.63,62.63,0,0,1,43.89,17.73l-15,14.09c-7.85-7.46-18.44-10.94-28.86-10.94-28.86,0-41.32,20.88-41.15,40.27.17,19.23,11.61,39.28,41.15,39.28,10.42,0,22.2-4.14,30.05-11.77Z"/><path d="M304.64,186.76H270.83v34.14H248.29v-116c18.78,0,37.57-.17,56.35-.17C363,104.72,363.21,186.76,304.64,186.76Zm-33.81-20.05h33.81c28.86,0,28.69-41.1,0-41.1H270.83Z"/></svg>