<svg id="Layer_1" data-name="Layer 1" xmlns="http://www.w3.org/2000/svg" viewBox="0 0 595.28 619"><defs><style>.cls-1{fill:#fff;}</style></defs><title>Version Black back</title><polygon points="312 461.5 237.44 386.32 412.5 211 487.06 286.18 312 461.5"/><polygon points="263.75 447.25 189.23 372.03 390.5 170.5 465.02 245.72 263.75 447.25"/><polygon points="201.75 376.25 127.2 301.06 310.75 117.25 385.3 192.44 201.75 376.25"/><polygon points="306.32 178.44 283.31 155.34 306.32 132.24 329.34 155.34 306.32 178.44"/><polygon points="137.13 347.72 114.12 324.62 137.13 301.52 160.15 324.62 137.13 347.72"/><polygon points="306.32 246.76 283.31 223.66 306.32 200.56 329.34 223.66 306.32 246.76"/><polygon points="238.63 314.45 215.61 291.36 238.63 268.26 261.65 291.36 238.63 314.45"/><polygon points="372.76 313.83 349.75 290.73 372.76 267.63 395.78 290.73 372.76 313.83"/><polygon points="214.25 446.75 139.78 371.48 368.75 142.25 443.22 217.52 214.25 446.75"/><polygon points="304.58 251.79 282.13 229.26 304.37 206.94 326.82 229.47 304.58 251.79"/><polygon points="223.59 332.78 201.14 310.25 223.38 287.93 245.84 310.46 223.59 332.78"/><polygon points="322.96 165.53 300.51 143 322.75 120.68 345.2 143.21 322.96 165.53"/><polygon points="159.62 328.87 137.17 306.34 159.41 284.02 181.86 306.55 159.62 328.87"/><polygon points="379.41 324.55 356.96 302.02 379.2 279.7 401.65 302.23 379.41 324.55"/><polygon points="311.98 462.18 289.53 439.65 311.77 417.33 334.22 439.86 311.98 462.18"/><polygon points="362.87 250.8 305.31 306.67 248.29 251.33 305.85 195.46 362.87 250.8"/><polygon points="425.58 313.52 368.03 369.39 311 314.04 368.56 258.17 425.58 313.52"/><polygon points="300.25 314.5 242.69 370.37 185.66 315.02 243.22 259.15 300.25 314.5"/><path class="cls-1" d="M362.58,300h-15.3v-8H387v8h-15.3v38.8h-9.1Z"/><path class="cls-1" d="M265.67,332.51a25.85,25.85,0,0,1-18.33,7c-17.92,0-25.5-12-25.57-24.15s8.13-24.68,25.57-24.68A25.28,25.28,0,0,1,265,297.79L259,303.48a16.85,16.85,0,0,0-11.65-4.42c-11.65,0-16.68,8.43-16.61,16.26s4.69,15.85,16.61,15.85a18.05,18.05,0,0,0,12.13-4.75Z"/><path class="cls-1" d="M314.25,262.64H300.6v13.78h-9.1V229.6c7.58,0,15.16-.07,22.75-.07C337.82,229.53,337.89,262.64,314.25,262.64Zm-13.65-8.09h13.65c11.65,0,11.58-16.59,0-16.59H300.6Z"/><path class="cls-1" d="M540.91,402c2.42,33.89,36.32-21.79,19.37-77.47S478,261.55,478,261.55s0-48.42-2.42-55.68,87.16-36.32,50.84-108.95S412.6,133.24,412.6,133.24,369,130.82,340,135.66C340,135.66,301,0,226.18,34c-26.63,12.1,29.05,33.89,12.1,104.1,0,0-70.21,60.53-77.47,116.21,0,0-111.35,24-118.63,125.89-2.42,33.89,41.16-38.74,89.58-36.32,0,0,2.42,87.16,38.74,77.47,9.92-2.65-7.26-140.42,70.21-205.79s152.52-55.68,184,2.42-33.89,157.37-77.47,181.58-150.1,19.37-152.52,33.89,55.68,26.63,84.74,19.37,5.41,72.09-55.68,111.37C189.87,586,344.81,581.13,369,435.87c0,0,55.68-36.32,79.89-72.63S537.45,353.43,540.91,402Z"/><path class="cls-1" d="M502,499.18S619.93,451.41,576.63,335C576.63,335,596,411.09,502,499.18Z"/><path class="cls-1" d="M124.26,114c29.86-98.54,146.31-98.54,146.31-98.54C140.68-5.45,124.26,114,124.26,114Z"/><path class="cls-1" d="M51.1,302.11c-77.64,74.65-23.89,161.24-23.89,161.24C3.33,372.28,51.1,302.11,51.1,302.11Z"/><path class="cls-1" d="M327.31,547S243.7,597.72,154.12,602.2C154.12,602.2,261.61,614.14,327.31,547Z"/></svg>