<svg id="Layer_1" data-name="Layer 1" xmlns="http://www.w3.org/2000/svg" viewBox="0 0 595.28 416"><defs><style>.cls-1{fill:#fff;}</style></defs><title>Version 2</title><polygon points="416.03 131.01 288.1 255.18 161.37 132.17 289.3 8 416.03 131.01"/><polygon points="570 280.97 442.07 405.14 315.33 282.13 443.26 157.96 570 280.97"/><polygon points="262.67 280.39 134.74 404.57 8 281.56 135.93 157.38 262.67 280.39"/><path class="cls-1" d="M431.11,249.74h-34V231.9h88.23v17.84h-34V336H431.11Z"/><path class="cls-1" d="M185.81,320.43c-11,10.56-25.28,15.46-40.75,15.46-39.83,0-56.68-26.61-56.83-53.67s18.08-54.86,56.83-54.86a56.18,56.18,0,0,1,39.37,15.91L171,255.9c-7-6.69-16.54-9.81-25.89-9.81-25.89,0-37.07,18.73-36.92,36.13s10.42,35.24,36.92,35.24c9.34,0,19.91-3.72,27-10.56Z"/><path class="cls-1" d="M297.78,154.18H267.45v30.63H247.23V80.73c16.85,0,33.7-.15,50.55-.15C350.17,80.58,350.32,154.18,297.78,154.18Zm-30.33-18h30.33c25.89,0,25.73-36.87,0-36.87H267.45Z"/></svg>