<svg id="Layer_1" data-name="Layer 1" xmlns="http://www.w3.org/2000/svg" viewBox="0 0 595.28 683"><defs><style>.cls-1{fill:#fff;}</style></defs><title>Version 3</title><path d="M26.31,636.41a19.42,19.42,0,0,1-8,1.44c-8.55,0-15-5.4-15-15.34,0-9.49,6.43-15.93,15.84-15.93a16.25,16.25,0,0,1,7.2,1.35l-.95,3.19a14.26,14.26,0,0,0-6.12-1.26c-7.11,0-11.83,4.54-11.83,12.51,0,7.42,4.27,12.19,11.65,12.19a15.68,15.68,0,0,0,6.39-1.26Z"/><path d="M50.29,626.33c0,8.05-5.58,11.56-10.84,11.56-5.89,0-10.44-4.32-10.44-11.21,0-7.29,4.77-11.56,10.8-11.56C46.06,615.13,50.29,619.67,50.29,626.33ZM33,626.56c0,4.77,2.74,8.37,6.61,8.37s6.61-3.55,6.61-8.46c0-3.69-1.85-8.37-6.52-8.37S33,622.42,33,626.56Z"/><path d="M55.29,621.52c0-2.25,0-4.09-.18-5.89h3.46l.18,3.51h.14a7.51,7.51,0,0,1,6.84-4,6.44,6.44,0,0,1,6.16,4.37H72a9,9,0,0,1,2.43-2.83,7.43,7.43,0,0,1,4.81-1.53c2.88,0,7.15,1.89,7.15,9.45V637.4H82.51V625.07c0-4.19-1.53-6.71-4.72-6.71a5.13,5.13,0,0,0-4.68,3.6,6.53,6.53,0,0,0-.31,2V637.4H68.93v-13c0-3.46-1.53-6-4.54-6a5.9,5.9,0,0,0-5.22,5.89V637.4H55.29Z"/><path d="M92.82,621.52c0-2.25,0-4.09-.18-5.89h3.46l.18,3.51h.14a7.51,7.51,0,0,1,6.84-4,6.44,6.44,0,0,1,6.16,4.37h.09a9,9,0,0,1,2.43-2.83,7.43,7.43,0,0,1,4.81-1.53c2.88,0,7.15,1.89,7.15,9.45V637.4H120V625.07c0-4.19-1.53-6.71-4.72-6.71a5.13,5.13,0,0,0-4.68,3.6,6.53,6.53,0,0,0-.31,2V637.4h-3.87v-13c0-3.46-1.53-6-4.54-6a5.9,5.9,0,0,0-5.22,5.89V637.4H92.82Z"/><path d="M148.57,631.46c0,2.25,0,4.23.18,5.94h-3.51l-.23-3.55h-.09a8.19,8.19,0,0,1-7.2,4c-3.42,0-7.51-1.89-7.51-9.54V615.62h4v12.06c0,4.14,1.26,6.93,4.86,6.93a5.72,5.72,0,0,0,5.22-3.6,5.8,5.8,0,0,0,.36-2V615.62h4Z"/><path d="M155.15,621.52c0-2.25,0-4.09-.18-5.89h3.51l.23,3.6h.09a8,8,0,0,1,7.2-4.09c3,0,7.69,1.8,7.69,9.27v13h-4V624.85c0-3.51-1.3-6.43-5-6.43a5.63,5.63,0,0,0-5.31,4,5.69,5.69,0,0,0-.27,1.84V637.4h-4Z"/><path d="M184.53,609.5a2.45,2.45,0,0,1-4.9,0A2.41,2.41,0,0,1,182.1,607,2.35,2.35,0,0,1,184.53,609.5Zm-4.41,27.9V615.62h4V637.4Z"/><path d="M195.42,609.37v6.25h5.67v3h-5.67v11.75c0,2.7.76,4.23,3,4.23a8.82,8.82,0,0,0,2.29-.27l.18,3a9.7,9.7,0,0,1-3.51.54,5.49,5.49,0,0,1-4.27-1.67c-1.12-1.17-1.53-3.11-1.53-5.67V618.64h-3.37v-3h3.38V610.4Z"/><path d="M207.39,615.62l4.77,12.87c.5,1.44,1,3.15,1.4,4.45h.09c.41-1.3.86-3,1.39-4.54l4.32-12.78h4.18l-5.94,15.52c-2.83,7.47-4.77,11.29-7.47,13.63a10.73,10.73,0,0,1-4.86,2.56l-1-3.33a10.45,10.45,0,0,0,3.46-1.93,12,12,0,0,0,3.33-4.41,2.84,2.84,0,0,0,.31-.94,3.45,3.45,0,0,0-.27-1l-8.05-20.07Z"/><path d="M256.39,626.33c0,8.05-5.58,11.56-10.84,11.56-5.89,0-10.44-4.32-10.44-11.21,0-7.29,4.77-11.56,10.8-11.56C252.16,615.13,256.39,619.67,256.39,626.33Zm-17.28.22c0,4.77,2.75,8.37,6.61,8.37s6.62-3.55,6.62-8.46c0-3.69-1.84-8.37-6.52-8.37S239.11,622.42,239.11,626.56Z"/><path d="M261.79,637.4V618.64h-3.06v-3h3.06v-1c0-3.06.68-5.85,2.52-7.6a7.58,7.58,0,0,1,5.31-2,9.17,9.17,0,0,1,3.38.63l-.54,3.06a5.92,5.92,0,0,0-2.52-.5c-3.37,0-4.23,3-4.23,6.3v1.17H271v3h-5.26V637.4Z"/><path d="M284.2,607.43a45.33,45.33,0,0,1,7.51-.58c3.87,0,6.71.9,8.5,2.52a8.15,8.15,0,0,1,2.65,6.34,8.93,8.93,0,0,1-2.34,6.48c-2.07,2.2-5.44,3.33-9.27,3.33a13.49,13.49,0,0,1-3.15-.27V637.4H284.2Zm3.92,14.62a13.09,13.09,0,0,0,3.24.32c4.73,0,7.61-2.29,7.61-6.48,0-4-2.83-5.94-7.16-5.94a16.43,16.43,0,0,0-3.69.32Z"/><path d="M318.9,637.4l-.32-2.75h-.13a8.11,8.11,0,0,1-6.66,3.24c-4.41,0-6.66-3.11-6.66-6.25,0-5.26,4.68-8.14,13.09-8.1v-.45c0-1.8-.49-5-4.95-5a10.86,10.86,0,0,0-5.67,1.62l-.9-2.61a13.52,13.52,0,0,1,7.16-1.94c6.66,0,8.28,4.54,8.28,8.91v8.14a30.61,30.61,0,0,0,.36,5.22Zm-.58-11.11c-4.32-.09-9.22.67-9.22,4.9a3.5,3.5,0,0,0,3.73,3.78,5.42,5.42,0,0,0,5.26-3.65,4.13,4.13,0,0,0,.23-1.26Z"/><path d="M328,633.35a10.38,10.38,0,0,0,5.22,1.58c2.88,0,4.23-1.44,4.23-3.24s-1.12-2.92-4-4c-3.92-1.39-5.76-3.55-5.76-6.17,0-3.51,2.83-6.39,7.51-6.39a10.86,10.86,0,0,1,5.35,1.35l-1,2.88a8.48,8.48,0,0,0-4.46-1.26c-2.34,0-3.64,1.35-3.64,3,0,1.8,1.3,2.61,4.14,3.69,3.78,1.44,5.71,3.33,5.71,6.57,0,3.83-3,6.53-8.14,6.53a12.42,12.42,0,0,1-6.12-1.49Z"/><path d="M350.76,609.5a2.45,2.45,0,0,1-4.9,0,2.41,2.41,0,0,1,2.47-2.48A2.35,2.35,0,0,1,350.76,609.5Zm-4.41,27.9V615.62h4V637.4Z"/><path d="M357.28,637.4V618.64h-3.06v-3h3.06v-1.17c0-5.76,3.38-9.49,9.5-9.49a10.91,10.91,0,0,1,5.54,1.44l-1.12,3a8.33,8.33,0,0,0-4.59-1.26c-4.19,0-5.4,2.92-5.4,6.39v1.08h12.64V637.4h-3.92V618.64H361.2V637.4Z"/><path d="M384.33,625.61h.09c.54-.77,1.3-1.71,1.93-2.48l6.39-7.51h4.77l-8.41,9,9.58,12.82h-4.81L386.35,627l-2,2.25v8.19h-3.92V605.45h3.92Z"/><path d="M414.39,637.4l-.32-2.75h-.13a8.11,8.11,0,0,1-6.66,3.24c-4.41,0-6.66-3.11-6.66-6.25,0-5.26,4.68-8.14,13.09-8.1v-.45c0-1.8-.49-5-4.95-5a10.86,10.86,0,0,0-5.67,1.62l-.9-2.61a13.52,13.52,0,0,1,7.16-1.94c6.66,0,8.28,4.54,8.28,8.91v8.14a30.61,30.61,0,0,0,.36,5.22Zm-.58-11.11c-4.32-.09-9.22.67-9.22,4.9a3.5,3.5,0,0,0,3.73,3.78,5.42,5.42,0,0,0,5.26-3.65,4.13,4.13,0,0,0,.23-1.26Z"/><path d="M437.61,610.4h-9.22v-3.33h22.45v3.33h-9.27v27h-4Z"/><path d="M453.09,627.23c.09,5.36,3.51,7.56,7.47,7.56a14.33,14.33,0,0,0,6-1.12l.67,2.83a17.62,17.62,0,0,1-7.24,1.35c-6.71,0-10.71-4.41-10.71-11s3.87-11.75,10.21-11.75c7.11,0,9,6.25,9,10.26a14.94,14.94,0,0,1-.13,1.84Zm11.61-2.83c0-2.52-1-6.43-5.49-6.43-4,0-5.76,3.69-6.07,6.43Z"/><path d="M485.49,637.4l-.32-2.75H485a8.11,8.11,0,0,1-6.66,3.24c-4.41,0-6.66-3.11-6.66-6.25,0-5.26,4.68-8.14,13.09-8.1v-.45c0-1.8-.49-5-4.95-5a10.86,10.86,0,0,0-5.67,1.62l-.9-2.61a13.52,13.52,0,0,1,7.16-1.94c6.66,0,8.28,4.54,8.28,8.91v8.14a30.61,30.61,0,0,0,.36,5.22Zm-.58-11.11c-4.32-.09-9.22.67-9.22,4.9a3.5,3.5,0,0,0,3.73,3.78,5.42,5.42,0,0,0,5.26-3.65,4.13,4.13,0,0,0,.23-1.26Z"/><path d="M510.64,636.59a14.59,14.59,0,0,1-6.25,1.26c-6.57,0-10.84-4.46-10.84-11.12s4.59-11.56,11.7-11.56a13.24,13.24,0,0,1,5.49,1.13l-.9,3.06a9.18,9.18,0,0,0-4.59-1c-5,0-7.69,3.69-7.69,8.23,0,5,3.24,8.14,7.56,8.14a11.24,11.24,0,0,0,4.86-1.08Z"/><path d="M515.28,605.45h4V619h.09a7.35,7.35,0,0,1,2.83-2.79,8.15,8.15,0,0,1,4-1.12c2.92,0,7.6,1.8,7.6,9.32v13h-4V624.89c0-3.51-1.3-6.48-5-6.48a5.69,5.69,0,0,0-5.31,4,4.8,4.8,0,0,0-.27,1.89V637.4h-4Z"/><path d="M542.46,627.23c.09,5.36,3.51,7.56,7.47,7.56a14.33,14.33,0,0,0,6-1.12l.67,2.83a17.62,17.62,0,0,1-7.24,1.35c-6.71,0-10.71-4.41-10.71-11s3.87-11.75,10.21-11.75c7.11,0,9,6.25,9,10.26a14.94,14.94,0,0,1-.13,1.84Zm11.61-2.83c0-2.52-1-6.43-5.49-6.43-4,0-5.76,3.69-6.07,6.43Z"/><path d="M562.79,622.42c0-2.56,0-4.77-.18-6.79h3.46l.14,4.28h.18a6.54,6.54,0,0,1,6-4.77,4.24,4.24,0,0,1,1.13.14V619a6,6,0,0,0-1.35-.13c-2.79,0-4.77,2.11-5.31,5.08a11.16,11.16,0,0,0-.18,1.84V637.4h-3.92Z"/><path d="M577,633.35a10.38,10.38,0,0,0,5.22,1.58c2.88,0,4.23-1.44,4.23-3.24s-1.12-2.92-4-4c-3.92-1.39-5.76-3.55-5.76-6.17,0-3.51,2.83-6.39,7.51-6.39a10.86,10.86,0,0,1,5.35,1.35l-1,2.88A8.48,8.48,0,0,0,584,618.1c-2.34,0-3.64,1.35-3.64,3,0,1.8,1.3,2.61,4.14,3.69,3.78,1.44,5.71,3.33,5.71,6.57,0,3.83-3,6.53-8.14,6.53a12.42,12.42,0,0,1-6.12-1.49Z"/><path d="M20.53,672.76H9.33V653h1.88v18.28h9.32Z"/><path d="M32.1,668.54a4.2,4.2,0,0,1-.32,1.58,4.13,4.13,0,0,1-1,1.44,5.17,5.17,0,0,1-1.69,1,6.38,6.38,0,0,1-2.37.41,9.3,9.3,0,0,1-1.26-.1,4.93,4.93,0,0,1-1.37-.41,4.58,4.58,0,0,1-1.47-1.11,5.63,5.63,0,0,1-1-1.55,7.91,7.91,0,0,1-.52-1.85,12.56,12.56,0,0,1-.15-2,13.9,13.9,0,0,1,.25-2.59,7.42,7.42,0,0,1,.91-2.44,5.35,5.35,0,0,1,1.81-1.82,5.55,5.55,0,0,1,3-.71,5.25,5.25,0,0,1,2.66.6,4.45,4.45,0,0,1,1.62,1.6,6.29,6.29,0,0,1,.78,2.27,15.17,15.17,0,0,1,.17,2.62H22.8q0,.56,0,1.57a6.48,6.48,0,0,0,.42,2,4.4,4.4,0,0,0,1.2,1.75,3.42,3.42,0,0,0,2.37.74,4.56,4.56,0,0,0,1.2-.17,3.45,3.45,0,0,0,1.12-.53,3.08,3.08,0,0,0,.85-1,3.27,3.27,0,0,0,.41-1.44Zm-1.6-4.28c0-.22-.06-.58-.11-1.08A4.58,4.58,0,0,0,30,661.7a3.71,3.71,0,0,0-1.05-1.29,3.06,3.06,0,0,0-2-.56q-.2,0-.8.07a3.21,3.21,0,0,0-1.27.48,4.12,4.12,0,0,0-1.26,1.3,5.73,5.73,0,0,0-.76,2.55Z"/><path d="M44.75,672.76H43.59q-.86,0-1-.38a2.81,2.81,0,0,1-.1-1.19,6.66,6.66,0,0,1-.57.56,4.89,4.89,0,0,1-.85.59,5.42,5.42,0,0,1-1.23.48,6.56,6.56,0,0,1-1.7.2l-.68,0a4.08,4.08,0,0,1-.78-.14,3.35,3.35,0,0,1-1.58-1,3.65,3.65,0,0,1-.75-1.26,4.48,4.48,0,0,1-.28-1.57,3.52,3.52,0,0,1,.52-2,4.52,4.52,0,0,1,1-1.12,4.78,4.78,0,0,1,2-.85q1.14-.24,2.48-.41l2.46-.28V663c0-.32,0-.66-.06-1a2.53,2.53,0,0,0-.34-1,2.22,2.22,0,0,0-.85-.8,3.46,3.46,0,0,0-1.67-.32,4,4,0,0,0-2,.41,2.86,2.86,0,0,0-1,1,2.76,2.76,0,0,0-.41,1.12,7.88,7.88,0,0,0-.07.91H34.39a4.46,4.46,0,0,1,.52-2.38,4.3,4.3,0,0,1,1.37-1.46,5.21,5.21,0,0,1,1.78-.73,8.55,8.55,0,0,1,1.71-.2,7.49,7.49,0,0,1,1.89.25,3.1,3.1,0,0,1,1.54.87,2.45,2.45,0,0,1,.53.76,4.14,4.14,0,0,1,.27.84,6.54,6.54,0,0,1,.11.85q0,.44,0,.8v3.28l-.08,3.53,0,1.23a3.85,3.85,0,0,0,.14,1,.85.85,0,0,0,.53.49Zm-2.27-7.22q-.73.06-1.55.17l-1.71.25q-.36.06-.93.2a4.13,4.13,0,0,0-1.12.46,3,3,0,0,0-.93.88,2.44,2.44,0,0,0-.39,1.43,2.58,2.58,0,0,0,.81,2,2.86,2.86,0,0,0,2,.74,4.62,4.62,0,0,0,1.24-.18A4.05,4.05,0,0,0,41,671a3.06,3.06,0,0,0,.79-.67,2.61,2.61,0,0,0,.43-.76,3.44,3.44,0,0,0,.18-.78,6.93,6.93,0,0,0,0-.73Z"/><path d="M49.45,672.76H47.8v-14h1.65v1.62a14.13,14.13,0,0,1,1.47-1.29,3.1,3.1,0,0,1,1.92-.56,2.55,2.55,0,0,1,1.13.2,4,4,0,0,1,.66.42v1.71a9,9,0,0,0-.94-.56,3.13,3.13,0,0,0-1.44-.28,4.2,4.2,0,0,0-.66.06,2.71,2.71,0,0,0-.71.22,2.56,2.56,0,0,0-.8.59,2.15,2.15,0,0,0-.42.68,3.17,3.17,0,0,0-.17.71,5.59,5.59,0,0,0,0,.64Z"/><path d="M67,672.76H65.3v-8.14q0-.53,0-1.05t-.07-1.05q0-.22-.13-.7a2.57,2.57,0,0,0-.42-.94,2.87,2.87,0,0,0-.91-.81,3.11,3.11,0,0,0-1.6-.35,6.46,6.46,0,0,0-.77.06,4.11,4.11,0,0,0-1,.28,3.68,3.68,0,0,0-1.19.73,2.92,2.92,0,0,0-.91,1.75,6.06,6.06,0,0,0-.06.77v9.46H56.57v-14h1.65v1.57l.6-.52a5.7,5.7,0,0,1,.94-.63,6.13,6.13,0,0,1,1.32-.52,6.36,6.36,0,0,1,1.71-.21,5.33,5.33,0,0,1,1.9.35A3.1,3.1,0,0,1,66.17,660a3.65,3.65,0,0,1,.67,1.69,14.21,14.21,0,0,1,.11,1.72Z"/><path d="M72.19,655.43H70.54v-2.07h1.65Zm0,17.33H70.54v-14h1.65Z"/><path d="M86.19,672.76H84.54v-8.14q0-.53,0-1.05t-.07-1.05q0-.22-.13-.7a2.57,2.57,0,0,0-.42-.94,2.87,2.87,0,0,0-.91-.81,3.11,3.11,0,0,0-1.6-.35,6.46,6.46,0,0,0-.77.06,4.11,4.11,0,0,0-1,.28,3.68,3.68,0,0,0-1.19.73,2.92,2.92,0,0,0-.91,1.75,6.06,6.06,0,0,0-.06.77v9.46H75.8v-14h1.65v1.57l.6-.52a5.7,5.7,0,0,1,.94-.63,6.13,6.13,0,0,1,1.32-.52,6.36,6.36,0,0,1,1.71-.21,5.33,5.33,0,0,1,1.9.35A3.1,3.1,0,0,1,85.41,660a3.65,3.65,0,0,1,.67,1.69,14.21,14.21,0,0,1,.11,1.72Z"/><path d="M100.75,658.76v13.15a11.76,11.76,0,0,1-.11,1.61,7.74,7.74,0,0,1-.39,1.58,4.71,4.71,0,0,1-.78,1.39,5.28,5.28,0,0,1-1.95,1.44,6.51,6.51,0,0,1-2.76.57,6,6,0,0,1-2.67-.56,4.19,4.19,0,0,1-1.67-1.34,4.82,4.82,0,0,1-.46-1,5,5,0,0,1-.24-1.71h1.71q0,.34.08.73a2.58,2.58,0,0,0,.25.78,3,3,0,0,0,1.11,1.16,3.66,3.66,0,0,0,2,.52,4.76,4.76,0,0,0,1.51-.25,3.74,3.74,0,0,0,1.5-.91,3.87,3.87,0,0,0,.81-1.25,5.09,5.09,0,0,0,.34-1.37q.07-.7.1-1.29l0-1.12q-.22.22-.59.53a5.51,5.51,0,0,1-.9.6,6.15,6.15,0,0,1-1.25.5,5.72,5.72,0,0,1-1.61.21,5.38,5.38,0,0,1-2.63-.59,5.07,5.07,0,0,1-1.74-1.55,6.42,6.42,0,0,1-1-2.21,11.26,11.26,0,0,1-.29-2.59,11.8,11.8,0,0,1,.29-2.58,6.83,6.83,0,0,1,1-2.32,5.21,5.21,0,0,1,1.93-1.81,6,6,0,0,1,4.16-.49,5.23,5.23,0,0,1,1.11.42,4.7,4.7,0,0,1,.84.56l.67.59v-1.43Zm-1.57,5a6.5,6.5,0,0,0-.15-1.47A2.89,2.89,0,0,0,98.4,661a3.5,3.5,0,0,0-1.25-1,4,4,0,0,0-1.75-.36,3.94,3.94,0,0,0-2,.48,3.85,3.85,0,0,0-1.34,1.29,6,6,0,0,0-.77,1.92,10.82,10.82,0,0,0-.25,2.4,11.53,11.53,0,0,0,.17,1.92,5.47,5.47,0,0,0,.63,1.81,3.9,3.9,0,0,0,1.27,1.35,3.82,3.82,0,0,0,2.13.53,4.27,4.27,0,0,0,2.77-.93,3.33,3.33,0,0,0,.62-.67,3.1,3.1,0,0,0,.35-.7,3,3,0,0,0,.15-.74l.06-.77Z"/><path d="M105.29,675.54h-1.15l1.29-2.77h-1.15v-2.21h2.3v2.1Z"/><path d="M131.55,666.74q-.06.5-.17,1.13a7.06,7.06,0,0,1-.36,1.29,5.78,5.78,0,0,1-.73,1.32,5.9,5.9,0,0,1-1.26,1.25,6.32,6.32,0,0,1-2.51,1.12,12.79,12.79,0,0,1-2.42.25q-.39,0-1.2-.06a6.57,6.57,0,0,1-1.75-.39,6.47,6.47,0,0,1-1.86-1.08,5.34,5.34,0,0,1-1.51-2.11,7.75,7.75,0,0,1-.49-1.43,12,12,0,0,1-.27-1.54q-.08-.78-.11-1.54c0-.5,0-1,0-1.4q0-1.06.06-2.11a20.44,20.44,0,0,1,.22-2.11,14.76,14.76,0,0,1,.48-2,7,7,0,0,1,.9-1.86,6,6,0,0,1,1.61-1.61,7.08,7.08,0,0,1,1.74-.84,6.67,6.67,0,0,1,1.57-.31q.71,0,1.11,0a10.69,10.69,0,0,1,2.1.2,7.56,7.56,0,0,1,1,.27,5.48,5.48,0,0,1,1.06.5,5.28,5.28,0,0,1,1,.84,5.19,5.19,0,0,1,.9,1.3,4.89,4.89,0,0,1,.62,1.82q.08.84.08,1.23h-1.9a5.17,5.17,0,0,0-.45-2.27A4.21,4.21,0,0,0,127.8,655a4.28,4.28,0,0,0-1.6-.8,7.08,7.08,0,0,0-1.82-.24,6.31,6.31,0,0,0-2,.32,4.28,4.28,0,0,0-1.69,1.05,5,5,0,0,0-.77,1,6.41,6.41,0,0,0-.6,1.53,13.53,13.53,0,0,0-.38,2.23q-.13,1.3-.13,3.15,0,1,0,1.88a14.34,14.34,0,0,0,.47,3,5.46,5.46,0,0,0,1.66,2.53,4.77,4.77,0,0,0,1.23.69,4.38,4.38,0,0,0,1.15.27q.53,0,.87,0a6.89,6.89,0,0,0,2.05-.31,5.06,5.06,0,0,0,1.69-.87,3.83,3.83,0,0,0,.84-1,5.27,5.27,0,0,0,.47-1,5.72,5.72,0,0,0,.24-1q.07-.48.1-.84Z"/><path d="M145.07,665.12a22,22,0,0,1-.1,2.52,7.42,7.42,0,0,1-.7,2.56,5.17,5.17,0,0,1-1.74,2,5.47,5.47,0,0,1-3.18.81,6,6,0,0,1-3.05-.67,4.85,4.85,0,0,1-1.76-1.71,6.35,6.35,0,0,1-.81-2.31,16.08,16.08,0,0,1-.2-2.45q0-.48,0-1.22a10.67,10.67,0,0,1,.21-1.55,8.16,8.16,0,0,1,.53-1.64,4.85,4.85,0,0,1,1-1.48A5.13,5.13,0,0,1,137,658.9a6.23,6.23,0,0,1,2.42-.42,5.57,5.57,0,0,1,3.14.76,5,5,0,0,1,1.68,1.82,6.14,6.14,0,0,1,.69,2.18Q145,664.36,145.07,665.12Zm-1.74.2q0-.7-.14-1.65a6,6,0,0,0-.5-1.81,3.83,3.83,0,0,0-1.15-1.44,3.34,3.34,0,0,0-2.1-.59,3.83,3.83,0,0,0-1.75.36,3.66,3.66,0,0,0-1.18.92,4,4,0,0,0-.7,1.26,10.09,10.09,0,0,0-.36,1.36,7.51,7.51,0,0,0-.14,1.22q0,.56,0,.87a15.71,15.71,0,0,0,.13,1.92,6.15,6.15,0,0,0,.55,1.9,3.78,3.78,0,0,0,1.25,1.47,3.82,3.82,0,0,0,2.25.59,3.21,3.21,0,0,0,2.21-.7,4.14,4.14,0,0,0,1.15-1.71,7.58,7.58,0,0,0,.43-2.1Q143.34,666.1,143.34,665.31Z"/><path d="M158.51,672.76h-1.65v-8.14q0-.53,0-1.05t-.07-1.05q0-.22-.13-.7a2.57,2.57,0,0,0-.42-.94,2.87,2.87,0,0,0-.91-.81,3.11,3.11,0,0,0-1.6-.35,6.46,6.46,0,0,0-.77.06,4.11,4.11,0,0,0-1,.28,3.68,3.68,0,0,0-1.19.73,2.92,2.92,0,0,0-.91,1.75,6.06,6.06,0,0,0-.06.77v9.46h-1.65v-14h1.65v1.57l.6-.52a5.7,5.7,0,0,1,.94-.63,6.13,6.13,0,0,1,1.32-.52,6.36,6.36,0,0,1,1.71-.21,5.33,5.33,0,0,1,1.9.35,3.1,3.1,0,0,1,1.48,1.16,3.65,3.65,0,0,1,.67,1.69,14.21,14.21,0,0,1,.11,1.72Z"/><path d="M172.51,672.76h-1.65v-8.14q0-.53,0-1.05t-.07-1.05q0-.22-.13-.7a2.57,2.57,0,0,0-.42-.94,2.87,2.87,0,0,0-.91-.81,3.11,3.11,0,0,0-1.6-.35,6.46,6.46,0,0,0-.77.06,4.11,4.11,0,0,0-1,.28,3.68,3.68,0,0,0-1.19.73,2.92,2.92,0,0,0-.91,1.75,6.06,6.06,0,0,0-.06.77v9.46h-1.65v-14h1.65v1.57l.6-.52a5.7,5.7,0,0,1,.94-.63,6.13,6.13,0,0,1,1.32-.52,6.36,6.36,0,0,1,1.71-.21,5.33,5.33,0,0,1,1.9.35,3.1,3.1,0,0,1,1.48,1.16,3.65,3.65,0,0,1,.67,1.69,14.21,14.21,0,0,1,.11,1.72Z"/><path d="M186.65,668.54a4.2,4.2,0,0,1-.32,1.58,4.13,4.13,0,0,1-1,1.44,5.17,5.17,0,0,1-1.69,1,6.38,6.38,0,0,1-2.37.41,9.3,9.3,0,0,1-1.26-.1,4.93,4.93,0,0,1-1.37-.41,4.58,4.58,0,0,1-1.47-1.11,5.63,5.63,0,0,1-1-1.55,7.91,7.91,0,0,1-.52-1.85,12.56,12.56,0,0,1-.15-2,13.9,13.9,0,0,1,.25-2.59,7.42,7.42,0,0,1,.91-2.44,5.35,5.35,0,0,1,1.81-1.82,5.55,5.55,0,0,1,3-.71,5.25,5.25,0,0,1,2.66.6,4.45,4.45,0,0,1,1.62,1.6,6.29,6.29,0,0,1,.78,2.27,15.17,15.17,0,0,1,.17,2.62h-9.35q0,.56,0,1.57a6.48,6.48,0,0,0,.42,2,4.4,4.4,0,0,0,1.2,1.75,3.42,3.42,0,0,0,2.37.74,4.56,4.56,0,0,0,1.2-.17,3.45,3.45,0,0,0,1.12-.53,3.08,3.08,0,0,0,.85-1,3.27,3.27,0,0,0,.41-1.44Zm-1.6-4.28c0-.22-.06-.58-.11-1.08a4.58,4.58,0,0,0-.43-1.47,3.71,3.71,0,0,0-1.05-1.29,3.06,3.06,0,0,0-2-.56q-.2,0-.8.07a3.21,3.21,0,0,0-1.27.48,4.12,4.12,0,0,0-1.26,1.3,5.73,5.73,0,0,0-.76,2.55Z"/><path d="M200.06,668.11c0,.19-.05.42-.1.71a5.28,5.28,0,0,1-.25.94,4.69,4.69,0,0,1-.55,1,5,5,0,0,1-1,1,4.76,4.76,0,0,1-1.76.94,7.15,7.15,0,0,1-1.85.24,5.45,5.45,0,0,1-3.65-1.18,5.65,5.65,0,0,1-1.78-3.53,14.09,14.09,0,0,1-.2-2.38q0-.73.07-1.44a11.31,11.31,0,0,1,.24-1.44q.08-.36.27-.92a5.05,5.05,0,0,1,.55-1.13,6.25,6.25,0,0,1,.92-1.12,4.92,4.92,0,0,1,1.43-.94,6.71,6.71,0,0,1,2.46-.45c.26,0,.56,0,.88,0a5.37,5.37,0,0,1,1,.2,5.15,5.15,0,0,1,1.06.45,4,4,0,0,1,1,.77,3.72,3.72,0,0,1,.66,1,5.84,5.84,0,0,1,.53,1.86,6.58,6.58,0,0,1,0,.66H198.3a4,4,0,0,0-.29-1.62,3.23,3.23,0,0,0-.77-1.11,2.9,2.9,0,0,0-1.11-.63,4.45,4.45,0,0,0-1.33-.2,5.48,5.48,0,0,0-1.23.18,3,3,0,0,0-1.48,1,4.19,4.19,0,0,0-.92,1.64,8.24,8.24,0,0,0-.31,1.55q-.06.39-.08.8t0,.8A11.29,11.29,0,0,0,191,668a5.79,5.79,0,0,0,.69,1.85,3.8,3.8,0,0,0,1.22,1.27,3.28,3.28,0,0,0,1.81.48,4.23,4.23,0,0,0,1.34-.22,2.91,2.91,0,0,0,1.65-1.37,5,5,0,0,0,.32-.73,4.5,4.5,0,0,0,.18-.69c0-.21.06-.39.08-.52Z"/><path d="M204.52,660l-.08,8.54q0,1.2.07,1.67a1.52,1.52,0,0,0,.24.74,1.48,1.48,0,0,0,.53.45,2.14,2.14,0,0,0,1.06.22,3.11,3.11,0,0,0,1.06-.15l.78-.29v1.34c-.26.09-.59.2-1,.31a5.54,5.54,0,0,1-1.47.17,3.9,3.9,0,0,1-1.25-.17,3,3,0,0,1-.8-.39,1.8,1.8,0,0,1-.45-.43l-.17-.27a2.05,2.05,0,0,1-.18-.43,2.89,2.89,0,0,1-.1-.57q0-.34,0-.81t0-1.12l.11-8.79H200.6v-1.26h2.27V655.6l1.74-.25-.06,3.42h2.74V660Z"/><path d="M211.57,655.43h-1.65v-2.07h1.65Zm0,17.33h-1.65v-14h1.65Z"/><path d="M225.57,672.76h-1.65v-8.14q0-.53,0-1.05t-.07-1.05q0-.22-.13-.7a2.55,2.55,0,0,0-.42-.94,2.87,2.87,0,0,0-.91-.81,3.11,3.11,0,0,0-1.6-.35,6.45,6.45,0,0,0-.77.06,4.1,4.1,0,0,0-1,.28,3.67,3.67,0,0,0-1.19.73,2.92,2.92,0,0,0-.91,1.75,6,6,0,0,0-.06.77v9.46h-1.65v-14h1.65v1.57l.6-.52a5.74,5.74,0,0,1,.94-.63,6.14,6.14,0,0,1,1.32-.52,6.36,6.36,0,0,1,1.71-.21,5.33,5.33,0,0,1,1.9.35,3.1,3.1,0,0,1,1.48,1.16,3.64,3.64,0,0,1,.67,1.69,14.22,14.22,0,0,1,.11,1.72Z"/><path d="M240.13,658.76v13.15a11.84,11.84,0,0,1-.11,1.61,7.75,7.75,0,0,1-.39,1.58,4.7,4.7,0,0,1-.78,1.39,5.29,5.29,0,0,1-1.95,1.44,6.51,6.51,0,0,1-2.76.57,6,6,0,0,1-2.67-.56,4.19,4.19,0,0,1-1.67-1.34,4.9,4.9,0,0,1-.46-1,5.05,5.05,0,0,1-.24-1.71h1.71q0,.34.08.73a2.56,2.56,0,0,0,.25.78,3,3,0,0,0,1.11,1.16,3.67,3.67,0,0,0,2,.52,4.76,4.76,0,0,0,1.51-.25,3.74,3.74,0,0,0,1.5-.91,3.88,3.88,0,0,0,.81-1.25,5.11,5.11,0,0,0,.34-1.37q.07-.7.1-1.29l0-1.12q-.22.22-.59.53a5.53,5.53,0,0,1-.9.6,6.13,6.13,0,0,1-1.25.5,5.71,5.71,0,0,1-1.61.21,5.39,5.39,0,0,1-2.63-.59,5.08,5.08,0,0,1-1.74-1.55,6.4,6.4,0,0,1-1-2.21,11.23,11.23,0,0,1-.29-2.59,11.77,11.77,0,0,1,.29-2.58,6.81,6.81,0,0,1,1-2.32,5.21,5.21,0,0,1,1.93-1.81,6,6,0,0,1,4.16-.49,5.25,5.25,0,0,1,1.11.42,4.76,4.76,0,0,1,.84.56l.67.59v-1.43Zm-1.57,5a6.5,6.5,0,0,0-.15-1.47,2.89,2.89,0,0,0-.63-1.22,3.49,3.49,0,0,0-1.25-1,4,4,0,0,0-1.75-.36,3.94,3.94,0,0,0-2,.48,3.85,3.85,0,0,0-1.34,1.29,6,6,0,0,0-.77,1.92,10.82,10.82,0,0,0-.25,2.4,11.63,11.63,0,0,0,.17,1.92,5.49,5.49,0,0,0,.63,1.81,3.9,3.9,0,0,0,1.27,1.35,3.82,3.82,0,0,0,2.13.53,4.27,4.27,0,0,0,2.77-.93,3.33,3.33,0,0,0,.62-.67,3.06,3.06,0,0,0,.35-.7,2.93,2.93,0,0,0,.15-.74l.06-.77Z"/><path d="M260.54,672.76h-1.16q-.86,0-1-.38a2.82,2.82,0,0,1-.1-1.19,6.74,6.74,0,0,1-.57.56,4.89,4.89,0,0,1-.85.59,5.42,5.42,0,0,1-1.23.48,6.57,6.57,0,0,1-1.7.2l-.68,0a4.08,4.08,0,0,1-.78-.14,3.36,3.36,0,0,1-1.58-1,3.67,3.67,0,0,1-.75-1.26,4.48,4.48,0,0,1-.28-1.57,3.52,3.52,0,0,1,.52-2,4.51,4.51,0,0,1,1-1.12,4.78,4.78,0,0,1,2-.85q1.15-.24,2.48-.41l2.46-.28V663a10.26,10.26,0,0,0-.06-1,2.51,2.51,0,0,0-.34-1,2.22,2.22,0,0,0-.85-.8,3.47,3.47,0,0,0-1.67-.32,4,4,0,0,0-2,.41,2.87,2.87,0,0,0-1,1,2.76,2.76,0,0,0-.41,1.12,7.91,7.91,0,0,0-.07.91h-1.68a4.45,4.45,0,0,1,.52-2.38,4.31,4.31,0,0,1,1.37-1.46,5.22,5.22,0,0,1,1.78-.73,8.53,8.53,0,0,1,1.71-.2,7.48,7.48,0,0,1,1.89.25,3.1,3.1,0,0,1,1.54.87,2.46,2.46,0,0,1,.53.76,4.13,4.13,0,0,1,.27.84,6.22,6.22,0,0,1,.11.85c0,.29,0,.56,0,.8v3.28l-.08,3.53,0,1.23a3.87,3.87,0,0,0,.14,1,.85.85,0,0,0,.53.49Zm-2.27-7.22q-.73.06-1.55.17L255,666q-.36.06-.93.2a4.12,4.12,0,0,0-1.12.46,3,3,0,0,0-.93.88,2.44,2.44,0,0,0-.39,1.43,2.58,2.58,0,0,0,.81,2,2.86,2.86,0,0,0,2,.74,4.62,4.62,0,0,0,1.24-.18,4,4,0,0,0,1.13-.49,3.08,3.08,0,0,0,.79-.67,2.61,2.61,0,0,0,.43-.76,3.44,3.44,0,0,0,.18-.78,7.06,7.06,0,0,0,0-.73Z"/><path d="M274,672.76h-1.65v-8.14q0-.53,0-1.05t-.07-1.05q0-.22-.13-.7a2.55,2.55,0,0,0-.42-.94,2.87,2.87,0,0,0-.91-.81,3.11,3.11,0,0,0-1.6-.35,6.45,6.45,0,0,0-.77.06,4.1,4.1,0,0,0-1,.28,3.67,3.67,0,0,0-1.19.73,2.92,2.92,0,0,0-.91,1.75,6,6,0,0,0-.06.77v9.46H263.6v-14h1.65v1.57l.6-.52a5.74,5.74,0,0,1,.94-.63,6.14,6.14,0,0,1,1.32-.52,6.36,6.36,0,0,1,1.71-.21,5.33,5.33,0,0,1,1.9.35A3.1,3.1,0,0,1,273.2,660a3.64,3.64,0,0,1,.67,1.69,14.22,14.22,0,0,1,.11,1.72Z"/><path d="M288.52,672.76h-1.65V671a6.43,6.43,0,0,1-.49.56,4.33,4.33,0,0,1-.84.66,5.58,5.58,0,0,1-1.27.56,5.91,5.91,0,0,1-1.76.24,5.35,5.35,0,0,1-2.52-.55,4.63,4.63,0,0,1-1.69-1.51,6.74,6.74,0,0,1-1-2.25,12,12,0,0,1-.31-2.8,11.48,11.48,0,0,1,.38-3.05,6.74,6.74,0,0,1,1.13-2.35,5.19,5.19,0,0,1,1.89-1.53,6,6,0,0,1,2.65-.55,5.36,5.36,0,0,1,1.6.21,4.6,4.6,0,0,1,1.11.49,3.25,3.25,0,0,1,.7.59l.41.48V653h1.65Zm-1.62-9.39a4.36,4.36,0,0,0-.27-1.6,3,3,0,0,0-.91-1.21,3.57,3.57,0,0,0-1.13-.62,4.33,4.33,0,0,0-1.41-.23,3.83,3.83,0,0,0-1.93.44,4.15,4.15,0,0,0-1.15.91,4.61,4.61,0,0,0-1,1.93,10.77,10.77,0,0,0-.28,2.57q0,.73.1,1.79a7.3,7.3,0,0,0,.49,2,4.31,4.31,0,0,0,1.2,1.69,3.31,3.31,0,0,0,2.24.7,4.53,4.53,0,0,0,1.81-.37,3.48,3.48,0,0,0,1.36-1,3,3,0,0,0,.7-1.59c.08-.59.12-1.13.14-1.62Z"/><path d="M319.09,672.76h-1.82L317,656v-.62c0-.17,0-.33,0-.48s0-.32,0-.52,0-.45,0-.77q-.14.45-.25.76l-.2.56q-.08.25-.18.5l-.24.62L310,672.76h-1.62l-6.24-17.11q-.14-.34-.22-.56l-.15-.43-.15-.46-.2-.59q0,.81,0,1.23v1.06l-.34,16.86h-1.68l.47-19.77h3.3l5,13.94q.17.53.31.92c.09.26.18.52.27.78l.27.83c.09.29.2.64.31,1q.2-.64.34-1l.27-.74q.13-.35.25-.74c.08-.26.2-.6.35-1l5-14h3.33Z"/><path d="M334,665.12a21.67,21.67,0,0,1-.1,2.52,7.4,7.4,0,0,1-.7,2.56,5.16,5.16,0,0,1-1.74,2,5.47,5.47,0,0,1-3.18.81,6,6,0,0,1-3.05-.67,4.85,4.85,0,0,1-1.76-1.71,6.37,6.37,0,0,1-.81-2.31,16.07,16.07,0,0,1-.2-2.45q0-.48,0-1.22a10.67,10.67,0,0,1,.21-1.55,8.15,8.15,0,0,1,.53-1.64,4.88,4.88,0,0,1,1-1.48A5.1,5.1,0,0,1,326,658.9a6.23,6.23,0,0,1,2.42-.42,5.56,5.56,0,0,1,3.13.76,5,5,0,0,1,1.68,1.82,6.15,6.15,0,0,1,.69,2.18Q334,664.36,334,665.12Zm-1.73.2q0-.7-.14-1.65a6,6,0,0,0-.5-1.81,3.83,3.83,0,0,0-1.15-1.44,3.34,3.34,0,0,0-2.1-.59,3.83,3.83,0,0,0-1.75.36,3.66,3.66,0,0,0-1.18.92,4,4,0,0,0-.7,1.26,10.23,10.23,0,0,0-.36,1.36,7.57,7.57,0,0,0-.14,1.22c0,.37,0,.66,0,.87a15.72,15.72,0,0,0,.13,1.92,6.16,6.16,0,0,0,.54,1.9,3.53,3.53,0,0,0,3.5,2.06,3.21,3.21,0,0,0,2.21-.7,4.16,4.16,0,0,0,1.15-1.71,7.6,7.6,0,0,0,.43-2.1Q332.31,666.1,332.31,665.31Z"/><path d="M341.63,672.76H340l-4.73-14h1.93l3.11,9.63c.07.26.14.48.2.66l.15.49c0,.15.1.3.15.46s.11.35.17.57q.14-.42.21-.59l.21-.53,3.84-10.7h1.65Z"/><path d="M350.4,655.43h-1.65v-2.07h1.65Zm0,17.33h-1.65v-14h1.65Z"/><path d="M364.4,672.76h-1.65v-8.14c0-.36,0-.71,0-1.05s0-.7-.07-1.05c0-.15-.06-.38-.13-.7a2.53,2.53,0,0,0-.42-.94,2.87,2.87,0,0,0-.91-.81,3.11,3.11,0,0,0-1.6-.35,6.47,6.47,0,0,0-.77.06,4.1,4.1,0,0,0-1,.28,3.67,3.67,0,0,0-1.19.73,2.92,2.92,0,0,0-.91,1.75,5.82,5.82,0,0,0-.06.77v9.46H354v-14h1.65v1.57l.6-.52a5.74,5.74,0,0,1,.94-.63,6.14,6.14,0,0,1,1.32-.52,6.37,6.37,0,0,1,1.71-.21,5.34,5.34,0,0,1,1.9.35,3.09,3.09,0,0,1,1.48,1.16,3.64,3.64,0,0,1,.67,1.69,14.22,14.22,0,0,1,.11,1.72Z"/><path d="M379,658.76v13.15a11.84,11.84,0,0,1-.11,1.61,7.62,7.62,0,0,1-.39,1.58,4.68,4.68,0,0,1-.78,1.39,5.28,5.28,0,0,1-1.95,1.44,6.51,6.51,0,0,1-2.76.57,6,6,0,0,1-2.68-.56,4.2,4.2,0,0,1-1.67-1.34,4.91,4.91,0,0,1-.46-1,5.05,5.05,0,0,1-.24-1.71h1.71c0,.22,0,.47.08.73a2.56,2.56,0,0,0,.25.78,3,3,0,0,0,1.11,1.16,3.66,3.66,0,0,0,2,.52,4.76,4.76,0,0,0,1.51-.25,3.73,3.73,0,0,0,1.5-.91,3.86,3.86,0,0,0,.81-1.25,5.07,5.07,0,0,0,.34-1.37q.07-.7.1-1.29l0-1.12c-.15.15-.35.33-.59.53a5.62,5.62,0,0,1-.9.6,6.15,6.15,0,0,1-1.25.5,5.72,5.72,0,0,1-1.61.21,5.38,5.38,0,0,1-2.63-.59,5.09,5.09,0,0,1-1.74-1.55,6.42,6.42,0,0,1-1-2.21,11.18,11.18,0,0,1-.29-2.59,11.71,11.71,0,0,1,.29-2.58,6.83,6.83,0,0,1,1-2.32,5.22,5.22,0,0,1,1.93-1.81,6,6,0,0,1,4.16-.49,5.26,5.26,0,0,1,1.11.42,4.79,4.79,0,0,1,.84.56l.67.59v-1.43Zm-1.57,5a6.55,6.55,0,0,0-.15-1.47,2.89,2.89,0,0,0-.63-1.22,3.49,3.49,0,0,0-1.25-1,4,4,0,0,0-1.75-.36,3.94,3.94,0,0,0-2,.48,3.86,3.86,0,0,0-1.34,1.29,6,6,0,0,0-.77,1.92,10.82,10.82,0,0,0-.25,2.4,11.63,11.63,0,0,0,.17,1.92,5.49,5.49,0,0,0,.63,1.81,3.89,3.89,0,0,0,1.28,1.35,3.81,3.81,0,0,0,2.13.53,4.28,4.28,0,0,0,2.77-.93,3.38,3.38,0,0,0,.62-.67,3.09,3.09,0,0,0,.35-.7,3,3,0,0,0,.15-.74c0-.25,0-.51.06-.77Z"/><path d="M392.09,672.76h-1.93V653h10.5v1.48h-8.57v7.76h8v1.48h-8Z"/><path d="M412.81,665.12a21.67,21.67,0,0,1-.1,2.52,7.4,7.4,0,0,1-.7,2.56,5.16,5.16,0,0,1-1.74,2,5.47,5.47,0,0,1-3.18.81,6,6,0,0,1-3.05-.67,4.85,4.85,0,0,1-1.76-1.71,6.37,6.37,0,0,1-.81-2.31,16.07,16.07,0,0,1-.2-2.45q0-.48,0-1.22a10.67,10.67,0,0,1,.21-1.55,8.15,8.15,0,0,1,.53-1.64,4.88,4.88,0,0,1,1-1.48,5.1,5.1,0,0,1,1.65-1.08,6.23,6.23,0,0,1,2.42-.42,5.56,5.56,0,0,1,3.13.76,5,5,0,0,1,1.68,1.82,6.15,6.15,0,0,1,.69,2.18Q412.78,664.36,412.81,665.12Zm-1.73.2q0-.7-.14-1.65a6,6,0,0,0-.5-1.81,3.83,3.83,0,0,0-1.15-1.44,3.34,3.34,0,0,0-2.1-.59,3.83,3.83,0,0,0-1.75.36,3.66,3.66,0,0,0-1.18.92,4,4,0,0,0-.7,1.26,10.23,10.23,0,0,0-.36,1.36A7.57,7.57,0,0,0,403,665c0,.37,0,.66,0,.87a15.72,15.72,0,0,0,.13,1.92,6.16,6.16,0,0,0,.54,1.9,3.53,3.53,0,0,0,3.5,2.06,3.21,3.21,0,0,0,2.21-.7,4.16,4.16,0,0,0,1.15-1.71,7.6,7.6,0,0,0,.43-2.1Q411.07,666.1,411.07,665.31Z"/><path d="M417.51,672.76h-1.65v-14h1.65v1.62a13.94,13.94,0,0,1,1.47-1.29,3.1,3.1,0,0,1,1.92-.56,2.54,2.54,0,0,1,1.13.2,4,4,0,0,1,.66.42v1.71a9.1,9.1,0,0,0-.94-.56,3.14,3.14,0,0,0-1.44-.28,4.18,4.18,0,0,0-.66.06,2.7,2.7,0,0,0-.71.22,2.58,2.58,0,0,0-.8.59,2.17,2.17,0,0,0-.42.68,3.25,3.25,0,0,0-.17.71,5.8,5.8,0,0,0,0,.64Z"/><path d="M437.64,672.76h-1.76l-2.74-9.6c-.05-.22-.11-.42-.15-.6l-.14-.5c0-.16-.09-.33-.13-.5l-.14-.63-.22.67c-.06.17-.1.31-.13.42s-.05.21-.08.29a2.57,2.57,0,0,0-.07.27l-3.28,10.19h-1.74l-4.17-14h1.88l2.88,10.33c.06.17.1.31.13.42l.08.32c0,.1.06.21.08.34s.07.28.13.46q.17-.56.25-.87t.25-.84l3.25-10.16h1.71l2.8,9.6q.11.36.18.63c0,.18.09.35.14.52l.14.5c0,.17.1.36.15.59.06-.15.1-.27.13-.36l.08-.27a2,2,0,0,0,.07-.25l.08-.35,3.14-10.61H442Z"/><path d="M453.66,672.76H452.5c-.57,0-.91-.13-1-.38a2.84,2.84,0,0,1-.1-1.19,6.59,6.59,0,0,1-.57.56,4.82,4.82,0,0,1-.85.59,5.41,5.41,0,0,1-1.23.48,6.57,6.57,0,0,1-1.7.2l-.68,0a4.07,4.07,0,0,1-.78-.14,3.41,3.41,0,0,1-.81-.35,3.34,3.34,0,0,1-.77-.63,3.65,3.65,0,0,1-.75-1.26A4.46,4.46,0,0,1,443,669a3.52,3.52,0,0,1,.52-2,4.49,4.49,0,0,1,1-1.12,4.77,4.77,0,0,1,2-.85c.76-.16,1.59-.29,2.48-.41l2.46-.28V663a10,10,0,0,0-.06-1,2.5,2.5,0,0,0-.34-1,2.21,2.21,0,0,0-.85-.8,3.46,3.46,0,0,0-1.67-.32,4,4,0,0,0-2,.41,2.86,2.86,0,0,0-1,1,2.76,2.76,0,0,0-.41,1.12,7.91,7.91,0,0,0-.07.91H443.3a4.46,4.46,0,0,1,.52-2.38,4.32,4.32,0,0,1,1.37-1.46,5.21,5.21,0,0,1,1.78-.73,8.54,8.54,0,0,1,1.71-.2,7.48,7.48,0,0,1,1.89.25,3.11,3.11,0,0,1,1.54.87,2.49,2.49,0,0,1,.53.76,4.13,4.13,0,0,1,.27.84,6.22,6.22,0,0,1,.11.85q0,.44,0,.8v3.28l-.08,3.53,0,1.23a3.91,3.91,0,0,0,.14,1,.85.85,0,0,0,.53.49Zm-2.27-7.22q-.72.06-1.55.17l-1.71.25c-.24,0-.55.1-.93.2a4.1,4.1,0,0,0-1.12.46,3,3,0,0,0-.94.88,2.44,2.44,0,0,0-.39,1.43,2.58,2.58,0,0,0,.81,2,2.86,2.86,0,0,0,2,.74,4.63,4.63,0,0,0,1.24-.18,4.07,4.07,0,0,0,1.13-.49,3.08,3.08,0,0,0,.79-.67,2.66,2.66,0,0,0,.43-.76,3.55,3.55,0,0,0,.18-.78,7,7,0,0,0,0-.73Z"/><path d="M458.36,672.76h-1.65v-14h1.65v1.62a13.94,13.94,0,0,1,1.47-1.29,3.1,3.1,0,0,1,1.92-.56,2.54,2.54,0,0,1,1.13.2,4,4,0,0,1,.66.42v1.71a9.1,9.1,0,0,0-.94-.56,3.14,3.14,0,0,0-1.44-.28,4.18,4.18,0,0,0-.66.06,2.7,2.7,0,0,0-.71.22,2.58,2.58,0,0,0-.8.59,2.17,2.17,0,0,0-.42.68,3.25,3.25,0,0,0-.17.71,5.8,5.8,0,0,0,0,.64Z"/><path d="M475.83,672.76h-1.65V671a6.27,6.27,0,0,1-.49.56,4.33,4.33,0,0,1-.84.66,5.58,5.58,0,0,1-1.27.56,5.9,5.9,0,0,1-1.76.24,5.35,5.35,0,0,1-2.52-.55,4.64,4.64,0,0,1-1.7-1.51,6.76,6.76,0,0,1-1-2.25,11.93,11.93,0,0,1-.31-2.8,11.48,11.48,0,0,1,.38-3.05,6.74,6.74,0,0,1,1.13-2.35,5.2,5.2,0,0,1,1.89-1.53,6,6,0,0,1,2.65-.55,5.37,5.37,0,0,1,1.6.21,4.59,4.59,0,0,1,1.11.49,3.25,3.25,0,0,1,.7.59l.41.48V653h1.65Zm-1.62-9.39a4.36,4.36,0,0,0-.27-1.6,3,3,0,0,0-.91-1.21,3.58,3.58,0,0,0-1.13-.62,4.34,4.34,0,0,0-1.41-.23,3.83,3.83,0,0,0-1.93.44,4.15,4.15,0,0,0-1.15.91,4.61,4.61,0,0,0-1,1.93,10.76,10.76,0,0,0-.28,2.57q0,.73.1,1.79a7.34,7.34,0,0,0,.49,2,4.32,4.32,0,0,0,1.21,1.69,3.31,3.31,0,0,0,2.24.7,4.53,4.53,0,0,0,1.8-.37,3.48,3.48,0,0,0,1.36-1,3,3,0,0,0,.7-1.59c.07-.59.12-1.13.14-1.62Z"/><path d="M492.35,672.76h-1.85V654.48h-5.88V653h13.55v1.48h-5.82Z"/><path d="M507.39,665.12a22.11,22.11,0,0,1-.1,2.52,7.41,7.41,0,0,1-.7,2.56,5.17,5.17,0,0,1-1.73,2,5.47,5.47,0,0,1-3.18.81,6,6,0,0,1-3.05-.67,4.85,4.85,0,0,1-1.76-1.71,6.34,6.34,0,0,1-.81-2.31,16.07,16.07,0,0,1-.2-2.45q0-.48,0-1.22a10.42,10.42,0,0,1,.21-1.55,8.15,8.15,0,0,1,.53-1.64,4.87,4.87,0,0,1,1-1.48,5.15,5.15,0,0,1,1.65-1.08,6.23,6.23,0,0,1,2.42-.42,5.57,5.57,0,0,1,3.14.76,5,5,0,0,1,1.68,1.82,6.14,6.14,0,0,1,.69,2.18Q507.36,664.36,507.39,665.12Zm-1.74.2q0-.7-.14-1.65a6,6,0,0,0-.5-1.81,3.82,3.82,0,0,0-1.15-1.44,3.34,3.34,0,0,0-2.1-.59,3.83,3.83,0,0,0-1.75.36,3.68,3.68,0,0,0-1.18.92,4,4,0,0,0-.7,1.26,10.23,10.23,0,0,0-.36,1.36,7.57,7.57,0,0,0-.14,1.22c0,.37,0,.66,0,.87a15.7,15.7,0,0,0,.13,1.92,6.11,6.11,0,0,0,.55,1.9,3.77,3.77,0,0,0,1.25,1.47,3.82,3.82,0,0,0,2.25.59A3.2,3.2,0,0,0,504,671a4.12,4.12,0,0,0,1.15-1.71,7.6,7.6,0,0,0,.43-2.1Q505.65,666.1,505.65,665.31Z"/><path d="M521.39,658.76v13.15a11.84,11.84,0,0,1-.11,1.61,7.88,7.88,0,0,1-.39,1.58,4.72,4.72,0,0,1-.78,1.39,5.29,5.29,0,0,1-1.95,1.44,6.51,6.51,0,0,1-2.76.57,6,6,0,0,1-2.67-.56,4.19,4.19,0,0,1-1.67-1.34,4.89,4.89,0,0,1-.46-1,5.06,5.06,0,0,1-.24-1.71h1.71c0,.22,0,.47.08.73a2.56,2.56,0,0,0,.25.78,3,3,0,0,0,1.11,1.16,3.67,3.67,0,0,0,2,.52,4.76,4.76,0,0,0,1.51-.25,3.75,3.75,0,0,0,1.5-.91,3.89,3.89,0,0,0,.81-1.25,5.15,5.15,0,0,0,.34-1.37q.07-.7.1-1.29l0-1.12c-.15.15-.35.33-.59.53a5.45,5.45,0,0,1-.9.6,6.11,6.11,0,0,1-1.25.5,5.7,5.7,0,0,1-1.61.21,5.39,5.39,0,0,1-2.63-.59,5.07,5.07,0,0,1-1.73-1.55,6.38,6.38,0,0,1-1-2.21,11.29,11.29,0,0,1-.29-2.59,11.83,11.83,0,0,1,.29-2.58,6.79,6.79,0,0,1,1-2.32,5.2,5.2,0,0,1,1.93-1.81,6,6,0,0,1,4.16-.49,5.24,5.24,0,0,1,1.11.42,4.72,4.72,0,0,1,.84.56l.67.59v-1.43Zm-1.57,5a6.44,6.44,0,0,0-.15-1.47A2.88,2.88,0,0,0,519,661a3.5,3.5,0,0,0-1.25-1,4,4,0,0,0-1.75-.36,3.93,3.93,0,0,0-2,.48,3.84,3.84,0,0,0-1.34,1.29,6,6,0,0,0-.77,1.92,10.82,10.82,0,0,0-.25,2.4,11.63,11.63,0,0,0,.17,1.92,5.5,5.5,0,0,0,.63,1.81,3.9,3.9,0,0,0,1.27,1.35,3.82,3.82,0,0,0,2.13.53,4.27,4.27,0,0,0,2.77-.93,3.27,3.27,0,0,0,.62-.67,3,3,0,0,0,.35-.7,2.88,2.88,0,0,0,.15-.74c0-.25,0-.51.06-.77Z"/><path d="M535.56,668.54a4.19,4.19,0,0,1-.32,1.58,4.11,4.11,0,0,1-1,1.44,5.15,5.15,0,0,1-1.69,1,6.39,6.39,0,0,1-2.37.41,9.31,9.31,0,0,1-1.26-.1,4.91,4.91,0,0,1-1.37-.41,4.58,4.58,0,0,1-1.47-1.11,5.65,5.65,0,0,1-1-1.55,7.91,7.91,0,0,1-.52-1.85,12.74,12.74,0,0,1-.15-2,13.9,13.9,0,0,1,.25-2.59,7.45,7.45,0,0,1,.91-2.44,5.36,5.36,0,0,1,1.81-1.82,5.55,5.55,0,0,1,3-.71,5.25,5.25,0,0,1,2.66.6,4.46,4.46,0,0,1,1.62,1.6,6.28,6.28,0,0,1,.79,2.27,15.41,15.41,0,0,1,.17,2.62h-9.35c0,.37,0,.9,0,1.57a6.47,6.47,0,0,0,.42,2,4.4,4.4,0,0,0,1.2,1.75,3.42,3.42,0,0,0,2.37.74,4.55,4.55,0,0,0,1.2-.17,3.45,3.45,0,0,0,1.12-.53,3.08,3.08,0,0,0,.85-1,3.27,3.27,0,0,0,.41-1.44Zm-1.6-4.28c0-.22-.06-.58-.11-1.08a4.51,4.51,0,0,0-.43-1.47,3.71,3.71,0,0,0-1-1.29,3.07,3.07,0,0,0-2-.56q-.2,0-.8.07a3.22,3.22,0,0,0-1.28.48,4.14,4.14,0,0,0-1.26,1.3,5.71,5.71,0,0,0-.76,2.55Z"/><path d="M540.6,660l-.08,8.54q0,1.2.07,1.67a1.51,1.51,0,0,0,.24.74,1.46,1.46,0,0,0,.53.45,2.15,2.15,0,0,0,1.06.22,3.11,3.11,0,0,0,1.06-.15l.78-.29v1.34q-.39.14-1,.31a5.53,5.53,0,0,1-1.47.17,3.9,3.9,0,0,1-1.25-.17,3,3,0,0,1-.8-.39,1.78,1.78,0,0,1-.45-.43l-.17-.27a2.05,2.05,0,0,1-.18-.43,3,3,0,0,1-.1-.57q0-.34,0-.81c0-.32,0-.69,0-1.12l.11-8.79h-2.24v-1.26h2.27V655.6l1.74-.25-.06,3.42h2.74V660Z"/><path d="M556.42,672.76h-1.65v-8.05q0-.84,0-1.57a6.39,6.39,0,0,0-.18-1.33,2.83,2.83,0,0,0-.51-1.05,2.53,2.53,0,0,0-1-.73,2.7,2.7,0,0,0-.72-.24,4.25,4.25,0,0,0-.77-.07,4.88,4.88,0,0,0-1.81.35,3.43,3.43,0,0,0-1.42,1,2.55,2.55,0,0,0-.58,1.15,8.76,8.76,0,0,0-.13,1.09v9.46H546V653h1.65v7.36q.2-.2.57-.52a5.16,5.16,0,0,1,.94-.62,7.43,7.43,0,0,1,1.3-.52,6,6,0,0,1,1.72-.22,5.29,5.29,0,0,1,1.88.34,3.32,3.32,0,0,1,1.48,1.09,3.26,3.26,0,0,1,.71,1.68c.07.6.11,1.17.13,1.71Z"/><path d="M570.56,668.54a4.23,4.23,0,0,1-.32,1.58,4.14,4.14,0,0,1-1,1.44,5.18,5.18,0,0,1-1.7,1,6.38,6.38,0,0,1-2.37.41,9.31,9.31,0,0,1-1.26-.1,5,5,0,0,1-1.37-.41,4.57,4.57,0,0,1-1.47-1.11,5.61,5.61,0,0,1-1-1.55,7.91,7.91,0,0,1-.52-1.85,12.5,12.5,0,0,1-.15-2,13.9,13.9,0,0,1,.25-2.59,7.41,7.41,0,0,1,.91-2.44,5.34,5.34,0,0,1,1.81-1.82,5.54,5.54,0,0,1,3-.71,5.25,5.25,0,0,1,2.66.6,4.45,4.45,0,0,1,1.63,1.6,6.32,6.32,0,0,1,.78,2.27,15,15,0,0,1,.17,2.62h-9.35q0,.56,0,1.57a6.52,6.52,0,0,0,.42,2,4.4,4.4,0,0,0,1.21,1.75,3.42,3.42,0,0,0,2.37.74,4.57,4.57,0,0,0,1.21-.17,3.44,3.44,0,0,0,1.12-.53,3.06,3.06,0,0,0,.85-1,3.25,3.25,0,0,0,.41-1.44Zm-1.6-4.28c0-.22-.05-.58-.11-1.08a4.61,4.61,0,0,0-.43-1.47,3.71,3.71,0,0,0-1.05-1.29,3.06,3.06,0,0,0-2-.56c-.13,0-.4,0-.8.07a3.2,3.2,0,0,0-1.27.48,4.1,4.1,0,0,0-1.26,1.3,5.71,5.71,0,0,0-.76,2.55Z"/><path d="M575.09,672.76h-1.65v-14h1.65v1.62a13.94,13.94,0,0,1,1.47-1.29,3.1,3.1,0,0,1,1.92-.56,2.54,2.54,0,0,1,1.13.2,4,4,0,0,1,.66.42v1.71a9.1,9.1,0,0,0-.94-.56,3.14,3.14,0,0,0-1.44-.28,4.18,4.18,0,0,0-.66.06,2.7,2.7,0,0,0-.71.22,2.58,2.58,0,0,0-.8.59,2.17,2.17,0,0,0-.42.68,3.25,3.25,0,0,0-.17.71,5.8,5.8,0,0,0,0,.64Z"/><path d="M405.26,291.86c-5.66,0-10.72-4.63-13.24-7.39-3.59-3.95-6.11-8.54-6.11-11.17V259a1.4,1.4,0,0,1,1.36-1.4,49.44,49.44,0,0,0,14.21-3c9.37-3.58,14.68-9.52,15.79-17.66a1.4,1.4,0,0,1,2.78.38,22.34,22.34,0,0,1-3.23,9l.05.05,7.31,7.15a1.39,1.39,0,0,1,.42,1v18.79c0,2.91-2.36,7.48-5.88,11.36C416.28,287.34,411.29,291.86,405.26,291.86ZM388.71,260.3v13c0,1.67,2,5.6,5.38,9.29,3.75,4.12,7.82,6.48,11.16,6.48,3.62,0,7.77-2.29,11.38-6.28,3.35-3.69,5.16-7.64,5.16-9.49v-18.2l-6.64-6.5a29.93,29.93,0,0,1-12.75,8.64A52.25,52.25,0,0,1,388.71,260.3Z"/><path d="M413.87,268.87a1.75,1.75,0,0,1-1.75-1.75v-4.29a1.75,1.75,0,0,1,3.5,0v4.29A1.75,1.75,0,0,1,413.87,268.87Z"/><path d="M396.64,268.87a1.75,1.75,0,0,1-1.75-1.75v-4.29a1.75,1.75,0,0,1,3.5,0v4.29A1.75,1.75,0,0,1,396.64,268.87Z"/><path d="M405.26,282.52a8.35,8.35,0,0,1-5.75-2.25,1,1,0,1,1,1.45-1.52,6.34,6.34,0,0,0,8.6,0,1,1,0,1,1,1.45,1.52A8.35,8.35,0,0,1,405.26,282.52Z"/><path d="M405.15,275.91H405c-2.43-.29-3.21-1.82-3.14-3.05a3.06,3.06,0,0,1,2.32-2.77v-3a1.05,1.05,0,0,1,2.1,0v4a1,1,0,0,1-1.05,1h-.43a1,1,0,0,0-.85.87c0,.62.89.8,1.29.85a1,1,0,0,1-.12,2.09Z"/><path d="M423.26,271.44a1.4,1.4,0,1,1,0-2.79c2.09,0,4.34-2.05,4.34-6.55,0-.62-.1-1.42-.56-1.71-.7-.45-2.32-.07-3.19.33a1.4,1.4,0,0,1-1.17-2.53c.36-.17,3.61-1.59,5.87-.15.85.54,1.86,1.68,1.86,4.07a10.71,10.71,0,0,1-2.11,6.84A6.52,6.52,0,0,1,423.26,271.44Z"/><path d="M381.14,296a1.4,1.4,0,0,1-1.4-1.4c0-6.36-1.09-8.91-2.14-11.38a20.1,20.1,0,0,1-1.93-9.12,18.28,18.28,0,0,1,3.3-11c1-1.54,1.67-2.66,1.67-4.28a1.39,1.39,0,0,1,.22-.75l-.22-.11c0-9.51,2.49-16.57,7.4-21,4.07-3.66,9.81-5.51,17.08-5.51a1.4,1.4,0,1,1,0,2.79c-14.59,0-21.68,7.75-21.68,23.71l-.22.11a1.39,1.39,0,0,1,.22.75v.56h0a10.73,10.73,0,0,1-2.08,5.21,15.66,15.66,0,0,0-2.87,9.56,17.31,17.31,0,0,0,1.7,8c1.11,2.6,2.36,5.55,2.36,12.48A1.4,1.4,0,0,1,381.14,296Z"/><path d="M429.6,259.35l-1.4-.71-1.4.71v-.56A1.39,1.39,0,0,1,427,258l-.22-.11c0-16-7.09-23.71-21.68-23.71a1.4,1.4,0,1,1,0-2.79c7.27,0,13,1.85,17.08,5.51,4.91,4.41,7.4,11.48,7.4,21l-.22.11a1.39,1.39,0,0,1,.22.75Z"/><path d="M387,296a1.4,1.4,0,0,1-1.4-1.4c0-7.08-1.1-10.1-2.07-12.76a21.76,21.76,0,0,1-1.64-8.57,13.12,13.12,0,0,1,3.66-8.87,1.4,1.4,0,0,1,1.95,2,10.45,10.45,0,0,0-2.8,6.86,19.18,19.18,0,0,0,1.47,7.62c1,2.88,2.24,6.14,2.24,13.71A1.4,1.4,0,0,1,387,296Z"/><path d="M392.62,296a1.4,1.4,0,0,1-1.4-1.4c0-7.09-1.1-10.11-2.07-12.77-.19-.53-.39-1.07-.57-1.63a1.4,1.4,0,0,1,2.66-.87c.17.51.35,1,.55,1.55,1,2.88,2.24,6.14,2.24,13.72A1.4,1.4,0,0,1,392.62,296Z"/><path d="M428.39,296a1.4,1.4,0,0,1-1.4-1.4,17.15,17.15,0,0,0-1.42-6.24,17.85,17.85,0,0,1-1.46-6.39,13.69,13.69,0,0,1,1.09-5A27.76,27.76,0,0,0,427,266a1.4,1.4,0,0,1,2.8,0,30.2,30.2,0,0,1-2,11.88,11,11,0,0,0-.92,4.1,15.44,15.44,0,0,0,1.28,5.43,19.92,19.92,0,0,1,1.59,7.2A1.4,1.4,0,0,1,428.39,296Z"/><path d="M423,296a1.4,1.4,0,0,1-1.4-1.4,17.17,17.17,0,0,0-1.42-6.24,17.86,17.86,0,0,1-1.45-6.39c0-.36,0-.7,0-1a1.4,1.4,0,0,1,2.79.27c0,.24,0,.5,0,.77a15.46,15.46,0,0,0,1.28,5.43,19.93,19.93,0,0,1,1.59,7.2A1.4,1.4,0,0,1,423,296Z"/><path d="M417.53,296a1.4,1.4,0,0,1-1.4-1.4,17.17,17.17,0,0,0-1.41-6.24c-.22-.6-.45-1.22-.65-1.85a1.4,1.4,0,0,1,2.67-.86c.19.58.4,1.14.62,1.74a19.94,19.94,0,0,1,1.58,7.2A1.4,1.4,0,0,1,417.53,296Z"/><path d="M387.91,253.49a1.4,1.4,0,0,1-.16-2.78c12.28-1.39,19.41-5.54,23.23-8.78a19.12,19.12,0,0,0,5.39-6.72,1.4,1.4,0,0,1,2.62,1c-.06.15-1.45,3.78-6,7.72-4.12,3.55-11.79,8.1-24.9,9.58Z"/><path d="M395.79,244.42a1.4,1.4,0,0,1-.1-2.79,34.63,34.63,0,0,0,19.12-7.49,1.4,1.4,0,0,1,1.88,2.07,36.82,36.82,0,0,1-20.81,8.21Z"/><path d="M354.42,239.11H338.56a1.76,1.76,0,0,1-1.42-.72l-14.39-19.56a1.75,1.75,0,0,1-.34-1V197.5a1.76,1.76,0,0,1-1.6,1.07h0a1.76,1.76,0,0,1-1.76-1.73l-.2-15.32a1.75,1.75,0,0,1,.25-.93l5.3-8.74a1.76,1.76,0,0,1,.28-.35c11.24-10.93,29.12-4,29.87-3.69,2.31.92,7.09.25,8.74-.09a1.76,1.76,0,0,1,2.12,1.72,19.86,19.86,0,0,1-2.91,10l7.81,12.1a1.75,1.75,0,0,1,.28,1v25.28a1.75,1.75,0,0,1-.34,1l-14.39,19.56A1.76,1.76,0,0,1,354.42,239.11Zm-15-3.51h14.07L367,217.22V193l-6.79-10.51a16.78,16.78,0,0,1-12.59,6.12,21.9,21.9,0,0,1-13.73-4.4l-8,8.23v24.75ZM322.36,182l.12,9.31a1.75,1.75,0,0,1,.43-.74l9.69-10a1.77,1.77,0,0,1,2.59.06c.16.18,4.17,4.49,12.49,4.49,7.23,0,13-6.91,14-13.59-2.36.3-6,.53-8.48-.46a35.31,35.31,0,0,0-11.07-2.19c-6.19-.19-11.19,1.48-14.88,5Z"/><path d="M372,198.57H372a1.76,1.76,0,0,1-1.7-1.81l.52-15.4-5-7.17L363,173.12a1.76,1.76,0,1,1,1.28-3.27l3.26,1.27a1.76,1.76,0,0,1,.81.63l5.64,8.08a1.75,1.75,0,0,1,.31,1.06l-.54,16A1.76,1.76,0,0,1,372,198.57Z"/><path d="M358,208.76a1.76,1.76,0,0,1-1.76-1.76v-5.83a1.76,1.76,0,0,1,3.52,0V207A1.76,1.76,0,0,1,358,208.76Z"/><path d="M334.24,208.76a1.76,1.76,0,0,1-1.76-1.76v-5.83a1.76,1.76,0,0,1,3.52,0V207A1.76,1.76,0,0,1,334.24,208.76Z"/><path d="M346.44,225.77a9.37,9.37,0,0,1-6.66-2.75,1.76,1.76,0,1,1,2.49-2.48,5.9,5.9,0,0,0,8.34,0A1.76,1.76,0,0,1,353.1,223,9.37,9.37,0,0,1,346.44,225.77Z"/><path d="M324.09,214.47a8.09,8.09,0,0,1-6.41-3.42,15.21,15.21,0,0,1-2.63-9.21c0-2.65.84-4.51,2.49-5.53,2.9-1.79,6.89.11,7.34.33a1.76,1.76,0,1,1-1.57,3.14c-.86-.42-2.94-1.09-3.92-.48-.68.42-.82,1.61-.82,2.54,0,6.27,2.86,9.12,5.52,9.12a1.76,1.76,0,1,1,0,3.51Z"/><path d="M368.83,214.47a1.76,1.76,0,1,1,0-3.51c2.66,0,5.52-2.85,5.52-9.12,0-.93-.14-2.12-.82-2.54-1-.61-3.06.07-3.92.48a1.76,1.76,0,0,1-1.57-3.14c.45-.22,4.44-2.12,7.34-.33,1.65,1,2.49,2.88,2.49,5.53a15.21,15.21,0,0,1-2.63,9.21A8.09,8.09,0,0,1,368.83,214.47Z"/><path d="M348.37,193.93a19,19,0,0,1-11.32-3.66c-3.15-2.36-5-5.44-5-8.47a1.76,1.76,0,0,1,3.52,0c0,3.9,5.69,8.62,12.75,8.62a1.76,1.76,0,1,1,0,3.51Z"/><path d="M348,216.22h-3a1.32,1.32,0,0,1-1.19-.75l-1.32-2.77a1.32,1.32,0,0,1,2.39-1.13l1,2h.83V201.31a1.32,1.32,0,0,1,2.64,0v13.59A1.32,1.32,0,0,1,348,216.22Z"/><path d="M540.43,400c2.42,33.89,36.32-21.79,19.37-77.47s-82.31-62.95-82.31-62.95,0-48.42-2.42-55.68,87.16-36.32,50.84-108.95-113.79,36.32-113.79,36.32-43.58-2.42-72.63,2.42c0,0-38.95-135.7-113.79-101.68-26.63,12.1,29.05,33.89,12.1,104.1,0,0-70.21,60.53-77.47,116.21,0,0-111.35,24-118.63,125.89-2.42,33.89,41.16-38.74,89.58-36.32,0,0,2.42,87.16,38.74,77.47,9.92-2.65-7.26-140.42,70.21-205.79s152.52-55.68,184,2.42-33.89,157.37-77.47,181.58-150.1,19.37-152.52,33.89,55.68,26.63,84.74,19.37,5.41,72.09-55.68,111.37C189.39,584,344.33,579.13,368.54,433.87c0,0,55.68-36.32,79.89-72.63S537,351.43,540.43,400Z"/><path d="M501.5,497.18S619.45,449.41,576.15,333C576.15,333,595.56,409.09,501.5,497.18Z"/><path d="M123.78,112c29.86-98.54,146.31-98.54,146.31-98.54C140.2-7.45,123.78,112,123.78,112Z"/><path d="M50.62,300.11C-27,374.76,26.74,461.35,26.74,461.35,2.85,370.28,50.62,300.11,50.62,300.11Z"/><path d="M326.83,545s-83.61,50.76-173.19,55.24C153.64,600.2,261.13,612.14,326.83,545Z"/><path d="M341.68,388.07a2.17,2.17,0,0,1-2.17-2.17v-4.8a2.17,2.17,0,0,1,4.35,0v4.8A2.17,2.17,0,0,1,341.68,388.07Z"/><path d="M320.31,388.07a2.17,2.17,0,0,1-2.17-2.17v-4.8a2.17,2.17,0,0,1,4.35,0v4.8A2.17,2.17,0,0,1,320.31,388.07Z"/><path d="M330.62,407.09a8.49,8.49,0,0,1-6-2.44,1.3,1.3,0,1,1,1.83-1.85,5.93,5.93,0,0,0,8.29,0,1.3,1.3,0,1,1,1.83,1.85A8.5,8.5,0,0,1,330.62,407.09Z"/><path d="M330.62,418.18h0c-3.64,0-7-2-9.56-5.51a1.3,1.3,0,0,1,2.13-1.5c2,2.85,4.66,4.41,7.43,4.41h0c2.77,0,5.41-1.57,7.44-4.41a1.3,1.3,0,0,1,2.13,1.5C337.66,416.22,334.26,418.18,330.62,418.18Z"/><path d="M332.78,418.89h-3.56A24.59,24.59,0,0,1,313.94,413c-4.35-3.61-6.94-8-6.94-11.75V374.48a1.73,1.73,0,0,1,.1-.59c.18-.49,4.4-11.93,13.78-15a1.73,1.73,0,1,1,1.1,3.29c-7.07,2.35-10.85,11-11.51,12.67v26.42c0,2.65,2.23,6.22,5.69,9.09a21.06,21.06,0,0,0,13,5.11h3.56c7,0,18.74-8.07,18.74-14.2V374.88c-1.69-2.38-10.36-14.1-18.55-15.42a7.56,7.56,0,0,0-6.12,1.54,1.73,1.73,0,1,1-2.13-2.74,11,11,0,0,1,8.81-2.22c10.57,1.71,20.75,16.7,21.18,17.34a1.73,1.73,0,0,1,.29,1v26.89C355,410,340.74,418.89,332.78,418.89Z"/><path d="M353.26,398.71a1.73,1.73,0,1,1,0-3.46c1.87,0,4.49-3.54,4.49-11.42,0-2.33-.49-3.42-.95-3.66s-1.85.21-2.55.7a1.75,1.75,0,0,1-2.42-.43,1.72,1.72,0,0,1,.42-2.41c.34-.24,3.45-2.33,6.14-.94,1.88,1,2.83,3.24,2.83,6.74C361.23,394.1,357.22,398.71,353.26,398.71Z"/><path d="M308.74,398.71c-4,0-8-4.6-8-14.89,0-3.5,1-5.77,2.83-6.74,2.7-1.39,5.8.7,6.14.94a1.73,1.73,0,0,1-2,2.83c-.7-.48-2-1-2.55-.7s-.95,1.33-.95,3.66c0,7.88,2.63,11.42,4.49,11.42a1.73,1.73,0,1,1,0,3.46Z"/><path d="M329.94,374.4l-.2,0c-3.81-.58-11.54-1-11.62-1a1.3,1.3,0,1,1,.15-2.59c.32,0,7.72.45,11.7,1,1.37-.14,10.22-1,13.07-1a1.3,1.3,0,1,1,0,2.6c-2.89,0-12.86,1-13,1Z"/><path d="M330.2,370l-.2,0c-2.36-.36-7.17-.64-7.22-.64a1.3,1.3,0,1,1,.15-2.59c.2,0,4.77.28,7.29.64,1-.11,6.39-.65,8.16-.65a1.3,1.3,0,1,1,0,2.6c-1.78,0-8,.64-8.05.65Z"/><path d="M305.47,380.09a1.74,1.74,0,0,1-1.73-1.64l-.67-13.14a1.73,1.73,0,0,1,0-.3c.06-.47,1.47-11.48,7.77-14.45s10.75.61,12.73,4.54a1.76,1.76,0,0,1-.38,2.13,1.67,1.67,0,0,1-2.07.13c-.25-.11-2-.8-5.36.68-3.67,1.6-7.35,4.92-6.78,17.39a1.73,1.73,0,0,1-1.66,1.81h-.17l.05,1a1.73,1.73,0,0,1-1.65,1.82Zm9.83-27.14a7,7,0,0,0-3,.74c-2.7,1.27-4.33,5.33-5.16,8.52a13.13,13.13,0,0,1,7.2-7.34,14.7,14.7,0,0,1,3.66-1.1A4.88,4.88,0,0,0,315.3,352.95Zm5.8,4.4h0Z"/><path d="M356.15,379.59H356a1.73,1.73,0,0,1-1.58-1.88l1.31-15a43.82,43.82,0,0,0-5-10.12c-4.49-6.63-9.86-10-16-10-4.93,0-8.67,1.24-10.8,3.59a8,8,0,0,0-2,6.34,1.74,1.74,0,0,1-3.46.35,11.49,11.49,0,0,1,2.84-9c2-2.16,5.87-4.73,13.38-4.73,7.24,0,13.77,4,18.89,11.59a46.07,46.07,0,0,1,5.5,11.29,1.73,1.73,0,0,1,.07.65L357.88,378A1.74,1.74,0,0,1,356.15,379.59Z"/><path d="M347.51,360.78a1.74,1.74,0,0,1-1.27-.55c-5.08-5.4-10.51-7.55-16.12-6.38a16.25,16.25,0,0,0-6.94,3.31,1.74,1.74,0,0,1-2.89-1.54c.82-5.46,4.15-9.1,9.61-10.51a21.49,21.49,0,0,1,7.72-.47,1.73,1.73,0,1,1-.51,3.43c-.41-.06-7.94-1.07-11.59,3.65a19.47,19.47,0,0,1,3.88-1.25c4.73-1,11.93-.49,19.37,7.4a1.73,1.73,0,0,1-1.27,2.92Z"/><path d="M330.89,397.2c-2.25,0-3.88-1.33-4-3.31a1.3,1.3,0,0,1,2.6-.18c.06.92,1.34.9,1.6.88.8,0,1.69-.45,1.67-1-.11-2.65-.64-9.3-.65-9.37a1.3,1.3,0,0,1,2.6-.21c0,.28.55,6.77.66,9.47.08,2-1.7,3.52-4.13,3.66Z"/><path d="M346,413.41a1.3,1.3,0,0,1-1.3-1.3,14.12,14.12,0,0,0-28.25,0,1.3,1.3,0,0,1-2.61,0,16.73,16.73,0,0,1,33.46,0A1.3,1.3,0,0,1,346,413.41Z"/><path d="M256.91,253.14a2.07,2.07,0,0,1-2-2.15v-5.77a2,2,0,1,1,3.93,0V251A2.07,2.07,0,0,1,256.91,253.14Z"/><path d="M237,253.14a2.07,2.07,0,0,1-2-2.15v-5.77a2,2,0,1,1,3.93,0V251A2.07,2.07,0,0,1,237,253.14Z"/><path d="M246.94,270.51h0a10.08,10.08,0,0,1-7.8-3.91,1.84,1.84,0,0,1,.11-2.43,1.48,1.48,0,0,1,2.22.12,6.79,6.79,0,0,0,10.95,0,1.48,1.48,0,0,1,2.22-.12,1.84,1.84,0,0,1,.11,2.43A10.08,10.08,0,0,1,246.94,270.51Z"/><path d="M248.29,283.69H245c-4.58,0-9.46-3.92-14.49-11.66a82.2,82.2,0,0,1-6-11.2,1.87,1.87,0,0,1-.15-.73V237a1.86,1.86,0,0,1,.2-.85l3.34-6.5a21.17,21.17,0,0,1,3.61-5.17c3.23-3.38,7.06-4.89,11.1-4.38,4.63.59,8.21,5.82,12,11.36,2.73,4,5.55,8.12,8.47,9.78,7.37,4.2,10.05,7.37,11.06,13,1.11,6.26-2,14.06-6.48,16a1.49,1.49,0,0,1-1.84-.54l-.63-.9C261.59,275.5,255.69,283.69,248.29,283.69Zm-20.85-24c2.64,6,10.49,20.53,17.53,20.53h3.32c9.35,0,16.56-18,17.53-20.49V247a43.29,43.29,0,0,0-4.24-2.7c-3.55-2-6.59-6.47-9.53-10.77-3.23-4.71-6.56-9.59-9.85-10-3.09-.39-5.95.75-8.5,3.38a17.82,17.82,0,0,0-3.06,4.34l0,.07-3.15,6.14Zm39.34,5.91.08.11.55.79C270,264.39,271.72,259,271,255a10.66,10.66,0,0,0-2-5v10.14a1.87,1.87,0,0,1-.11.63C268.76,261,268,262.95,266.79,265.61Z"/><path d="M225.87,260.22c-3.56,0-7.38-3.61-7.38-11.53,0-2.47.71-4.2,2.11-5.13,2.4-1.61,5.63.12,6,.33a1.81,1.81,0,0,1,.68,2.32,1.51,1.51,0,0,1-2.11.75c-.8-.44-2.28-.89-2.93-.45s-.6,1.52-.6,2.19c0,5.31,2.13,8.08,4.24,8.08a1.73,1.73,0,0,1,0,3.45Z"/><path d="M252.21,281.46a1.08,1.08,0,0,1-.37-.06,1.32,1.32,0,0,1-.75-1.63,34.51,34.51,0,0,0,.9-5.08,1.21,1.21,0,0,1,1.3-1.14,1.27,1.27,0,0,1,1,1.43,36.74,36.74,0,0,1-1,5.6A1.19,1.19,0,0,1,252.21,281.46Z"/><path d="M241.06,281.53a1.19,1.19,0,0,1-1.12-.9,37.47,37.47,0,0,1-1-5.66,1.27,1.27,0,0,1,1-1.42,1.21,1.21,0,0,1,1.3,1.15,35.26,35.26,0,0,0,.9,5.15,1.32,1.32,0,0,1-.76,1.63A1.08,1.08,0,0,1,241.06,281.53Z"/><path d="M230.87,250.74a1.14,1.14,0,0,1-.94-.52,1.38,1.38,0,0,1,.24-1.81l.43-.36-.73-.63a1.38,1.38,0,0,1-.2-1.82,1.11,1.11,0,0,1,1.65-.22l1.94,1.67a1.37,1.37,0,0,1,0,2.05l-1.66,1.37A1.11,1.11,0,0,1,230.87,250.74Z"/><path d="M263,250.74a1.11,1.11,0,0,1-.73-.28l-1.94-1.67a1.37,1.37,0,0,1,0-2.05l1.66-1.37a1.11,1.11,0,0,1,1.65.26,1.38,1.38,0,0,1-.24,1.81l-.43.36.73.63a1.38,1.38,0,0,1,.2,1.82A1.14,1.14,0,0,1,263,250.74Z"/><path d="M222.45,245.65a1.58,1.58,0,0,1-1.47-1.12c-.22-.64-5.31-15.82,1.53-21.77a1.48,1.48,0,0,1,2.21.28,1.84,1.84,0,0,1-.25,2.42c-4.19,3.65-1.81,14.13-.54,17.86a1.78,1.78,0,0,1-.92,2.22A1.45,1.45,0,0,1,222.45,245.65Z"/><path d="M269.78,268.65a1.51,1.51,0,0,1-1.21-.62,1.84,1.84,0,0,1,.2-2.43A15.21,15.21,0,0,0,274,252.93c-.34-4.63-2.65-8.51-4.64-9.8a43.15,43.15,0,0,1-3.55-2.52,1.83,1.83,0,0,1-.35-2.41,1.48,1.48,0,0,1,2.19-.38,40.15,40.15,0,0,0,3.3,2.34c2.74,1.78,5.74,6.64,6.18,12.49a18.7,18.7,0,0,1-6.38,15.61A1.48,1.48,0,0,1,269.78,268.65Z"/><path d="M262.21,236.41a1.51,1.51,0,0,1-1.16-.56c-1.15-1.38-2.34-3-3.73-5a1.84,1.84,0,0,1,.31-2.41,1.48,1.48,0,0,1,2.2.34c1.32,1.93,2.47,3.48,3.54,4.76a1.84,1.84,0,0,1-.1,2.44A1.49,1.49,0,0,1,262.21,236.41Z"/><path d="M229.23,232.2a1.6,1.6,0,0,1-1.53-1.33,15.21,15.21,0,0,1,.29-6.52c.86-3.18,3.24-7.35,9.62-9.2a14,14,0,0,1,11.94,1.55c3.19,2.05,5.6,5.19,7.53,8a1.84,1.84,0,0,1-.31,2.41,1.48,1.48,0,0,1-2.2-.34c-4.47-6.49-8.93-10.39-16.17-8.29-3.95,1.14-6.43,3.41-7.38,6.73a11.54,11.54,0,0,0-.28,4.89,1.74,1.74,0,0,1-1.18,2.06A1.45,1.45,0,0,1,229.23,232.2Z"/><path d="M274.35,261.36a1.45,1.45,0,0,1-.71-.19,1.81,1.81,0,0,1-.69-2.32,20.07,20.07,0,0,0,1.14-15,19.15,19.15,0,0,0-5.26-8.37,1.84,1.84,0,0,1-.29-2.42,1.48,1.48,0,0,1,2.2-.32,22.49,22.49,0,0,1,6.31,10,24,24,0,0,1-1.3,17.7A1.56,1.56,0,0,1,274.35,261.36Z"/><path d="M228.26,231.07a1.51,1.51,0,0,1-1.16-.56,13.64,13.64,0,0,1-2.91-9.31c.34-3.34,2.18-6.29,5.46-8.77a20.09,20.09,0,0,1,16-4.07,21.65,21.65,0,0,1,13.79,9.71,1.84,1.84,0,0,1-.35,2.41,1.48,1.48,0,0,1-2.19-.38c-6.16-9.29-16.86-11.32-25.45-4.83-2.5,1.89-3.89,4-4.12,6.32a10.1,10.1,0,0,0,2.1,6.59,1.84,1.84,0,0,1-.09,2.44A1.49,1.49,0,0,1,228.26,231.07Z"/><path d="M276.84,251.34l-.28,0a1.72,1.72,0,0,1-1.27-2c1.73-10.49-.9-13.76-5.66-19.7a78.84,78.84,0,0,1-7.41-10.5c-3.18-5.5-6.78-11.73-17.77-11.73-17.11,0-18.12,15-18.15,15.68a1.63,1.63,0,0,1-1.66,1.62,1.67,1.67,0,0,1-1.48-1.81,22.59,22.59,0,0,1,3-9.51c2.56-4.31,7.8-9.44,18.26-9.44,5.56,0,10,1.42,13.54,4.35,3.22,2.65,5.25,6.16,6.88,9A75.94,75.94,0,0,0,272,227.33c4.87,6.07,8.39,10.46,6.4,22.59A1.62,1.62,0,0,1,276.84,251.34Z"/><path d="M237,229a1.46,1.46,0,0,1-.69-.18,1.81,1.81,0,0,1-.72-2.31c.07-.15,1.67-3.68,5-4.9a7.47,7.47,0,0,1,6.41.78,1.81,1.81,0,0,1,.68,2.32,1.51,1.51,0,0,1-2.11.75,4.71,4.71,0,0,0-4-.59,6.62,6.62,0,0,0-3.19,3.16A1.56,1.56,0,0,1,237,229Z"/><path d="M243.21,228.45a1.5,1.5,0,0,1-1.07-.47,1.85,1.85,0,0,1-.07-2.44,6.18,6.18,0,0,1,4.26-2.15h0a5,5,0,0,1,3.82,2.06,1.84,1.84,0,0,1-.11,2.43,1.48,1.48,0,0,1-2.22-.13,2.07,2.07,0,0,0-1.51-.92,3.15,3.15,0,0,0-2,1.07A1.5,1.5,0,0,1,243.21,228.45Z"/><path d="M246,260.49a2.46,2.46,0,0,1-1.71-.71,3.74,3.74,0,0,1-1.05-2.72,2.74,2.74,0,0,1,.84-2.09,3.06,3.06,0,0,1,1.84-.75,22.58,22.58,0,0,0-1-7.22,1.33,1.33,0,0,1,.73-1.64,1.16,1.16,0,0,1,1.5.8c.07.23,1.76,5.72.86,9.69a1.18,1.18,0,0,1-1.34,1,1.74,1.74,0,0,0-1.11.13h0s0,0,0,.12a1.1,1.1,0,0,0,.24.77.23.23,0,0,0,.21.07,1.2,1.2,0,0,1,1.33,1.1,1.28,1.28,0,0,1-1,1.46Z"/><path d="M236.57,267.54l-.25,0a1.3,1.3,0,0,1-.9-1.54,25,25,0,0,1,2.65-6.81,1.12,1.12,0,0,1,1.63-.39,1.37,1.37,0,0,1,.35,1.79h0a22.55,22.55,0,0,0-2.33,6A1.21,1.21,0,0,1,236.57,267.54Z"/><path d="M257.32,267.54a1.21,1.21,0,0,1-1.15-1,22.51,22.51,0,0,0-2.33-5.95,1.37,1.37,0,0,1,.36-1.79,1.12,1.12,0,0,1,1.63.39,25,25,0,0,1,2.65,6.81,1.3,1.3,0,0,1-.91,1.53Z"/><path d="M236.46,236.1a1.15,1.15,0,0,1-1-.53,1.37,1.37,0,0,1,.26-1.8c.27-.22,6.72-5.24,18.43-2.18a1.3,1.3,0,0,1,.87,1.56,1.18,1.18,0,0,1-1.42,1c-10.58-2.77-16.44,1.71-16.5,1.75A1.11,1.11,0,0,1,236.46,236.1Z"/><path d="M239.62,239.07a1.17,1.17,0,0,1-1.05-.71,1.35,1.35,0,0,1,.51-1.74,18.28,18.28,0,0,1,15.29-.41,1.33,1.33,0,0,1,.68,1.67,1.15,1.15,0,0,1-1.52.74,16.38,16.38,0,0,0-13.37.3A1.09,1.09,0,0,1,239.62,239.07Z"/><path d="M267.5,259.54a1.56,1.56,0,0,1-1.4-.93,1.81,1.81,0,0,1,.68-2.32,11.63,11.63,0,0,0,3.84-3.46,1.49,1.49,0,0,1,2.15-.59,1.82,1.82,0,0,1,.54,2.36c-1.43,2.62-4.72,4.54-5.09,4.75A1.45,1.45,0,0,1,267.5,259.54Z"/><path d="M305.77,338.86c-4.38,0-10.55-3.24-15.7-8.26-5.8-5.65-9.13-12.37-9.13-18.42V291.48a1.7,1.7,0,0,1,.33-1l6.35-8.58a1.71,1.71,0,0,1,1.69-.67c8,1.46,29.84,3.6,35.3-3.91a1.71,1.71,0,0,1,2.77,2,11.56,11.56,0,0,1-2.85,2.72l5.79,8.49a1.7,1.7,0,0,1,.3,1v20.69C330.61,325.67,314.89,338.86,305.77,338.86ZM284.36,292v20.13c0,5.14,3,11,8.1,16,4.41,4.29,9.88,7.29,13.31,7.29s9-2.93,13.41-7.29c5.09-5,8-10.82,8-16V292l-5.7-8.35c-4.06,1.7-9.66,2.51-16.76,2.41a108.15,108.15,0,0,1-15-1.32Z"/><path d="M317,305.58a1.71,1.71,0,0,1-1.71-1.7v-4.45a1.71,1.71,0,0,1,3.42,0v4.45A1.71,1.71,0,0,1,317,305.58Z"/><path d="M294.37,305.58a1.71,1.71,0,0,1-1.71-1.7v-4.45a1.71,1.71,0,0,1,3.42,0v4.45A1.71,1.71,0,0,1,294.37,305.58Z"/><path d="M306.1,327.16a11,11,0,0,1-7.77-3.2,1.71,1.71,0,1,1,2.42-2.41,7.6,7.6,0,0,0,10.7,0,1.71,1.71,0,0,1,2.42,2.41A11,11,0,0,1,306.1,327.16Z"/><path d="M282.56,313c-1.21,0-3.49-.54-5.19-4.14a24.6,24.6,0,0,1-1.82-10.2c0-3.57.89-5.73,2.71-6.6,2.44-1.17,5.07.83,5.36,1.06a1.71,1.71,0,0,1-2.13,2.67c-.54-.42-1.45-.8-1.75-.66s-.77.94-.77,3.53c0,7.72,2.33,10.93,3.58,10.93a1.7,1.7,0,1,1,0,3.41Z"/><path d="M328.93,313a1.7,1.7,0,1,1,0-3.41c.45,0,1.24-.57,2-2.16s1.45-4.14,1.45-8.77c0-2.6-.55-3.45-.74-3.54s-1.06.23-1.59.65a1.71,1.71,0,1,1-2.17-2.64c.28-.23,2.82-2.23,5.22-1.1,2.7,1.27,2.7,5.3,2.7,6.63C335.76,309.28,332.08,313,328.93,313Z"/><path d="M331.5,295a1.71,1.71,0,0,1-1.71-1.7V283a10.63,10.63,0,0,0-.52-3.76c-3.27-8.72-16.15-15.14-19.92-16.87-2,1.74-4.93,2.58-8.23,3.52-3.91,1.12-8.34,2.38-12.8,5.42-4.29,2.93-6.47,6.86-6.47,11.69v10.27a1.71,1.71,0,0,1-3.42,0V283c0-5.94,2.75-11,8-14.5,4.92-3.35,9.83-4.75,13.78-5.88,3.44-1,6.15-1.76,7.46-3.36a1.71,1.71,0,0,1,2-.5c.75.31,18.52,7.69,22.86,19.29a13.77,13.77,0,0,1,.73,5v10.27A1.71,1.71,0,0,1,331.5,295Z"/><path d="M293.67,326.71a1.5,1.5,0,0,1-.9-.3c-5.45-4.11-11-13.46-11.28-13.86a1.5,1.5,0,0,1,2.58-1.52c0,.08,4.37,7.3,8.82,11.55a20.45,20.45,0,0,1,2.2-5.24c1.33-1.65,4.79-2,10.32-2a1.49,1.49,0,1,1,0,3,52.87,52.87,0,0,0-5.32.2c-2.22.24-2.65.65-2.67.66a31.39,31.39,0,0,0-2.29,6.4,1.5,1.5,0,0,1-1.44,1.1Z"/><path d="M317.81,326.71a1.5,1.5,0,0,1-1.44-1.1,31.11,31.11,0,0,0-2.3-6.41s-.44-.41-2.66-.65a52.88,52.88,0,0,0-5.32-.2,1.49,1.49,0,1,1,0-3c5.53,0,9,.32,10.31,2a20.45,20.45,0,0,1,2.2,5.24c4.45-4.25,8.77-11.47,8.82-11.55a1.5,1.5,0,0,1,2.58,1.52c-.24.4-5.83,9.75-11.28,13.86A1.5,1.5,0,0,1,317.81,326.71Z"/><path d="M308.55,313.86h-4.73a1.7,1.7,0,1,1,0-3.41h3c-.18-3.48-.8-9.39-2.46-11.91a1.71,1.71,0,0,1,2.86-1.86c2.88,4.39,3.06,14.34,3.07,15.46a1.71,1.71,0,0,1-1.71,1.72Z"/><path d="M294.1,310.68c-6.48,0-10.35-4.55-10.35-12.18,0-1.64,1.11-3.17,3.05-4.19a15.91,15.91,0,0,1,7.29-1.48c9.1,0,10.08,4,10.08,5.67a13.73,13.73,0,0,1-2.7,8.87A9.24,9.24,0,0,1,294.1,310.68Zm0-14.45c-4.86,0-6.92,1.62-6.92,2.26,0,4,1.2,8.77,6.92,8.77,4.23,0,6.66-3.2,6.66-8.77C300.76,297.14,298.09,296.23,294.1,296.23Z"/><path d="M317.31,310.68c-6.48,0-10.35-4.55-10.35-12.18,0-1.64,1.11-3.17,3.05-4.19a15.92,15.92,0,0,1,7.29-1.48c9.09,0,10.08,4,10.08,5.67a13.73,13.73,0,0,1-2.7,8.87A9.24,9.24,0,0,1,317.31,310.68Zm0-14.45c-5.19,0-6.93,1.78-6.93,2.26,0,4,1.2,8.77,6.93,8.77,4.23,0,6.66-3.2,6.66-8.77C324,297.14,321.29,296.23,317.31,296.23Z"/><path d="M308.69,299.33a1.71,1.71,0,0,1-1.21-.5,2.67,2.67,0,0,0-1.9-.78h0a2.67,2.67,0,0,0-1.9.78,1.71,1.71,0,0,1-2.42-2.41,6.07,6.07,0,0,1,4.32-1.78h0a6.07,6.07,0,0,1,4.32,1.79,1.7,1.7,0,0,1-1.21,2.91Z"/><path d="M285.47,300.2h-1.73a1.71,1.71,0,0,1-1.48-.85l-2.84-4.91a1.71,1.71,0,0,1,3-1.7l2.35,4.06h.74a1.7,1.7,0,1,1,0,3.41Z"/><path d="M327.58,300.2h-1.89a1.7,1.7,0,1,1,0-3.41h.9l2.35-4.06a1.71,1.71,0,0,1,3,1.7l-2.85,4.91A1.71,1.71,0,0,1,327.58,300.2Z"/><path d="M247.37,385.92a2.13,2.13,0,0,1-2.13-2.13v-5.38a2.13,2.13,0,0,1,4.26,0v5.38A2.13,2.13,0,0,1,247.37,385.92Z"/><path d="M226.9,385.92a2.13,2.13,0,0,1-2.13-2.13v-5.38a2.13,2.13,0,0,1,4.26,0v5.38A2.13,2.13,0,0,1,226.9,385.92Z"/><path d="M237.13,400.4a15.21,15.21,0,0,1-11.34-5.16,1.7,1.7,0,0,1,2.53-2.28,11.62,11.62,0,0,0,17.62,0,1.7,1.7,0,0,1,2.53,2.28A15.21,15.21,0,0,1,237.13,400.4Z"/><path d="M238.84,412.69h-3.41c-10.78,0-20.6-13.74-21-14.32a1.7,1.7,0,0,1-.31-1V372.65a1.71,1.71,0,0,1,3.41,0v24.18c1.67,2.22,9.84,12.46,17.91,12.46h3.41c9.4,0,16.54-10.27,17.91-12.39V370a1.71,1.71,0,0,1,3.41,0v27.34a1.69,1.69,0,0,1-.24.87C259.57,398.85,251.19,412.69,238.84,412.69Z"/><path d="M258.46,393.35a1.7,1.7,0,1,1,0-3.4c2.36,0,4.9-2.33,4.9-7.45,0-.69-.1-1.57-.6-1.89-.77-.5-2.6-.06-3.59.39a1.7,1.7,0,0,1-1.43-3.09c.42-.2,4.2-1.86,6.85-.17,1,.63,2.18,2,2.18,4.76a12.41,12.41,0,0,1-2.45,7.93A7.6,7.6,0,0,1,258.46,393.35Z"/><path d="M215.81,393.35c-3.7,0-7.68-3.4-7.68-10.85,0-2.91,1.2-4.25,2.21-4.86,2.51-1.53,5.87.11,6.25.3a1.7,1.7,0,1,1-1.55,3c-.84-.42-2.31-.8-2.92-.43-.36.22-.57.94-.57,2,0,4.89,2.15,7.45,4.26,7.45a1.7,1.7,0,1,1,0,3.4Z"/><path d="M222.66,405.32h-.18a1.28,1.28,0,0,1-1.09-1.44,36.8,36.8,0,0,1,2-7.76,1.28,1.28,0,0,1,2.35,1,34.87,34.87,0,0,0-1.83,7.12A1.28,1.28,0,0,1,222.66,405.32Z"/><path d="M225.62,408h-.18a1.28,1.28,0,0,1-1.09-1.44,32.31,32.31,0,0,1,1.77-6.83,1.28,1.28,0,0,1,2.35,1,30.28,30.28,0,0,0-1.59,6.19A1.28,1.28,0,0,1,225.62,408Z"/><path d="M251.61,405.32a1.28,1.28,0,0,1-1.26-1.09,34.86,34.86,0,0,0-1.83-7.12,1.28,1.28,0,0,1,2.35-1,36.79,36.79,0,0,1,2,7.76,1.28,1.28,0,0,1-1.09,1.44Z"/><path d="M248.65,408a1.28,1.28,0,0,1-1.26-1.09,30.27,30.27,0,0,0-1.59-6.19,1.28,1.28,0,0,1,2.35-1,32.31,32.31,0,0,1,1.77,6.83,1.28,1.28,0,0,1-1.09,1.44Z"/><path d="M239,391.3a1.28,1.28,0,0,1-1-2.07,8,8,0,0,0,.71-1.17,7.39,7.39,0,0,0-1.53-.3,1.28,1.28,0,0,1-1.17-1.17l-.28-3.68a1.28,1.28,0,0,1,2.55-.2l.21,2.66a4,4,0,0,1,2.73,1.47,1.84,1.84,0,0,1,.09,1.73,10.92,10.92,0,0,1-1.31,2.26A1.28,1.28,0,0,1,239,391.3Zm.1-3.07h0Z"/><path d="M217.8,377.12a1.71,1.71,0,0,1-1.39-.71c-1.44-2-2.31-5-1-7.28.6-1,2.14-2.63,5.77-2.2.56.07,1,.09,1.28.1l0-.09c-.46-1.51-1.32-4.33,1.1-7.09s5.23-2.06,8.59-1.38a31.54,31.54,0,0,0,9,.81c7.27-.52,8-3.76,8-3.9v0l3.38.46c0,.25-.94,6.05-11.16,6.78a34.43,34.43,0,0,1-9.92-.87c-3.26-.66-4.4-.78-5.34.29-1.1,1.25-.89,2.29-.41,3.86.32,1,.72,2.36-.2,3.46s-2.55,1.16-4.71.9c-.74-.09-2-.13-2.44.55s-.18,2.16.82,3.57a1.7,1.7,0,0,1-1.39,2.69Z"/><path d="M267.2,374.71h0c-5.61-.13-10.51-3.36-14.18-9.35a34.79,34.79,0,0,1-3.79-8.8,1.71,1.71,0,0,1,3.31-.82h0c0,.15,4,15.32,14.73,15.57a1.7,1.7,0,0,1,0,3.4Z"/><path d="M212.32,379.67a1.71,1.71,0,0,1-1.41-.74c-3.12-4.55-4.22-8.18-3.36-11.08,1-3.45,4.46-4.92,7-6,.67-.28,1.3-.55,1.8-.82a7.61,7.61,0,0,0,.87-1.82c.87-2.24,2.2-5.62,6.26-7.32s7.88-.69,12,.36a44.77,44.77,0,0,0,6.76,1.36c5.73.57,7.37-2.12,7.43-2.24l0,0,3,1.57c-.1.2-2.62,4.84-10.78,4a48.15,48.15,0,0,1-7.27-1.45c-3.83-1-6.86-1.76-9.81-.52-2.73,1.15-3.62,3.42-4.4,5.42-.58,1.48-1.13,2.89-2.42,3.57-.64.34-1.34.64-2.09,1-2.1.89-4.48,1.91-5,3.81s.47,4.66,2.91,8.21a1.7,1.7,0,0,1-1.41,2.66Z"/><path d="M252.1,352.81a1.71,1.71,0,0,1-1.38-.7h0c-.09-.12-8.65-11.7-19.86-10.42C219.8,343,217.48,348,217.46,348a1.71,1.71,0,0,1-3.16-1.28c.11-.28,2.95-6.9,16.17-8.42s22.62,11.26,23,11.81a1.7,1.7,0,0,1-1.38,2.69Z"/><path d="M209.48,383.35a1.7,1.7,0,0,1-1-.32c-6.13-4.38-7.45-9.13-7.75-16.36-.23-5.52,1.53-8.37,3.57-11.67.77-1.25,1.57-2.55,2.37-4.14a13,13,0,0,1,10.51-7.15,1.7,1.7,0,1,1,.16,3.4,9.58,9.58,0,0,0-7.62,5.28c-.87,1.73-1.74,3.15-2.51,4.4-2,3.17-3.25,5.27-3.06,9.75.26,6.43,1.28,10.13,6.33,13.74a1.7,1.7,0,0,1-1,3.08Z"/><path d="M265.35,382.85a1.7,1.7,0,0,1-1.36-2.73c4.95-6.51,4.75-13,2-16.12s-3.75-6.31-4.92-9.87c-.47-1.44-1-2.92-1.57-4.44a3.62,3.62,0,0,0-1.9-2.2,4.48,4.48,0,0,0-3.07.14,1.7,1.7,0,0,1-2.39-1.3c0-.19-.8-4.78-4.88-6.31s-9,1.69-9.1,1.72a1.7,1.7,0,0,1-1.94-2.8c.26-.18,6.35-4.31,12.23-2.11A11.27,11.27,0,0,1,255,344a7.12,7.12,0,0,1,3.81.35,6.9,6.9,0,0,1,3.82,4.1c.65,1.62,1.16,3.16,1.65,4.64,1.11,3.35,2.06,6.24,4.23,8.67a12.26,12.26,0,0,1,2.75,9.2,21.44,21.44,0,0,1-4.58,11.23A1.71,1.71,0,0,1,265.35,382.85Z"/><path d="M269.33,373.43h-.16a1.7,1.7,0,0,1-1.54-1.85c.4-4.17-1.66-5.41-7.65-6.83-6.23-1.47-9.06-11.95-9.36-13.14a1.71,1.71,0,0,1,3.31-.84h0c.64,2.5,3.27,9.82,6.84,10.66,2.65.62,5.4,1.36,7.37,2.88,2.27,1.75,3.22,4.23,2.89,7.58A1.7,1.7,0,0,1,269.33,373.43Z"/><path d="M220.71,383.64a1.27,1.27,0,0,1-.77-2.3l.37-.28-.68-.53a1.28,1.28,0,1,1,1.58-2l2,1.56a1.27,1.27,0,0,1,0,2l-1.71,1.28A1.28,1.28,0,0,1,220.71,383.64Z"/><path d="M253.94,383.64a1.28,1.28,0,0,1-.79-.27l-2-1.56a1.27,1.27,0,0,1,0-2l1.71-1.28a1.28,1.28,0,1,1,1.54,2l-.37.28.68.53a1.27,1.27,0,0,1-.79,2.28Z"/><path d="M233.39,373.93a1.28,1.28,0,0,1-.69-2.35,10.68,10.68,0,0,1,8.7-.61,1.28,1.28,0,1,1-.78,2.43,8.16,8.16,0,0,0-6.54.33A1.27,1.27,0,0,1,233.39,373.93Z"/><path d="M230.78,371a1.27,1.27,0,0,1-.69-2.35c.23-.15,5.72-3.56,13.93-.92a1.28,1.28,0,1,1-.78,2.43c-7-2.25-11.58.53-11.77.65A1.28,1.28,0,0,1,230.78,371Z"/><polygon points="354.8 237.35 297.24 293.21 240.22 237.87 297.77 182 354.8 237.35"/><polygon points="424.07 304.82 366.51 360.69 309.49 305.34 367.05 249.47 424.07 304.82"/><polygon points="285.79 304.56 228.23 360.43 171.21 305.08 228.77 249.21 285.79 304.56"/><path class="cls-1" d="M361.58,290.77h-15.3v-8H386v8h-15.3v38.8h-9.1Z"/><path class="cls-1" d="M251.21,322.57a25.85,25.85,0,0,1-18.33,7c-17.92,0-25.5-12-25.57-24.15s8.13-24.68,25.57-24.68a25.28,25.28,0,0,1,17.71,7.16l-6.07,5.69a16.85,16.85,0,0,0-11.65-4.42c-11.65,0-16.68,8.43-16.61,16.26s4.69,15.85,16.61,15.85A18.05,18.05,0,0,0,245,316.49Z"/><path class="cls-1" d="M301.59,247.77H287.94v13.78h-9.1V214.73c7.58,0,15.16-.07,22.74-.07C325.16,214.66,325.23,247.77,301.59,247.77Zm-13.65-8.09h13.65c11.65,0,11.58-16.59,0-16.59H287.94Z"/></svg>