<svg id="Layer_1" data-name="Layer 1" xmlns="http://www.w3.org/2000/svg" viewBox="0 0 595.28 683"><defs><style>.cls-1{fill:#fff;}</style></defs><title>Version 1</title><path d="M26.31,636.41a19.42,19.42,0,0,1-8,1.44c-8.55,0-15-5.4-15-15.34,0-9.49,6.43-15.93,15.84-15.93a16.25,16.25,0,0,1,7.2,1.35l-.95,3.19a14.26,14.26,0,0,0-6.12-1.26c-7.11,0-11.83,4.54-11.83,12.51,0,7.42,4.27,12.19,11.65,12.19a15.68,15.68,0,0,0,6.39-1.26Z"/><path d="M50.29,626.33c0,8.05-5.58,11.56-10.84,11.56-5.89,0-10.44-4.32-10.44-11.21,0-7.29,4.77-11.56,10.8-11.56C46.06,615.13,50.29,619.67,50.29,626.33ZM33,626.56c0,4.77,2.74,8.37,6.61,8.37s6.61-3.55,6.61-8.46c0-3.69-1.85-8.37-6.52-8.37S33,622.42,33,626.56Z"/><path d="M55.29,621.52c0-2.25,0-4.09-.18-5.89h3.46l.18,3.51h.14a7.51,7.51,0,0,1,6.84-4,6.44,6.44,0,0,1,6.16,4.37H72a9,9,0,0,1,2.43-2.83,7.43,7.43,0,0,1,4.81-1.53c2.88,0,7.15,1.89,7.15,9.45V637.4H82.51V625.07c0-4.19-1.53-6.71-4.72-6.71a5.13,5.13,0,0,0-4.68,3.6,6.53,6.53,0,0,0-.31,2V637.4H68.93v-13c0-3.46-1.53-6-4.54-6a5.9,5.9,0,0,0-5.22,5.89V637.4H55.29Z"/><path d="M92.82,621.52c0-2.25,0-4.09-.18-5.89h3.46l.18,3.51h.14a7.51,7.51,0,0,1,6.84-4,6.44,6.44,0,0,1,6.16,4.37h.09a9,9,0,0,1,2.43-2.83,7.43,7.43,0,0,1,4.81-1.53c2.88,0,7.15,1.89,7.15,9.45V637.4H120V625.07c0-4.19-1.53-6.71-4.72-6.71a5.13,5.13,0,0,0-4.68,3.6,6.53,6.53,0,0,0-.31,2V637.4h-3.87v-13c0-3.46-1.53-6-4.54-6a5.9,5.9,0,0,0-5.22,5.89V637.4H92.82Z"/><path d="M148.57,631.46c0,2.25,0,4.23.18,5.94h-3.51l-.23-3.55h-.09a8.19,8.19,0,0,1-7.2,4c-3.42,0-7.51-1.89-7.51-9.54V615.62h4v12.06c0,4.14,1.26,6.93,4.86,6.93a5.72,5.72,0,0,0,5.22-3.6,5.8,5.8,0,0,0,.36-2V615.62h4Z"/><path d="M155.15,621.52c0-2.25,0-4.09-.18-5.89h3.51l.23,3.6h.09a8,8,0,0,1,7.2-4.09c3,0,7.69,1.8,7.69,9.27v13h-4V624.85c0-3.51-1.3-6.43-5-6.43a5.63,5.63,0,0,0-5.31,4,5.69,5.69,0,0,0-.27,1.84V637.4h-4Z"/><path d="M184.53,609.5a2.45,2.45,0,0,1-4.9,0A2.41,2.41,0,0,1,182.1,607,2.35,2.35,0,0,1,184.53,609.5Zm-4.41,27.9V615.62h4V637.4Z"/><path d="M195.42,609.37v6.25h5.67v3h-5.67v11.75c0,2.7.76,4.23,3,4.23a8.82,8.82,0,0,0,2.29-.27l.18,3a9.7,9.7,0,0,1-3.51.54,5.49,5.49,0,0,1-4.27-1.67c-1.12-1.17-1.53-3.11-1.53-5.67V618.64h-3.37v-3h3.38V610.4Z"/><path d="M207.39,615.62l4.77,12.87c.5,1.44,1,3.15,1.4,4.45h.09c.41-1.3.86-3,1.39-4.54l4.32-12.78h4.18l-5.94,15.52c-2.83,7.47-4.77,11.29-7.47,13.63a10.73,10.73,0,0,1-4.86,2.56l-1-3.33a10.45,10.45,0,0,0,3.46-1.93,12,12,0,0,0,3.33-4.41,2.84,2.84,0,0,0,.31-.94,3.45,3.45,0,0,0-.27-1l-8.05-20.07Z"/><path d="M256.39,626.33c0,8.05-5.58,11.56-10.84,11.56-5.89,0-10.44-4.32-10.44-11.21,0-7.29,4.77-11.56,10.8-11.56C252.16,615.13,256.39,619.67,256.39,626.33Zm-17.28.22c0,4.77,2.75,8.37,6.61,8.37s6.62-3.55,6.62-8.46c0-3.69-1.84-8.37-6.52-8.37S239.11,622.42,239.11,626.56Z"/><path d="M261.79,637.4V618.64h-3.06v-3h3.06v-1c0-3.06.68-5.85,2.52-7.6a7.58,7.58,0,0,1,5.31-2,9.17,9.17,0,0,1,3.38.63l-.54,3.06a5.92,5.92,0,0,0-2.52-.5c-3.37,0-4.23,3-4.23,6.3v1.17H271v3h-5.26V637.4Z"/><path d="M284.2,607.43a45.33,45.33,0,0,1,7.51-.58c3.87,0,6.71.9,8.5,2.52a8.15,8.15,0,0,1,2.65,6.34,8.93,8.93,0,0,1-2.34,6.48c-2.07,2.2-5.44,3.33-9.27,3.33a13.49,13.49,0,0,1-3.15-.27V637.4H284.2Zm3.92,14.62a13.09,13.09,0,0,0,3.24.32c4.73,0,7.61-2.29,7.61-6.48,0-4-2.83-5.94-7.16-5.94a16.43,16.43,0,0,0-3.69.32Z"/><path d="M318.9,637.4l-.32-2.75h-.13a8.11,8.11,0,0,1-6.66,3.24c-4.41,0-6.66-3.11-6.66-6.25,0-5.26,4.68-8.14,13.09-8.1v-.45c0-1.8-.49-5-4.95-5a10.86,10.86,0,0,0-5.67,1.62l-.9-2.61a13.52,13.52,0,0,1,7.16-1.94c6.66,0,8.28,4.54,8.28,8.91v8.14a30.61,30.61,0,0,0,.36,5.22Zm-.58-11.11c-4.32-.09-9.22.67-9.22,4.9a3.5,3.5,0,0,0,3.73,3.78,5.42,5.42,0,0,0,5.26-3.65,4.13,4.13,0,0,0,.23-1.26Z"/><path d="M328,633.35a10.38,10.38,0,0,0,5.22,1.58c2.88,0,4.23-1.44,4.23-3.24s-1.12-2.92-4-4c-3.92-1.39-5.76-3.55-5.76-6.17,0-3.51,2.83-6.39,7.51-6.39a10.86,10.86,0,0,1,5.35,1.35l-1,2.88a8.48,8.48,0,0,0-4.46-1.26c-2.34,0-3.64,1.35-3.64,3,0,1.8,1.3,2.61,4.14,3.69,3.78,1.44,5.71,3.33,5.71,6.57,0,3.83-3,6.53-8.14,6.53a12.42,12.42,0,0,1-6.12-1.49Z"/><path d="M350.76,609.5a2.45,2.45,0,0,1-4.9,0,2.41,2.41,0,0,1,2.47-2.48A2.35,2.35,0,0,1,350.76,609.5Zm-4.41,27.9V615.62h4V637.4Z"/><path d="M357.28,637.4V618.64h-3.06v-3h3.06v-1.17c0-5.76,3.38-9.49,9.5-9.49a10.91,10.91,0,0,1,5.54,1.44l-1.12,3a8.33,8.33,0,0,0-4.59-1.26c-4.19,0-5.4,2.92-5.4,6.39v1.08h12.64V637.4h-3.92V618.64H361.2V637.4Z"/><path d="M384.33,625.61h.09c.54-.77,1.3-1.71,1.93-2.48l6.39-7.51h4.77l-8.41,9,9.58,12.82h-4.81L386.35,627l-2,2.25v8.19h-3.92V605.45h3.92Z"/><path d="M414.39,637.4l-.32-2.75h-.13a8.11,8.11,0,0,1-6.66,3.24c-4.41,0-6.66-3.11-6.66-6.25,0-5.26,4.68-8.14,13.09-8.1v-.45c0-1.8-.49-5-4.95-5a10.86,10.86,0,0,0-5.67,1.62l-.9-2.61a13.52,13.52,0,0,1,7.16-1.94c6.66,0,8.28,4.54,8.28,8.91v8.14a30.61,30.61,0,0,0,.36,5.22Zm-.58-11.11c-4.32-.09-9.22.67-9.22,4.9a3.5,3.5,0,0,0,3.73,3.78,5.42,5.42,0,0,0,5.26-3.65,4.13,4.13,0,0,0,.23-1.26Z"/><path d="M437.61,610.4h-9.22v-3.33h22.45v3.33h-9.27v27h-4Z"/><path d="M453.09,627.23c.09,5.36,3.51,7.56,7.47,7.56a14.33,14.33,0,0,0,6-1.12l.67,2.83a17.62,17.62,0,0,1-7.24,1.35c-6.71,0-10.71-4.41-10.71-11s3.87-11.75,10.21-11.75c7.11,0,9,6.25,9,10.26a14.94,14.94,0,0,1-.13,1.84Zm11.61-2.83c0-2.52-1-6.43-5.49-6.43-4,0-5.76,3.69-6.07,6.43Z"/><path d="M485.49,637.4l-.32-2.75H485a8.11,8.11,0,0,1-6.66,3.24c-4.41,0-6.66-3.11-6.66-6.25,0-5.26,4.68-8.14,13.09-8.1v-.45c0-1.8-.49-5-4.95-5a10.86,10.86,0,0,0-5.67,1.62l-.9-2.61a13.52,13.52,0,0,1,7.16-1.94c6.66,0,8.28,4.54,8.28,8.91v8.14a30.61,30.61,0,0,0,.36,5.22Zm-.58-11.11c-4.32-.09-9.22.67-9.22,4.9a3.5,3.5,0,0,0,3.73,3.78,5.42,5.42,0,0,0,5.26-3.65,4.13,4.13,0,0,0,.23-1.26Z"/><path d="M510.64,636.59a14.59,14.59,0,0,1-6.25,1.26c-6.57,0-10.84-4.46-10.84-11.12s4.59-11.56,11.7-11.56a13.24,13.24,0,0,1,5.49,1.13l-.9,3.06a9.18,9.18,0,0,0-4.59-1c-5,0-7.69,3.69-7.69,8.23,0,5,3.24,8.14,7.56,8.14a11.24,11.24,0,0,0,4.86-1.08Z"/><path d="M515.28,605.45h4V619h.09a7.35,7.35,0,0,1,2.83-2.79,8.15,8.15,0,0,1,4-1.12c2.92,0,7.6,1.8,7.6,9.32v13h-4V624.89c0-3.51-1.3-6.48-5-6.48a5.69,5.69,0,0,0-5.31,4,4.8,4.8,0,0,0-.27,1.89V637.4h-4Z"/><path d="M542.46,627.23c.09,5.36,3.51,7.56,7.47,7.56a14.33,14.33,0,0,0,6-1.12l.67,2.83a17.62,17.62,0,0,1-7.24,1.35c-6.71,0-10.71-4.41-10.71-11s3.87-11.75,10.21-11.75c7.11,0,9,6.25,9,10.26a14.94,14.94,0,0,1-.13,1.84Zm11.61-2.83c0-2.52-1-6.43-5.49-6.43-4,0-5.76,3.69-6.07,6.43Z"/><path d="M562.79,622.42c0-2.56,0-4.77-.18-6.79h3.46l.14,4.28h.18a6.54,6.54,0,0,1,6-4.77,4.24,4.24,0,0,1,1.13.14V619a6,6,0,0,0-1.35-.13c-2.79,0-4.77,2.11-5.31,5.08a11.16,11.16,0,0,0-.18,1.84V637.4h-3.92Z"/><path d="M577,633.35a10.38,10.38,0,0,0,5.22,1.58c2.88,0,4.23-1.44,4.23-3.24s-1.12-2.92-4-4c-3.92-1.39-5.76-3.55-5.76-6.17,0-3.51,2.83-6.39,7.51-6.39a10.86,10.86,0,0,1,5.35,1.35l-1,2.88A8.48,8.48,0,0,0,584,618.1c-2.34,0-3.64,1.35-3.64,3,0,1.8,1.3,2.61,4.14,3.69,3.78,1.44,5.71,3.33,5.71,6.57,0,3.83-3,6.53-8.14,6.53a12.42,12.42,0,0,1-6.12-1.49Z"/><path d="M20.53,672.76H9.33V653h1.88v18.28h9.32Z"/><path d="M32.1,668.54a4.2,4.2,0,0,1-.32,1.58,4.13,4.13,0,0,1-1,1.44,5.17,5.17,0,0,1-1.69,1,6.38,6.38,0,0,1-2.37.41,9.3,9.3,0,0,1-1.26-.1,4.93,4.93,0,0,1-1.37-.41,4.58,4.58,0,0,1-1.47-1.11,5.63,5.63,0,0,1-1-1.55,7.91,7.91,0,0,1-.52-1.85,12.56,12.56,0,0,1-.15-2,13.9,13.9,0,0,1,.25-2.59,7.42,7.42,0,0,1,.91-2.44,5.35,5.35,0,0,1,1.81-1.82,5.55,5.55,0,0,1,3-.71,5.25,5.25,0,0,1,2.66.6,4.45,4.45,0,0,1,1.62,1.6,6.29,6.29,0,0,1,.78,2.27,15.17,15.17,0,0,1,.17,2.62H22.8q0,.56,0,1.57a6.48,6.48,0,0,0,.42,2,4.4,4.4,0,0,0,1.2,1.75,3.42,3.42,0,0,0,2.37.74,4.56,4.56,0,0,0,1.2-.17,3.45,3.45,0,0,0,1.12-.53,3.08,3.08,0,0,0,.85-1,3.27,3.27,0,0,0,.41-1.44Zm-1.6-4.28c0-.22-.06-.58-.11-1.08A4.58,4.58,0,0,0,30,661.7a3.71,3.71,0,0,0-1.05-1.29,3.06,3.06,0,0,0-2-.56q-.2,0-.8.07a3.21,3.21,0,0,0-1.27.48,4.12,4.12,0,0,0-1.26,1.3,5.73,5.73,0,0,0-.76,2.55Z"/><path d="M44.75,672.76H43.59q-.86,0-1-.38a2.81,2.81,0,0,1-.1-1.19,6.66,6.66,0,0,1-.57.56,4.89,4.89,0,0,1-.85.59,5.42,5.42,0,0,1-1.23.48,6.56,6.56,0,0,1-1.7.2l-.68,0a4.08,4.08,0,0,1-.78-.14,3.35,3.35,0,0,1-1.58-1,3.65,3.65,0,0,1-.75-1.26,4.48,4.48,0,0,1-.28-1.57,3.52,3.52,0,0,1,.52-2,4.52,4.52,0,0,1,1-1.12,4.78,4.78,0,0,1,2-.85q1.14-.24,2.48-.41l2.46-.28V663c0-.32,0-.66-.06-1a2.53,2.53,0,0,0-.34-1,2.22,2.22,0,0,0-.85-.8,3.46,3.46,0,0,0-1.67-.32,4,4,0,0,0-2,.41,2.86,2.86,0,0,0-1,1,2.76,2.76,0,0,0-.41,1.12,7.88,7.88,0,0,0-.07.91H34.39a4.46,4.46,0,0,1,.52-2.38,4.3,4.3,0,0,1,1.37-1.46,5.21,5.21,0,0,1,1.78-.73,8.55,8.55,0,0,1,1.71-.2,7.49,7.49,0,0,1,1.89.25,3.1,3.1,0,0,1,1.54.87,2.45,2.45,0,0,1,.53.76,4.14,4.14,0,0,1,.27.84,6.54,6.54,0,0,1,.11.85q0,.44,0,.8v3.28l-.08,3.53,0,1.23a3.85,3.85,0,0,0,.14,1,.85.85,0,0,0,.53.49Zm-2.27-7.22q-.73.06-1.55.17l-1.71.25q-.36.06-.93.2a4.13,4.13,0,0,0-1.12.46,3,3,0,0,0-.93.88,2.44,2.44,0,0,0-.39,1.43,2.58,2.58,0,0,0,.81,2,2.86,2.86,0,0,0,2,.74,4.62,4.62,0,0,0,1.24-.18A4.05,4.05,0,0,0,41,671a3.06,3.06,0,0,0,.79-.67,2.61,2.61,0,0,0,.43-.76,3.44,3.44,0,0,0,.18-.78,6.93,6.93,0,0,0,0-.73Z"/><path d="M49.45,672.76H47.8v-14h1.65v1.62a14.13,14.13,0,0,1,1.47-1.29,3.1,3.1,0,0,1,1.92-.56,2.55,2.55,0,0,1,1.13.2,4,4,0,0,1,.66.42v1.71a9,9,0,0,0-.94-.56,3.13,3.13,0,0,0-1.44-.28,4.2,4.2,0,0,0-.66.06,2.71,2.71,0,0,0-.71.22,2.56,2.56,0,0,0-.8.59,2.15,2.15,0,0,0-.42.68,3.17,3.17,0,0,0-.17.71,5.59,5.59,0,0,0,0,.64Z"/><path d="M67,672.76H65.3v-8.14q0-.53,0-1.05t-.07-1.05q0-.22-.13-.7a2.57,2.57,0,0,0-.42-.94,2.87,2.87,0,0,0-.91-.81,3.11,3.11,0,0,0-1.6-.35,6.46,6.46,0,0,0-.77.06,4.11,4.11,0,0,0-1,.28,3.68,3.68,0,0,0-1.19.73,2.92,2.92,0,0,0-.91,1.75,6.06,6.06,0,0,0-.06.77v9.46H56.57v-14h1.65v1.57l.6-.52a5.7,5.7,0,0,1,.94-.63,6.13,6.13,0,0,1,1.32-.52,6.36,6.36,0,0,1,1.71-.21,5.33,5.33,0,0,1,1.9.35A3.1,3.1,0,0,1,66.17,660a3.65,3.65,0,0,1,.67,1.69,14.21,14.21,0,0,1,.11,1.72Z"/><path d="M72.19,655.43H70.54v-2.07h1.65Zm0,17.33H70.54v-14h1.65Z"/><path d="M86.19,672.76H84.54v-8.14q0-.53,0-1.05t-.07-1.05q0-.22-.13-.7a2.57,2.57,0,0,0-.42-.94,2.87,2.87,0,0,0-.91-.81,3.11,3.11,0,0,0-1.6-.35,6.46,6.46,0,0,0-.77.06,4.11,4.11,0,0,0-1,.28,3.68,3.68,0,0,0-1.19.73,2.92,2.92,0,0,0-.91,1.75,6.06,6.06,0,0,0-.06.77v9.46H75.8v-14h1.65v1.57l.6-.52a5.7,5.7,0,0,1,.94-.63,6.13,6.13,0,0,1,1.32-.52,6.36,6.36,0,0,1,1.71-.21,5.33,5.33,0,0,1,1.9.35A3.1,3.1,0,0,1,85.41,660a3.65,3.65,0,0,1,.67,1.69,14.21,14.21,0,0,1,.11,1.72Z"/><path d="M100.75,658.76v13.15a11.76,11.76,0,0,1-.11,1.61,7.74,7.74,0,0,1-.39,1.58,4.71,4.71,0,0,1-.78,1.39,5.28,5.28,0,0,1-1.95,1.44,6.51,6.51,0,0,1-2.76.57,6,6,0,0,1-2.67-.56,4.19,4.19,0,0,1-1.67-1.34,4.82,4.82,0,0,1-.46-1,5,5,0,0,1-.24-1.71h1.71q0,.34.08.73a2.58,2.58,0,0,0,.25.78,3,3,0,0,0,1.11,1.16,3.66,3.66,0,0,0,2,.52,4.76,4.76,0,0,0,1.51-.25,3.74,3.74,0,0,0,1.5-.91,3.87,3.87,0,0,0,.81-1.25,5.09,5.09,0,0,0,.34-1.37q.07-.7.1-1.29l0-1.12q-.22.22-.59.53a5.51,5.51,0,0,1-.9.6,6.15,6.15,0,0,1-1.25.5,5.72,5.72,0,0,1-1.61.21,5.38,5.38,0,0,1-2.63-.59,5.07,5.07,0,0,1-1.74-1.55,6.42,6.42,0,0,1-1-2.21,11.26,11.26,0,0,1-.29-2.59,11.8,11.8,0,0,1,.29-2.58,6.83,6.83,0,0,1,1-2.32,5.21,5.21,0,0,1,1.93-1.81,6,6,0,0,1,4.16-.49,5.23,5.23,0,0,1,1.11.42,4.7,4.7,0,0,1,.84.56l.67.59v-1.43Zm-1.57,5a6.5,6.5,0,0,0-.15-1.47A2.89,2.89,0,0,0,98.4,661a3.5,3.5,0,0,0-1.25-1,4,4,0,0,0-1.75-.36,3.94,3.94,0,0,0-2,.48,3.85,3.85,0,0,0-1.34,1.29,6,6,0,0,0-.77,1.92,10.82,10.82,0,0,0-.25,2.4,11.53,11.53,0,0,0,.17,1.92,5.47,5.47,0,0,0,.63,1.81,3.9,3.9,0,0,0,1.27,1.35,3.82,3.82,0,0,0,2.13.53,4.27,4.27,0,0,0,2.77-.93,3.33,3.33,0,0,0,.62-.67,3.1,3.1,0,0,0,.35-.7,3,3,0,0,0,.15-.74l.06-.77Z"/><path d="M105.29,675.54h-1.15l1.29-2.77h-1.15v-2.21h2.3v2.1Z"/><path d="M131.55,666.74q-.06.5-.17,1.13a7.06,7.06,0,0,1-.36,1.29,5.78,5.78,0,0,1-.73,1.32,5.9,5.9,0,0,1-1.26,1.25,6.32,6.32,0,0,1-2.51,1.12,12.79,12.79,0,0,1-2.42.25q-.39,0-1.2-.06a6.57,6.57,0,0,1-1.75-.39,6.47,6.47,0,0,1-1.86-1.08,5.34,5.34,0,0,1-1.51-2.11,7.75,7.75,0,0,1-.49-1.43,12,12,0,0,1-.27-1.54q-.08-.78-.11-1.54c0-.5,0-1,0-1.4q0-1.06.06-2.11a20.44,20.44,0,0,1,.22-2.11,14.76,14.76,0,0,1,.48-2,7,7,0,0,1,.9-1.86,6,6,0,0,1,1.61-1.61,7.08,7.08,0,0,1,1.74-.84,6.67,6.67,0,0,1,1.57-.31q.71,0,1.11,0a10.69,10.69,0,0,1,2.1.2,7.56,7.56,0,0,1,1,.27,5.48,5.48,0,0,1,1.06.5,5.28,5.28,0,0,1,1,.84,5.19,5.19,0,0,1,.9,1.3,4.89,4.89,0,0,1,.62,1.82q.08.84.08,1.23h-1.9a5.17,5.17,0,0,0-.45-2.27A4.21,4.21,0,0,0,127.8,655a4.28,4.28,0,0,0-1.6-.8,7.08,7.08,0,0,0-1.82-.24,6.31,6.31,0,0,0-2,.32,4.28,4.28,0,0,0-1.69,1.05,5,5,0,0,0-.77,1,6.41,6.41,0,0,0-.6,1.53,13.53,13.53,0,0,0-.38,2.23q-.13,1.3-.13,3.15,0,1,0,1.88a14.34,14.34,0,0,0,.47,3,5.46,5.46,0,0,0,1.66,2.53,4.77,4.77,0,0,0,1.23.69,4.38,4.38,0,0,0,1.15.27q.53,0,.87,0a6.89,6.89,0,0,0,2.05-.31,5.06,5.06,0,0,0,1.69-.87,3.83,3.83,0,0,0,.84-1,5.27,5.27,0,0,0,.47-1,5.72,5.72,0,0,0,.24-1q.07-.48.1-.84Z"/><path d="M145.07,665.12a22,22,0,0,1-.1,2.52,7.42,7.42,0,0,1-.7,2.56,5.17,5.17,0,0,1-1.74,2,5.47,5.47,0,0,1-3.18.81,6,6,0,0,1-3.05-.67,4.85,4.85,0,0,1-1.76-1.71,6.35,6.35,0,0,1-.81-2.31,16.08,16.08,0,0,1-.2-2.45q0-.48,0-1.22a10.67,10.67,0,0,1,.21-1.55,8.16,8.16,0,0,1,.53-1.64,4.85,4.85,0,0,1,1-1.48A5.13,5.13,0,0,1,137,658.9a6.23,6.23,0,0,1,2.42-.42,5.57,5.57,0,0,1,3.14.76,5,5,0,0,1,1.68,1.82,6.14,6.14,0,0,1,.69,2.18Q145,664.36,145.07,665.12Zm-1.74.2q0-.7-.14-1.65a6,6,0,0,0-.5-1.81,3.83,3.83,0,0,0-1.15-1.44,3.34,3.34,0,0,0-2.1-.59,3.83,3.83,0,0,0-1.75.36,3.66,3.66,0,0,0-1.18.92,4,4,0,0,0-.7,1.26,10.09,10.09,0,0,0-.36,1.36,7.51,7.51,0,0,0-.14,1.22q0,.56,0,.87a15.71,15.71,0,0,0,.13,1.92,6.15,6.15,0,0,0,.55,1.9,3.78,3.78,0,0,0,1.25,1.47,3.82,3.82,0,0,0,2.25.59,3.21,3.21,0,0,0,2.21-.7,4.14,4.14,0,0,0,1.15-1.71,7.58,7.58,0,0,0,.43-2.1Q143.34,666.1,143.34,665.31Z"/><path d="M158.51,672.76h-1.65v-8.14q0-.53,0-1.05t-.07-1.05q0-.22-.13-.7a2.57,2.57,0,0,0-.42-.94,2.87,2.87,0,0,0-.91-.81,3.11,3.11,0,0,0-1.6-.35,6.46,6.46,0,0,0-.77.06,4.11,4.11,0,0,0-1,.28,3.68,3.68,0,0,0-1.19.73,2.92,2.92,0,0,0-.91,1.75,6.06,6.06,0,0,0-.06.77v9.46h-1.65v-14h1.65v1.57l.6-.52a5.7,5.7,0,0,1,.94-.63,6.13,6.13,0,0,1,1.32-.52,6.36,6.36,0,0,1,1.71-.21,5.33,5.33,0,0,1,1.9.35,3.1,3.1,0,0,1,1.48,1.16,3.65,3.65,0,0,1,.67,1.69,14.21,14.21,0,0,1,.11,1.72Z"/><path d="M172.51,672.76h-1.65v-8.14q0-.53,0-1.05t-.07-1.05q0-.22-.13-.7a2.57,2.57,0,0,0-.42-.94,2.87,2.87,0,0,0-.91-.81,3.11,3.11,0,0,0-1.6-.35,6.46,6.46,0,0,0-.77.06,4.11,4.11,0,0,0-1,.28,3.68,3.68,0,0,0-1.19.73,2.92,2.92,0,0,0-.91,1.75,6.06,6.06,0,0,0-.06.77v9.46h-1.65v-14h1.65v1.57l.6-.52a5.7,5.7,0,0,1,.94-.63,6.13,6.13,0,0,1,1.32-.52,6.36,6.36,0,0,1,1.71-.21,5.33,5.33,0,0,1,1.9.35,3.1,3.1,0,0,1,1.48,1.16,3.65,3.65,0,0,1,.67,1.69,14.21,14.21,0,0,1,.11,1.72Z"/><path d="M186.65,668.54a4.2,4.2,0,0,1-.32,1.58,4.13,4.13,0,0,1-1,1.44,5.17,5.17,0,0,1-1.69,1,6.38,6.38,0,0,1-2.37.41,9.3,9.3,0,0,1-1.26-.1,4.93,4.93,0,0,1-1.37-.41,4.58,4.58,0,0,1-1.47-1.11,5.63,5.63,0,0,1-1-1.55,7.91,7.91,0,0,1-.52-1.85,12.56,12.56,0,0,1-.15-2,13.9,13.9,0,0,1,.25-2.59,7.42,7.42,0,0,1,.91-2.44,5.35,5.35,0,0,1,1.81-1.82,5.55,5.55,0,0,1,3-.71,5.25,5.25,0,0,1,2.66.6,4.45,4.45,0,0,1,1.62,1.6,6.29,6.29,0,0,1,.78,2.27,15.17,15.17,0,0,1,.17,2.62h-9.35q0,.56,0,1.57a6.48,6.48,0,0,0,.42,2,4.4,4.4,0,0,0,1.2,1.75,3.42,3.42,0,0,0,2.37.74,4.56,4.56,0,0,0,1.2-.17,3.45,3.45,0,0,0,1.12-.53,3.08,3.08,0,0,0,.85-1,3.27,3.27,0,0,0,.41-1.44Zm-1.6-4.28c0-.22-.06-.58-.11-1.08a4.58,4.58,0,0,0-.43-1.47,3.71,3.71,0,0,0-1.05-1.29,3.06,3.06,0,0,0-2-.56q-.2,0-.8.07a3.21,3.21,0,0,0-1.27.48,4.12,4.12,0,0,0-1.26,1.3,5.73,5.73,0,0,0-.76,2.55Z"/><path d="M200.06,668.11c0,.19-.05.42-.1.71a5.28,5.28,0,0,1-.25.94,4.69,4.69,0,0,1-.55,1,5,5,0,0,1-1,1,4.76,4.76,0,0,1-1.76.94,7.15,7.15,0,0,1-1.85.24,5.45,5.45,0,0,1-3.65-1.18,5.65,5.65,0,0,1-1.78-3.53,14.09,14.09,0,0,1-.2-2.38q0-.73.07-1.44a11.31,11.31,0,0,1,.24-1.44q.08-.36.27-.92a5.05,5.05,0,0,1,.55-1.13,6.25,6.25,0,0,1,.92-1.12,4.92,4.92,0,0,1,1.43-.94,6.71,6.71,0,0,1,2.46-.45c.26,0,.56,0,.88,0a5.37,5.37,0,0,1,1,.2,5.15,5.15,0,0,1,1.06.45,4,4,0,0,1,1,.77,3.72,3.72,0,0,1,.66,1,5.84,5.84,0,0,1,.53,1.86,6.58,6.58,0,0,1,0,.66H198.3a4,4,0,0,0-.29-1.62,3.23,3.23,0,0,0-.77-1.11,2.9,2.9,0,0,0-1.11-.63,4.45,4.45,0,0,0-1.33-.2,5.48,5.48,0,0,0-1.23.18,3,3,0,0,0-1.48,1,4.19,4.19,0,0,0-.92,1.64,8.24,8.24,0,0,0-.31,1.55q-.06.39-.08.8t0,.8A11.29,11.29,0,0,0,191,668a5.79,5.79,0,0,0,.69,1.85,3.8,3.8,0,0,0,1.22,1.27,3.28,3.28,0,0,0,1.81.48,4.23,4.23,0,0,0,1.34-.22,2.91,2.91,0,0,0,1.65-1.37,5,5,0,0,0,.32-.73,4.5,4.5,0,0,0,.18-.69c0-.21.06-.39.08-.52Z"/><path d="M204.52,660l-.08,8.54q0,1.2.07,1.67a1.52,1.52,0,0,0,.24.74,1.48,1.48,0,0,0,.53.45,2.14,2.14,0,0,0,1.06.22,3.11,3.11,0,0,0,1.06-.15l.78-.29v1.34c-.26.09-.59.2-1,.31a5.54,5.54,0,0,1-1.47.17,3.9,3.9,0,0,1-1.25-.17,3,3,0,0,1-.8-.39,1.8,1.8,0,0,1-.45-.43l-.17-.27a2.05,2.05,0,0,1-.18-.43,2.89,2.89,0,0,1-.1-.57q0-.34,0-.81t0-1.12l.11-8.79H200.6v-1.26h2.27V655.6l1.74-.25-.06,3.42h2.74V660Z"/><path d="M211.57,655.43h-1.65v-2.07h1.65Zm0,17.33h-1.65v-14h1.65Z"/><path d="M225.57,672.76h-1.65v-8.14q0-.53,0-1.05t-.07-1.05q0-.22-.13-.7a2.55,2.55,0,0,0-.42-.94,2.87,2.87,0,0,0-.91-.81,3.11,3.11,0,0,0-1.6-.35,6.45,6.45,0,0,0-.77.06,4.1,4.1,0,0,0-1,.28,3.67,3.67,0,0,0-1.19.73,2.92,2.92,0,0,0-.91,1.75,6,6,0,0,0-.06.77v9.46h-1.65v-14h1.65v1.57l.6-.52a5.74,5.74,0,0,1,.94-.63,6.14,6.14,0,0,1,1.32-.52,6.36,6.36,0,0,1,1.71-.21,5.33,5.33,0,0,1,1.9.35,3.1,3.1,0,0,1,1.48,1.16,3.64,3.64,0,0,1,.67,1.69,14.22,14.22,0,0,1,.11,1.72Z"/><path d="M240.13,658.76v13.15a11.84,11.84,0,0,1-.11,1.61,7.75,7.75,0,0,1-.39,1.58,4.7,4.7,0,0,1-.78,1.39,5.29,5.29,0,0,1-1.95,1.44,6.51,6.51,0,0,1-2.76.57,6,6,0,0,1-2.67-.56,4.19,4.19,0,0,1-1.67-1.34,4.9,4.9,0,0,1-.46-1,5.05,5.05,0,0,1-.24-1.71h1.71q0,.34.08.73a2.56,2.56,0,0,0,.25.78,3,3,0,0,0,1.11,1.16,3.67,3.67,0,0,0,2,.52,4.76,4.76,0,0,0,1.51-.25,3.74,3.74,0,0,0,1.5-.91,3.88,3.88,0,0,0,.81-1.25,5.11,5.11,0,0,0,.34-1.37q.07-.7.1-1.29l0-1.12q-.22.22-.59.53a5.53,5.53,0,0,1-.9.6,6.13,6.13,0,0,1-1.25.5,5.71,5.71,0,0,1-1.61.21,5.39,5.39,0,0,1-2.63-.59,5.08,5.08,0,0,1-1.74-1.55,6.4,6.4,0,0,1-1-2.21,11.23,11.23,0,0,1-.29-2.59,11.77,11.77,0,0,1,.29-2.58,6.81,6.81,0,0,1,1-2.32,5.21,5.21,0,0,1,1.93-1.81,6,6,0,0,1,4.16-.49,5.25,5.25,0,0,1,1.11.42,4.76,4.76,0,0,1,.84.56l.67.59v-1.43Zm-1.57,5a6.5,6.5,0,0,0-.15-1.47,2.89,2.89,0,0,0-.63-1.22,3.49,3.49,0,0,0-1.25-1,4,4,0,0,0-1.75-.36,3.94,3.94,0,0,0-2,.48,3.85,3.85,0,0,0-1.34,1.29,6,6,0,0,0-.77,1.92,10.82,10.82,0,0,0-.25,2.4,11.63,11.63,0,0,0,.17,1.92,5.49,5.49,0,0,0,.63,1.81,3.9,3.9,0,0,0,1.27,1.35,3.82,3.82,0,0,0,2.13.53,4.27,4.27,0,0,0,2.77-.93,3.33,3.33,0,0,0,.62-.67,3.06,3.06,0,0,0,.35-.7,2.93,2.93,0,0,0,.15-.74l.06-.77Z"/><path d="M260.54,672.76h-1.16q-.86,0-1-.38a2.82,2.82,0,0,1-.1-1.19,6.74,6.74,0,0,1-.57.56,4.89,4.89,0,0,1-.85.59,5.42,5.42,0,0,1-1.23.48,6.57,6.57,0,0,1-1.7.2l-.68,0a4.08,4.08,0,0,1-.78-.14,3.36,3.36,0,0,1-1.58-1,3.67,3.67,0,0,1-.75-1.26,4.48,4.48,0,0,1-.28-1.57,3.52,3.52,0,0,1,.52-2,4.51,4.51,0,0,1,1-1.12,4.78,4.78,0,0,1,2-.85q1.15-.24,2.48-.41l2.46-.28V663a10.26,10.26,0,0,0-.06-1,2.51,2.51,0,0,0-.34-1,2.22,2.22,0,0,0-.85-.8,3.47,3.47,0,0,0-1.67-.32,4,4,0,0,0-2,.41,2.87,2.87,0,0,0-1,1,2.76,2.76,0,0,0-.41,1.12,7.91,7.91,0,0,0-.07.91h-1.68a4.45,4.45,0,0,1,.52-2.38,4.31,4.31,0,0,1,1.37-1.46,5.22,5.22,0,0,1,1.78-.73,8.53,8.53,0,0,1,1.71-.2,7.48,7.48,0,0,1,1.89.25,3.1,3.1,0,0,1,1.54.87,2.46,2.46,0,0,1,.53.76,4.13,4.13,0,0,1,.27.84,6.22,6.22,0,0,1,.11.85c0,.29,0,.56,0,.8v3.28l-.08,3.53,0,1.23a3.87,3.87,0,0,0,.14,1,.85.85,0,0,0,.53.49Zm-2.27-7.22q-.73.06-1.55.17L255,666q-.36.06-.93.2a4.12,4.12,0,0,0-1.12.46,3,3,0,0,0-.93.88,2.44,2.44,0,0,0-.39,1.43,2.58,2.58,0,0,0,.81,2,2.86,2.86,0,0,0,2,.74,4.62,4.62,0,0,0,1.24-.18,4,4,0,0,0,1.13-.49,3.08,3.08,0,0,0,.79-.67,2.61,2.61,0,0,0,.43-.76,3.44,3.44,0,0,0,.18-.78,7.06,7.06,0,0,0,0-.73Z"/><path d="M274,672.76h-1.65v-8.14q0-.53,0-1.05t-.07-1.05q0-.22-.13-.7a2.55,2.55,0,0,0-.42-.94,2.87,2.87,0,0,0-.91-.81,3.11,3.11,0,0,0-1.6-.35,6.45,6.45,0,0,0-.77.06,4.1,4.1,0,0,0-1,.28,3.67,3.67,0,0,0-1.19.73,2.92,2.92,0,0,0-.91,1.75,6,6,0,0,0-.06.77v9.46H263.6v-14h1.65v1.57l.6-.52a5.74,5.74,0,0,1,.94-.63,6.14,6.14,0,0,1,1.32-.52,6.36,6.36,0,0,1,1.71-.21,5.33,5.33,0,0,1,1.9.35A3.1,3.1,0,0,1,273.2,660a3.64,3.64,0,0,1,.67,1.69,14.22,14.22,0,0,1,.11,1.72Z"/><path d="M288.52,672.76h-1.65V671a6.43,6.43,0,0,1-.49.56,4.33,4.33,0,0,1-.84.66,5.58,5.58,0,0,1-1.27.56,5.91,5.91,0,0,1-1.76.24,5.35,5.35,0,0,1-2.52-.55,4.63,4.63,0,0,1-1.69-1.51,6.74,6.74,0,0,1-1-2.25,12,12,0,0,1-.31-2.8,11.48,11.48,0,0,1,.38-3.05,6.74,6.74,0,0,1,1.13-2.35,5.19,5.19,0,0,1,1.89-1.53,6,6,0,0,1,2.65-.55,5.36,5.36,0,0,1,1.6.21,4.6,4.6,0,0,1,1.11.49,3.25,3.25,0,0,1,.7.59l.41.48V653h1.65Zm-1.62-9.39a4.36,4.36,0,0,0-.27-1.6,3,3,0,0,0-.91-1.21,3.57,3.57,0,0,0-1.13-.62,4.33,4.33,0,0,0-1.41-.23,3.83,3.83,0,0,0-1.93.44,4.15,4.15,0,0,0-1.15.91,4.61,4.61,0,0,0-1,1.93,10.77,10.77,0,0,0-.28,2.57q0,.73.1,1.79a7.3,7.3,0,0,0,.49,2,4.31,4.31,0,0,0,1.2,1.69,3.31,3.31,0,0,0,2.24.7,4.53,4.53,0,0,0,1.81-.37,3.48,3.48,0,0,0,1.36-1,3,3,0,0,0,.7-1.59c.08-.59.12-1.13.14-1.62Z"/><path d="M319.09,672.76h-1.82L317,656v-.62c0-.17,0-.33,0-.48s0-.32,0-.52,0-.45,0-.77q-.14.45-.25.76l-.2.56q-.08.25-.18.5l-.24.62L310,672.76h-1.62l-6.24-17.11q-.14-.34-.22-.56l-.15-.43-.15-.46-.2-.59q0,.81,0,1.23v1.06l-.34,16.86h-1.68l.47-19.77h3.3l5,13.94q.17.53.31.92c.09.26.18.52.27.78l.27.83c.09.29.2.64.31,1q.2-.64.34-1l.27-.74q.13-.35.25-.74c.08-.26.2-.6.35-1l5-14h3.33Z"/><path d="M334,665.12a21.67,21.67,0,0,1-.1,2.52,7.4,7.4,0,0,1-.7,2.56,5.16,5.16,0,0,1-1.74,2,5.47,5.47,0,0,1-3.18.81,6,6,0,0,1-3.05-.67,4.85,4.85,0,0,1-1.76-1.71,6.37,6.37,0,0,1-.81-2.31,16.07,16.07,0,0,1-.2-2.45q0-.48,0-1.22a10.67,10.67,0,0,1,.21-1.55,8.15,8.15,0,0,1,.53-1.64,4.88,4.88,0,0,1,1-1.48A5.1,5.1,0,0,1,326,658.9a6.23,6.23,0,0,1,2.42-.42,5.56,5.56,0,0,1,3.13.76,5,5,0,0,1,1.68,1.82,6.15,6.15,0,0,1,.69,2.18Q334,664.36,334,665.12Zm-1.73.2q0-.7-.14-1.65a6,6,0,0,0-.5-1.81,3.83,3.83,0,0,0-1.15-1.44,3.34,3.34,0,0,0-2.1-.59,3.83,3.83,0,0,0-1.75.36,3.66,3.66,0,0,0-1.18.92,4,4,0,0,0-.7,1.26,10.23,10.23,0,0,0-.36,1.36,7.57,7.57,0,0,0-.14,1.22c0,.37,0,.66,0,.87a15.72,15.72,0,0,0,.13,1.92,6.16,6.16,0,0,0,.54,1.9,3.53,3.53,0,0,0,3.5,2.06,3.21,3.21,0,0,0,2.21-.7,4.16,4.16,0,0,0,1.15-1.71,7.6,7.6,0,0,0,.43-2.1Q332.31,666.1,332.31,665.31Z"/><path d="M341.63,672.76H340l-4.73-14h1.93l3.11,9.63c.07.26.14.48.2.66l.15.49c0,.15.1.3.15.46s.11.35.17.57q.14-.42.21-.59l.21-.53,3.84-10.7h1.65Z"/><path d="M350.4,655.43h-1.65v-2.07h1.65Zm0,17.33h-1.65v-14h1.65Z"/><path d="M364.4,672.76h-1.65v-8.14c0-.36,0-.71,0-1.05s0-.7-.07-1.05c0-.15-.06-.38-.13-.7a2.53,2.53,0,0,0-.42-.94,2.87,2.87,0,0,0-.91-.81,3.11,3.11,0,0,0-1.6-.35,6.47,6.47,0,0,0-.77.06,4.1,4.1,0,0,0-1,.28,3.67,3.67,0,0,0-1.19.73,2.92,2.92,0,0,0-.91,1.75,5.82,5.82,0,0,0-.06.77v9.46H354v-14h1.65v1.57l.6-.52a5.74,5.74,0,0,1,.94-.63,6.14,6.14,0,0,1,1.32-.52,6.37,6.37,0,0,1,1.71-.21,5.34,5.34,0,0,1,1.9.35,3.09,3.09,0,0,1,1.48,1.16,3.64,3.64,0,0,1,.67,1.69,14.22,14.22,0,0,1,.11,1.72Z"/><path d="M379,658.76v13.15a11.84,11.84,0,0,1-.11,1.61,7.62,7.62,0,0,1-.39,1.58,4.68,4.68,0,0,1-.78,1.39,5.28,5.28,0,0,1-1.95,1.44,6.51,6.51,0,0,1-2.76.57,6,6,0,0,1-2.68-.56,4.2,4.2,0,0,1-1.67-1.34,4.91,4.91,0,0,1-.46-1,5.05,5.05,0,0,1-.24-1.71h1.71c0,.22,0,.47.08.73a2.56,2.56,0,0,0,.25.78,3,3,0,0,0,1.11,1.16,3.66,3.66,0,0,0,2,.52,4.76,4.76,0,0,0,1.51-.25,3.73,3.73,0,0,0,1.5-.91,3.86,3.86,0,0,0,.81-1.25,5.07,5.07,0,0,0,.34-1.37q.07-.7.1-1.29l0-1.12c-.15.15-.35.33-.59.53a5.62,5.62,0,0,1-.9.6,6.15,6.15,0,0,1-1.25.5,5.72,5.72,0,0,1-1.61.21,5.38,5.38,0,0,1-2.63-.59,5.09,5.09,0,0,1-1.74-1.55,6.42,6.42,0,0,1-1-2.21,11.18,11.18,0,0,1-.29-2.59,11.71,11.71,0,0,1,.29-2.58,6.83,6.83,0,0,1,1-2.32,5.22,5.22,0,0,1,1.93-1.81,6,6,0,0,1,4.16-.49,5.26,5.26,0,0,1,1.11.42,4.79,4.79,0,0,1,.84.56l.67.59v-1.43Zm-1.57,5a6.55,6.55,0,0,0-.15-1.47,2.89,2.89,0,0,0-.63-1.22,3.49,3.49,0,0,0-1.25-1,4,4,0,0,0-1.75-.36,3.94,3.94,0,0,0-2,.48,3.86,3.86,0,0,0-1.34,1.29,6,6,0,0,0-.77,1.92,10.82,10.82,0,0,0-.25,2.4,11.63,11.63,0,0,0,.17,1.92,5.49,5.49,0,0,0,.63,1.81,3.89,3.89,0,0,0,1.28,1.35,3.81,3.81,0,0,0,2.13.53,4.28,4.28,0,0,0,2.77-.93,3.38,3.38,0,0,0,.62-.67,3.09,3.09,0,0,0,.35-.7,3,3,0,0,0,.15-.74c0-.25,0-.51.06-.77Z"/><path d="M392.09,672.76h-1.93V653h10.5v1.48h-8.57v7.76h8v1.48h-8Z"/><path d="M412.81,665.12a21.67,21.67,0,0,1-.1,2.52,7.4,7.4,0,0,1-.7,2.56,5.16,5.16,0,0,1-1.74,2,5.47,5.47,0,0,1-3.18.81,6,6,0,0,1-3.05-.67,4.85,4.85,0,0,1-1.76-1.71,6.37,6.37,0,0,1-.81-2.31,16.07,16.07,0,0,1-.2-2.45q0-.48,0-1.22a10.67,10.67,0,0,1,.21-1.55,8.15,8.15,0,0,1,.53-1.64,4.88,4.88,0,0,1,1-1.48,5.1,5.1,0,0,1,1.65-1.08,6.23,6.23,0,0,1,2.42-.42,5.56,5.56,0,0,1,3.13.76,5,5,0,0,1,1.68,1.82,6.15,6.15,0,0,1,.69,2.18Q412.78,664.36,412.81,665.12Zm-1.73.2q0-.7-.14-1.65a6,6,0,0,0-.5-1.81,3.83,3.83,0,0,0-1.15-1.44,3.34,3.34,0,0,0-2.1-.59,3.83,3.83,0,0,0-1.75.36,3.66,3.66,0,0,0-1.18.92,4,4,0,0,0-.7,1.26,10.23,10.23,0,0,0-.36,1.36A7.57,7.57,0,0,0,403,665c0,.37,0,.66,0,.87a15.72,15.72,0,0,0,.13,1.92,6.16,6.16,0,0,0,.54,1.9,3.53,3.53,0,0,0,3.5,2.06,3.21,3.21,0,0,0,2.21-.7,4.16,4.16,0,0,0,1.15-1.71,7.6,7.6,0,0,0,.43-2.1Q411.07,666.1,411.07,665.31Z"/><path d="M417.51,672.76h-1.65v-14h1.65v1.62a13.94,13.94,0,0,1,1.47-1.29,3.1,3.1,0,0,1,1.92-.56,2.54,2.54,0,0,1,1.13.2,4,4,0,0,1,.66.42v1.71a9.1,9.1,0,0,0-.94-.56,3.14,3.14,0,0,0-1.44-.28,4.18,4.18,0,0,0-.66.06,2.7,2.7,0,0,0-.71.22,2.58,2.58,0,0,0-.8.59,2.17,2.17,0,0,0-.42.68,3.25,3.25,0,0,0-.17.71,5.8,5.8,0,0,0,0,.64Z"/><path d="M437.64,672.76h-1.76l-2.74-9.6c-.05-.22-.11-.42-.15-.6l-.14-.5c0-.16-.09-.33-.13-.5l-.14-.63-.22.67c-.06.17-.1.31-.13.42s-.05.21-.08.29a2.57,2.57,0,0,0-.07.27l-3.28,10.19h-1.74l-4.17-14h1.88l2.88,10.33c.06.17.1.31.13.42l.08.32c0,.1.06.21.08.34s.07.28.13.46q.17-.56.25-.87t.25-.84l3.25-10.16h1.71l2.8,9.6q.11.36.18.63c0,.18.09.35.14.52l.14.5c0,.17.1.36.15.59.06-.15.1-.27.13-.36l.08-.27a2,2,0,0,0,.07-.25l.08-.35,3.14-10.61H442Z"/><path d="M453.66,672.76H452.5c-.57,0-.91-.13-1-.38a2.84,2.84,0,0,1-.1-1.19,6.59,6.59,0,0,1-.57.56,4.82,4.82,0,0,1-.85.59,5.41,5.41,0,0,1-1.23.48,6.57,6.57,0,0,1-1.7.2l-.68,0a4.07,4.07,0,0,1-.78-.14,3.41,3.41,0,0,1-.81-.35,3.34,3.34,0,0,1-.77-.63,3.65,3.65,0,0,1-.75-1.26A4.46,4.46,0,0,1,443,669a3.52,3.52,0,0,1,.52-2,4.49,4.49,0,0,1,1-1.12,4.77,4.77,0,0,1,2-.85c.76-.16,1.59-.29,2.48-.41l2.46-.28V663a10,10,0,0,0-.06-1,2.5,2.5,0,0,0-.34-1,2.21,2.21,0,0,0-.85-.8,3.46,3.46,0,0,0-1.67-.32,4,4,0,0,0-2,.41,2.86,2.86,0,0,0-1,1,2.76,2.76,0,0,0-.41,1.12,7.91,7.91,0,0,0-.07.91H443.3a4.46,4.46,0,0,1,.52-2.38,4.32,4.32,0,0,1,1.37-1.46,5.21,5.21,0,0,1,1.78-.73,8.54,8.54,0,0,1,1.71-.2,7.48,7.48,0,0,1,1.89.25,3.11,3.11,0,0,1,1.54.87,2.49,2.49,0,0,1,.53.76,4.13,4.13,0,0,1,.27.84,6.22,6.22,0,0,1,.11.85q0,.44,0,.8v3.28l-.08,3.53,0,1.23a3.91,3.91,0,0,0,.14,1,.85.85,0,0,0,.53.49Zm-2.27-7.22q-.72.06-1.55.17l-1.71.25c-.24,0-.55.1-.93.2a4.1,4.1,0,0,0-1.12.46,3,3,0,0,0-.94.88,2.44,2.44,0,0,0-.39,1.43,2.58,2.58,0,0,0,.81,2,2.86,2.86,0,0,0,2,.74,4.63,4.63,0,0,0,1.24-.18,4.07,4.07,0,0,0,1.13-.49,3.08,3.08,0,0,0,.79-.67,2.66,2.66,0,0,0,.43-.76,3.55,3.55,0,0,0,.18-.78,7,7,0,0,0,0-.73Z"/><path d="M458.36,672.76h-1.65v-14h1.65v1.62a13.94,13.94,0,0,1,1.47-1.29,3.1,3.1,0,0,1,1.92-.56,2.54,2.54,0,0,1,1.13.2,4,4,0,0,1,.66.42v1.71a9.1,9.1,0,0,0-.94-.56,3.14,3.14,0,0,0-1.44-.28,4.18,4.18,0,0,0-.66.06,2.7,2.7,0,0,0-.71.22,2.58,2.58,0,0,0-.8.59,2.17,2.17,0,0,0-.42.68,3.25,3.25,0,0,0-.17.71,5.8,5.8,0,0,0,0,.64Z"/><path d="M475.83,672.76h-1.65V671a6.27,6.27,0,0,1-.49.56,4.33,4.33,0,0,1-.84.66,5.58,5.58,0,0,1-1.27.56,5.9,5.9,0,0,1-1.76.24,5.35,5.35,0,0,1-2.52-.55,4.64,4.64,0,0,1-1.7-1.51,6.76,6.76,0,0,1-1-2.25,11.93,11.93,0,0,1-.31-2.8,11.48,11.48,0,0,1,.38-3.05,6.74,6.74,0,0,1,1.13-2.35,5.2,5.2,0,0,1,1.89-1.53,6,6,0,0,1,2.65-.55,5.37,5.37,0,0,1,1.6.21,4.59,4.59,0,0,1,1.11.49,3.25,3.25,0,0,1,.7.59l.41.48V653h1.65Zm-1.62-9.39a4.36,4.36,0,0,0-.27-1.6,3,3,0,0,0-.91-1.21,3.58,3.58,0,0,0-1.13-.62,4.34,4.34,0,0,0-1.41-.23,3.83,3.83,0,0,0-1.93.44,4.15,4.15,0,0,0-1.15.91,4.61,4.61,0,0,0-1,1.93,10.76,10.76,0,0,0-.28,2.57q0,.73.1,1.79a7.34,7.34,0,0,0,.49,2,4.32,4.32,0,0,0,1.21,1.69,3.31,3.31,0,0,0,2.24.7,4.53,4.53,0,0,0,1.8-.37,3.48,3.48,0,0,0,1.36-1,3,3,0,0,0,.7-1.59c.07-.59.12-1.13.14-1.62Z"/><path d="M492.35,672.76h-1.85V654.48h-5.88V653h13.55v1.48h-5.82Z"/><path d="M507.39,665.12a22.11,22.11,0,0,1-.1,2.52,7.41,7.41,0,0,1-.7,2.56,5.17,5.17,0,0,1-1.73,2,5.47,5.47,0,0,1-3.18.81,6,6,0,0,1-3.05-.67,4.85,4.85,0,0,1-1.76-1.71,6.34,6.34,0,0,1-.81-2.31,16.07,16.07,0,0,1-.2-2.45q0-.48,0-1.22a10.42,10.42,0,0,1,.21-1.55,8.15,8.15,0,0,1,.53-1.64,4.87,4.87,0,0,1,1-1.48,5.15,5.15,0,0,1,1.65-1.08,6.23,6.23,0,0,1,2.42-.42,5.57,5.57,0,0,1,3.14.76,5,5,0,0,1,1.68,1.82,6.14,6.14,0,0,1,.69,2.18Q507.36,664.36,507.39,665.12Zm-1.74.2q0-.7-.14-1.65a6,6,0,0,0-.5-1.81,3.82,3.82,0,0,0-1.15-1.44,3.34,3.34,0,0,0-2.1-.59,3.83,3.83,0,0,0-1.75.36,3.68,3.68,0,0,0-1.18.92,4,4,0,0,0-.7,1.26,10.23,10.23,0,0,0-.36,1.36,7.57,7.57,0,0,0-.14,1.22c0,.37,0,.66,0,.87a15.7,15.7,0,0,0,.13,1.92,6.11,6.11,0,0,0,.55,1.9,3.77,3.77,0,0,0,1.25,1.47,3.82,3.82,0,0,0,2.25.59A3.2,3.2,0,0,0,504,671a4.12,4.12,0,0,0,1.15-1.71,7.6,7.6,0,0,0,.43-2.1Q505.65,666.1,505.65,665.31Z"/><path d="M521.39,658.76v13.15a11.84,11.84,0,0,1-.11,1.61,7.88,7.88,0,0,1-.39,1.58,4.72,4.72,0,0,1-.78,1.39,5.29,5.29,0,0,1-1.95,1.44,6.51,6.51,0,0,1-2.76.57,6,6,0,0,1-2.67-.56,4.19,4.19,0,0,1-1.67-1.34,4.89,4.89,0,0,1-.46-1,5.06,5.06,0,0,1-.24-1.71h1.71c0,.22,0,.47.08.73a2.56,2.56,0,0,0,.25.78,3,3,0,0,0,1.11,1.16,3.67,3.67,0,0,0,2,.52,4.76,4.76,0,0,0,1.51-.25,3.75,3.75,0,0,0,1.5-.91,3.89,3.89,0,0,0,.81-1.25,5.15,5.15,0,0,0,.34-1.37q.07-.7.1-1.29l0-1.12c-.15.15-.35.33-.59.53a5.45,5.45,0,0,1-.9.6,6.11,6.11,0,0,1-1.25.5,5.7,5.7,0,0,1-1.61.21,5.39,5.39,0,0,1-2.63-.59,5.07,5.07,0,0,1-1.73-1.55,6.38,6.38,0,0,1-1-2.21,11.29,11.29,0,0,1-.29-2.59,11.83,11.83,0,0,1,.29-2.58,6.79,6.79,0,0,1,1-2.32,5.2,5.2,0,0,1,1.93-1.81,6,6,0,0,1,4.16-.49,5.24,5.24,0,0,1,1.11.42,4.72,4.72,0,0,1,.84.56l.67.59v-1.43Zm-1.57,5a6.44,6.44,0,0,0-.15-1.47A2.88,2.88,0,0,0,519,661a3.5,3.5,0,0,0-1.25-1,4,4,0,0,0-1.75-.36,3.93,3.93,0,0,0-2,.48,3.84,3.84,0,0,0-1.34,1.29,6,6,0,0,0-.77,1.92,10.82,10.82,0,0,0-.25,2.4,11.63,11.63,0,0,0,.17,1.92,5.5,5.5,0,0,0,.63,1.81,3.9,3.9,0,0,0,1.27,1.35,3.82,3.82,0,0,0,2.13.53,4.27,4.27,0,0,0,2.77-.93,3.27,3.27,0,0,0,.62-.67,3,3,0,0,0,.35-.7,2.88,2.88,0,0,0,.15-.74c0-.25,0-.51.06-.77Z"/><path d="M535.56,668.54a4.19,4.19,0,0,1-.32,1.58,4.11,4.11,0,0,1-1,1.44,5.15,5.15,0,0,1-1.69,1,6.39,6.39,0,0,1-2.37.41,9.31,9.31,0,0,1-1.26-.1,4.91,4.91,0,0,1-1.37-.41,4.58,4.58,0,0,1-1.47-1.11,5.65,5.65,0,0,1-1-1.55,7.91,7.91,0,0,1-.52-1.85,12.74,12.74,0,0,1-.15-2,13.9,13.9,0,0,1,.25-2.59,7.45,7.45,0,0,1,.91-2.44,5.36,5.36,0,0,1,1.81-1.82,5.55,5.55,0,0,1,3-.71,5.25,5.25,0,0,1,2.66.6,4.46,4.46,0,0,1,1.62,1.6,6.28,6.28,0,0,1,.79,2.27,15.41,15.41,0,0,1,.17,2.62h-9.35c0,.37,0,.9,0,1.57a6.47,6.47,0,0,0,.42,2,4.4,4.4,0,0,0,1.2,1.75,3.42,3.42,0,0,0,2.37.74,4.55,4.55,0,0,0,1.2-.17,3.45,3.45,0,0,0,1.12-.53,3.08,3.08,0,0,0,.85-1,3.27,3.27,0,0,0,.41-1.44Zm-1.6-4.28c0-.22-.06-.58-.11-1.08a4.51,4.51,0,0,0-.43-1.47,3.71,3.71,0,0,0-1-1.29,3.07,3.07,0,0,0-2-.56q-.2,0-.8.07a3.22,3.22,0,0,0-1.28.48,4.14,4.14,0,0,0-1.26,1.3,5.71,5.71,0,0,0-.76,2.55Z"/><path d="M540.6,660l-.08,8.54q0,1.2.07,1.67a1.51,1.51,0,0,0,.24.74,1.46,1.46,0,0,0,.53.45,2.15,2.15,0,0,0,1.06.22,3.11,3.11,0,0,0,1.06-.15l.78-.29v1.34q-.39.14-1,.31a5.53,5.53,0,0,1-1.47.17,3.9,3.9,0,0,1-1.25-.17,3,3,0,0,1-.8-.39,1.78,1.78,0,0,1-.45-.43l-.17-.27a2.05,2.05,0,0,1-.18-.43,3,3,0,0,1-.1-.57q0-.34,0-.81c0-.32,0-.69,0-1.12l.11-8.79h-2.24v-1.26h2.27V655.6l1.74-.25-.06,3.42h2.74V660Z"/><path d="M556.42,672.76h-1.65v-8.05q0-.84,0-1.57a6.39,6.39,0,0,0-.18-1.33,2.83,2.83,0,0,0-.51-1.05,2.53,2.53,0,0,0-1-.73,2.7,2.7,0,0,0-.72-.24,4.25,4.25,0,0,0-.77-.07,4.88,4.88,0,0,0-1.81.35,3.43,3.43,0,0,0-1.42,1,2.55,2.55,0,0,0-.58,1.15,8.76,8.76,0,0,0-.13,1.09v9.46H546V653h1.65v7.36q.2-.2.57-.52a5.16,5.16,0,0,1,.94-.62,7.43,7.43,0,0,1,1.3-.52,6,6,0,0,1,1.72-.22,5.29,5.29,0,0,1,1.88.34,3.32,3.32,0,0,1,1.48,1.09,3.26,3.26,0,0,1,.71,1.68c.07.6.11,1.17.13,1.71Z"/><path d="M570.56,668.54a4.23,4.23,0,0,1-.32,1.58,4.14,4.14,0,0,1-1,1.44,5.18,5.18,0,0,1-1.7,1,6.38,6.38,0,0,1-2.37.41,9.31,9.31,0,0,1-1.26-.1,5,5,0,0,1-1.37-.41,4.57,4.57,0,0,1-1.47-1.11,5.61,5.61,0,0,1-1-1.55,7.91,7.91,0,0,1-.52-1.85,12.5,12.5,0,0,1-.15-2,13.9,13.9,0,0,1,.25-2.59,7.41,7.41,0,0,1,.91-2.44,5.34,5.34,0,0,1,1.81-1.82,5.54,5.54,0,0,1,3-.71,5.25,5.25,0,0,1,2.66.6,4.45,4.45,0,0,1,1.63,1.6,6.32,6.32,0,0,1,.78,2.27,15,15,0,0,1,.17,2.62h-9.35q0,.56,0,1.57a6.52,6.52,0,0,0,.42,2,4.4,4.4,0,0,0,1.21,1.75,3.42,3.42,0,0,0,2.37.74,4.57,4.57,0,0,0,1.21-.17,3.44,3.44,0,0,0,1.12-.53,3.06,3.06,0,0,0,.85-1,3.25,3.25,0,0,0,.41-1.44Zm-1.6-4.28c0-.22-.05-.58-.11-1.08a4.61,4.61,0,0,0-.43-1.47,3.71,3.71,0,0,0-1.05-1.29,3.06,3.06,0,0,0-2-.56c-.13,0-.4,0-.8.07a3.2,3.2,0,0,0-1.27.48,4.1,4.1,0,0,0-1.26,1.3,5.71,5.71,0,0,0-.76,2.55Z"/><path d="M575.09,672.76h-1.65v-14h1.65v1.62a13.94,13.94,0,0,1,1.47-1.29,3.1,3.1,0,0,1,1.92-.56,2.54,2.54,0,0,1,1.13.2,4,4,0,0,1,.66.42v1.71a9.1,9.1,0,0,0-.94-.56,3.14,3.14,0,0,0-1.44-.28,4.18,4.18,0,0,0-.66.06,2.7,2.7,0,0,0-.71.22,2.58,2.58,0,0,0-.8.59,2.17,2.17,0,0,0-.42.68,3.25,3.25,0,0,0-.17.71,5.8,5.8,0,0,0,0,.64Z"/><path d="M540.43,400c2.42,33.89,36.32-21.79,19.37-77.47s-82.31-62.95-82.31-62.95,0-48.42-2.42-55.68,87.16-36.32,50.84-108.95-113.79,36.32-113.79,36.32-43.58-2.42-72.63,2.42c0,0-38.95-135.7-113.79-101.68-26.63,12.1,29.05,33.89,12.1,104.1,0,0-70.21,60.53-77.47,116.21,0,0-111.35,24-118.63,125.89-2.42,33.89,41.16-38.74,89.58-36.32,0,0,2.42,87.16,38.74,77.47,9.92-2.65-7.26-140.42,70.21-205.79s152.52-55.68,184,2.42-33.89,157.37-77.47,181.58-150.1,19.37-152.52,33.89,55.68,26.63,84.74,19.37,5.41,72.09-55.68,111.37C189.39,584,344.33,579.13,368.54,433.87c0,0,55.68-36.32,79.89-72.63S537,351.43,540.43,400Z"/><path d="M501.5,497.18S619.45,449.41,576.15,333C576.15,333,595.56,409.09,501.5,497.18Z"/><path d="M123.78,112c29.86-98.54,146.31-98.54,146.31-98.54C140.2-7.45,123.78,112,123.78,112Z"/><path d="M50.62,300.11C-27,374.76,26.74,461.35,26.74,461.35,2.85,370.28,50.62,300.11,50.62,300.11Z"/><path d="M326.83,545s-83.61,50.76-173.19,55.24C153.64,600.2,261.13,612.14,326.83,545Z"/><polygon points="354.29 247.92 299.25 301.35 244.73 248.42 299.77 195 354.29 247.92"/><polygon points="420.54 312.44 365.5 365.86 310.97 312.94 366.01 259.52 420.54 312.44"/><path class="cls-1" d="M360.78,299H346.15v-7.68h38V299H369.48v37.1h-8.7Z"/><polygon points="288.31 312.19 233.27 365.62 178.75 312.69 233.78 259.27 288.31 312.19"/><path class="cls-1" d="M255.25,329.42a24.72,24.72,0,0,1-17.53,6.65c-17.13,0-24.38-11.45-24.45-23.09s7.78-23.6,24.45-23.6a24.17,24.17,0,0,1,16.94,6.84l-5.8,5.44a16.11,16.11,0,0,0-11.14-4.22c-11.14,0-15.95,8.06-15.88,15.54s4.48,15.16,15.88,15.16a17.26,17.26,0,0,0,11.6-4.54Z"/><path class="cls-1" d="M303.42,257.89h-13v13.18h-8.7V226.29c7.25,0,14.5-.06,21.75-.06C326,226.23,326,257.89,303.42,257.89Zm-13-7.74h13c11.14,0,11.07-15.86,0-15.86h-13Z"/></svg>