<svg id="Layer_1" data-name="Layer 1" xmlns="http://www.w3.org/2000/svg" viewBox="0 0 1076 400"><defs><style>.cls-1{fill:#fff;}.cls-2{fill:#192542;}</style></defs><title>WCPT</title><path class="cls-1" d="M17.66,314,6.79,271.12h5.85l5.09,21.68c1.27,5.34,2.42,10.68,3.18,14.81H21c.7-4.26,2-9.35,3.5-14.88l5.72-21.62H36l5.21,21.75c1.21,5.09,2.35,10.17,3,14.69h.13c.89-4.71,2.1-9.47,3.43-14.81l5.66-21.62h5.66L47,314H41.19l-5.4-22.32a129,129,0,0,1-2.8-14h-.13a134,134,0,0,1-3.31,14L23.45,314Z"/><path class="cls-1" d="M69.48,274.56a3.47,3.47,0,0,1-6.93,0,3.41,3.41,0,0,1,3.5-3.5A3.32,3.32,0,0,1,69.48,274.56ZM63.25,314V283.2h5.6V314Z"/><path class="cls-1" d="M77.37,308.26a14.66,14.66,0,0,0,7.38,2.23c4.07,0,6-2,6-4.58s-1.59-4.13-5.72-5.66c-5.53-2-8.14-5-8.14-8.71,0-5,4-9,10.62-9A15.36,15.36,0,0,1,95,284.41l-1.4,4.07a12,12,0,0,0-6.29-1.78c-3.31,0-5.15,1.91-5.15,4.2,0,2.54,1.84,3.69,5.85,5.21,5.34,2,8.08,4.71,8.08,9.28,0,5.4-4.2,9.22-11.51,9.22a17.55,17.55,0,0,1-8.65-2.1Z"/><path class="cls-1" d="M129.89,268.83V306c0,2.73.06,5.85.25,7.95h-5l-.25-5.34h-.13a11.38,11.38,0,0,1-10.49,6c-7.44,0-13.16-6.29-13.16-15.64-.06-10.24,6.29-16.53,13.8-16.53,4.71,0,7.88,2.23,9.28,4.71h.13V268.83Zm-5.6,26.9a9.87,9.87,0,0,0-.25-2.35,8.23,8.23,0,0,0-8.07-6.49c-5.79,0-9.22,5.09-9.22,11.89,0,6.23,3.05,11.38,9.09,11.38a8.41,8.41,0,0,0,8.2-6.68,9.71,9.71,0,0,0,.25-2.42Z"/><path class="cls-1" d="M167,298.34c0,11.38-7.88,16.34-15.32,16.34-8.33,0-14.75-6.1-14.75-15.83,0-10.3,6.74-16.34,15.26-16.34C161,282.51,167,288.93,167,298.34Zm-24.42.32c0,6.74,3.88,11.83,9.35,11.83s9.35-5,9.35-12c0-5.21-2.61-11.83-9.22-11.83S142.61,292.81,142.61,298.66Z"/><path class="cls-1" d="M174.09,291.53c0-3.18-.06-5.79-.25-8.33h4.9l.25,5h.19a10.61,10.61,0,0,1,9.66-5.66,9.1,9.1,0,0,1,8.71,6.17h.13a12.67,12.67,0,0,1,3.43-4,10.5,10.5,0,0,1,6.8-2.16c4.07,0,10.11,2.67,10.11,13.35V314h-5.47V296.56c0-5.91-2.16-9.47-6.68-9.47a7.25,7.25,0,0,0-6.61,5.09,9.23,9.23,0,0,0-.44,2.8v19h-5.47V295.54c0-4.9-2.16-8.46-6.42-8.46-3.5,0-6,2.8-6.93,5.6a7.72,7.72,0,0,0-.45,2.73V314h-5.47Z"/><path class="cls-1" d="M270.74,312.58c-2,1-6.1,2-11.32,2-12.08,0-21.17-7.63-21.17-21.68,0-13.42,9.09-22.51,22.38-22.51,5.34,0,8.71,1.14,10.17,1.91l-1.33,4.51a20.15,20.15,0,0,0-8.65-1.78c-10,0-16.72,6.42-16.72,17.68,0,10.49,6,17.23,16.47,17.23a22.14,22.14,0,0,0,9-1.78Z"/><path class="cls-1" d="M304.63,298.34c0,11.38-7.88,16.34-15.32,16.34-8.33,0-14.75-6.1-14.75-15.83,0-10.3,6.74-16.34,15.26-16.34C298.66,282.51,304.63,288.93,304.63,298.34Zm-24.42.32c0,6.74,3.88,11.83,9.35,11.83s9.35-5,9.35-12c0-5.21-2.61-11.83-9.22-11.83S280.22,292.81,280.22,298.66Z"/><path class="cls-1" d="M311.69,291.53c0-3.18-.06-5.79-.25-8.33h4.9l.25,5h.19a10.61,10.61,0,0,1,9.66-5.66,9.1,9.1,0,0,1,8.71,6.17h.13a12.67,12.67,0,0,1,3.43-4,10.5,10.5,0,0,1,6.8-2.16c4.07,0,10.11,2.67,10.11,13.35V314h-5.47V296.56c0-5.91-2.16-9.47-6.68-9.47a7.25,7.25,0,0,0-6.61,5.09,9.23,9.23,0,0,0-.44,2.8v19H331V295.54c0-4.9-2.16-8.46-6.42-8.46-3.5,0-6,2.8-6.93,5.6a7.72,7.72,0,0,0-.45,2.73V314h-5.47Z"/><path class="cls-1" d="M364.72,291.53c0-3.18-.06-5.79-.25-8.33h4.9l.25,5h.19a10.61,10.61,0,0,1,9.66-5.66,9.1,9.1,0,0,1,8.71,6.17h.13a12.67,12.67,0,0,1,3.43-4,10.5,10.5,0,0,1,6.8-2.16c4.07,0,10.11,2.67,10.11,13.35V314h-5.47V296.56c0-5.91-2.16-9.47-6.68-9.47a7.25,7.25,0,0,0-6.61,5.09,9.23,9.23,0,0,0-.44,2.8v19H384V295.54c0-4.9-2.16-8.46-6.42-8.46-3.5,0-6,2.8-6.93,5.6a7.72,7.72,0,0,0-.45,2.73V314h-5.47Z"/><path class="cls-1" d="M443.51,305.59c0,3.18.06,6,.25,8.39h-5l-.32-5h-.13a11.58,11.58,0,0,1-10.17,5.72c-4.83,0-10.62-2.67-10.62-13.48v-18h5.59v17c0,5.85,1.78,9.79,6.87,9.79a8.09,8.09,0,0,0,7.38-5.09,8.19,8.19,0,0,0,.51-2.86V283.2h5.59Z"/><path class="cls-1" d="M452.79,291.53c0-3.18-.06-5.79-.25-8.33h5l.32,5.09h.13a11.32,11.32,0,0,1,10.17-5.79c4.26,0,10.87,2.54,10.87,13.1V314h-5.6V296.24c0-5-1.84-9.09-7.12-9.09a8,8,0,0,0-7.5,5.72,8.06,8.06,0,0,0-.38,2.61V314h-5.6Z"/><path class="cls-1" d="M494.32,274.56a3.47,3.47,0,0,1-6.93,0,3.41,3.41,0,0,1,3.5-3.5A3.32,3.32,0,0,1,494.32,274.56ZM488.09,314V283.2h5.6V314Z"/><path class="cls-1" d="M509.71,274.37v8.84h8v4.26h-8v16.6c0,3.81,1.08,6,4.2,6a12.44,12.44,0,0,0,3.24-.38l.25,4.2a13.71,13.71,0,0,1-5,.76,7.75,7.75,0,0,1-6-2.35c-1.59-1.65-2.16-4.39-2.16-8V287.46h-4.77V283.2h4.77v-7.38Z"/><path class="cls-1" d="M526.62,283.2l6.74,18.19c.7,2,1.46,4.45,2,6.29h.13c.57-1.84,1.21-4.2,2-6.42l6.1-18.06h5.91l-8.39,21.94c-4,10.55-6.74,16-10.55,19.27a15.16,15.16,0,0,1-6.87,3.62l-1.4-4.71a14.79,14.79,0,0,0,4.9-2.73,17,17,0,0,0,4.71-6.23,4,4,0,0,0,.45-1.33,4.88,4.88,0,0,0-.38-1.46L520.51,283.2Z"/><path class="cls-1" d="M595.86,298.34c0,11.38-7.88,16.34-15.32,16.34-8.33,0-14.75-6.1-14.75-15.83,0-10.3,6.74-16.34,15.26-16.34C589.89,282.51,595.86,288.93,595.86,298.34Zm-24.42.32c0,6.74,3.88,11.83,9.35,11.83s9.35-5,9.35-12c0-5.21-2.61-11.83-9.22-11.83S571.45,292.81,571.45,298.66Z"/><path class="cls-1" d="M603.5,314V287.46h-4.32V283.2h4.32v-1.46c0-4.32,1-8.27,3.56-10.75a10.71,10.71,0,0,1,7.5-2.86,13,13,0,0,1,4.77.89l-.76,4.32a8.36,8.36,0,0,0-3.56-.7c-4.77,0-6,4.2-6,8.9v1.65h7.44v4.26H609V314Z"/><path class="cls-1" d="M635.16,271.63a64.15,64.15,0,0,1,10.62-.83c5.47,0,9.47,1.27,12,3.56a11.52,11.52,0,0,1,3.75,9,12.61,12.61,0,0,1-3.31,9.16c-2.92,3.12-7.69,4.71-13.1,4.71a19,19,0,0,1-4.45-.38V314h-5.53Zm5.53,20.66a18.53,18.53,0,0,0,4.58.45c6.68,0,10.75-3.24,10.75-9.16,0-5.66-4-8.39-10.11-8.39a23.21,23.21,0,0,0-5.21.44Z"/><path class="cls-1" d="M684.19,314l-.44-3.88h-.19a11.46,11.46,0,0,1-9.41,4.58c-6.23,0-9.41-4.39-9.41-8.84,0-7.44,6.61-11.51,18.5-11.44v-.64c0-2.54-.7-7.12-7-7.12a15.33,15.33,0,0,0-8,2.29L667,285.24a19.09,19.09,0,0,1,10.11-2.73c9.41,0,11.7,6.42,11.7,12.59V306.6a43.29,43.29,0,0,0,.51,7.38Zm-.83-15.71c-6.1-.13-13,1-13,6.93a5,5,0,0,0,5.28,5.34A7.66,7.66,0,0,0,683,305.4a5.82,5.82,0,0,0,.32-1.78Z"/><path class="cls-1" d="M697,308.26a14.66,14.66,0,0,0,7.38,2.23c4.07,0,6-2,6-4.58s-1.59-4.13-5.72-5.66c-5.53-2-8.14-5-8.14-8.71,0-5,4-9,10.62-9a15.36,15.36,0,0,1,7.57,1.91l-1.4,4.07A12,12,0,0,0,707,286.7c-3.31,0-5.15,1.91-5.15,4.2,0,2.54,1.84,3.69,5.85,5.21,5.34,2,8.08,4.71,8.08,9.28,0,5.4-4.2,9.22-11.51,9.22a17.55,17.55,0,0,1-8.65-2.1Z"/><path class="cls-1" d="M729.21,274.56a3.47,3.47,0,0,1-6.93,0,3.41,3.41,0,0,1,3.5-3.5A3.32,3.32,0,0,1,729.21,274.56ZM723,314V283.2h5.6V314Z"/><path class="cls-1" d="M738.43,314V287.46h-4.32V283.2h4.32v-1.65c0-8.14,4.77-13.42,13.42-13.42,2.86,0,6.23.89,7.82,2l-1.59,4.26a11.77,11.77,0,0,0-6.49-1.78c-5.91,0-7.63,4.13-7.63,9v1.53h17.87V314H756.3V287.46H744V314Z"/><path class="cls-1" d="M776.65,297.32h.13c.76-1.08,1.84-2.42,2.73-3.5l9-10.62h6.74l-11.89,12.65L796.93,314h-6.8l-10.62-14.75-2.86,3.18V314h-5.53V268.83h5.53Z"/><path class="cls-1" d="M819.12,314l-.44-3.88h-.19a11.46,11.46,0,0,1-9.41,4.58c-6.23,0-9.41-4.39-9.41-8.84,0-7.44,6.61-11.51,18.5-11.44v-.64c0-2.54-.7-7.12-7-7.12a15.33,15.33,0,0,0-8,2.29l-1.27-3.69A19.09,19.09,0,0,1,812,282.51c9.41,0,11.7,6.42,11.7,12.59V306.6a43.29,43.29,0,0,0,.51,7.38Zm-.83-15.71c-6.1-.13-13,1-13,6.93a5,5,0,0,0,5.28,5.34A7.66,7.66,0,0,0,818,305.4a5.82,5.82,0,0,0,.32-1.78Z"/><path class="cls-1" d="M851.93,275.83h-13v-4.71h31.73v4.71h-13.1V314h-5.6Z"/><path class="cls-1" d="M873.81,299.61c.13,7.57,5,10.68,10.56,10.68a20.23,20.23,0,0,0,8.52-1.59l1,4a24.93,24.93,0,0,1-10.24,1.91c-9.47,0-15.13-6.23-15.13-15.51s5.47-16.6,14.43-16.6c10,0,12.72,8.84,12.72,14.5a21.14,21.14,0,0,1-.19,2.61Zm16.41-4c.06-3.56-1.46-9.09-7.76-9.09-5.66,0-8.14,5.21-8.58,9.09Z"/><path class="cls-1" d="M919.59,314l-.44-3.88H919a11.46,11.46,0,0,1-9.41,4.58c-6.23,0-9.41-4.39-9.41-8.84,0-7.44,6.61-11.51,18.5-11.44v-.64c0-2.54-.7-7.12-7-7.12a15.33,15.33,0,0,0-8,2.29l-1.27-3.69a19.09,19.09,0,0,1,10.11-2.73c9.41,0,11.7,6.42,11.7,12.59V306.6a43.29,43.29,0,0,0,.51,7.38Zm-.83-15.71c-6.1-.13-13,1-13,6.93a5,5,0,0,0,5.28,5.34,7.66,7.66,0,0,0,7.44-5.15,5.82,5.82,0,0,0,.32-1.78Z"/><path class="cls-1" d="M955.13,312.83a20.61,20.61,0,0,1-8.84,1.78c-9.28,0-15.32-6.29-15.32-15.71s6.49-16.34,16.53-16.34a18.71,18.71,0,0,1,7.76,1.59L954,288.48A13,13,0,0,0,947.5,287c-7.06,0-10.87,5.21-10.87,11.64,0,7.12,4.58,11.51,10.68,11.51a15.9,15.9,0,0,0,6.87-1.53Z"/><path class="cls-1" d="M961.69,268.83h5.6V288h.13a10.38,10.38,0,0,1,4-3.94,11.52,11.52,0,0,1,5.72-1.59c4.13,0,10.75,2.54,10.75,13.16V314h-5.6V296.3c0-5-1.84-9.16-7.12-9.16a8,8,0,0,0-7.5,5.6,6.78,6.78,0,0,0-.38,2.67V314h-5.6Z"/><path class="cls-1" d="M1000.09,299.61c.13,7.57,5,10.68,10.55,10.68a20.23,20.23,0,0,0,8.52-1.59l1,4a24.93,24.93,0,0,1-10.24,1.91c-9.47,0-15.13-6.23-15.13-15.51s5.47-16.6,14.43-16.6c10,0,12.72,8.84,12.72,14.5a21.14,21.14,0,0,1-.19,2.61Zm16.41-4c.06-3.56-1.46-9.09-7.76-9.09-5.66,0-8.14,5.21-8.58,9.09Z"/><path class="cls-1" d="M1028.83,292.81c0-3.62-.06-6.74-.25-9.6h4.9l.19,6h.25c1.4-4.13,4.77-6.74,8.52-6.74a6.06,6.06,0,0,1,1.59.19V288a8.39,8.39,0,0,0-1.91-.19c-3.94,0-6.74,3-7.5,7.19a15.76,15.76,0,0,0-.25,2.61V314h-5.53Z"/><path class="cls-1" d="M1048.87,308.26a14.66,14.66,0,0,0,7.38,2.23c4.07,0,6-2,6-4.58s-1.59-4.13-5.72-5.66c-5.53-2-8.14-5-8.14-8.71,0-5,4-9,10.62-9a15.36,15.36,0,0,1,7.57,1.91l-1.4,4.07a12,12,0,0,0-6.29-1.78c-3.31,0-5.15,1.91-5.15,4.2,0,2.54,1.84,3.69,5.85,5.21,5.34,2,8.08,4.71,8.08,9.28,0,5.4-4.2,9.22-11.51,9.22a17.55,17.55,0,0,1-8.65-2.1Z"/><path class="cls-1" d="M91.78,367H76.24V339.61h2.6V365H91.78Z"/><path class="cls-1" d="M107.83,361.17a5.85,5.85,0,0,1-.45,2.2,5.73,5.73,0,0,1-1.38,2,7.17,7.17,0,0,1-2.35,1.46,8.86,8.86,0,0,1-3.28.56,12.86,12.86,0,0,1-1.75-.14,6.81,6.81,0,0,1-1.9-.56,6.37,6.37,0,0,1-2-1.54A7.83,7.83,0,0,1,93.33,363a11,11,0,0,1-.72-2.57,17.47,17.47,0,0,1-.21-2.72,19.27,19.27,0,0,1,.35-3.59A10.31,10.31,0,0,1,94,350.74a7.42,7.42,0,0,1,2.51-2.53,7.69,7.69,0,0,1,4.12-1,7.28,7.28,0,0,1,3.69.84,6.17,6.17,0,0,1,2.25,2.21,8.72,8.72,0,0,1,1.09,3.15,21,21,0,0,1,.23,3.63h-13q0,.78.06,2.18a9,9,0,0,0,.58,2.8,6.11,6.11,0,0,0,1.67,2.43,4.75,4.75,0,0,0,3.28,1,6.34,6.34,0,0,0,1.67-.23,4.78,4.78,0,0,0,1.55-.74,4.27,4.27,0,0,0,1.19-1.34,4.54,4.54,0,0,0,.56-2Zm-2.22-5.95q0-.47-.16-1.5a6.35,6.35,0,0,0-.6-2,5.15,5.15,0,0,0-1.46-1.79,4.25,4.25,0,0,0-2.72-.78c-.18,0-.55,0-1.11.1a4.47,4.47,0,0,0-1.77.66,5.72,5.72,0,0,0-1.75,1.81,7.94,7.94,0,0,0-1,3.54Z"/><path class="cls-1" d="M125.39,367h-1.6q-1.19,0-1.4-.52a3.91,3.91,0,0,1-.14-1.65,9.18,9.18,0,0,1-.79.78,6.67,6.67,0,0,1-1.18.82,7.56,7.56,0,0,1-1.7.66,9.15,9.15,0,0,1-2.36.27c-.28,0-.6,0-.95,0a5.6,5.6,0,0,1-1.08-.19,4.65,4.65,0,0,1-1.12-.49,4.7,4.7,0,0,1-1.07-.87,5.09,5.09,0,0,1-1-1.75,6.22,6.22,0,0,1-.39-2.18,4.88,4.88,0,0,1,.72-2.8,6.24,6.24,0,0,1,1.41-1.55,6.65,6.65,0,0,1,2.71-1.19q1.59-.33,3.45-.56l3.41-.39v-1.83q0-.66-.08-1.44a3.5,3.5,0,0,0-.47-1.44,3.07,3.07,0,0,0-1.19-1.11,4.81,4.81,0,0,0-2.31-.45,5.56,5.56,0,0,0-2.76.56A4,4,0,0,0,114,351a3.83,3.83,0,0,0-.56,1.55,11,11,0,0,0-.1,1.26H111a6.18,6.18,0,0,1,.72-3.3,6,6,0,0,1,1.9-2,7.21,7.21,0,0,1,2.47-1,11.89,11.89,0,0,1,2.37-.27,10.4,10.4,0,0,1,2.63.35,4.3,4.3,0,0,1,2.13,1.2,3.37,3.37,0,0,1,.73,1,5.71,5.71,0,0,1,.38,1.17,8.91,8.91,0,0,1,.16,1.19q0,.6,0,1.11v4.55l-.12,4.9,0,1.71a5.3,5.3,0,0,0,.19,1.42,1.17,1.17,0,0,0,.74.68Zm-3.15-10q-1,.08-2.15.23l-2.38.35q-.5.08-1.3.27a5.71,5.71,0,0,0-1.55.64,4.17,4.17,0,0,0-1.3,1.22,3.39,3.39,0,0,0-.54,2,3.59,3.59,0,0,0,1.12,2.78,4,4,0,0,0,2.79,1,6.42,6.42,0,0,0,1.72-.25,5.61,5.61,0,0,0,1.57-.68,4.25,4.25,0,0,0,1.1-.93,3.59,3.59,0,0,0,.6-1,4.75,4.75,0,0,0,.25-1.09,9.46,9.46,0,0,0,.06-1Z"/><path class="cls-1" d="M131.92,367h-2.29V347.57h2.29v2.25a19.62,19.62,0,0,1,2-1.79,4.3,4.3,0,0,1,2.66-.78,3.54,3.54,0,0,1,1.57.27,5.54,5.54,0,0,1,.91.58v2.37a12.6,12.6,0,0,0-1.3-.77,4.34,4.34,0,0,0-2-.4,5.8,5.8,0,0,0-.91.08,3.77,3.77,0,0,0-1,.31,3.56,3.56,0,0,0-1.11.81,3,3,0,0,0-.58.95,4.4,4.4,0,0,0-.23,1,7.83,7.83,0,0,0-.06.89Z"/><path class="cls-1" d="M156.21,367h-2.29V355.75q0-.74,0-1.46t-.1-1.46q0-.31-.17-1a3.55,3.55,0,0,0-.58-1.3,4,4,0,0,0-1.26-1.13,4.32,4.32,0,0,0-2.21-.49,9.08,9.08,0,0,0-1.07.08,5.73,5.73,0,0,0-1.42.39,5.14,5.14,0,0,0-1.65,1,4.06,4.06,0,0,0-1.26,2.43,8.43,8.43,0,0,0-.08,1.07V367h-2.29V347.61h2.29v2.18l.84-.72a7.87,7.87,0,0,1,1.3-.87,8.53,8.53,0,0,1,1.83-.72,8.86,8.86,0,0,1,2.37-.29,7.41,7.41,0,0,1,2.64.49,4.3,4.3,0,0,1,2.06,1.61,5.07,5.07,0,0,1,.93,2.35,19.72,19.72,0,0,1,.16,2.39Z"/><path class="cls-1" d="M163.47,343h-2.29v-2.88h2.29Zm0,24.05h-2.29V347.61h2.29Z"/><path class="cls-1" d="M182.9,367h-2.29V355.75q0-.74,0-1.46t-.1-1.46q0-.31-.17-1a3.55,3.55,0,0,0-.58-1.3,4,4,0,0,0-1.26-1.13,4.32,4.32,0,0,0-2.21-.49,9.08,9.08,0,0,0-1.07.08,5.73,5.73,0,0,0-1.42.39,5.14,5.14,0,0,0-1.65,1,4.06,4.06,0,0,0-1.26,2.43,8.43,8.43,0,0,0-.08,1.07V367h-2.29V347.61h2.29v2.18l.84-.72a7.87,7.87,0,0,1,1.3-.87,8.53,8.53,0,0,1,1.83-.72,8.86,8.86,0,0,1,2.37-.29,7.41,7.41,0,0,1,2.64.49,4.3,4.3,0,0,1,2.06,1.61,5.07,5.07,0,0,1,.93,2.35,19.72,19.72,0,0,1,.16,2.39Z"/><path class="cls-1" d="M203.11,347.61v18.24a16.35,16.35,0,0,1-.16,2.23,10.69,10.69,0,0,1-.54,2.2,6.54,6.54,0,0,1-1.09,1.92,7.34,7.34,0,0,1-2.7,2,9.05,9.05,0,0,1-3.83.8,8.3,8.3,0,0,1-3.71-.78,5.82,5.82,0,0,1-2.31-1.87,6.75,6.75,0,0,1-.64-1.36,7,7,0,0,1-.33-2.37h2.37c0,.31.06.65.12,1a3.54,3.54,0,0,0,.35,1.09,4.1,4.1,0,0,0,1.54,1.61,5.09,5.09,0,0,0,2.82.72,6.62,6.62,0,0,0,2.1-.35,5.21,5.21,0,0,0,2.08-1.26,5.39,5.39,0,0,0,1.13-1.73,7.09,7.09,0,0,0,.47-1.9q.1-1,.14-1.79l0-1.55q-.31.31-.82.74a7.67,7.67,0,0,1-1.24.83,8.57,8.57,0,0,1-1.73.7,7.91,7.91,0,0,1-2.23.29,7.47,7.47,0,0,1-3.65-.82,7,7,0,0,1-2.41-2.16,8.89,8.89,0,0,1-1.34-3.07,15.6,15.6,0,0,1-.41-3.59,16.37,16.37,0,0,1,.41-3.58,9.48,9.48,0,0,1,1.34-3.23,7.23,7.23,0,0,1,2.68-2.51,8.39,8.39,0,0,1,5.77-.68,7.29,7.29,0,0,1,1.53.58,6.53,6.53,0,0,1,1.17.78l.93.82v-2Zm-2.18,6.89a9,9,0,0,0-.21-2,4,4,0,0,0-.87-1.69,4.84,4.84,0,0,0-1.73-1.32,5.6,5.6,0,0,0-2.43-.51,5.47,5.47,0,0,0-2.78.66,5.36,5.36,0,0,0-1.87,1.79,8.37,8.37,0,0,0-1.07,2.67,15,15,0,0,0-.35,3.33,16.07,16.07,0,0,0,.23,2.67,7.61,7.61,0,0,0,.87,2.51,5.41,5.41,0,0,0,1.77,1.87,5.29,5.29,0,0,0,3,.74,5.93,5.93,0,0,0,3.85-1.29,4.65,4.65,0,0,0,.85-.94,4.28,4.28,0,0,0,.49-1,4.09,4.09,0,0,0,.21-1l.08-1.07Z"/><path class="cls-1" d="M209.41,370.89h-1.59L209.6,367H208V364h3.19v2.92Z"/><path class="cls-1" d="M231.67,353.44q-1.36-.58-2.53-1.19a9,9,0,0,1-2-1.4,5.92,5.92,0,0,1-1.36-1.9,6.59,6.59,0,0,1-.51-2.74,8.3,8.3,0,0,1,.35-2.27,6,6,0,0,1,1.28-2.29,7,7,0,0,1,2.58-1.77,11.13,11.13,0,0,1,4.29-.7l1,0a11.78,11.78,0,0,1,1.5.19,9.21,9.21,0,0,1,1.69.51,5.33,5.33,0,0,1,1.57,1,5.17,5.17,0,0,1,1.15,1.44,7,7,0,0,1,.6,1.57,9.71,9.71,0,0,1,.25,1.54q.06.74.06,1.28h-2.68q0-.54,0-1.2a4.47,4.47,0,0,0-.31-1.36,3.94,3.94,0,0,0-1.87-2.35,6.28,6.28,0,0,0-3-.72,6.54,6.54,0,0,0-4.11,1.26,4.23,4.23,0,0,0-1.64,3.56,4.29,4.29,0,0,0,.41,2,4.47,4.47,0,0,0,1.12,1.4,7.68,7.68,0,0,0,1.72,1.07q1,.47,2.21,1l1.78.78q1.24.54,2.48,1.15a9.79,9.79,0,0,1,2.23,1.48,6.91,6.91,0,0,1,1.61,2.12,6.75,6.75,0,0,1,.62,3,8.54,8.54,0,0,1-.21,1.9,6.41,6.41,0,0,1-.68,1.75,6.14,6.14,0,0,1-1.47,1.88,7.78,7.78,0,0,1-2,1.22,9.67,9.67,0,0,1-2.29.66,15.61,15.61,0,0,1-2.48.19,14.38,14.38,0,0,1-3.72-.49,6.69,6.69,0,0,1-3.14-1.85,6.44,6.44,0,0,1-1.57-2.82,13.05,13.05,0,0,1-.41-3.28l2.84,0c0,.31,0,.66,0,1a6.44,6.44,0,0,0,.17,1.24,8.11,8.11,0,0,0,.43,1.3,4.21,4.21,0,0,0,.81,1.22,6.22,6.22,0,0,0,1.65,1.15,6.94,6.94,0,0,0,3.2.6,7.47,7.47,0,0,0,2.79-.47,5.22,5.22,0,0,0,1.88-1.22,4.66,4.66,0,0,0,1-1.75,6.39,6.39,0,0,0,.33-2,5,5,0,0,0-.43-2.18,4.39,4.39,0,0,0-1.18-1.52,9,9,0,0,0-1.75-1.11q-1-.49-2.16-1Z"/><path class="cls-1" d="M260.62,367h-2.29V355.86q0-1.17,0-2.18a8.82,8.82,0,0,0-.25-1.85,3.92,3.92,0,0,0-.7-1.46,3.52,3.52,0,0,0-1.35-1,3.77,3.77,0,0,0-1-.33,5.89,5.89,0,0,0-1.07-.1,6.79,6.79,0,0,0-2.52.49,4.78,4.78,0,0,0-2,1.38,3.55,3.55,0,0,0-.8,1.6,12.59,12.59,0,0,0-.18,1.52V367h-2.29V339.57h2.29v10.22q.27-.27.8-.72a7.09,7.09,0,0,1,1.3-.85,10.3,10.3,0,0,1,1.81-.72,8.3,8.3,0,0,1,2.39-.31,7.37,7.37,0,0,1,2.6.47,4.62,4.62,0,0,1,2.06,1.52,4.54,4.54,0,0,1,1,2.33q.14,1.24.17,2.37Z"/><path class="cls-1" d="M279.2,367h-1.6q-1.19,0-1.4-.52a3.9,3.9,0,0,1-.14-1.65,9.38,9.38,0,0,1-.79.78,6.68,6.68,0,0,1-1.18.82,7.53,7.53,0,0,1-1.7.66,9.15,9.15,0,0,1-2.36.27c-.28,0-.6,0-.95,0a5.59,5.59,0,0,1-1.08-.19,4.64,4.64,0,0,1-1.12-.49,4.7,4.7,0,0,1-1.06-.87,5.07,5.07,0,0,1-1-1.75,6.22,6.22,0,0,1-.39-2.18,4.88,4.88,0,0,1,.72-2.8,6.25,6.25,0,0,1,1.41-1.55,6.65,6.65,0,0,1,2.71-1.19q1.59-.33,3.45-.56l3.41-.39v-1.83q0-.66-.08-1.44a3.49,3.49,0,0,0-.47-1.44,3.09,3.09,0,0,0-1.19-1.11,4.81,4.81,0,0,0-2.31-.45,5.56,5.56,0,0,0-2.76.56,4,4,0,0,0-1.44,1.32,3.84,3.84,0,0,0-.56,1.55,10.9,10.9,0,0,0-.1,1.26h-2.33a6.18,6.18,0,0,1,.72-3.3,6,6,0,0,1,1.9-2,7.21,7.21,0,0,1,2.47-1,11.89,11.89,0,0,1,2.37-.27,10.41,10.41,0,0,1,2.63.35,4.31,4.31,0,0,1,2.13,1.2,3.39,3.39,0,0,1,.73,1,5.74,5.74,0,0,1,.38,1.17,8.83,8.83,0,0,1,.16,1.19q0,.6,0,1.11v4.55l-.12,4.9,0,1.71a5.32,5.32,0,0,0,.19,1.42,1.17,1.17,0,0,0,.74.68Zm-3.15-10q-1,.08-2.15.23l-2.38.35q-.5.08-1.3.27a5.71,5.71,0,0,0-1.55.64,4.16,4.16,0,0,0-1.3,1.22,3.39,3.39,0,0,0-.54,2A3.59,3.59,0,0,0,268,364.5a4,4,0,0,0,2.79,1,6.43,6.43,0,0,0,1.72-.25,5.61,5.61,0,0,0,1.57-.68,4.24,4.24,0,0,0,1.1-.93,3.6,3.6,0,0,0,.6-1,4.77,4.77,0,0,0,.25-1.09,9.46,9.46,0,0,0,.06-1Z"/><path class="cls-1" d="M285.73,367h-2.29V347.57h2.29v2.25a19.66,19.66,0,0,1,2-1.79,4.3,4.3,0,0,1,2.66-.78,3.54,3.54,0,0,1,1.57.27,5.58,5.58,0,0,1,.91.58v2.37a12.6,12.6,0,0,0-1.3-.77,4.34,4.34,0,0,0-2-.4,5.8,5.8,0,0,0-.91.08,3.76,3.76,0,0,0-1,.31,3.55,3.55,0,0,0-1.11.81,3,3,0,0,0-.58.95,4.37,4.37,0,0,0-.23,1,7.83,7.83,0,0,0-.06.89Z"/><path class="cls-1" d="M297.85,343h-2.29v-2.88h2.29Zm0,24.05h-2.29V347.61h2.29Z"/><path class="cls-1" d="M317.28,367H315V355.75q0-.74,0-1.46t-.1-1.46q0-.31-.17-1a3.54,3.54,0,0,0-.58-1.3,4,4,0,0,0-1.26-1.13,4.32,4.32,0,0,0-2.21-.49,9.07,9.07,0,0,0-1.07.08,5.74,5.74,0,0,0-1.42.39,5.14,5.14,0,0,0-1.65,1,4.06,4.06,0,0,0-1.26,2.43,8.34,8.34,0,0,0-.08,1.07V367h-2.29V347.61h2.29v2.18l.84-.72a7.87,7.87,0,0,1,1.3-.87,8.53,8.53,0,0,1,1.83-.72,8.86,8.86,0,0,1,2.37-.29,7.4,7.4,0,0,1,2.64.49,4.3,4.3,0,0,1,2.06,1.61,5.05,5.05,0,0,1,.93,2.35,19.62,19.62,0,0,1,.16,2.39Z"/><path class="cls-1" d="M337.49,347.61v18.24a16.35,16.35,0,0,1-.16,2.23,10.69,10.69,0,0,1-.54,2.2,6.54,6.54,0,0,1-1.09,1.92,7.35,7.35,0,0,1-2.7,2,9,9,0,0,1-3.83.8,8.29,8.29,0,0,1-3.71-.78,5.83,5.83,0,0,1-2.31-1.87,6.72,6.72,0,0,1-.64-1.36,7,7,0,0,1-.33-2.37h2.37c0,.31.06.65.12,1a3.55,3.55,0,0,0,.35,1.09,4.11,4.11,0,0,0,1.54,1.61,5.09,5.09,0,0,0,2.82.72,6.62,6.62,0,0,0,2.1-.35,5.2,5.2,0,0,0,2.08-1.26,5.37,5.37,0,0,0,1.13-1.73,7.09,7.09,0,0,0,.47-1.9q.1-1,.14-1.79l0-1.55q-.31.31-.82.74a7.62,7.62,0,0,1-1.24.83,8.55,8.55,0,0,1-1.73.7,7.91,7.91,0,0,1-2.23.29,7.47,7.47,0,0,1-3.65-.82,7,7,0,0,1-2.41-2.16,8.87,8.87,0,0,1-1.34-3.07,15.57,15.57,0,0,1-.41-3.59,16.35,16.35,0,0,1,.41-3.58,9.47,9.47,0,0,1,1.34-3.23,7.22,7.22,0,0,1,2.68-2.51,8.39,8.39,0,0,1,5.77-.68,7.28,7.28,0,0,1,1.54.58,6.53,6.53,0,0,1,1.17.78l.93.82v-2Zm-2.18,6.89a9,9,0,0,0-.21-2,4,4,0,0,0-.87-1.69,4.86,4.86,0,0,0-1.73-1.32,5.6,5.6,0,0,0-2.43-.51,5.47,5.47,0,0,0-2.78.66,5.35,5.35,0,0,0-1.87,1.79,8.4,8.4,0,0,0-1.07,2.67,15.06,15.06,0,0,0-.35,3.33,16.07,16.07,0,0,0,.23,2.67,7.62,7.62,0,0,0,.87,2.51,5.41,5.41,0,0,0,1.77,1.87,5.29,5.29,0,0,0,3,.74,5.93,5.93,0,0,0,3.85-1.29,4.67,4.67,0,0,0,.85-.94,4.26,4.26,0,0,0,.49-1,4,4,0,0,0,.21-1l.08-1.07Z"/><path class="cls-1" d="M343.78,370.89h-1.59L344,367h-1.59V364h3.19v2.92Z"/><path class="cls-1" d="M380.23,358.69q-.08.7-.23,1.57a9.76,9.76,0,0,1-.5,1.79,8.07,8.07,0,0,1-1,1.83,8.24,8.24,0,0,1-1.75,1.73,8.77,8.77,0,0,1-3.48,1.55,17.74,17.74,0,0,1-3.36.35q-.54,0-1.67-.08a9.16,9.16,0,0,1-2.43-.54,9,9,0,0,1-2.58-1.5,7.41,7.41,0,0,1-2.1-2.93,10.8,10.8,0,0,1-.68-2,16.69,16.69,0,0,1-.37-2.14q-.12-1.09-.16-2.14t0-1.94q0-1.48.08-2.93a28.32,28.32,0,0,1,.31-2.93,20.68,20.68,0,0,1,.66-2.82,9.73,9.73,0,0,1,1.24-2.58,8.31,8.31,0,0,1,2.23-2.23,9.77,9.77,0,0,1,2.41-1.17,9.23,9.23,0,0,1,2.18-.43c.66,0,1.17-.06,1.54-.06a14.88,14.88,0,0,1,2.92.27,10.52,10.52,0,0,1,1.32.37,7.69,7.69,0,0,1,1.48.7,7.35,7.35,0,0,1,1.44,1.17,7.19,7.19,0,0,1,1.24,1.81,6.79,6.79,0,0,1,.86,2.53q.12,1.17.12,1.71h-2.64a7.17,7.17,0,0,0-.62-3.15,5.85,5.85,0,0,0-1.59-2.06,5.94,5.94,0,0,0-2.21-1.11,9.82,9.82,0,0,0-2.53-.33,8.73,8.73,0,0,0-2.78.45,5.94,5.94,0,0,0-2.35,1.46,6.9,6.9,0,0,0-1.07,1.42,8.89,8.89,0,0,0-.83,2.12,18.73,18.73,0,0,0-.52,3.09q-.18,1.81-.17,4.37,0,1.4.06,2.6a19.33,19.33,0,0,0,.25,2.33q.16.93.41,1.87a7.59,7.59,0,0,0,2.31,3.52,6.62,6.62,0,0,0,1.71,1,6,6,0,0,0,1.59.37c.49,0,.89.06,1.2.06a9.55,9.55,0,0,0,2.85-.43,7,7,0,0,0,2.34-1.21,5.32,5.32,0,0,0,1.16-1.34,7.32,7.32,0,0,0,.66-1.42,7.92,7.92,0,0,0,.33-1.36c.06-.44.11-.83.14-1.17Z"/><path class="cls-1" d="M399,356.43a30.55,30.55,0,0,1-.14,3.5,10.26,10.26,0,0,1-1,3.56,7.15,7.15,0,0,1-2.41,2.78,7.58,7.58,0,0,1-4.41,1.13,8.34,8.34,0,0,1-4.24-.93,6.73,6.73,0,0,1-2.45-2.37,8.85,8.85,0,0,1-1.13-3.21,22.45,22.45,0,0,1-.27-3.4q0-.66.06-1.69a14.72,14.72,0,0,1,.29-2.16,11.31,11.31,0,0,1,.74-2.27,6.73,6.73,0,0,1,1.42-2.06,7.1,7.1,0,0,1,2.29-1.5,8.63,8.63,0,0,1,3.36-.58,7.72,7.72,0,0,1,4.35,1,7,7,0,0,1,2.33,2.53,8.52,8.52,0,0,1,1,3Q399,355.38,399,356.43Zm-2.41.27q0-1-.19-2.29a8.31,8.31,0,0,0-.7-2.51,5.31,5.31,0,0,0-1.59-2,4.64,4.64,0,0,0-2.91-.82,5.31,5.31,0,0,0-2.43.51,5.06,5.06,0,0,0-1.63,1.28,5.51,5.51,0,0,0-1,1.75,14,14,0,0,0-.5,1.88,10.33,10.33,0,0,0-.19,1.69q0,.78,0,1.2a21.68,21.68,0,0,0,.17,2.66,8.51,8.51,0,0,0,.76,2.64,5.24,5.24,0,0,0,1.73,2,5.3,5.3,0,0,0,3.13.82,4.45,4.45,0,0,0,3.07-1,5.74,5.74,0,0,0,1.59-2.37,10.57,10.57,0,0,0,.6-2.92Q396.59,357.79,396.59,356.71Z"/><path class="cls-1" d="M417.65,367h-2.29V355.75q0-.74,0-1.46t-.1-1.46q0-.31-.17-1a3.54,3.54,0,0,0-.58-1.3,4,4,0,0,0-1.26-1.13,4.32,4.32,0,0,0-2.21-.49,9.07,9.07,0,0,0-1.07.08,5.74,5.74,0,0,0-1.42.39,5.14,5.14,0,0,0-1.65,1,4.06,4.06,0,0,0-1.26,2.43,8.34,8.34,0,0,0-.08,1.07V367h-2.29V347.61h2.29v2.18l.84-.72a7.87,7.87,0,0,1,1.3-.87,8.53,8.53,0,0,1,1.83-.72,8.86,8.86,0,0,1,2.37-.29,7.4,7.4,0,0,1,2.64.49,4.3,4.3,0,0,1,2.06,1.61,5.05,5.05,0,0,1,.93,2.35,19.62,19.62,0,0,1,.16,2.39Z"/><path class="cls-1" d="M437.08,367h-2.29V355.75q0-.74,0-1.46t-.1-1.46q0-.31-.17-1a3.54,3.54,0,0,0-.58-1.3,4,4,0,0,0-1.26-1.13,4.32,4.32,0,0,0-2.21-.49,9.07,9.07,0,0,0-1.07.08,5.74,5.74,0,0,0-1.42.39,5.14,5.14,0,0,0-1.65,1,4.06,4.06,0,0,0-1.26,2.43,8.34,8.34,0,0,0-.08,1.07V367h-2.29V347.61H425v2.18l.84-.72a7.87,7.87,0,0,1,1.3-.87,8.53,8.53,0,0,1,1.83-.72,8.86,8.86,0,0,1,2.37-.29,7.4,7.4,0,0,1,2.64.49,4.3,4.3,0,0,1,2.06,1.61,5.05,5.05,0,0,1,.93,2.35,19.62,19.62,0,0,1,.16,2.39Z"/><path class="cls-1" d="M456.71,361.17a5.86,5.86,0,0,1-.45,2.2,5.72,5.72,0,0,1-1.38,2,7.18,7.18,0,0,1-2.35,1.46,8.87,8.87,0,0,1-3.28.56,12.83,12.83,0,0,1-1.75-.14,6.81,6.81,0,0,1-1.9-.56,6.36,6.36,0,0,1-2-1.54,7.81,7.81,0,0,1-1.34-2.16,11,11,0,0,1-.72-2.57,17.48,17.48,0,0,1-.21-2.72,19.27,19.27,0,0,1,.35-3.59,10.33,10.33,0,0,1,1.26-3.38,7.42,7.42,0,0,1,2.51-2.53,7.69,7.69,0,0,1,4.12-1,7.28,7.28,0,0,1,3.69.84,6.17,6.17,0,0,1,2.25,2.21,8.73,8.73,0,0,1,1.09,3.15,21,21,0,0,1,.23,3.63h-13q0,.78.06,2.18a9,9,0,0,0,.58,2.8,6.11,6.11,0,0,0,1.67,2.43,4.75,4.75,0,0,0,3.28,1,6.34,6.34,0,0,0,1.67-.23,4.77,4.77,0,0,0,1.55-.74,4.26,4.26,0,0,0,1.19-1.34,4.55,4.55,0,0,0,.56-2Zm-2.21-5.95q0-.47-.16-1.5a6.34,6.34,0,0,0-.6-2,5.15,5.15,0,0,0-1.46-1.79,4.25,4.25,0,0,0-2.72-.78c-.18,0-.55,0-1.11.1a4.47,4.47,0,0,0-1.77.66,5.72,5.72,0,0,0-1.75,1.81,7.94,7.94,0,0,0-1,3.54Z"/><path class="cls-1" d="M475.32,360.59c0,.26-.07.59-.14,1a7.25,7.25,0,0,1-.35,1.3,6.45,6.45,0,0,1-.76,1.44,7,7,0,0,1-1.36,1.44,6.63,6.63,0,0,1-2.45,1.3,10,10,0,0,1-2.56.33,7.57,7.57,0,0,1-5.07-1.63,7.85,7.85,0,0,1-2.47-4.9,19.66,19.66,0,0,1-.27-3.3q0-1,.1-2a15.53,15.53,0,0,1,.33-2q.12-.5.37-1.28a6.92,6.92,0,0,1,.76-1.57,8.64,8.64,0,0,1,1.28-1.55,6.85,6.85,0,0,1,2-1.3,9.33,9.33,0,0,1,3.42-.62q.54,0,1.22.06a7.44,7.44,0,0,1,1.42.27,7.24,7.24,0,0,1,1.48.62,5.6,5.6,0,0,1,1.36,1.07,5.19,5.19,0,0,1,.91,1.32,8,8,0,0,1,.5,1.36,8.14,8.14,0,0,1,.23,1.22c0,.38.06.68.06.91h-2.45a5.62,5.62,0,0,0-.41-2.25,4.47,4.47,0,0,0-1.07-1.54,4,4,0,0,0-1.53-.87,6.19,6.19,0,0,0-1.85-.27,7.64,7.64,0,0,0-1.71.25,4.16,4.16,0,0,0-2.06,1.38A5.81,5.81,0,0,0,463,353a11.5,11.5,0,0,0-.43,2.16q-.08.54-.12,1.11t0,1.11a15.73,15.73,0,0,0,.29,3.09,8,8,0,0,0,1,2.56,5.27,5.27,0,0,0,1.69,1.77,4.54,4.54,0,0,0,2.51.66,5.85,5.85,0,0,0,1.87-.31,4,4,0,0,0,2.29-1.9,6.76,6.76,0,0,0,.45-1,6.3,6.3,0,0,0,.25-1q.08-.45.12-.72Z"/><path class="cls-1" d="M481.5,349.36l-.12,11.85q0,1.67.1,2.31a2.09,2.09,0,0,0,.33,1,2,2,0,0,0,.74.62,3,3,0,0,0,1.48.31,4.32,4.32,0,0,0,1.48-.21l1.09-.41v1.87q-.54.19-1.38.43a7.66,7.66,0,0,1-2,.23,5.39,5.39,0,0,1-1.73-.23,4.15,4.15,0,0,1-1.11-.54,2.52,2.52,0,0,1-.62-.6q-.19-.29-.23-.37a2.78,2.78,0,0,1-.25-.6,4,4,0,0,1-.14-.8q0-.47-.06-1.13t0-1.55l.16-12.2h-3.11v-1.75h3.15v-4.39l2.41-.35-.08,4.74h3.81v1.75Z"/><path class="cls-1" d="M491.29,343H489v-2.88h2.29Zm0,24.05H489V347.61h2.29Z"/><path class="cls-1" d="M510.72,367h-2.29V355.75q0-.74,0-1.46t-.1-1.46q0-.31-.17-1a3.54,3.54,0,0,0-.58-1.3,4,4,0,0,0-1.26-1.13,4.32,4.32,0,0,0-2.21-.49A9.07,9.07,0,0,0,503,349a5.74,5.74,0,0,0-1.42.39,5.14,5.14,0,0,0-1.65,1,4.06,4.06,0,0,0-1.26,2.43,8.34,8.34,0,0,0-.08,1.07V367H496.3V347.61h2.29v2.18l.84-.72a7.87,7.87,0,0,1,1.3-.87,8.53,8.53,0,0,1,1.83-.72,8.86,8.86,0,0,1,2.37-.29,7.4,7.4,0,0,1,2.64.49,4.3,4.3,0,0,1,2.06,1.61,5.05,5.05,0,0,1,.93,2.35,19.62,19.62,0,0,1,.16,2.39Z"/><path class="cls-1" d="M530.93,347.61v18.24a16.35,16.35,0,0,1-.16,2.23,10.69,10.69,0,0,1-.54,2.2,6.54,6.54,0,0,1-1.09,1.92,7.35,7.35,0,0,1-2.7,2,9,9,0,0,1-3.83.8,8.29,8.29,0,0,1-3.71-.78,5.83,5.83,0,0,1-2.31-1.87,6.72,6.72,0,0,1-.64-1.36,7,7,0,0,1-.33-2.37H518c0,.31.06.65.12,1a3.55,3.55,0,0,0,.35,1.09,4.11,4.11,0,0,0,1.54,1.61,5.09,5.09,0,0,0,2.82.72,6.62,6.62,0,0,0,2.1-.35,5.2,5.2,0,0,0,2.08-1.26,5.37,5.37,0,0,0,1.13-1.73,7.09,7.09,0,0,0,.47-1.9q.1-1,.14-1.79l0-1.55q-.31.31-.82.74a7.62,7.62,0,0,1-1.24.83,8.55,8.55,0,0,1-1.73.7,7.91,7.91,0,0,1-2.23.29,7.47,7.47,0,0,1-3.65-.82,7,7,0,0,1-2.41-2.16,8.87,8.87,0,0,1-1.34-3.07,15.57,15.57,0,0,1-.41-3.59,16.35,16.35,0,0,1,.41-3.58,9.47,9.47,0,0,1,1.34-3.23,7.22,7.22,0,0,1,2.68-2.51,8.39,8.39,0,0,1,5.77-.68,7.28,7.28,0,0,1,1.54.58,6.53,6.53,0,0,1,1.17.78l.93.82v-2Zm-2.18,6.89a9,9,0,0,0-.21-2,4,4,0,0,0-.87-1.69,4.86,4.86,0,0,0-1.73-1.32,5.6,5.6,0,0,0-2.43-.51,5.47,5.47,0,0,0-2.78.66,5.35,5.35,0,0,0-1.87,1.79,8.4,8.4,0,0,0-1.07,2.67,15.06,15.06,0,0,0-.35,3.33,16.07,16.07,0,0,0,.23,2.67,7.62,7.62,0,0,0,.87,2.51,5.41,5.41,0,0,0,1.77,1.87,5.29,5.29,0,0,0,3,.74,5.93,5.93,0,0,0,3.85-1.29A4.67,4.67,0,0,0,528,363a4.26,4.26,0,0,0,.49-1,4,4,0,0,0,.21-1l.08-1.07Z"/><path class="cls-1" d="M559.26,367h-1.6q-1.19,0-1.4-.52a3.9,3.9,0,0,1-.14-1.65,9.38,9.38,0,0,1-.79.78,6.68,6.68,0,0,1-1.18.82,7.53,7.53,0,0,1-1.7.66,9.15,9.15,0,0,1-2.36.27c-.28,0-.6,0-.95,0a5.59,5.59,0,0,1-1.08-.19,4.64,4.64,0,0,1-1.12-.49,4.7,4.7,0,0,1-1.06-.87,5.07,5.07,0,0,1-1-1.75,6.22,6.22,0,0,1-.39-2.18,4.88,4.88,0,0,1,.72-2.8,6.25,6.25,0,0,1,1.41-1.55,6.65,6.65,0,0,1,2.71-1.19q1.59-.33,3.45-.56l3.41-.39v-1.83q0-.66-.08-1.44a3.49,3.49,0,0,0-.47-1.44,3.09,3.09,0,0,0-1.19-1.11,4.81,4.81,0,0,0-2.31-.45,5.56,5.56,0,0,0-2.76.56,4,4,0,0,0-1.44,1.32,3.84,3.84,0,0,0-.56,1.55,10.9,10.9,0,0,0-.1,1.26h-2.33a6.18,6.18,0,0,1,.72-3.3,6,6,0,0,1,1.9-2,7.21,7.21,0,0,1,2.47-1,11.89,11.89,0,0,1,2.37-.27,10.41,10.41,0,0,1,2.63.35,4.31,4.31,0,0,1,2.13,1.2,3.39,3.39,0,0,1,.73,1,5.74,5.74,0,0,1,.38,1.17,8.83,8.83,0,0,1,.16,1.19q0,.6,0,1.11v4.55l-.12,4.9,0,1.71a5.32,5.32,0,0,0,.19,1.42,1.17,1.17,0,0,0,.74.68Zm-3.15-10q-1,.08-2.15.23l-2.38.35q-.5.08-1.3.27a5.71,5.71,0,0,0-1.55.64,4.16,4.16,0,0,0-1.3,1.22,3.39,3.39,0,0,0-.54,2A3.59,3.59,0,0,0,548,364.5a4,4,0,0,0,2.79,1,6.43,6.43,0,0,0,1.72-.25,5.61,5.61,0,0,0,1.57-.68,4.24,4.24,0,0,0,1.1-.93,3.6,3.6,0,0,0,.6-1,4.77,4.77,0,0,0,.25-1.09,9.46,9.46,0,0,0,.06-1Z"/><path class="cls-1" d="M577.91,367h-2.29V355.75q0-.74,0-1.46t-.1-1.46q0-.31-.17-1a3.54,3.54,0,0,0-.58-1.3,4,4,0,0,0-1.26-1.13,4.32,4.32,0,0,0-2.21-.49,9.07,9.07,0,0,0-1.07.08,5.74,5.74,0,0,0-1.42.39,5.14,5.14,0,0,0-1.65,1,4.06,4.06,0,0,0-1.26,2.43,8.34,8.34,0,0,0-.08,1.07V367h-2.29V347.61h2.29v2.18l.84-.72a7.87,7.87,0,0,1,1.3-.87,8.53,8.53,0,0,1,1.83-.72,8.86,8.86,0,0,1,2.37-.29,7.4,7.4,0,0,1,2.64.49,4.3,4.3,0,0,1,2.06,1.61,5.05,5.05,0,0,1,.93,2.35,19.62,19.62,0,0,1,.16,2.39Z"/><path class="cls-1" d="M598.08,367h-2.29v-2.41a9,9,0,0,1-.68.78,6,6,0,0,1-1.17.91,7.79,7.79,0,0,1-1.77.78,8.19,8.19,0,0,1-2.45.33,7.42,7.42,0,0,1-3.5-.76,6.42,6.42,0,0,1-2.35-2.1,9.36,9.36,0,0,1-1.34-3.13,16.63,16.63,0,0,1-.43-3.89,15.94,15.94,0,0,1,.52-4.24,9.33,9.33,0,0,1,1.57-3.26,7.21,7.21,0,0,1,2.62-2.12,8.38,8.38,0,0,1,3.67-.76,7.47,7.47,0,0,1,2.21.29,6.34,6.34,0,0,1,1.54.68,4.53,4.53,0,0,1,1,.82l.56.66v-10h2.29Zm-2.25-13a6.08,6.08,0,0,0-.37-2.23,4.19,4.19,0,0,0-1.26-1.68,5,5,0,0,0-1.57-.86,6,6,0,0,0-2-.31,5.32,5.32,0,0,0-2.68.6,5.75,5.75,0,0,0-1.59,1.27,6.4,6.4,0,0,0-1.32,2.67,15,15,0,0,0-.39,3.57q0,1,.14,2.48a10.12,10.12,0,0,0,.68,2.83,6,6,0,0,0,1.67,2.34,4.59,4.59,0,0,0,3.11,1,6.3,6.3,0,0,0,2.51-.51,4.82,4.82,0,0,0,1.88-1.37,4.21,4.21,0,0,0,1-2.21q.15-1.23.19-2.25Z"/><path class="cls-1" d="M640.51,367H638l-.31-23.24v-.85c0-.23,0-.45,0-.66s0-.45,0-.72,0-.63-.06-1.07q-.19.62-.35,1c-.1.29-.19.54-.27.78s-.16.47-.25.7l-.33.85L627.88,367h-2.25L617,343.3q-.19-.47-.31-.78c-.08-.21-.15-.41-.21-.6l-.21-.64-.27-.82q0,1.13,0,1.71v1.48L615.52,367h-2.33l.66-27.44h4.59L625.32,359q.23.74.43,1.28t.37,1.09l.37,1.15q.19.6.43,1.46.27-.89.47-1.44l.37-1q.17-.49.35-1t.49-1.4l7-19.43h4.62Z"/><path class="cls-1" d="M661.26,356.43a30.55,30.55,0,0,1-.14,3.5,10.26,10.26,0,0,1-1,3.56,7.15,7.15,0,0,1-2.41,2.78,7.58,7.58,0,0,1-4.41,1.13,8.34,8.34,0,0,1-4.24-.93,6.73,6.73,0,0,1-2.45-2.37,8.85,8.85,0,0,1-1.13-3.21,22.45,22.45,0,0,1-.27-3.4q0-.66.06-1.69a14.72,14.72,0,0,1,.29-2.16,11.31,11.31,0,0,1,.74-2.27,6.73,6.73,0,0,1,1.42-2.06,7.1,7.1,0,0,1,2.29-1.5,8.63,8.63,0,0,1,3.36-.58,7.72,7.72,0,0,1,4.35,1,7,7,0,0,1,2.33,2.53,8.52,8.52,0,0,1,1,3Q661.22,355.38,661.26,356.43Zm-2.41.27q0-1-.19-2.29a8.31,8.31,0,0,0-.7-2.51,5.31,5.31,0,0,0-1.59-2,4.64,4.64,0,0,0-2.91-.82,5.31,5.31,0,0,0-2.43.51,5.06,5.06,0,0,0-1.63,1.28,5.51,5.51,0,0,0-1,1.75,14,14,0,0,0-.5,1.88,10.33,10.33,0,0,0-.19,1.69q0,.78,0,1.2a21.68,21.68,0,0,0,.17,2.66,8.51,8.51,0,0,0,.76,2.64,5.24,5.24,0,0,0,1.73,2,5.3,5.3,0,0,0,3.13.82,4.45,4.45,0,0,0,3.07-1,5.74,5.74,0,0,0,1.59-2.37,10.57,10.57,0,0,0,.6-2.92Q658.85,357.79,658.85,356.71Z"/><path class="cls-1" d="M671.79,367h-2.21L663,347.61h2.68L670,361q.16.54.27.91l.21.68c.06.21.14.42.21.64s.16.49.23.8c.13-.39.23-.66.29-.82l.29-.74,5.32-14.84h2.29Z"/><path class="cls-1" d="M684,343h-2.29v-2.88H684ZM684,367h-2.29V347.61H684Z"/><path class="cls-1" d="M703.39,367h-2.29V355.75q0-.74,0-1.46t-.1-1.46q0-.31-.17-1a3.54,3.54,0,0,0-.58-1.3,4,4,0,0,0-1.26-1.13,4.32,4.32,0,0,0-2.21-.49,9.07,9.07,0,0,0-1.07.08,5.74,5.74,0,0,0-1.42.39,5.14,5.14,0,0,0-1.65,1,4.06,4.06,0,0,0-1.26,2.43,8.34,8.34,0,0,0-.08,1.07V367H689V347.61h2.29v2.18l.84-.72a7.87,7.87,0,0,1,1.3-.87,8.53,8.53,0,0,1,1.83-.72,8.86,8.86,0,0,1,2.37-.29,7.4,7.4,0,0,1,2.64.49,4.3,4.3,0,0,1,2.06,1.61,5.05,5.05,0,0,1,.93,2.35,19.62,19.62,0,0,1,.16,2.39Z"/><path class="cls-1" d="M723.59,347.61v18.24a16.35,16.35,0,0,1-.16,2.23,10.69,10.69,0,0,1-.54,2.2,6.54,6.54,0,0,1-1.09,1.92,7.35,7.35,0,0,1-2.7,2,9,9,0,0,1-3.83.8,8.29,8.29,0,0,1-3.71-.78,5.83,5.83,0,0,1-2.31-1.87,6.72,6.72,0,0,1-.64-1.36,7,7,0,0,1-.33-2.37h2.37c0,.31.06.65.12,1a3.55,3.55,0,0,0,.35,1.09,4.11,4.11,0,0,0,1.54,1.61,5.09,5.09,0,0,0,2.82.72,6.62,6.62,0,0,0,2.1-.35,5.2,5.2,0,0,0,2.08-1.26,5.37,5.37,0,0,0,1.13-1.73,7.09,7.09,0,0,0,.47-1.9q.1-1,.14-1.79l0-1.55q-.31.31-.82.74a7.62,7.62,0,0,1-1.24.83,8.55,8.55,0,0,1-1.73.7,7.91,7.91,0,0,1-2.23.29,7.47,7.47,0,0,1-3.65-.82,7,7,0,0,1-2.41-2.16A8.87,8.87,0,0,1,708,361a15.57,15.57,0,0,1-.41-3.59,16.35,16.35,0,0,1,.41-3.58,9.47,9.47,0,0,1,1.34-3.23A7.22,7.22,0,0,1,712,348.1a8.39,8.39,0,0,1,5.77-.68,7.28,7.28,0,0,1,1.54.58,6.53,6.53,0,0,1,1.17.78l.93.82v-2Zm-2.18,6.89a9,9,0,0,0-.21-2,4,4,0,0,0-.87-1.69,4.86,4.86,0,0,0-1.73-1.32,5.6,5.6,0,0,0-2.43-.51,5.47,5.47,0,0,0-2.78.66,5.35,5.35,0,0,0-1.87,1.79,8.4,8.4,0,0,0-1.07,2.67,15.06,15.06,0,0,0-.35,3.33,16.07,16.07,0,0,0,.23,2.67,7.62,7.62,0,0,0,.87,2.51,5.41,5.41,0,0,0,1.77,1.87,5.29,5.29,0,0,0,3,.74,5.93,5.93,0,0,0,3.85-1.29,4.67,4.67,0,0,0,.85-.94,4.26,4.26,0,0,0,.49-1,4,4,0,0,0,.21-1l.08-1.07Z"/><path class="cls-1" d="M741.82,367h-2.68V339.57h14.57v2.06H741.82v10.76H753v2.06H741.82Z"/><path class="cls-1" d="M770.57,356.43a30.55,30.55,0,0,1-.14,3.5,10.26,10.26,0,0,1-1,3.56,7.15,7.15,0,0,1-2.41,2.78,7.58,7.58,0,0,1-4.41,1.13,8.34,8.34,0,0,1-4.24-.93,6.73,6.73,0,0,1-2.45-2.37,8.85,8.85,0,0,1-1.13-3.21,22.45,22.45,0,0,1-.27-3.4q0-.66.06-1.69a14.72,14.72,0,0,1,.29-2.16,11.31,11.31,0,0,1,.74-2.27,6.73,6.73,0,0,1,1.42-2.06,7.1,7.1,0,0,1,2.29-1.5,8.63,8.63,0,0,1,3.36-.58,7.72,7.72,0,0,1,4.35,1,7,7,0,0,1,2.33,2.53,8.52,8.52,0,0,1,1,3Q770.54,355.38,770.57,356.43Zm-2.41.27q0-1-.19-2.29a8.31,8.31,0,0,0-.7-2.51,5.31,5.31,0,0,0-1.59-2,4.64,4.64,0,0,0-2.91-.82,5.31,5.31,0,0,0-2.43.51,5.06,5.06,0,0,0-1.63,1.28,5.51,5.51,0,0,0-1,1.75,14,14,0,0,0-.5,1.88,10.33,10.33,0,0,0-.19,1.69q0,.78,0,1.2a21.68,21.68,0,0,0,.17,2.66,8.51,8.51,0,0,0,.76,2.64,5.24,5.24,0,0,0,1.73,2,5.3,5.3,0,0,0,3.13.82,4.45,4.45,0,0,0,3.07-1,5.74,5.74,0,0,0,1.59-2.37,10.57,10.57,0,0,0,.6-2.92Q768.17,357.79,768.17,356.71Z"/><path class="cls-1" d="M777.1,367h-2.29V347.57h2.29v2.25a19.66,19.66,0,0,1,2-1.79,4.3,4.3,0,0,1,2.66-.78,3.54,3.54,0,0,1,1.57.27,5.58,5.58,0,0,1,.91.58v2.37a12.6,12.6,0,0,0-1.3-.77,4.34,4.34,0,0,0-2-.4,5.8,5.8,0,0,0-.91.08,3.76,3.76,0,0,0-1,.31,3.55,3.55,0,0,0-1.11.81,3,3,0,0,0-.58.95,4.37,4.37,0,0,0-.23,1,7.83,7.83,0,0,0-.06.89Z"/><path class="cls-1" d="M805,367h-2.45l-3.81-13.33-.21-.84c-.07-.25-.13-.48-.19-.7s-.12-.45-.18-.7-.12-.54-.19-.87l-.31.93q-.12.35-.17.58c0,.16-.08.29-.12.41a3,3,0,0,0-.1.37L792.76,367h-2.41l-5.79-19.43h2.6l4,14.34c.08.23.14.43.17.58l.12.45c0,.14.08.3.12.47s.1.38.17.64q.23-.78.35-1.21t.35-1.17L797,347.61h2.37l3.89,13.33c.1.34.19.63.25.87l.19.72.19.7c.06.23.14.51.21.82.08-.21.14-.37.17-.5l.12-.37c0-.12.07-.23.1-.35s.06-.28.12-.49l4.35-14.73h2.14Z"/><path class="cls-1" d="M827.27,367h-1.6q-1.19,0-1.4-.52a3.9,3.9,0,0,1-.14-1.65,9.38,9.38,0,0,1-.79.78,6.68,6.68,0,0,1-1.18.82,7.53,7.53,0,0,1-1.7.66,9.15,9.15,0,0,1-2.36.27c-.28,0-.6,0-.95,0a5.59,5.59,0,0,1-1.08-.19,4.64,4.64,0,0,1-1.12-.49,4.7,4.7,0,0,1-1.06-.87,5.07,5.07,0,0,1-1-1.75,6.22,6.22,0,0,1-.39-2.18,4.88,4.88,0,0,1,.72-2.8,6.25,6.25,0,0,1,1.41-1.55,6.65,6.65,0,0,1,2.71-1.19q1.59-.33,3.45-.56l3.41-.39v-1.83q0-.66-.08-1.44a3.49,3.49,0,0,0-.47-1.44,3.09,3.09,0,0,0-1.19-1.11,4.81,4.81,0,0,0-2.31-.45,5.56,5.56,0,0,0-2.76.56,4,4,0,0,0-1.44,1.32,3.84,3.84,0,0,0-.56,1.55,10.9,10.9,0,0,0-.1,1.26h-2.33a6.18,6.18,0,0,1,.72-3.3,6,6,0,0,1,1.9-2,7.21,7.21,0,0,1,2.47-1,11.89,11.89,0,0,1,2.37-.27,10.41,10.41,0,0,1,2.63.35,4.31,4.31,0,0,1,2.13,1.2,3.39,3.39,0,0,1,.73,1,5.74,5.74,0,0,1,.38,1.17,8.83,8.83,0,0,1,.16,1.19q0,.6,0,1.11v4.55l-.12,4.9,0,1.71a5.32,5.32,0,0,0,.19,1.42,1.17,1.17,0,0,0,.74.68Zm-3.15-10q-1,.08-2.15.23l-2.38.35q-.5.08-1.3.27a5.71,5.71,0,0,0-1.55.64,4.16,4.16,0,0,0-1.3,1.22,3.39,3.39,0,0,0-.54,2A3.59,3.59,0,0,0,816,364.5a4,4,0,0,0,2.79,1,6.43,6.43,0,0,0,1.72-.25,5.61,5.61,0,0,0,1.57-.68,4.24,4.24,0,0,0,1.1-.93,3.6,3.6,0,0,0,.6-1,4.77,4.77,0,0,0,.25-1.09,9.46,9.46,0,0,0,.06-1Z"/><path class="cls-1" d="M833.8,367H831.5V347.57h2.29v2.25a19.66,19.66,0,0,1,2-1.79,4.3,4.3,0,0,1,2.66-.78,3.54,3.54,0,0,1,1.57.27,5.58,5.58,0,0,1,.91.58v2.37a12.6,12.6,0,0,0-1.3-.77,4.34,4.34,0,0,0-2-.4,5.8,5.8,0,0,0-.91.08,3.76,3.76,0,0,0-1,.31,3.55,3.55,0,0,0-1.11.81,3,3,0,0,0-.58.95,4.37,4.37,0,0,0-.23,1,7.83,7.83,0,0,0-.06.89Z"/><path class="cls-1" d="M858,367h-2.29v-2.41a9,9,0,0,1-.68.78,6,6,0,0,1-1.17.91,7.79,7.79,0,0,1-1.77.78,8.19,8.19,0,0,1-2.45.33,7.42,7.42,0,0,1-3.5-.76,6.42,6.42,0,0,1-2.35-2.1,9.36,9.36,0,0,1-1.34-3.13,16.63,16.63,0,0,1-.43-3.89,15.94,15.94,0,0,1,.52-4.24,9.33,9.33,0,0,1,1.57-3.26,7.21,7.21,0,0,1,2.62-2.12,8.38,8.38,0,0,1,3.67-.76,7.47,7.47,0,0,1,2.21.29,6.34,6.34,0,0,1,1.54.68,4.53,4.53,0,0,1,1,.82l.56.66v-10H858Zm-2.25-13a6.08,6.08,0,0,0-.37-2.23,4.19,4.19,0,0,0-1.26-1.68,5,5,0,0,0-1.57-.86,6,6,0,0,0-2-.31,5.32,5.32,0,0,0-2.68.6,5.75,5.75,0,0,0-1.59,1.27,6.4,6.4,0,0,0-1.32,2.67,15,15,0,0,0-.39,3.57q0,1,.14,2.48a10.12,10.12,0,0,0,.68,2.83,6,6,0,0,0,1.67,2.34,4.59,4.59,0,0,0,3.11,1,6.3,6.3,0,0,0,2.51-.51,4.82,4.82,0,0,0,1.88-1.37,4.21,4.21,0,0,0,1-2.21q.15-1.23.19-2.25Z"/><path class="cls-1" d="M881,367h-2.56V341.67h-8.16v-2.06h18.81v2.06H881Z"/><path class="cls-1" d="M901.84,356.43a30.55,30.55,0,0,1-.14,3.5,10.26,10.26,0,0,1-1,3.56,7.15,7.15,0,0,1-2.41,2.78,7.58,7.58,0,0,1-4.41,1.13,8.34,8.34,0,0,1-4.24-.93,6.73,6.73,0,0,1-2.45-2.37,8.85,8.85,0,0,1-1.13-3.21,22.45,22.45,0,0,1-.27-3.4q0-.66.06-1.69a14.72,14.72,0,0,1,.29-2.16,11.31,11.31,0,0,1,.74-2.27,6.73,6.73,0,0,1,1.42-2.06,7.1,7.1,0,0,1,2.29-1.5,8.63,8.63,0,0,1,3.36-.58,7.72,7.72,0,0,1,4.35,1,7,7,0,0,1,2.33,2.53,8.52,8.52,0,0,1,1,3Q901.8,355.38,901.84,356.43Zm-2.41.27q0-1-.19-2.29a8.31,8.31,0,0,0-.7-2.51,5.31,5.31,0,0,0-1.59-2,4.64,4.64,0,0,0-2.91-.82,5.31,5.31,0,0,0-2.43.51,5.06,5.06,0,0,0-1.63,1.28,5.51,5.51,0,0,0-1,1.75,14,14,0,0,0-.5,1.88,10.33,10.33,0,0,0-.19,1.69q0,.78,0,1.2a21.68,21.68,0,0,0,.17,2.66,8.51,8.51,0,0,0,.76,2.64,5.24,5.24,0,0,0,1.73,2,5.3,5.3,0,0,0,3.13.82,4.45,4.45,0,0,0,3.07-1,5.74,5.74,0,0,0,1.59-2.37,10.57,10.57,0,0,0,.6-2.92Q899.43,357.79,899.43,356.71Z"/><path class="cls-1" d="M921.27,347.61v18.24a16.35,16.35,0,0,1-.16,2.23,10.69,10.69,0,0,1-.54,2.2,6.54,6.54,0,0,1-1.09,1.92,7.35,7.35,0,0,1-2.7,2,9,9,0,0,1-3.83.8,8.29,8.29,0,0,1-3.71-.78,5.83,5.83,0,0,1-2.31-1.87,6.72,6.72,0,0,1-.64-1.36,7,7,0,0,1-.33-2.37h2.37c0,.31.06.65.12,1a3.55,3.55,0,0,0,.35,1.09,4.11,4.11,0,0,0,1.54,1.61,5.09,5.09,0,0,0,2.82.72,6.62,6.62,0,0,0,2.1-.35,5.2,5.2,0,0,0,2.08-1.26,5.37,5.37,0,0,0,1.13-1.73,7.09,7.09,0,0,0,.47-1.9q.1-1,.14-1.79l0-1.55q-.31.31-.82.74a7.62,7.62,0,0,1-1.24.83,8.55,8.55,0,0,1-1.73.7,7.91,7.91,0,0,1-2.23.29,7.47,7.47,0,0,1-3.65-.82,7,7,0,0,1-2.41-2.16,8.87,8.87,0,0,1-1.34-3.07,15.57,15.57,0,0,1-.41-3.59,16.35,16.35,0,0,1,.41-3.58A9.47,9.47,0,0,1,907,350.6a7.22,7.22,0,0,1,2.68-2.51,8.39,8.39,0,0,1,5.77-.68A7.28,7.28,0,0,1,917,348a6.53,6.53,0,0,1,1.17.78l.93.82v-2Zm-2.18,6.89a9,9,0,0,0-.21-2,4,4,0,0,0-.87-1.69,4.86,4.86,0,0,0-1.73-1.32,5.6,5.6,0,0,0-2.43-.51,5.47,5.47,0,0,0-2.78.66,5.35,5.35,0,0,0-1.87,1.79,8.4,8.4,0,0,0-1.07,2.67,15.06,15.06,0,0,0-.35,3.33,16.07,16.07,0,0,0,.23,2.67,7.62,7.62,0,0,0,.87,2.51,5.41,5.41,0,0,0,1.77,1.87,5.29,5.29,0,0,0,3,.74,5.93,5.93,0,0,0,3.85-1.29,4.67,4.67,0,0,0,.85-.94,4.26,4.26,0,0,0,.49-1,4,4,0,0,0,.21-1l.08-1.07Z"/><path class="cls-1" d="M940.93,361.17a5.86,5.86,0,0,1-.45,2.2,5.72,5.72,0,0,1-1.38,2,7.18,7.18,0,0,1-2.35,1.46,8.87,8.87,0,0,1-3.28.56,12.83,12.83,0,0,1-1.75-.14,6.81,6.81,0,0,1-1.9-.56,6.36,6.36,0,0,1-2-1.54,7.81,7.81,0,0,1-1.34-2.16,11,11,0,0,1-.72-2.57,17.48,17.48,0,0,1-.21-2.72,19.27,19.27,0,0,1,.35-3.59,10.33,10.33,0,0,1,1.26-3.38,7.42,7.42,0,0,1,2.51-2.53,7.69,7.69,0,0,1,4.12-1,7.28,7.28,0,0,1,3.69.84,6.17,6.17,0,0,1,2.25,2.21,8.73,8.73,0,0,1,1.09,3.15,21,21,0,0,1,.23,3.63H928q0,.78.06,2.18a9,9,0,0,0,.58,2.8,6.11,6.11,0,0,0,1.67,2.43,4.75,4.75,0,0,0,3.28,1,6.34,6.34,0,0,0,1.67-.23,4.77,4.77,0,0,0,1.55-.74,4.26,4.26,0,0,0,1.19-1.34,4.55,4.55,0,0,0,.56-2Zm-2.21-5.95q0-.47-.16-1.5a6.34,6.34,0,0,0-.6-2,5.15,5.15,0,0,0-1.46-1.79,4.25,4.25,0,0,0-2.72-.78c-.18,0-.55,0-1.11.1a4.47,4.47,0,0,0-1.77.66,5.72,5.72,0,0,0-1.75,1.81,7.94,7.94,0,0,0-1,3.54Z"/><path class="cls-1" d="M947.93,349.36l-.12,11.85q0,1.67.1,2.31a2.09,2.09,0,0,0,.33,1,2,2,0,0,0,.74.62,3,3,0,0,0,1.48.31,4.32,4.32,0,0,0,1.48-.21l1.09-.41v1.87q-.54.19-1.38.43a7.66,7.66,0,0,1-2,.23,5.39,5.39,0,0,1-1.73-.23,4.15,4.15,0,0,1-1.11-.54,2.52,2.52,0,0,1-.62-.6q-.19-.29-.23-.37a2.78,2.78,0,0,1-.25-.6,4,4,0,0,1-.14-.8q0-.47-.06-1.13t0-1.55l.16-12.2h-3.11v-1.75h3.15v-4.39l2.41-.35-.08,4.74h3.81v1.75Z"/><path class="cls-1" d="M969.88,367h-2.29V355.86q0-1.17,0-2.18a8.82,8.82,0,0,0-.25-1.85,3.92,3.92,0,0,0-.7-1.46,3.52,3.52,0,0,0-1.35-1,3.77,3.77,0,0,0-1-.33,5.89,5.89,0,0,0-1.07-.1,6.79,6.79,0,0,0-2.52.49,4.78,4.78,0,0,0-2,1.38,3.55,3.55,0,0,0-.8,1.6,12.59,12.59,0,0,0-.18,1.52V367h-2.29V339.57h2.29v10.22q.27-.27.8-.72a7.09,7.09,0,0,1,1.3-.85,10.3,10.3,0,0,1,1.81-.72,8.3,8.3,0,0,1,2.39-.31,7.37,7.37,0,0,1,2.6.47,4.62,4.62,0,0,1,2.06,1.52,4.54,4.54,0,0,1,1,2.33q.14,1.24.17,2.37Z"/><path class="cls-1" d="M989.51,361.17a5.86,5.86,0,0,1-.45,2.2,5.72,5.72,0,0,1-1.38,2,7.18,7.18,0,0,1-2.35,1.46,8.87,8.87,0,0,1-3.28.56,12.83,12.83,0,0,1-1.75-.14,6.81,6.81,0,0,1-1.9-.56,6.36,6.36,0,0,1-2-1.54A7.81,7.81,0,0,1,975,363a11,11,0,0,1-.72-2.57,17.48,17.48,0,0,1-.21-2.72,19.27,19.27,0,0,1,.35-3.59,10.33,10.33,0,0,1,1.26-3.38,7.42,7.42,0,0,1,2.51-2.53,7.69,7.69,0,0,1,4.12-1,7.28,7.28,0,0,1,3.69.84,6.17,6.17,0,0,1,2.25,2.21,8.73,8.73,0,0,1,1.09,3.15,21,21,0,0,1,.23,3.63h-13q0,.78.06,2.18a9,9,0,0,0,.58,2.8,6.11,6.11,0,0,0,1.67,2.43,4.75,4.75,0,0,0,3.28,1,6.34,6.34,0,0,0,1.67-.23,4.77,4.77,0,0,0,1.55-.74,4.26,4.26,0,0,0,1.19-1.34,4.55,4.55,0,0,0,.56-2Zm-2.21-5.95q0-.47-.16-1.5a6.34,6.34,0,0,0-.6-2,5.15,5.15,0,0,0-1.46-1.79,4.25,4.25,0,0,0-2.72-.78c-.18,0-.55,0-1.11.1a4.47,4.47,0,0,0-1.77.66,5.72,5.72,0,0,0-1.75,1.81,7.94,7.94,0,0,0-1,3.54Z"/><path class="cls-1" d="M995.8,367h-2.29V347.57h2.29v2.25a19.66,19.66,0,0,1,2-1.79,4.3,4.3,0,0,1,2.66-.78,3.54,3.54,0,0,1,1.57.27,5.58,5.58,0,0,1,.91.58v2.37a12.6,12.6,0,0,0-1.3-.77,4.34,4.34,0,0,0-2-.4,5.8,5.8,0,0,0-.91.08,3.76,3.76,0,0,0-1,.31,3.55,3.55,0,0,0-1.11.81,3,3,0,0,0-.58.95,4.37,4.37,0,0,0-.23,1,7.83,7.83,0,0,0-.06.89Z"/><rect class="cls-1" x="561.49" y="96.42" width="86.16" height="86.16" transform="translate(275.71 -386.64) rotate(45)"/><path class="cls-2" d="M607,157.78H593.19v14H584V124.3c7.68,0,15.36-.07,23-.07C630.89,124.23,631,157.78,607,157.78Zm-13.83-8.2H607c11.8,0,11.73-16.81,0-16.81H593.19Z"/><rect class="cls-1" x="496.92" y="164.18" width="86.16" height="86.16" transform="translate(304.72 -321.13) rotate(45)"/><rect class="cls-1" x="428.35" y="95.61" width="86.16" height="86.16" transform="translate(236.14 -292.73) rotate(45)"/><path class="cls-2" d="M534.89,196.25h-15.5v-8.13h40.22v8.13H544.1v39.31h-9.22Z"/><path class="cls-2" d="M491,170.88h-7.82L477.1,156l-5.17-15-5.1,15.11-5.93,14.78h-7.82l-17.95-47.45h10.33L457,157.66l11.87-34.23h6l12.22,34.23,11.17-34.23h10.33Z"/><rect class="cls-1" x="494.97" y="28.98" width="86.16" height="86.16" transform="translate(208.55 -359.36) rotate(45)"/><path class="cls-2" d="M561.3,86a26.19,26.19,0,0,1-18.57,7c-18.15,0-25.83-12.13-25.9-24.47s8.24-25,25.9-25a25.61,25.61,0,0,1,17.95,7.25l-6.14,5.76a17.07,17.07,0,0,0-11.8-4.47c-11.8,0-16.9,8.54-16.83,16.47s4.75,16.06,16.83,16.06A18.29,18.29,0,0,0,555,79.87Z"/></svg>